%TF.GenerationSoftware,KiCad,Pcbnew,9.0.2+dfsg-1*%
%TF.CreationDate,2026-06-16T21:06:13+01:00*%
%TF.ProjectId,CardTester,43617264-5465-4737-9465-722e6b696361,rev?*%
%TF.SameCoordinates,Original*%
%TF.FileFunction,Paste,Top*%
%TF.FilePolarity,Positive*%
%FSLAX46Y46*%
G04 Gerber Fmt 4.6, Leading zero omitted, Abs format (unit mm)*
G04 Created by KiCad (PCBNEW 9.0.2+dfsg-1) date 2026-06-16 21:06:13*
%MOMM*%
%LPD*%
G01*
G04 APERTURE LIST*
G04 Aperture macros list*
%AMRoundRect*
0 Rectangle with rounded corners*
0 $1 Rounding radius*
0 $2 $3 $4 $5 $6 $7 $8 $9 X,Y pos of 4 corners*
0 Add a 4 corners polygon primitive as box body*
4,1,4,$2,$3,$4,$5,$6,$7,$8,$9,$2,$3,0*
0 Add four circle primitives for the rounded corners*
1,1,$1+$1,$2,$3*
1,1,$1+$1,$4,$5*
1,1,$1+$1,$6,$7*
1,1,$1+$1,$8,$9*
0 Add four rect primitives between the rounded corners*
20,1,$1+$1,$2,$3,$4,$5,0*
20,1,$1+$1,$4,$5,$6,$7,0*
20,1,$1+$1,$6,$7,$8,$9,0*
20,1,$1+$1,$8,$9,$2,$3,0*%
G04 Aperture macros list end*
%ADD10RoundRect,0.250000X-0.337500X-0.475000X0.337500X-0.475000X0.337500X0.475000X-0.337500X0.475000X0*%
%ADD11RoundRect,0.250000X0.475000X-0.337500X0.475000X0.337500X-0.475000X0.337500X-0.475000X-0.337500X0*%
%ADD12RoundRect,0.100000X0.100000X-0.637500X0.100000X0.637500X-0.100000X0.637500X-0.100000X-0.637500X0*%
%ADD13RoundRect,0.250000X-0.475000X0.337500X-0.475000X-0.337500X0.475000X-0.337500X0.475000X0.337500X0*%
%ADD14RoundRect,0.250000X0.337500X0.475000X-0.337500X0.475000X-0.337500X-0.475000X0.337500X-0.475000X0*%
%ADD15RoundRect,0.100000X-0.100000X0.637500X-0.100000X-0.637500X0.100000X-0.637500X0.100000X0.637500X0*%
%ADD16RoundRect,0.250000X0.574524X0.097227X0.097227X0.574524X-0.574524X-0.097227X-0.097227X-0.574524X0*%
%ADD17RoundRect,0.100000X0.637500X0.100000X-0.637500X0.100000X-0.637500X-0.100000X0.637500X-0.100000X0*%
%ADD18RoundRect,0.250000X0.450000X-0.325000X0.450000X0.325000X-0.450000X0.325000X-0.450000X-0.325000X0*%
G04 APERTURE END LIST*
D10*
%TO.C,C45*%
X105962500Y-76500000D03*
X108037500Y-76500000D03*
%TD*%
D11*
%TO.C,C68*%
X91250000Y-87787500D03*
X91250000Y-85712500D03*
%TD*%
D10*
%TO.C,C64*%
X230962500Y-76750000D03*
X233037500Y-76750000D03*
%TD*%
D11*
%TO.C,C25*%
X236750000Y-81287500D03*
X236750000Y-79212500D03*
%TD*%
%TO.C,C12*%
X100000000Y-104825000D03*
X100000000Y-102750000D03*
%TD*%
D12*
%TO.C,U24*%
X196000000Y-123725000D03*
X196650000Y-123725000D03*
X197300000Y-123725000D03*
X197950000Y-123725000D03*
X198600000Y-123725000D03*
X199250000Y-123725000D03*
X199900000Y-123725000D03*
X200550000Y-123725000D03*
X201200000Y-123725000D03*
X201850000Y-123725000D03*
X201850000Y-118000000D03*
X201200000Y-118000000D03*
X200550000Y-118000000D03*
X199900000Y-118000000D03*
X199250000Y-118000000D03*
X198600000Y-118000000D03*
X197950000Y-118000000D03*
X197300000Y-118000000D03*
X196650000Y-118000000D03*
X196000000Y-118000000D03*
%TD*%
%TO.C,U52*%
X218000000Y-88000000D03*
X218650000Y-88000000D03*
X219300000Y-88000000D03*
X219950000Y-88000000D03*
X220600000Y-88000000D03*
X221250000Y-88000000D03*
X221900000Y-88000000D03*
X222550000Y-88000000D03*
X223200000Y-88000000D03*
X223850000Y-88000000D03*
X223850000Y-82275000D03*
X223200000Y-82275000D03*
X222550000Y-82275000D03*
X221900000Y-82275000D03*
X221250000Y-82275000D03*
X220600000Y-82275000D03*
X219950000Y-82275000D03*
X219300000Y-82275000D03*
X218650000Y-82275000D03*
X218000000Y-82275000D03*
%TD*%
D10*
%TO.C,C42*%
X127962500Y-76500000D03*
X130037500Y-76500000D03*
%TD*%
D11*
%TO.C,C87*%
X90000000Y-114575000D03*
X90000000Y-112500000D03*
%TD*%
D13*
%TO.C,C53*%
X91500000Y-76712500D03*
X91500000Y-78787500D03*
%TD*%
D10*
%TO.C,C93*%
X132712500Y-110500000D03*
X134787500Y-110500000D03*
%TD*%
D11*
%TO.C,C71*%
X102250000Y-89037500D03*
X102250000Y-86962500D03*
%TD*%
D13*
%TO.C,C48*%
X157000000Y-76925000D03*
X157000000Y-79000000D03*
%TD*%
D12*
%TO.C,U51*%
X207000000Y-88000000D03*
X207650000Y-88000000D03*
X208300000Y-88000000D03*
X208950000Y-88000000D03*
X209600000Y-88000000D03*
X210250000Y-88000000D03*
X210900000Y-88000000D03*
X211550000Y-88000000D03*
X212200000Y-88000000D03*
X212850000Y-88000000D03*
X212850000Y-82275000D03*
X212200000Y-82275000D03*
X211550000Y-82275000D03*
X210900000Y-82275000D03*
X210250000Y-82275000D03*
X209600000Y-82275000D03*
X208950000Y-82275000D03*
X208300000Y-82275000D03*
X207650000Y-82275000D03*
X207000000Y-82275000D03*
%TD*%
D14*
%TO.C,C83*%
X124537500Y-86500000D03*
X122462500Y-86500000D03*
%TD*%
D10*
%TO.C,C70*%
X209212500Y-76500000D03*
X211287500Y-76500000D03*
%TD*%
D14*
%TO.C,C14*%
X122575000Y-103000000D03*
X120500000Y-103000000D03*
%TD*%
D12*
%TO.C,U6*%
X125000000Y-123725000D03*
X125650000Y-123725000D03*
X126300000Y-123725000D03*
X126950000Y-123725000D03*
X127600000Y-123725000D03*
X128250000Y-123725000D03*
X128900000Y-123725000D03*
X129550000Y-123725000D03*
X130200000Y-123725000D03*
X130850000Y-123725000D03*
X130850000Y-118000000D03*
X130200000Y-118000000D03*
X129550000Y-118000000D03*
X128900000Y-118000000D03*
X128250000Y-118000000D03*
X127600000Y-118000000D03*
X126950000Y-118000000D03*
X126300000Y-118000000D03*
X125650000Y-118000000D03*
X125000000Y-118000000D03*
%TD*%
D15*
%TO.C,U35*%
X176950000Y-104887500D03*
X176300000Y-104887500D03*
X175650000Y-104887500D03*
X175000000Y-104887500D03*
X174350000Y-104887500D03*
X173700000Y-104887500D03*
X173050000Y-104887500D03*
X173050000Y-110612500D03*
X173700000Y-110612500D03*
X174350000Y-110612500D03*
X175000000Y-110612500D03*
X175650000Y-110612500D03*
X176300000Y-110612500D03*
X176950000Y-110612500D03*
%TD*%
D13*
%TO.C,C54*%
X80500000Y-76212500D03*
X80500000Y-78287500D03*
%TD*%
D10*
%TO.C,C30*%
X141462500Y-109750000D03*
X143537500Y-109750000D03*
%TD*%
D11*
%TO.C,C44*%
X204750000Y-125037500D03*
X204750000Y-122962500D03*
%TD*%
D12*
%TO.C,U26*%
X218000000Y-123725000D03*
X218650000Y-123725000D03*
X219300000Y-123725000D03*
X219950000Y-123725000D03*
X220600000Y-123725000D03*
X221250000Y-123725000D03*
X221900000Y-123725000D03*
X222550000Y-123725000D03*
X223200000Y-123725000D03*
X223850000Y-123725000D03*
X223850000Y-118000000D03*
X223200000Y-118000000D03*
X222550000Y-118000000D03*
X221900000Y-118000000D03*
X221250000Y-118000000D03*
X220600000Y-118000000D03*
X219950000Y-118000000D03*
X219300000Y-118000000D03*
X218650000Y-118000000D03*
X218000000Y-118000000D03*
%TD*%
D11*
%TO.C,C16*%
X226500000Y-82000000D03*
X226500000Y-79925000D03*
%TD*%
D14*
%TO.C,C86*%
X135537500Y-87250000D03*
X133462500Y-87250000D03*
%TD*%
D10*
%TO.C,C94*%
X164962500Y-110000000D03*
X167037500Y-110000000D03*
%TD*%
D12*
%TO.C,U41*%
X82000000Y-88000000D03*
X82650000Y-88000000D03*
X83300000Y-88000000D03*
X83950000Y-88000000D03*
X84600000Y-88000000D03*
X85250000Y-88000000D03*
X85900000Y-88000000D03*
X86550000Y-88000000D03*
X87200000Y-88000000D03*
X87850000Y-88000000D03*
X87850000Y-82275000D03*
X87200000Y-82275000D03*
X86550000Y-82275000D03*
X85900000Y-82275000D03*
X85250000Y-82275000D03*
X84600000Y-82275000D03*
X83950000Y-82275000D03*
X83300000Y-82275000D03*
X82650000Y-82275000D03*
X82000000Y-82275000D03*
%TD*%
D16*
%TO.C,C1*%
X171483623Y-84233623D03*
X170016377Y-82766377D03*
%TD*%
D12*
%TO.C,U4*%
X103000000Y-123725000D03*
X103650000Y-123725000D03*
X104300000Y-123725000D03*
X104950000Y-123725000D03*
X105600000Y-123725000D03*
X106250000Y-123725000D03*
X106900000Y-123725000D03*
X107550000Y-123725000D03*
X108200000Y-123725000D03*
X108850000Y-123725000D03*
X108850000Y-118000000D03*
X108200000Y-118000000D03*
X107550000Y-118000000D03*
X106900000Y-118000000D03*
X106250000Y-118000000D03*
X105600000Y-118000000D03*
X104950000Y-118000000D03*
X104300000Y-118000000D03*
X103650000Y-118000000D03*
X103000000Y-118000000D03*
%TD*%
D10*
%TO.C,C80*%
X242212500Y-76750000D03*
X244287500Y-76750000D03*
%TD*%
D11*
%TO.C,C43*%
X248500000Y-104787500D03*
X248500000Y-102712500D03*
%TD*%
D12*
%TO.C,U50*%
X196000000Y-88000000D03*
X196650000Y-88000000D03*
X197300000Y-88000000D03*
X197950000Y-88000000D03*
X198600000Y-88000000D03*
X199250000Y-88000000D03*
X199900000Y-88000000D03*
X200550000Y-88000000D03*
X201200000Y-88000000D03*
X201850000Y-88000000D03*
X201850000Y-82275000D03*
X201200000Y-82275000D03*
X200550000Y-82275000D03*
X199900000Y-82275000D03*
X199250000Y-82275000D03*
X198600000Y-82275000D03*
X197950000Y-82275000D03*
X197300000Y-82275000D03*
X196650000Y-82275000D03*
X196000000Y-82275000D03*
%TD*%
D13*
%TO.C,C51*%
X135250000Y-76962500D03*
X135250000Y-79037500D03*
%TD*%
D12*
%TO.C,U5*%
X114000000Y-123725000D03*
X114650000Y-123725000D03*
X115300000Y-123725000D03*
X115950000Y-123725000D03*
X116600000Y-123725000D03*
X117250000Y-123725000D03*
X117900000Y-123725000D03*
X118550000Y-123725000D03*
X119200000Y-123725000D03*
X119850000Y-123725000D03*
X119850000Y-118000000D03*
X119200000Y-118000000D03*
X118550000Y-118000000D03*
X117900000Y-118000000D03*
X117250000Y-118000000D03*
X116600000Y-118000000D03*
X115950000Y-118000000D03*
X115300000Y-118000000D03*
X114650000Y-118000000D03*
X114000000Y-118000000D03*
%TD*%
D17*
%TO.C,U34*%
X177862500Y-81700000D03*
X177862500Y-81050000D03*
X177862500Y-80400000D03*
X177862500Y-79750000D03*
X177862500Y-79100000D03*
X177862500Y-78450000D03*
X177862500Y-77800000D03*
X172137500Y-77800000D03*
X172137500Y-78450000D03*
X172137500Y-79100000D03*
X172137500Y-79750000D03*
X172137500Y-80400000D03*
X172137500Y-81050000D03*
X172137500Y-81700000D03*
%TD*%
D11*
%TO.C,C34*%
X259000000Y-81287500D03*
X259000000Y-79212500D03*
%TD*%
D12*
%TO.C,U27*%
X229000000Y-123725000D03*
X229650000Y-123725000D03*
X230300000Y-123725000D03*
X230950000Y-123725000D03*
X231600000Y-123725000D03*
X232250000Y-123725000D03*
X232900000Y-123725000D03*
X233550000Y-123725000D03*
X234200000Y-123725000D03*
X234850000Y-123725000D03*
X234850000Y-118000000D03*
X234200000Y-118000000D03*
X233550000Y-118000000D03*
X232900000Y-118000000D03*
X232250000Y-118000000D03*
X231600000Y-118000000D03*
X230950000Y-118000000D03*
X230300000Y-118000000D03*
X229650000Y-118000000D03*
X229000000Y-118000000D03*
%TD*%
D10*
%TO.C,C97*%
X44212500Y-110750000D03*
X46287500Y-110750000D03*
%TD*%
D12*
%TO.C,U53*%
X229000000Y-88000000D03*
X229650000Y-88000000D03*
X230300000Y-88000000D03*
X230950000Y-88000000D03*
X231600000Y-88000000D03*
X232250000Y-88000000D03*
X232900000Y-88000000D03*
X233550000Y-88000000D03*
X234200000Y-88000000D03*
X234850000Y-88000000D03*
X234850000Y-82275000D03*
X234200000Y-82275000D03*
X233550000Y-82275000D03*
X232900000Y-82275000D03*
X232250000Y-82275000D03*
X231600000Y-82275000D03*
X230950000Y-82275000D03*
X230300000Y-82275000D03*
X229650000Y-82275000D03*
X229000000Y-82275000D03*
%TD*%
D11*
%TO.C,C47*%
X193775543Y-125494990D03*
X193775543Y-123419990D03*
%TD*%
D17*
%TO.C,U38*%
X177862500Y-90900000D03*
X177862500Y-90250000D03*
X177862500Y-89600000D03*
X177862500Y-88950000D03*
X177862500Y-88300000D03*
X177862500Y-87650000D03*
X177862500Y-87000000D03*
X172137500Y-87000000D03*
X172137500Y-87650000D03*
X172137500Y-88300000D03*
X172137500Y-88950000D03*
X172137500Y-89600000D03*
X172137500Y-90250000D03*
X172137500Y-90900000D03*
%TD*%
D12*
%TO.C,U48*%
X159000000Y-88000000D03*
X159650000Y-88000000D03*
X160300000Y-88000000D03*
X160950000Y-88000000D03*
X161600000Y-88000000D03*
X162250000Y-88000000D03*
X162900000Y-88000000D03*
X163550000Y-88000000D03*
X164200000Y-88000000D03*
X164850000Y-88000000D03*
X164850000Y-82275000D03*
X164200000Y-82275000D03*
X163550000Y-82275000D03*
X162900000Y-82275000D03*
X162250000Y-82275000D03*
X161600000Y-82275000D03*
X160950000Y-82275000D03*
X160300000Y-82275000D03*
X159650000Y-82275000D03*
X159000000Y-82275000D03*
%TD*%
D18*
%TO.C,D1*%
X45000000Y-116050000D03*
X45000000Y-114000000D03*
%TD*%
D12*
%TO.C,U46*%
X137000000Y-88000000D03*
X137650000Y-88000000D03*
X138300000Y-88000000D03*
X138950000Y-88000000D03*
X139600000Y-88000000D03*
X140250000Y-88000000D03*
X140900000Y-88000000D03*
X141550000Y-88000000D03*
X142200000Y-88000000D03*
X142850000Y-88000000D03*
X142850000Y-82275000D03*
X142200000Y-82275000D03*
X141550000Y-82275000D03*
X140900000Y-82275000D03*
X140250000Y-82275000D03*
X139600000Y-82275000D03*
X138950000Y-82275000D03*
X138300000Y-82275000D03*
X137650000Y-82275000D03*
X137000000Y-82275000D03*
%TD*%
D11*
%TO.C,C56*%
X204750000Y-104825000D03*
X204750000Y-102750000D03*
%TD*%
D10*
%TO.C,C39*%
X150212500Y-77000000D03*
X152287500Y-77000000D03*
%TD*%
D11*
%TO.C,C22*%
X248250000Y-81287500D03*
X248250000Y-79212500D03*
%TD*%
D12*
%TO.C,U49*%
X185000000Y-88000000D03*
X185650000Y-88000000D03*
X186300000Y-88000000D03*
X186950000Y-88000000D03*
X187600000Y-88000000D03*
X188250000Y-88000000D03*
X188900000Y-88000000D03*
X189550000Y-88000000D03*
X190200000Y-88000000D03*
X190850000Y-88000000D03*
X190850000Y-82275000D03*
X190200000Y-82275000D03*
X189550000Y-82275000D03*
X188900000Y-82275000D03*
X188250000Y-82275000D03*
X187600000Y-82275000D03*
X186950000Y-82275000D03*
X186300000Y-82275000D03*
X185650000Y-82275000D03*
X185000000Y-82275000D03*
%TD*%
%TO.C,U90*%
X229000000Y-110725000D03*
X229650000Y-110725000D03*
X230300000Y-110725000D03*
X230950000Y-110725000D03*
X231600000Y-110725000D03*
X232250000Y-110725000D03*
X232900000Y-110725000D03*
X233550000Y-110725000D03*
X234200000Y-110725000D03*
X234850000Y-110725000D03*
X234850000Y-105000000D03*
X234200000Y-105000000D03*
X233550000Y-105000000D03*
X232900000Y-105000000D03*
X232250000Y-105000000D03*
X231600000Y-105000000D03*
X230950000Y-105000000D03*
X230300000Y-105000000D03*
X229650000Y-105000000D03*
X229000000Y-105000000D03*
%TD*%
D11*
%TO.C,C55*%
X215500000Y-105000000D03*
X215500000Y-102925000D03*
%TD*%
%TO.C,C49*%
X226500000Y-104750000D03*
X226500000Y-102675000D03*
%TD*%
%TO.C,C58*%
X193500000Y-104787500D03*
X193500000Y-102712500D03*
%TD*%
D12*
%TO.C,U96*%
X114000000Y-110725000D03*
X114650000Y-110725000D03*
X115300000Y-110725000D03*
X115950000Y-110725000D03*
X116600000Y-110725000D03*
X117250000Y-110725000D03*
X117900000Y-110725000D03*
X118550000Y-110725000D03*
X119200000Y-110725000D03*
X119850000Y-110725000D03*
X119850000Y-105000000D03*
X119200000Y-105000000D03*
X118550000Y-105000000D03*
X117900000Y-105000000D03*
X117250000Y-105000000D03*
X116600000Y-105000000D03*
X115950000Y-105000000D03*
X115300000Y-105000000D03*
X114650000Y-105000000D03*
X114000000Y-105000000D03*
%TD*%
%TO.C,U92*%
X251000000Y-110725000D03*
X251650000Y-110725000D03*
X252300000Y-110725000D03*
X252950000Y-110725000D03*
X253600000Y-110725000D03*
X254250000Y-110725000D03*
X254900000Y-110725000D03*
X255550000Y-110725000D03*
X256200000Y-110725000D03*
X256850000Y-110725000D03*
X256850000Y-105000000D03*
X256200000Y-105000000D03*
X255550000Y-105000000D03*
X254900000Y-105000000D03*
X254250000Y-105000000D03*
X253600000Y-105000000D03*
X252950000Y-105000000D03*
X252300000Y-105000000D03*
X251650000Y-105000000D03*
X251000000Y-105000000D03*
%TD*%
D11*
%TO.C,C40*%
X259750000Y-104787500D03*
X259750000Y-102712500D03*
%TD*%
D14*
%TO.C,C90*%
X124075000Y-115250000D03*
X122000000Y-115250000D03*
%TD*%
D11*
%TO.C,C31*%
X204250000Y-82037500D03*
X204250000Y-79962500D03*
%TD*%
D14*
%TO.C,C89*%
X112787500Y-115000000D03*
X110712500Y-115000000D03*
%TD*%
D13*
%TO.C,C6*%
X172500000Y-93712500D03*
X172500000Y-95787500D03*
%TD*%
D14*
%TO.C,C60*%
X250537500Y-113500000D03*
X248462500Y-113500000D03*
%TD*%
D13*
%TO.C,C59*%
X260250000Y-118962500D03*
X260250000Y-121037500D03*
%TD*%
D12*
%TO.C,U94*%
X92000000Y-110725000D03*
X92650000Y-110725000D03*
X93300000Y-110725000D03*
X93950000Y-110725000D03*
X94600000Y-110725000D03*
X95250000Y-110725000D03*
X95900000Y-110725000D03*
X96550000Y-110725000D03*
X97200000Y-110725000D03*
X97850000Y-110725000D03*
X97850000Y-105000000D03*
X97200000Y-105000000D03*
X96550000Y-105000000D03*
X95900000Y-105000000D03*
X95250000Y-105000000D03*
X94600000Y-105000000D03*
X93950000Y-105000000D03*
X93300000Y-105000000D03*
X92650000Y-105000000D03*
X92000000Y-105000000D03*
%TD*%
%TO.C,U45*%
X126000000Y-88000000D03*
X126650000Y-88000000D03*
X127300000Y-88000000D03*
X127950000Y-88000000D03*
X128600000Y-88000000D03*
X129250000Y-88000000D03*
X129900000Y-88000000D03*
X130550000Y-88000000D03*
X131200000Y-88000000D03*
X131850000Y-88000000D03*
X131850000Y-82275000D03*
X131200000Y-82275000D03*
X130550000Y-82275000D03*
X129900000Y-82275000D03*
X129250000Y-82275000D03*
X128600000Y-82275000D03*
X127950000Y-82275000D03*
X127300000Y-82275000D03*
X126650000Y-82275000D03*
X126000000Y-82275000D03*
%TD*%
D14*
%TO.C,C74*%
X113537500Y-86500000D03*
X111462500Y-86500000D03*
%TD*%
D12*
%TO.C,U95*%
X103000000Y-110725000D03*
X103650000Y-110725000D03*
X104300000Y-110725000D03*
X104950000Y-110725000D03*
X105600000Y-110725000D03*
X106250000Y-110725000D03*
X106900000Y-110725000D03*
X107550000Y-110725000D03*
X108200000Y-110725000D03*
X108850000Y-110725000D03*
X108850000Y-105000000D03*
X108200000Y-105000000D03*
X107550000Y-105000000D03*
X106900000Y-105000000D03*
X106250000Y-105000000D03*
X105600000Y-105000000D03*
X104950000Y-105000000D03*
X104300000Y-105000000D03*
X103650000Y-105000000D03*
X103000000Y-105000000D03*
%TD*%
%TO.C,U28*%
X240000000Y-123725000D03*
X240650000Y-123725000D03*
X241300000Y-123725000D03*
X241950000Y-123725000D03*
X242600000Y-123725000D03*
X243250000Y-123725000D03*
X243900000Y-123725000D03*
X244550000Y-123725000D03*
X245200000Y-123725000D03*
X245850000Y-123725000D03*
X245850000Y-118000000D03*
X245200000Y-118000000D03*
X244550000Y-118000000D03*
X243900000Y-118000000D03*
X243250000Y-118000000D03*
X242600000Y-118000000D03*
X241950000Y-118000000D03*
X241300000Y-118000000D03*
X240650000Y-118000000D03*
X240000000Y-118000000D03*
%TD*%
%TO.C,U89*%
X218000000Y-110725000D03*
X218650000Y-110725000D03*
X219300000Y-110725000D03*
X219950000Y-110725000D03*
X220600000Y-110725000D03*
X221250000Y-110725000D03*
X221900000Y-110725000D03*
X222550000Y-110725000D03*
X223200000Y-110725000D03*
X223850000Y-110725000D03*
X223850000Y-105000000D03*
X223200000Y-105000000D03*
X222550000Y-105000000D03*
X221900000Y-105000000D03*
X221250000Y-105000000D03*
X220600000Y-105000000D03*
X219950000Y-105000000D03*
X219300000Y-105000000D03*
X218650000Y-105000000D03*
X218000000Y-105000000D03*
%TD*%
%TO.C,U87*%
X196000000Y-110725000D03*
X196650000Y-110725000D03*
X197300000Y-110725000D03*
X197950000Y-110725000D03*
X198600000Y-110725000D03*
X199250000Y-110725000D03*
X199900000Y-110725000D03*
X200550000Y-110725000D03*
X201200000Y-110725000D03*
X201850000Y-110725000D03*
X201850000Y-105000000D03*
X201200000Y-105000000D03*
X200550000Y-105000000D03*
X199900000Y-105000000D03*
X199250000Y-105000000D03*
X198600000Y-105000000D03*
X197950000Y-105000000D03*
X197300000Y-105000000D03*
X196650000Y-105000000D03*
X196000000Y-105000000D03*
%TD*%
D13*
%TO.C,C52*%
X113500000Y-76925000D03*
X113500000Y-79000000D03*
%TD*%
D10*
%TO.C,C67*%
X220175000Y-77000000D03*
X222250000Y-77000000D03*
%TD*%
D11*
%TO.C,C33*%
X182750000Y-83037500D03*
X182750000Y-80962500D03*
%TD*%
D12*
%TO.C,U42*%
X93000000Y-88000000D03*
X93650000Y-88000000D03*
X94300000Y-88000000D03*
X94950000Y-88000000D03*
X95600000Y-88000000D03*
X96250000Y-88000000D03*
X96900000Y-88000000D03*
X97550000Y-88000000D03*
X98200000Y-88000000D03*
X98850000Y-88000000D03*
X98850000Y-82275000D03*
X98200000Y-82275000D03*
X97550000Y-82275000D03*
X96900000Y-82275000D03*
X96250000Y-82275000D03*
X95600000Y-82275000D03*
X94950000Y-82275000D03*
X94300000Y-82275000D03*
X93650000Y-82275000D03*
X93000000Y-82275000D03*
%TD*%
%TO.C,U44*%
X115000000Y-88000000D03*
X115650000Y-88000000D03*
X116300000Y-88000000D03*
X116950000Y-88000000D03*
X117600000Y-88000000D03*
X118250000Y-88000000D03*
X118900000Y-88000000D03*
X119550000Y-88000000D03*
X120200000Y-88000000D03*
X120850000Y-88000000D03*
X120850000Y-82275000D03*
X120200000Y-82275000D03*
X119550000Y-82275000D03*
X118900000Y-82275000D03*
X118250000Y-82275000D03*
X117600000Y-82275000D03*
X116950000Y-82275000D03*
X116300000Y-82275000D03*
X115650000Y-82275000D03*
X115000000Y-82275000D03*
%TD*%
D11*
%TO.C,C50*%
X183000000Y-125537500D03*
X183000000Y-123462500D03*
%TD*%
D12*
%TO.C,U97*%
X125000000Y-110725000D03*
X125650000Y-110725000D03*
X126300000Y-110725000D03*
X126950000Y-110725000D03*
X127600000Y-110725000D03*
X128250000Y-110725000D03*
X128900000Y-110725000D03*
X129550000Y-110725000D03*
X130200000Y-110725000D03*
X130850000Y-110725000D03*
X130850000Y-105000000D03*
X130200000Y-105000000D03*
X129550000Y-105000000D03*
X128900000Y-105000000D03*
X128250000Y-105000000D03*
X127600000Y-105000000D03*
X126950000Y-105000000D03*
X126300000Y-105000000D03*
X125650000Y-105000000D03*
X125000000Y-105000000D03*
%TD*%
D14*
%TO.C,C11*%
X89037500Y-104500000D03*
X86962500Y-104500000D03*
%TD*%
%TO.C,C84*%
X157500000Y-87500000D03*
X155425000Y-87500000D03*
%TD*%
%TO.C,C85*%
X146537500Y-87250000D03*
X144462500Y-87250000D03*
%TD*%
D12*
%TO.C,U47*%
X148000000Y-88000000D03*
X148650000Y-88000000D03*
X149300000Y-88000000D03*
X149950000Y-88000000D03*
X150600000Y-88000000D03*
X151250000Y-88000000D03*
X151900000Y-88000000D03*
X152550000Y-88000000D03*
X153200000Y-88000000D03*
X153850000Y-88000000D03*
X153850000Y-82275000D03*
X153200000Y-82275000D03*
X152550000Y-82275000D03*
X151900000Y-82275000D03*
X151250000Y-82275000D03*
X150600000Y-82275000D03*
X149950000Y-82275000D03*
X149300000Y-82275000D03*
X148650000Y-82275000D03*
X148000000Y-82275000D03*
%TD*%
D11*
%TO.C,C88*%
X101000000Y-115037500D03*
X101000000Y-112962500D03*
%TD*%
D12*
%TO.C,U25*%
X207000000Y-123725000D03*
X207650000Y-123725000D03*
X208300000Y-123725000D03*
X208950000Y-123725000D03*
X209600000Y-123725000D03*
X210250000Y-123725000D03*
X210900000Y-123725000D03*
X211550000Y-123725000D03*
X212200000Y-123725000D03*
X212850000Y-123725000D03*
X212850000Y-118000000D03*
X212200000Y-118000000D03*
X211550000Y-118000000D03*
X210900000Y-118000000D03*
X210250000Y-118000000D03*
X209600000Y-118000000D03*
X208950000Y-118000000D03*
X208300000Y-118000000D03*
X207650000Y-118000000D03*
X207000000Y-118000000D03*
%TD*%
D10*
%TO.C,C79*%
X187212500Y-76500000D03*
X189287500Y-76500000D03*
%TD*%
D11*
%TO.C,C65*%
X80250000Y-87250000D03*
X80250000Y-85175000D03*
%TD*%
D12*
%TO.C,U54*%
X240000000Y-88000000D03*
X240650000Y-88000000D03*
X241300000Y-88000000D03*
X241950000Y-88000000D03*
X242600000Y-88000000D03*
X243250000Y-88000000D03*
X243900000Y-88000000D03*
X244550000Y-88000000D03*
X245200000Y-88000000D03*
X245850000Y-88000000D03*
X245850000Y-82275000D03*
X245200000Y-82275000D03*
X244550000Y-82275000D03*
X243900000Y-82275000D03*
X243250000Y-82275000D03*
X242600000Y-82275000D03*
X241950000Y-82275000D03*
X241300000Y-82275000D03*
X240650000Y-82275000D03*
X240000000Y-82275000D03*
%TD*%
%TO.C,U86*%
X185000000Y-110725000D03*
X185650000Y-110725000D03*
X186300000Y-110725000D03*
X186950000Y-110725000D03*
X187600000Y-110725000D03*
X188250000Y-110725000D03*
X188900000Y-110725000D03*
X189550000Y-110725000D03*
X190200000Y-110725000D03*
X190850000Y-110725000D03*
X190850000Y-105000000D03*
X190200000Y-105000000D03*
X189550000Y-105000000D03*
X188900000Y-105000000D03*
X188250000Y-105000000D03*
X187600000Y-105000000D03*
X186950000Y-105000000D03*
X186300000Y-105000000D03*
X185650000Y-105000000D03*
X185000000Y-105000000D03*
%TD*%
D13*
%TO.C,C91*%
X178500000Y-94962500D03*
X178500000Y-97037500D03*
%TD*%
D11*
%TO.C,C32*%
X193250000Y-81537500D03*
X193250000Y-79462500D03*
%TD*%
D12*
%TO.C,U55*%
X251000000Y-88000000D03*
X251650000Y-88000000D03*
X252300000Y-88000000D03*
X252950000Y-88000000D03*
X253600000Y-88000000D03*
X254250000Y-88000000D03*
X254900000Y-88000000D03*
X255550000Y-88000000D03*
X256200000Y-88000000D03*
X256850000Y-88000000D03*
X256850000Y-82275000D03*
X256200000Y-82275000D03*
X255550000Y-82275000D03*
X254900000Y-82275000D03*
X254250000Y-82275000D03*
X253600000Y-82275000D03*
X252950000Y-82275000D03*
X252300000Y-82275000D03*
X251650000Y-82275000D03*
X251000000Y-82275000D03*
%TD*%
%TO.C,U93*%
X262000000Y-110725000D03*
X262650000Y-110725000D03*
X263300000Y-110725000D03*
X263950000Y-110725000D03*
X264600000Y-110725000D03*
X265250000Y-110725000D03*
X265900000Y-110725000D03*
X266550000Y-110725000D03*
X267200000Y-110725000D03*
X267850000Y-110725000D03*
X267850000Y-105000000D03*
X267200000Y-105000000D03*
X266550000Y-105000000D03*
X265900000Y-105000000D03*
X265250000Y-105000000D03*
X264600000Y-105000000D03*
X263950000Y-105000000D03*
X263300000Y-105000000D03*
X262650000Y-105000000D03*
X262000000Y-105000000D03*
%TD*%
D13*
%TO.C,C7*%
X180500000Y-115962500D03*
X180500000Y-118037500D03*
%TD*%
D12*
%TO.C,U3*%
X92000000Y-123725000D03*
X92650000Y-123725000D03*
X93300000Y-123725000D03*
X93950000Y-123725000D03*
X94600000Y-123725000D03*
X95250000Y-123725000D03*
X95900000Y-123725000D03*
X96550000Y-123725000D03*
X97200000Y-123725000D03*
X97850000Y-123725000D03*
X97850000Y-118000000D03*
X97200000Y-118000000D03*
X96550000Y-118000000D03*
X95900000Y-118000000D03*
X95250000Y-118000000D03*
X94600000Y-118000000D03*
X93950000Y-118000000D03*
X93300000Y-118000000D03*
X92650000Y-118000000D03*
X92000000Y-118000000D03*
%TD*%
%TO.C,U43*%
X104000000Y-88000000D03*
X104650000Y-88000000D03*
X105300000Y-88000000D03*
X105950000Y-88000000D03*
X106600000Y-88000000D03*
X107250000Y-88000000D03*
X107900000Y-88000000D03*
X108550000Y-88000000D03*
X109200000Y-88000000D03*
X109850000Y-88000000D03*
X109850000Y-82275000D03*
X109200000Y-82275000D03*
X108550000Y-82275000D03*
X107900000Y-82275000D03*
X107250000Y-82275000D03*
X106600000Y-82275000D03*
X105950000Y-82275000D03*
X105300000Y-82275000D03*
X104650000Y-82275000D03*
X104000000Y-82275000D03*
%TD*%
D10*
%TO.C,C73*%
X197962500Y-76750000D03*
X200037500Y-76750000D03*
%TD*%
D14*
%TO.C,C13*%
X112537500Y-104500000D03*
X110462500Y-104500000D03*
%TD*%
D11*
%TO.C,C46*%
X237750000Y-104787500D03*
X237750000Y-102712500D03*
%TD*%
%TO.C,C19*%
X215500000Y-82037500D03*
X215500000Y-79962500D03*
%TD*%
D12*
%TO.C,U56*%
X262000000Y-88000000D03*
X262650000Y-88000000D03*
X263300000Y-88000000D03*
X263950000Y-88000000D03*
X264600000Y-88000000D03*
X265250000Y-88000000D03*
X265900000Y-88000000D03*
X266550000Y-88000000D03*
X267200000Y-88000000D03*
X267850000Y-88000000D03*
X267850000Y-82275000D03*
X267200000Y-82275000D03*
X266550000Y-82275000D03*
X265900000Y-82275000D03*
X265250000Y-82275000D03*
X264600000Y-82275000D03*
X263950000Y-82275000D03*
X263300000Y-82275000D03*
X262650000Y-82275000D03*
X262000000Y-82275000D03*
%TD*%
%TO.C,U30*%
X262000000Y-123725000D03*
X262650000Y-123725000D03*
X263300000Y-123725000D03*
X263950000Y-123725000D03*
X264600000Y-123725000D03*
X265250000Y-123725000D03*
X265900000Y-123725000D03*
X266550000Y-123725000D03*
X267200000Y-123725000D03*
X267850000Y-123725000D03*
X267850000Y-118000000D03*
X267200000Y-118000000D03*
X266550000Y-118000000D03*
X265900000Y-118000000D03*
X265250000Y-118000000D03*
X264600000Y-118000000D03*
X263950000Y-118000000D03*
X263300000Y-118000000D03*
X262650000Y-118000000D03*
X262000000Y-118000000D03*
%TD*%
%TO.C,U91*%
X240000000Y-110725000D03*
X240650000Y-110725000D03*
X241300000Y-110725000D03*
X241950000Y-110725000D03*
X242600000Y-110725000D03*
X243250000Y-110725000D03*
X243900000Y-110725000D03*
X244550000Y-110725000D03*
X245200000Y-110725000D03*
X245850000Y-110725000D03*
X245850000Y-105000000D03*
X245200000Y-105000000D03*
X244550000Y-105000000D03*
X243900000Y-105000000D03*
X243250000Y-105000000D03*
X242600000Y-105000000D03*
X241950000Y-105000000D03*
X241300000Y-105000000D03*
X240650000Y-105000000D03*
X240000000Y-105000000D03*
%TD*%
%TO.C,U23*%
X185000000Y-123725000D03*
X185650000Y-123725000D03*
X186300000Y-123725000D03*
X186950000Y-123725000D03*
X187600000Y-123725000D03*
X188250000Y-123725000D03*
X188900000Y-123725000D03*
X189550000Y-123725000D03*
X190200000Y-123725000D03*
X190850000Y-123725000D03*
X190850000Y-118000000D03*
X190200000Y-118000000D03*
X189550000Y-118000000D03*
X188900000Y-118000000D03*
X188250000Y-118000000D03*
X187600000Y-118000000D03*
X186950000Y-118000000D03*
X186300000Y-118000000D03*
X185650000Y-118000000D03*
X185000000Y-118000000D03*
%TD*%
D10*
%TO.C,C92*%
X151962500Y-110250000D03*
X154037500Y-110250000D03*
%TD*%
D12*
%TO.C,U88*%
X207000000Y-110725000D03*
X207650000Y-110725000D03*
X208300000Y-110725000D03*
X208950000Y-110725000D03*
X209600000Y-110725000D03*
X210250000Y-110725000D03*
X210900000Y-110725000D03*
X211550000Y-110725000D03*
X212200000Y-110725000D03*
X212850000Y-110725000D03*
X212850000Y-105000000D03*
X212200000Y-105000000D03*
X211550000Y-105000000D03*
X210900000Y-105000000D03*
X210250000Y-105000000D03*
X209600000Y-105000000D03*
X208950000Y-105000000D03*
X208300000Y-105000000D03*
X207650000Y-105000000D03*
X207000000Y-105000000D03*
%TD*%
%TO.C,U29*%
X251000000Y-123725000D03*
X251650000Y-123725000D03*
X252300000Y-123725000D03*
X252950000Y-123725000D03*
X253600000Y-123725000D03*
X254250000Y-123725000D03*
X254900000Y-123725000D03*
X255550000Y-123725000D03*
X256200000Y-123725000D03*
X256850000Y-123725000D03*
X256850000Y-118000000D03*
X256200000Y-118000000D03*
X255550000Y-118000000D03*
X254900000Y-118000000D03*
X254250000Y-118000000D03*
X253600000Y-118000000D03*
X252950000Y-118000000D03*
X252300000Y-118000000D03*
X251650000Y-118000000D03*
X251000000Y-118000000D03*
%TD*%
M02*
