M48
; DRILL file {KiCad 9.0.2+dfsg-1} date 2026-06-16T22:44:42+0100
; FORMAT={-:-/ absolute / metric / decimal}
; #@! TF.CreationDate,2026-06-16T22:44:42+01:00
; #@! TF.GenerationSoftware,Kicad,Pcbnew,9.0.2+dfsg-1
; #@! TF.FileFunction,Plated,1,4,PTH
FMAT,2
METRIC
; #@! TA.AperFunction,Plated,PTH,ViaDrill
T1C0.200
; #@! TA.AperFunction,Plated,PTH,ViaDrill
T2C0.400
; #@! TA.AperFunction,Plated,PTH,ComponentDrill
T3C0.700
; #@! TA.AperFunction,Plated,PTH,ComponentDrill
T4C0.800
; #@! TA.AperFunction,Plated,PTH,ComponentDrill
T5C0.950
; #@! TA.AperFunction,Plated,PTH,ComponentDrill
T6C1.000
; #@! TA.AperFunction,Plated,PTH,ComponentDrill
T7C2.300
%
G90
G05
T1
X52.0Y-86.0
X52.0Y-96.5
X52.25Y-83.5
X52.5Y-81.25
X53.5Y-98.25
X53.75Y-96.5
X55.0Y-81.25
X56.5Y-81.5
X56.5Y-95.25
X57.5Y-81.5
X59.5Y-81.25
X59.5Y-84.25
X61.5Y-87.0
X62.25Y-73.75
X62.25Y-75.0
X62.25Y-76.25
X62.75Y-77.75
X63.5Y-77.75
X64.25Y-77.75
X64.25Y-120.5
X64.25Y-121.5
X69.0Y-67.75
X69.5Y-67.0
X71.25Y-110.25
X71.25Y-111.5
X73.0Y-117.0
X74.5Y-113.25
X74.75Y-88.0
X75.0Y-90.25
X75.0Y-113.75
X75.25Y-94.75
X75.5Y-114.25
X77.0Y-117.25
X77.0Y-118.75
X77.75Y-117.25
X77.75Y-119.25
X78.5Y-117.25
X78.5Y-120.0
X79.0Y-75.5
X79.25Y-117.25
X79.25Y-120.75
X79.75Y-74.5
X80.0Y-79.5
X80.0Y-117.25
X80.0Y-121.5
X80.5Y-107.25
X80.75Y-117.25
X80.75Y-122.25
X81.0Y-73.75
X81.5Y-108.25
X81.5Y-117.25
X81.5Y-123.0
X82.0Y-76.5
X82.0Y-77.5
X82.0Y-78.5
X82.0Y-79.5
X82.25Y-106.5
X82.25Y-117.25
X82.25Y-126.75
X82.5Y-108.25
X83.0Y-117.25
X83.0Y-127.5
X83.25Y-73.0
X83.5Y-83.75
X83.75Y-117.25
X83.75Y-128.25
X84.5Y-117.25
X84.5Y-129.0
X85.25Y-117.25
X85.25Y-129.75
X85.5Y-106.75
X86.0Y-117.25
X86.0Y-130.5
X86.5Y-72.25
X86.75Y-71.5
X86.75Y-117.25
X86.75Y-131.25
X87.0Y-70.75
X87.5Y-117.25
X87.5Y-132.0
X88.25Y-77.0
X88.25Y-78.0
X88.25Y-79.0
X88.25Y-80.0
X89.0Y-70.0
X89.0Y-83.0
X89.75Y-117.75
X90.5Y-118.5
X91.0Y-68.75
X91.25Y-115.75
X91.25Y-119.25
X91.5Y-68.0
X92.0Y-81.0
X92.0Y-82.5
X93.0Y-66.75
X93.0Y-76.5
X93.0Y-77.5
X93.0Y-78.5
X93.0Y-79.5
X93.0Y-80.5
X93.5Y-66.0
X93.5Y-84.0
X94.0Y-65.25
X94.5Y-64.5
X95.0Y-63.75
X95.5Y-63.0
X96.0Y-62.25
X96.25Y-120.0
X96.5Y-61.5
X96.5Y-120.75
X96.75Y-121.5
X97.0Y-122.25
X98.0Y-116.5
X99.0Y-123.0
X99.25Y-77.0
X99.25Y-78.0
X99.25Y-79.0
X99.25Y-80.0
X100.0Y-83.212
X100.25Y-68.5
X102.0Y-78.5
X102.25Y-74.5
X102.75Y-80.75
X102.75Y-88.0
X102.75Y-115.25
X103.0Y-68.5
X103.0Y-73.75
X103.0Y-82.25
X103.0Y-126.75
X103.5Y-127.5
X104.0Y-76.5
X104.0Y-77.5
X104.0Y-78.5
X104.0Y-79.5
X104.0Y-128.25
X104.5Y-129.0
X104.75Y-73.0
X104.75Y-84.0
X105.0Y-129.75
X105.5Y-130.5
X106.0Y-131.25
X106.5Y-132.0
X108.0Y-108.5
X108.25Y-109.25
X108.5Y-72.25
X108.75Y-71.5
X109.0Y-70.75
X109.0Y-107.75
X109.0Y-116.25
X109.75Y-103.0
X110.25Y-77.25
X110.25Y-78.25
X110.25Y-79.25
X110.25Y-80.25
X110.25Y-105.75
X110.25Y-113.75
X110.75Y-70.0
X110.75Y-83.0
X110.75Y-112.5
X110.75Y-116.5
X111.0Y-107.75
X111.25Y-110.5
X111.25Y-111.75
X111.5Y-68.5
X111.5Y-117.75
X111.504Y-113.538
X111.75Y-105.75
X112.25Y-118.5
X112.75Y-107.5
X113.0Y-103.0
X113.25Y-116.5
X113.25Y-119.25
X113.5Y-68.5
X113.75Y-113.75
X114.0Y-82.25
X114.0Y-115.25
X114.25Y-81.0
X115.0Y-66.75
X115.0Y-76.5
X115.0Y-77.5
X115.0Y-78.5
X115.0Y-79.5
X115.0Y-80.5
X115.5Y-66.0
X115.75Y-84.0
X116.0Y-65.25
X116.5Y-64.5
X117.0Y-63.75
X117.5Y-63.0
X118.0Y-62.25
X118.25Y-120.0
X118.5Y-61.5
X118.5Y-120.75
X118.75Y-121.5
X119.0Y-122.25
X120.25Y-101.5
X120.75Y-117.25
X121.0Y-123.0
X121.25Y-77.0
X121.25Y-78.0
X121.25Y-79.0
X121.25Y-80.0
X121.875Y-104.125
X122.0Y-68.5
X122.0Y-83.0
X123.0Y-111.5
X123.0Y-113.25
X123.5Y-106.0
X123.5Y-116.5
X123.75Y-107.5
X124.0Y-78.5
X124.0Y-103.75
X124.25Y-74.5
X124.75Y-68.5
X125.0Y-73.75
X125.0Y-82.25
X125.0Y-126.75
X125.25Y-80.75
X125.5Y-127.5
X126.0Y-76.5
X126.0Y-77.5
X126.0Y-78.5
X126.0Y-79.5
X126.0Y-128.25
X126.5Y-73.0
X126.5Y-84.0
X126.5Y-129.0
X126.75Y-109.25
X127.0Y-129.75
X127.5Y-130.5
X128.0Y-131.25
X128.5Y-132.0
X130.5Y-72.25
X130.75Y-71.5
X130.75Y-116.5
X131.0Y-70.75
X131.0Y-102.75
X131.75Y-117.0
X131.75Y-118.5
X132.25Y-77.0
X132.25Y-78.0
X132.25Y-79.0
X132.25Y-80.0
X132.5Y-117.0
X132.5Y-119.25
X132.75Y-70.0
X133.0Y-68.5
X133.0Y-83.0
X133.25Y-117.0
X133.25Y-120.0
X134.0Y-117.0
X134.0Y-120.75
X134.75Y-117.0
X134.75Y-121.5
X135.5Y-117.0
X135.5Y-122.25
X135.75Y-68.5
X136.0Y-81.0
X136.0Y-82.5
X136.25Y-117.0
X136.25Y-123.0
X137.0Y-66.75
X137.0Y-76.5
X137.0Y-77.5
X137.0Y-78.5
X137.0Y-79.5
X137.0Y-80.5
X137.5Y-66.0
X137.5Y-84.0
X138.0Y-65.25
X138.5Y-64.5
X139.0Y-63.75
X139.5Y-63.0
X140.0Y-62.25
X140.5Y-61.5
X142.0Y-117.0
X142.0Y-126.75
X142.75Y-117.0
X142.75Y-127.5
X143.25Y-77.0
X143.25Y-78.0
X143.25Y-79.0
X143.25Y-80.0
X143.5Y-117.0
X143.5Y-128.25
X143.75Y-68.5
X144.0Y-83.0
X144.25Y-117.0
X144.25Y-129.0
X145.0Y-117.0
X145.0Y-129.75
X145.75Y-117.0
X145.75Y-130.5
X146.0Y-78.5
X146.25Y-74.5
X146.5Y-68.5
X146.5Y-117.0
X146.5Y-131.25
X147.0Y-73.75
X147.0Y-80.75
X147.0Y-82.25
X147.25Y-117.0
X147.25Y-132.0
X148.0Y-76.5
X148.0Y-77.5
X148.0Y-78.5
X148.0Y-79.5
X148.5Y-73.0
X148.5Y-84.0
X152.5Y-72.25
X152.75Y-71.5
X153.0Y-70.75
X153.75Y-117.0
X153.75Y-118.5
X154.5Y-77.25
X154.5Y-78.25
X154.5Y-79.25
X154.5Y-80.25
X154.5Y-117.0
X154.5Y-119.25
X154.75Y-68.5
X155.0Y-70.0
X155.099Y-82.962
X155.25Y-117.0
X155.25Y-120.0
X156.0Y-68.25
X156.0Y-117.0
X156.0Y-120.75
X156.75Y-117.0
X156.75Y-121.5
X157.0Y-72.25
X157.5Y-117.0
X157.5Y-122.25
X158.0Y-68.5
X158.0Y-81.0
X158.0Y-82.5
X158.25Y-117.0
X158.25Y-123.0
X159.0Y-66.75
X159.0Y-76.5
X159.0Y-77.5
X159.0Y-78.5
X159.0Y-79.5
X159.0Y-80.5
X159.5Y-66.0
X159.75Y-83.75
X160.0Y-65.25
X160.5Y-64.5
X161.0Y-63.75
X161.5Y-63.0
X162.0Y-62.25
X162.5Y-61.5
X164.0Y-117.0
X164.0Y-126.75
X164.75Y-117.0
X164.75Y-127.5
X165.25Y-77.0
X165.25Y-78.0
X165.25Y-79.0
X165.25Y-80.0
X165.5Y-68.25
X165.5Y-117.0
X165.5Y-128.25
X166.0Y-85.75
X166.25Y-117.0
X166.25Y-129.0
X166.75Y-72.25
X167.0Y-85.75
X167.0Y-117.0
X167.0Y-129.75
X167.75Y-85.75
X167.75Y-117.0
X167.75Y-130.5
X168.25Y-72.25
X168.5Y-85.75
X168.5Y-117.0
X168.5Y-131.25
X169.0Y-88.5
X169.25Y-68.75
X169.25Y-73.0
X169.25Y-76.0
X169.25Y-117.0
X169.25Y-132.0
X169.75Y-72.5
X169.75Y-91.75
X170.0Y-80.25
X170.0Y-81.0
X170.0Y-103.5
X170.25Y-78.0
X170.5Y-79.75
X170.5Y-88.5
X171.0Y-76.0
X171.0Y-76.75
X171.0Y-117.0
X171.0Y-123.0
X171.75Y-116.25
X171.75Y-122.25
X172.25Y-69.0
X172.25Y-72.25
X172.5Y-83.0
X172.5Y-117.0
X172.5Y-121.5
X173.0Y-84.75
X173.25Y-116.25
X173.25Y-120.75
X173.5Y-88.25
X173.75Y-73.0
X173.75Y-84.0
X173.75Y-85.0
X173.802Y-87.646
X174.0Y-90.25
X174.0Y-117.0
X174.0Y-120.0
X174.25Y-72.25
X174.75Y-116.25
X174.75Y-119.25
X175.0Y-77.8
X175.0Y-79.0
X175.0Y-80.0
X175.0Y-87.75
X175.25Y-108.25
X175.25Y-117.0
X175.5Y-72.25
X175.5Y-73.0
X175.5Y-76.0
X175.5Y-76.75
X175.5Y-81.5
X175.5Y-83.25
X175.5Y-84.75
X175.5Y-118.5
X175.75Y-68.0
X176.0Y-109.0
X176.25Y-103.5
X176.75Y-123.75
X177.0Y-112.0
X177.0Y-117.0
X177.25Y-115.25
X177.5Y-101.5
X177.5Y-103.5
X177.5Y-124.5
X177.75Y-76.0
X178.0Y-77.0
X178.0Y-112.75
X178.0Y-113.75
X178.0Y-116.0
X178.0Y-117.0
X178.25Y-67.5
X178.25Y-106.25
X178.25Y-108.25
X178.25Y-125.25
X179.0Y-108.5
X179.0Y-126.0
X179.25Y-67.5
X179.25Y-77.5
X179.25Y-79.5
X179.25Y-80.25
X179.25Y-85.75
X179.25Y-87.0
X179.25Y-98.25
X179.25Y-107.75
X179.5Y-81.0
X179.5Y-103.5
X179.55Y-88.95
X179.75Y-76.0
X180.0Y-114.0
X180.25Y-67.5
X180.25Y-90.25
X180.25Y-113.25
X180.5Y-109.0
X180.75Y-76.0
X180.75Y-79.75
X180.75Y-99.0
X181.0Y-106.25
X181.0Y-112.25
X181.25Y-83.0
X181.25Y-89.5
X181.25Y-108.25
X181.25Y-114.75
X181.5Y-80.5
X181.5Y-83.75
X181.5Y-103.5
X181.5Y-125.5
X181.75Y-67.5
X181.75Y-87.5
X181.75Y-88.75
X182.0Y-75.25
X182.0Y-116.75
X182.0Y-117.75
X182.25Y-68.25
X182.5Y-69.0
X182.5Y-79.5
X182.5Y-112.0
X182.5Y-113.25
X182.75Y-74.5
X182.75Y-114.75
X182.75Y-118.5
X183.0Y-93.75
X183.0Y-103.5
X183.25Y-109.5
X183.5Y-73.75
X183.5Y-111.25
X183.5Y-119.25
X184.0Y-82.25
X184.0Y-102.25
X184.0Y-104.25
X184.25Y-124.0
X184.5Y-80.75
X184.5Y-83.5
X184.75Y-89.25
X185.0Y-73.0
X185.0Y-76.5
X185.0Y-77.5
X185.0Y-78.5
X185.0Y-79.5
X185.0Y-102.5
X185.0Y-113.5
X185.0Y-114.5
X185.0Y-115.5
X185.0Y-116.5
X185.5Y-107.25
X186.0Y-83.5
X187.0Y-120.0
X189.25Y-72.25
X189.5Y-71.5
X189.5Y-120.75
X189.75Y-70.75
X189.75Y-121.5
X190.0Y-122.25
X191.0Y-83.5
X191.25Y-77.0
X191.25Y-78.0
X191.25Y-79.0
X191.25Y-80.0
X191.25Y-113.0
X191.25Y-114.0
X191.25Y-115.0
X191.25Y-116.0
X191.75Y-104.75
X192.0Y-70.0
X192.0Y-87.75
X192.0Y-110.25
X192.0Y-111.25
X192.0Y-123.0
X192.0Y-124.0
X193.75Y-110.75
X194.25Y-83.5
X194.5Y-111.75
X194.75Y-105.0
X195.0Y-81.0
X195.0Y-82.0
X195.0Y-112.25
X195.0Y-124.25
X195.25Y-87.5
X195.25Y-102.75
X195.25Y-125.25
X196.0Y-66.75
X196.0Y-76.5
X196.0Y-77.5
X196.0Y-78.5
X196.0Y-79.5
X196.0Y-80.5
X196.0Y-112.5
X196.0Y-113.5
X196.0Y-114.5
X196.0Y-115.5
X196.0Y-116.5
X196.0Y-126.25
X196.5Y-66.0
X196.5Y-127.0
X196.75Y-83.5
X197.0Y-65.25
X197.0Y-127.75
X197.5Y-64.5
X197.5Y-128.5
X198.0Y-63.75
X198.0Y-129.25
X198.5Y-63.0
X198.5Y-130.0
X199.0Y-62.25
X199.0Y-130.75
X199.5Y-61.5
X199.5Y-131.5
X201.75Y-83.5
X202.25Y-77.0
X202.25Y-78.0
X202.25Y-79.0
X202.25Y-80.0
X202.25Y-113.0
X202.25Y-114.0
X202.25Y-115.0
X202.25Y-116.0
X202.5Y-125.0
X202.75Y-111.5
X203.0Y-87.5
X203.25Y-104.75
X203.25Y-110.75
X204.75Y-78.5
X204.75Y-110.75
X205.0Y-114.5
X205.25Y-74.5
X205.25Y-118.5
X205.5Y-111.5
X205.75Y-119.25
X206.0Y-73.75
X206.0Y-82.5
X206.0Y-87.5
X206.0Y-105.0
X206.25Y-81.0
X206.25Y-84.125
X206.25Y-112.25
X206.25Y-124.25
X206.25Y-125.5
X206.5Y-103.0
X207.0Y-76.5
X207.0Y-77.5
X207.0Y-78.5
X207.0Y-79.5
X207.0Y-113.5
X207.0Y-114.5
X207.0Y-115.5
X207.0Y-116.5
X207.25Y-120.0
X207.75Y-73.0
X211.5Y-72.25
X211.5Y-120.75
X211.75Y-71.5
X211.75Y-121.5
X212.0Y-70.75
X212.0Y-122.25
X213.0Y-83.75
X213.25Y-77.0
X213.25Y-78.0
X213.25Y-79.0
X213.25Y-80.0
X213.25Y-113.0
X213.25Y-114.0
X213.25Y-115.0
X213.25Y-116.0
X213.75Y-105.0
X213.75Y-124.5
X214.0Y-70.0
X214.0Y-87.25
X214.0Y-111.5
X214.0Y-123.0
X214.5Y-110.25
X216.0Y-110.25
X216.75Y-82.25
X216.75Y-105.0
X216.75Y-112.5
X217.0Y-81.25
X217.0Y-88.0
X217.0Y-103.25
X217.0Y-111.25
X217.25Y-84.0
X217.25Y-124.25
X218.0Y-66.75
X218.0Y-76.5
X218.0Y-77.5
X218.0Y-78.5
X218.0Y-79.5
X218.0Y-80.5
X218.0Y-112.5
X218.0Y-113.5
X218.0Y-114.5
X218.0Y-115.5
X218.0Y-116.5
X218.0Y-126.25
X218.5Y-66.0
X218.5Y-127.0
X219.0Y-65.25
X219.0Y-127.75
X219.5Y-64.5
X219.5Y-128.5
X220.0Y-63.75
X220.0Y-129.25
X220.5Y-63.0
X220.5Y-130.0
X221.0Y-62.25
X221.0Y-130.75
X221.5Y-61.5
X221.5Y-131.5
X224.0Y-83.5
X224.25Y-77.0
X224.25Y-78.0
X224.25Y-79.0
X224.25Y-80.0
X224.25Y-113.0
X224.25Y-114.0
X224.25Y-115.0
X224.25Y-116.0
X224.25Y-125.25
X224.75Y-89.0
X224.75Y-105.25
X225.0Y-111.75
X225.25Y-110.75
X225.75Y-108.75
X226.75Y-110.75
X227.0Y-78.5
X227.0Y-114.5
X227.25Y-74.5
X227.25Y-118.5
X227.75Y-73.75
X227.75Y-112.75
X227.925Y-119.25
X228.0Y-82.25
X228.0Y-111.5
X228.0Y-124.0
X228.25Y-81.0
X228.25Y-87.75
X228.25Y-103.0
X228.25Y-105.0
X228.5Y-84.25
X229.0Y-76.25
X229.0Y-77.5
X229.0Y-78.5
X229.0Y-79.5
X229.0Y-113.5
X229.0Y-114.5
X229.0Y-115.5
X229.0Y-116.5
X229.5Y-73.0
X229.5Y-120.0
X233.5Y-72.25
X233.5Y-120.75
X233.75Y-71.5
X233.75Y-121.5
X234.0Y-70.75
X234.0Y-122.25
X234.75Y-83.5
X235.25Y-77.0
X235.25Y-78.0
X235.25Y-79.0
X235.25Y-80.0
X235.25Y-113.0
X235.25Y-114.0
X235.25Y-115.0
X235.25Y-116.0
X235.75Y-88.5
X235.75Y-104.25
X235.75Y-109.75
X235.75Y-111.25
X235.75Y-124.5
X236.0Y-70.0
X236.0Y-123.0
X237.25Y-109.75
X238.75Y-111.0
X238.75Y-112.25
X239.0Y-103.25
X239.25Y-88.5
X239.25Y-104.5
X239.25Y-124.25
X239.5Y-84.25
X240.0Y-66.75
X240.0Y-76.5
X240.0Y-77.5
X240.0Y-78.5
X240.0Y-79.5
X240.0Y-80.5
X240.0Y-112.5
X240.0Y-113.5
X240.0Y-114.5
X240.0Y-115.5
X240.0Y-116.5
X240.0Y-126.25
X240.5Y-66.0
X240.5Y-127.0
X241.0Y-65.25
X241.0Y-127.75
X241.5Y-64.5
X241.5Y-128.5
X242.0Y-63.75
X242.0Y-129.25
X242.5Y-63.0
X242.5Y-130.0
X243.0Y-62.25
X243.0Y-130.75
X243.5Y-61.5
X243.5Y-131.5
X246.0Y-83.5
X246.25Y-77.0
X246.25Y-78.0
X246.25Y-79.0
X246.25Y-80.0
X246.25Y-113.0
X246.25Y-114.0
X246.25Y-115.0
X246.25Y-116.0
X246.75Y-104.75
X246.75Y-111.5
X246.75Y-124.25
X247.0Y-110.0
X247.75Y-108.75
X248.25Y-101.5
X248.5Y-110.0
X249.25Y-115.75
X249.5Y-75.25
X249.5Y-118.0
X249.75Y-124.0
X250.0Y-74.5
X250.0Y-89.0
X250.0Y-104.75
X250.25Y-118.75
X250.5Y-84.25
X251.0Y-109.0
X251.0Y-112.25
X251.0Y-116.5
X251.75Y-119.5
X252.0Y-73.75
X252.508Y-120.008
X252.75Y-73.0
X252.75Y-109.0
X253.5Y-72.75
X253.5Y-120.0
X254.25Y-72.5
X254.5Y-120.0
X255.0Y-72.25
X255.5Y-120.0
X255.75Y-72.0
X256.25Y-109.25
X256.5Y-120.0
X257.0Y-83.5
X257.0Y-125.25
X258.0Y-105.25
X258.5Y-109.5
X259.764Y-125.764
X260.25Y-126.25
X260.75Y-83.25
X260.75Y-111.0
X260.758Y-126.758
X261.0Y-105.25
X261.25Y-84.25
X261.25Y-88.0
X261.25Y-103.5
X261.25Y-117.0
X261.262Y-127.262
X261.75Y-127.75
X262.0Y-122.25
X262.25Y-66.75
X262.25Y-128.25
X262.5Y-66.0
X262.75Y-65.25
X262.75Y-128.75
X263.0Y-64.5
X263.0Y-109.25
X263.25Y-63.75
X263.258Y-129.258
X263.5Y-63.0
X263.75Y-62.25
X264.0Y-61.5
X267.25Y-109.0
X268.0Y-125.5
X268.5Y-103.5
T2
X56.0Y-100.325
X59.75Y-91.5
X60.5Y-87.75
X62.0Y-91.5
X62.5Y-88.0
X64.5Y-81.75
X77.25Y-70.287
X80.75Y-81.25
X81.0Y-82.75
X81.5Y-89.5
X85.5Y-104.5
X89.25Y-88.5
X89.5Y-68.75
X90.5Y-104.5
X90.5Y-110.0
X90.75Y-134.5
X92.5Y-89.75
X99.0Y-109.5
X100.5Y-88.75
X101.25Y-109.5
X101.5Y-104.75
X111.5Y-89.25
X114.0Y-88.25
X114.5Y-108.25
X114.75Y-133.25
X119.25Y-108.25
X120.25Y-115.0
X122.25Y-89.25
X124.75Y-88.25
X127.818Y-108.318
X131.0Y-112.25
X133.0Y-89.25
X133.5Y-133.0
X133.75Y-108.5
X135.25Y-89.25
X138.75Y-105.25
X140.5Y-111.5
X144.0Y-89.0
X144.75Y-108.5
X146.5Y-89.25
X149.5Y-106.25
X151.25Y-112.0
X154.75Y-89.25
X154.75Y-108.75
X157.25Y-89.25
X160.0Y-106.25
X163.0Y-112.0
X165.25Y-89.75
X165.943Y-81.693
X168.0Y-108.0
X171.0Y-98.25
X172.75Y-91.962
X176.0Y-98.0
X178.0Y-93.25
X184.25Y-67.75
X191.75Y-68.25
X195.0Y-68.5
X202.75Y-68.0
X206.0Y-68.25
X213.75Y-68.0
X216.75Y-68.0
X224.5Y-67.75
X228.0Y-67.75
X235.5Y-67.75
X238.25Y-81.0
X238.5Y-82.5
X238.75Y-68.0
X246.5Y-67.537
X247.5Y-88.0
X249.75Y-68.0
X249.75Y-77.25
X249.75Y-82.25
X250.5Y-80.25
X257.75Y-67.75
X258.25Y-88.0
X260.5Y-68.25
X260.5Y-81.75
X261.0Y-76.0
X261.75Y-80.25
X267.25Y-84.25
X268.75Y-68.25
X269.0Y-88.0
T3
X82.0Y-95.0
X82.0Y-97.5
X83.0Y-93.0
X83.0Y-99.5
X84.0Y-95.0
X84.0Y-97.5
X85.0Y-93.0
X85.0Y-99.5
X86.0Y-95.0
X86.0Y-97.5
X87.0Y-93.0
X87.0Y-99.5
X88.0Y-95.0
X88.0Y-97.5
X89.0Y-93.0
X89.0Y-99.5
X90.0Y-95.0
X90.0Y-97.5
X91.0Y-93.0
X91.0Y-99.5
X92.0Y-95.0
X92.0Y-97.5
X95.0Y-93.0
X95.0Y-99.5
X96.0Y-95.0
X96.0Y-97.5
X97.0Y-93.0
X97.0Y-99.5
X98.0Y-95.0
X98.0Y-97.5
X99.0Y-93.0
X99.0Y-99.5
X100.0Y-95.0
X100.0Y-97.5
X101.0Y-93.0
X101.0Y-99.5
X102.0Y-95.0
X102.0Y-97.5
X103.0Y-93.0
X103.0Y-99.5
X104.0Y-95.0
X104.0Y-97.5
X105.0Y-93.0
X105.0Y-99.5
X106.0Y-95.0
X106.0Y-97.5
X107.0Y-93.0
X107.0Y-99.5
X108.0Y-95.0
X108.0Y-97.5
X109.0Y-93.0
X109.0Y-99.5
X110.0Y-95.0
X110.0Y-97.5
X111.0Y-93.0
X111.0Y-99.5
X112.0Y-95.0
X112.0Y-97.5
X113.0Y-93.0
X113.0Y-99.5
X114.0Y-95.0
X114.0Y-97.5
X115.0Y-93.0
X115.0Y-99.5
X116.0Y-95.0
X116.0Y-97.5
X117.0Y-93.0
X117.0Y-99.5
X118.0Y-95.0
X118.0Y-97.5
X119.0Y-93.0
X119.0Y-99.5
X120.0Y-95.0
X120.0Y-97.5
X121.0Y-93.0
X121.0Y-99.5
X122.0Y-95.0
X122.0Y-97.5
X123.0Y-93.0
X123.0Y-99.5
X124.0Y-95.0
X124.0Y-97.5
X125.0Y-93.0
X125.0Y-99.5
X126.0Y-95.0
X126.0Y-97.5
X127.0Y-93.0
X127.0Y-99.5
X128.0Y-95.0
X128.0Y-97.5
X129.0Y-93.0
X129.0Y-99.5
X130.0Y-95.0
X130.0Y-97.5
X131.0Y-93.0
X131.0Y-99.5
X132.0Y-95.0
X132.0Y-97.5
X133.0Y-93.0
X133.0Y-99.5
X134.0Y-95.0
X134.0Y-97.5
X135.0Y-93.0
X135.0Y-99.5
X136.0Y-95.0
X136.0Y-97.5
X137.0Y-93.0
X137.0Y-99.5
X138.0Y-95.0
X138.0Y-97.5
X139.0Y-93.0
X139.0Y-99.5
X140.0Y-95.0
X140.0Y-97.5
X141.0Y-93.0
X141.0Y-99.5
X142.0Y-95.0
X142.0Y-97.5
X143.0Y-93.0
X143.0Y-99.5
X144.0Y-95.0
X144.0Y-97.5
X145.0Y-93.0
X145.0Y-99.5
X146.0Y-95.0
X146.0Y-97.5
X147.0Y-93.0
X147.0Y-99.5
X148.0Y-95.0
X148.0Y-97.5
X149.0Y-93.0
X149.0Y-99.5
X150.0Y-95.0
X150.0Y-97.5
X151.0Y-93.0
X151.0Y-99.5
X152.0Y-95.0
X152.0Y-97.5
X153.0Y-93.0
X153.0Y-99.5
X154.0Y-95.0
X154.0Y-97.5
X155.0Y-93.0
X155.0Y-99.5
X156.0Y-95.0
X156.0Y-97.5
X157.0Y-93.0
X157.0Y-99.5
X158.0Y-95.0
X158.0Y-97.5
X159.0Y-93.0
X159.0Y-99.5
X160.0Y-95.0
X160.0Y-97.5
X161.0Y-93.0
X161.0Y-99.5
X162.0Y-95.0
X162.0Y-97.5
X163.0Y-93.0
X163.0Y-99.5
X164.0Y-95.0
X164.0Y-97.5
X165.0Y-93.0
X165.0Y-99.5
X185.0Y-95.0
X185.0Y-97.5
X186.0Y-93.0
X186.0Y-99.5
X187.0Y-95.0
X187.0Y-97.5
X188.0Y-93.0
X188.0Y-99.5
X189.0Y-95.0
X189.0Y-97.5
X190.0Y-93.0
X190.0Y-99.5
X191.0Y-95.0
X191.0Y-97.5
X192.0Y-93.0
X192.0Y-99.5
X193.0Y-95.0
X193.0Y-97.5
X194.0Y-93.0
X194.0Y-99.5
X195.0Y-95.0
X195.0Y-97.5
X198.0Y-93.0
X198.0Y-99.5
X199.0Y-95.0
X199.0Y-97.5
X200.0Y-93.0
X200.0Y-99.5
X201.0Y-95.0
X201.0Y-97.5
X202.0Y-93.0
X202.0Y-99.5
X203.0Y-95.0
X203.0Y-97.5
X204.0Y-93.0
X204.0Y-99.5
X205.0Y-95.0
X205.0Y-97.5
X206.0Y-93.0
X206.0Y-99.5
X207.0Y-95.0
X207.0Y-97.5
X208.0Y-93.0
X208.0Y-99.5
X209.0Y-95.0
X209.0Y-97.5
X210.0Y-93.0
X210.0Y-99.5
X211.0Y-95.0
X211.0Y-97.5
X212.0Y-93.0
X212.0Y-99.5
X213.0Y-95.0
X213.0Y-97.5
X214.0Y-93.0
X214.0Y-99.5
X215.0Y-95.0
X215.0Y-97.5
X216.0Y-93.0
X216.0Y-99.5
X217.0Y-95.0
X217.0Y-97.5
X218.0Y-93.0
X218.0Y-99.5
X219.0Y-95.0
X219.0Y-97.5
X220.0Y-93.0
X220.0Y-99.5
X221.0Y-95.0
X221.0Y-97.5
X222.0Y-93.0
X222.0Y-99.5
X223.0Y-95.0
X223.0Y-97.5
X224.0Y-93.0
X224.0Y-99.5
X225.0Y-95.0
X225.0Y-97.5
X226.0Y-93.0
X226.0Y-99.5
X227.0Y-95.0
X227.0Y-97.5
X228.0Y-93.0
X228.0Y-99.5
X229.0Y-95.0
X229.0Y-97.5
X230.0Y-93.0
X230.0Y-99.5
X231.0Y-95.0
X231.0Y-97.5
X232.0Y-93.0
X232.0Y-99.5
X233.0Y-95.0
X233.0Y-97.5
X234.0Y-93.0
X234.0Y-99.5
X235.0Y-95.0
X235.0Y-97.5
X236.0Y-93.0
X236.0Y-99.5
X237.0Y-95.0
X237.0Y-97.5
X238.0Y-93.0
X238.0Y-99.5
X239.0Y-95.0
X239.0Y-97.5
X240.0Y-93.0
X240.0Y-99.5
X241.0Y-95.0
X241.0Y-97.5
X242.0Y-93.0
X242.0Y-99.5
X243.0Y-95.0
X243.0Y-97.5
X244.0Y-93.0
X244.0Y-99.5
X245.0Y-95.0
X245.0Y-97.5
X246.0Y-93.0
X246.0Y-99.5
X247.0Y-95.0
X247.0Y-97.5
X248.0Y-93.0
X248.0Y-99.5
X249.0Y-95.0
X249.0Y-97.5
X250.0Y-93.0
X250.0Y-99.5
X251.0Y-95.0
X251.0Y-97.5
X252.0Y-93.0
X252.0Y-99.5
X253.0Y-95.0
X253.0Y-97.5
X254.0Y-93.0
X254.0Y-99.5
X255.0Y-95.0
X255.0Y-97.5
X256.0Y-93.0
X256.0Y-99.5
X257.0Y-95.0
X257.0Y-97.5
X258.0Y-93.0
X258.0Y-99.5
X259.0Y-95.0
X259.0Y-97.5
X260.0Y-93.0
X260.0Y-99.5
X261.0Y-95.0
X261.0Y-97.5
X262.0Y-93.0
X262.0Y-99.5
X263.0Y-95.0
X263.0Y-97.5
X264.0Y-93.0
X264.0Y-99.5
X265.0Y-95.0
X265.0Y-97.5
X266.0Y-93.0
X266.0Y-99.5
X267.0Y-95.0
X267.0Y-97.5
X268.0Y-93.0
X268.0Y-99.5
T4
X41.1Y-101.19
X41.1Y-103.73
X41.1Y-106.27
X41.1Y-108.81
T5
X40.788Y-88.75
X40.788Y-91.25
X42.788Y-88.75
X42.788Y-91.25
T6
X50.22Y-70.3
X50.22Y-72.84
X50.22Y-75.38
X50.22Y-77.92
X50.22Y-80.46
X50.22Y-83.0
X50.22Y-85.54
X50.22Y-88.08
X50.22Y-90.62
X50.22Y-93.16
X50.22Y-95.7
X50.22Y-98.24
X50.22Y-100.78
X50.22Y-103.32
X50.22Y-105.86
X50.22Y-108.4
X50.22Y-110.94
X50.22Y-113.48
X50.22Y-116.02
X50.22Y-118.56
X68.0Y-70.3
X68.0Y-72.84
X68.0Y-75.38
X68.0Y-77.92
X68.0Y-80.46
X68.0Y-83.0
X68.0Y-85.54
X68.0Y-88.08
X68.0Y-90.62
X68.0Y-93.16
X68.0Y-95.7
X68.0Y-98.24
X68.0Y-100.78
X68.0Y-103.32
X68.0Y-105.86
X68.0Y-108.4
X68.0Y-110.94
X68.0Y-113.48
X68.0Y-116.02
X68.0Y-118.56
T7
X37.927Y-84.0
X37.927Y-96.0
M30
