%TF.GenerationSoftware,KiCad,Pcbnew,9.0.2+dfsg-1*%
%TF.CreationDate,2026-06-16T21:06:13+01:00*%
%TF.ProjectId,CardTester,43617264-5465-4737-9465-722e6b696361,rev?*%
%TF.SameCoordinates,Original*%
%TF.FileFunction,Legend,Bot*%
%TF.FilePolarity,Positive*%
%FSLAX46Y46*%
G04 Gerber Fmt 4.6, Leading zero omitted, Abs format (unit mm)*
G04 Created by KiCad (PCBNEW 9.0.2+dfsg-1) date 2026-06-16 21:06:13*
%MOMM*%
%LPD*%
G01*
G04 APERTURE LIST*
%ADD10C,0.150000*%
%ADD11C,0.120000*%
G04 APERTURE END LIST*
D10*
X65404819Y-81511905D02*
X66214342Y-81511905D01*
X66214342Y-81511905D02*
X66309580Y-81559524D01*
X66309580Y-81559524D02*
X66357200Y-81607143D01*
X66357200Y-81607143D02*
X66404819Y-81702381D01*
X66404819Y-81702381D02*
X66404819Y-81892857D01*
X66404819Y-81892857D02*
X66357200Y-81988095D01*
X66357200Y-81988095D02*
X66309580Y-82035714D01*
X66309580Y-82035714D02*
X66214342Y-82083333D01*
X66214342Y-82083333D02*
X65404819Y-82083333D01*
X65404819Y-82464286D02*
X65404819Y-83083333D01*
X65404819Y-83083333D02*
X65785771Y-82750000D01*
X65785771Y-82750000D02*
X65785771Y-82892857D01*
X65785771Y-82892857D02*
X65833390Y-82988095D01*
X65833390Y-82988095D02*
X65881009Y-83035714D01*
X65881009Y-83035714D02*
X65976247Y-83083333D01*
X65976247Y-83083333D02*
X66214342Y-83083333D01*
X66214342Y-83083333D02*
X66309580Y-83035714D01*
X66309580Y-83035714D02*
X66357200Y-82988095D01*
X66357200Y-82988095D02*
X66404819Y-82892857D01*
X66404819Y-82892857D02*
X66404819Y-82607143D01*
X66404819Y-82607143D02*
X66357200Y-82511905D01*
X66357200Y-82511905D02*
X66309580Y-82464286D01*
X65500057Y-83464286D02*
X65452438Y-83511905D01*
X65452438Y-83511905D02*
X65404819Y-83607143D01*
X65404819Y-83607143D02*
X65404819Y-83845238D01*
X65404819Y-83845238D02*
X65452438Y-83940476D01*
X65452438Y-83940476D02*
X65500057Y-83988095D01*
X65500057Y-83988095D02*
X65595295Y-84035714D01*
X65595295Y-84035714D02*
X65690533Y-84035714D01*
X65690533Y-84035714D02*
X65833390Y-83988095D01*
X65833390Y-83988095D02*
X66404819Y-83416667D01*
X66404819Y-83416667D02*
X66404819Y-84035714D01*
X151179819Y-106624405D02*
X151989342Y-106624405D01*
X151989342Y-106624405D02*
X152084580Y-106672024D01*
X152084580Y-106672024D02*
X152132200Y-106719643D01*
X152132200Y-106719643D02*
X152179819Y-106814881D01*
X152179819Y-106814881D02*
X152179819Y-107005357D01*
X152179819Y-107005357D02*
X152132200Y-107100595D01*
X152132200Y-107100595D02*
X152084580Y-107148214D01*
X152084580Y-107148214D02*
X151989342Y-107195833D01*
X151989342Y-107195833D02*
X151179819Y-107195833D01*
X151179819Y-108100595D02*
X151179819Y-107910119D01*
X151179819Y-107910119D02*
X151227438Y-107814881D01*
X151227438Y-107814881D02*
X151275057Y-107767262D01*
X151275057Y-107767262D02*
X151417914Y-107672024D01*
X151417914Y-107672024D02*
X151608390Y-107624405D01*
X151608390Y-107624405D02*
X151989342Y-107624405D01*
X151989342Y-107624405D02*
X152084580Y-107672024D01*
X152084580Y-107672024D02*
X152132200Y-107719643D01*
X152132200Y-107719643D02*
X152179819Y-107814881D01*
X152179819Y-107814881D02*
X152179819Y-108005357D01*
X152179819Y-108005357D02*
X152132200Y-108100595D01*
X152132200Y-108100595D02*
X152084580Y-108148214D01*
X152084580Y-108148214D02*
X151989342Y-108195833D01*
X151989342Y-108195833D02*
X151751247Y-108195833D01*
X151751247Y-108195833D02*
X151656009Y-108148214D01*
X151656009Y-108148214D02*
X151608390Y-108100595D01*
X151608390Y-108100595D02*
X151560771Y-108005357D01*
X151560771Y-108005357D02*
X151560771Y-107814881D01*
X151560771Y-107814881D02*
X151608390Y-107719643D01*
X151608390Y-107719643D02*
X151656009Y-107672024D01*
X151656009Y-107672024D02*
X151751247Y-107624405D01*
X151179819Y-108529167D02*
X151179819Y-109195833D01*
X151179819Y-109195833D02*
X152179819Y-108767262D01*
X63454819Y-96000653D02*
X64264342Y-96000653D01*
X64264342Y-96000653D02*
X64359580Y-96048272D01*
X64359580Y-96048272D02*
X64407200Y-96095891D01*
X64407200Y-96095891D02*
X64454819Y-96191129D01*
X64454819Y-96191129D02*
X64454819Y-96381605D01*
X64454819Y-96381605D02*
X64407200Y-96476843D01*
X64407200Y-96476843D02*
X64359580Y-96524462D01*
X64359580Y-96524462D02*
X64264342Y-96572081D01*
X64264342Y-96572081D02*
X63454819Y-96572081D01*
X63454819Y-96953034D02*
X63454819Y-97572081D01*
X63454819Y-97572081D02*
X63835771Y-97238748D01*
X63835771Y-97238748D02*
X63835771Y-97381605D01*
X63835771Y-97381605D02*
X63883390Y-97476843D01*
X63883390Y-97476843D02*
X63931009Y-97524462D01*
X63931009Y-97524462D02*
X64026247Y-97572081D01*
X64026247Y-97572081D02*
X64264342Y-97572081D01*
X64264342Y-97572081D02*
X64359580Y-97524462D01*
X64359580Y-97524462D02*
X64407200Y-97476843D01*
X64407200Y-97476843D02*
X64454819Y-97381605D01*
X64454819Y-97381605D02*
X64454819Y-97095891D01*
X64454819Y-97095891D02*
X64407200Y-97000653D01*
X64407200Y-97000653D02*
X64359580Y-96953034D01*
X63454819Y-97905415D02*
X63454819Y-98524462D01*
X63454819Y-98524462D02*
X63835771Y-98191129D01*
X63835771Y-98191129D02*
X63835771Y-98333986D01*
X63835771Y-98333986D02*
X63883390Y-98429224D01*
X63883390Y-98429224D02*
X63931009Y-98476843D01*
X63931009Y-98476843D02*
X64026247Y-98524462D01*
X64026247Y-98524462D02*
X64264342Y-98524462D01*
X64264342Y-98524462D02*
X64359580Y-98476843D01*
X64359580Y-98476843D02*
X64407200Y-98429224D01*
X64407200Y-98429224D02*
X64454819Y-98333986D01*
X64454819Y-98333986D02*
X64454819Y-98048272D01*
X64454819Y-98048272D02*
X64407200Y-97953034D01*
X64407200Y-97953034D02*
X64359580Y-97905415D01*
X125539580Y-78357142D02*
X125587200Y-78309523D01*
X125587200Y-78309523D02*
X125634819Y-78166666D01*
X125634819Y-78166666D02*
X125634819Y-78071428D01*
X125634819Y-78071428D02*
X125587200Y-77928571D01*
X125587200Y-77928571D02*
X125491961Y-77833333D01*
X125491961Y-77833333D02*
X125396723Y-77785714D01*
X125396723Y-77785714D02*
X125206247Y-77738095D01*
X125206247Y-77738095D02*
X125063390Y-77738095D01*
X125063390Y-77738095D02*
X124872914Y-77785714D01*
X124872914Y-77785714D02*
X124777676Y-77833333D01*
X124777676Y-77833333D02*
X124682438Y-77928571D01*
X124682438Y-77928571D02*
X124634819Y-78071428D01*
X124634819Y-78071428D02*
X124634819Y-78166666D01*
X124634819Y-78166666D02*
X124682438Y-78309523D01*
X124682438Y-78309523D02*
X124730057Y-78357142D01*
X124730057Y-78738095D02*
X124682438Y-78785714D01*
X124682438Y-78785714D02*
X124634819Y-78880952D01*
X124634819Y-78880952D02*
X124634819Y-79119047D01*
X124634819Y-79119047D02*
X124682438Y-79214285D01*
X124682438Y-79214285D02*
X124730057Y-79261904D01*
X124730057Y-79261904D02*
X124825295Y-79309523D01*
X124825295Y-79309523D02*
X124920533Y-79309523D01*
X124920533Y-79309523D02*
X125063390Y-79261904D01*
X125063390Y-79261904D02*
X125634819Y-78690476D01*
X125634819Y-78690476D02*
X125634819Y-79309523D01*
X124634819Y-80166666D02*
X124634819Y-79976190D01*
X124634819Y-79976190D02*
X124682438Y-79880952D01*
X124682438Y-79880952D02*
X124730057Y-79833333D01*
X124730057Y-79833333D02*
X124872914Y-79738095D01*
X124872914Y-79738095D02*
X125063390Y-79690476D01*
X125063390Y-79690476D02*
X125444342Y-79690476D01*
X125444342Y-79690476D02*
X125539580Y-79738095D01*
X125539580Y-79738095D02*
X125587200Y-79785714D01*
X125587200Y-79785714D02*
X125634819Y-79880952D01*
X125634819Y-79880952D02*
X125634819Y-80071428D01*
X125634819Y-80071428D02*
X125587200Y-80166666D01*
X125587200Y-80166666D02*
X125539580Y-80214285D01*
X125539580Y-80214285D02*
X125444342Y-80261904D01*
X125444342Y-80261904D02*
X125206247Y-80261904D01*
X125206247Y-80261904D02*
X125111009Y-80214285D01*
X125111009Y-80214285D02*
X125063390Y-80166666D01*
X125063390Y-80166666D02*
X125015771Y-80071428D01*
X125015771Y-80071428D02*
X125015771Y-79880952D01*
X125015771Y-79880952D02*
X125063390Y-79785714D01*
X125063390Y-79785714D02*
X125111009Y-79738095D01*
X125111009Y-79738095D02*
X125206247Y-79690476D01*
X248179580Y-113083333D02*
X248227200Y-113035714D01*
X248227200Y-113035714D02*
X248274819Y-112892857D01*
X248274819Y-112892857D02*
X248274819Y-112797619D01*
X248274819Y-112797619D02*
X248227200Y-112654762D01*
X248227200Y-112654762D02*
X248131961Y-112559524D01*
X248131961Y-112559524D02*
X248036723Y-112511905D01*
X248036723Y-112511905D02*
X247846247Y-112464286D01*
X247846247Y-112464286D02*
X247703390Y-112464286D01*
X247703390Y-112464286D02*
X247512914Y-112511905D01*
X247512914Y-112511905D02*
X247417676Y-112559524D01*
X247417676Y-112559524D02*
X247322438Y-112654762D01*
X247322438Y-112654762D02*
X247274819Y-112797619D01*
X247274819Y-112797619D02*
X247274819Y-112892857D01*
X247274819Y-112892857D02*
X247322438Y-113035714D01*
X247322438Y-113035714D02*
X247370057Y-113083333D01*
X247608152Y-113940476D02*
X248274819Y-113940476D01*
X247227200Y-113702381D02*
X247941485Y-113464286D01*
X247941485Y-113464286D02*
X247941485Y-114083333D01*
X192429580Y-88357142D02*
X192477200Y-88309523D01*
X192477200Y-88309523D02*
X192524819Y-88166666D01*
X192524819Y-88166666D02*
X192524819Y-88071428D01*
X192524819Y-88071428D02*
X192477200Y-87928571D01*
X192477200Y-87928571D02*
X192381961Y-87833333D01*
X192381961Y-87833333D02*
X192286723Y-87785714D01*
X192286723Y-87785714D02*
X192096247Y-87738095D01*
X192096247Y-87738095D02*
X191953390Y-87738095D01*
X191953390Y-87738095D02*
X191762914Y-87785714D01*
X191762914Y-87785714D02*
X191667676Y-87833333D01*
X191667676Y-87833333D02*
X191572438Y-87928571D01*
X191572438Y-87928571D02*
X191524819Y-88071428D01*
X191524819Y-88071428D02*
X191524819Y-88166666D01*
X191524819Y-88166666D02*
X191572438Y-88309523D01*
X191572438Y-88309523D02*
X191620057Y-88357142D01*
X191524819Y-89214285D02*
X191524819Y-89023809D01*
X191524819Y-89023809D02*
X191572438Y-88928571D01*
X191572438Y-88928571D02*
X191620057Y-88880952D01*
X191620057Y-88880952D02*
X191762914Y-88785714D01*
X191762914Y-88785714D02*
X191953390Y-88738095D01*
X191953390Y-88738095D02*
X192334342Y-88738095D01*
X192334342Y-88738095D02*
X192429580Y-88785714D01*
X192429580Y-88785714D02*
X192477200Y-88833333D01*
X192477200Y-88833333D02*
X192524819Y-88928571D01*
X192524819Y-88928571D02*
X192524819Y-89119047D01*
X192524819Y-89119047D02*
X192477200Y-89214285D01*
X192477200Y-89214285D02*
X192429580Y-89261904D01*
X192429580Y-89261904D02*
X192334342Y-89309523D01*
X192334342Y-89309523D02*
X192096247Y-89309523D01*
X192096247Y-89309523D02*
X192001009Y-89261904D01*
X192001009Y-89261904D02*
X191953390Y-89214285D01*
X191953390Y-89214285D02*
X191905771Y-89119047D01*
X191905771Y-89119047D02*
X191905771Y-88928571D01*
X191905771Y-88928571D02*
X191953390Y-88833333D01*
X191953390Y-88833333D02*
X192001009Y-88785714D01*
X192001009Y-88785714D02*
X192096247Y-88738095D01*
X191524819Y-89642857D02*
X191524819Y-90261904D01*
X191524819Y-90261904D02*
X191905771Y-89928571D01*
X191905771Y-89928571D02*
X191905771Y-90071428D01*
X191905771Y-90071428D02*
X191953390Y-90166666D01*
X191953390Y-90166666D02*
X192001009Y-90214285D01*
X192001009Y-90214285D02*
X192096247Y-90261904D01*
X192096247Y-90261904D02*
X192334342Y-90261904D01*
X192334342Y-90261904D02*
X192429580Y-90214285D01*
X192429580Y-90214285D02*
X192477200Y-90166666D01*
X192477200Y-90166666D02*
X192524819Y-90071428D01*
X192524819Y-90071428D02*
X192524819Y-89785714D01*
X192524819Y-89785714D02*
X192477200Y-89690476D01*
X192477200Y-89690476D02*
X192429580Y-89642857D01*
X227179819Y-70899405D02*
X227989342Y-70899405D01*
X227989342Y-70899405D02*
X228084580Y-70947024D01*
X228084580Y-70947024D02*
X228132200Y-70994643D01*
X228132200Y-70994643D02*
X228179819Y-71089881D01*
X228179819Y-71089881D02*
X228179819Y-71280357D01*
X228179819Y-71280357D02*
X228132200Y-71375595D01*
X228132200Y-71375595D02*
X228084580Y-71423214D01*
X228084580Y-71423214D02*
X227989342Y-71470833D01*
X227989342Y-71470833D02*
X227179819Y-71470833D01*
X228179819Y-72470833D02*
X228179819Y-71899405D01*
X228179819Y-72185119D02*
X227179819Y-72185119D01*
X227179819Y-72185119D02*
X227322676Y-72089881D01*
X227322676Y-72089881D02*
X227417914Y-71994643D01*
X227417914Y-71994643D02*
X227465533Y-71899405D01*
X228179819Y-72947024D02*
X228179819Y-73137500D01*
X228179819Y-73137500D02*
X228132200Y-73232738D01*
X228132200Y-73232738D02*
X228084580Y-73280357D01*
X228084580Y-73280357D02*
X227941723Y-73375595D01*
X227941723Y-73375595D02*
X227751247Y-73423214D01*
X227751247Y-73423214D02*
X227370295Y-73423214D01*
X227370295Y-73423214D02*
X227275057Y-73375595D01*
X227275057Y-73375595D02*
X227227438Y-73327976D01*
X227227438Y-73327976D02*
X227179819Y-73232738D01*
X227179819Y-73232738D02*
X227179819Y-73042262D01*
X227179819Y-73042262D02*
X227227438Y-72947024D01*
X227227438Y-72947024D02*
X227275057Y-72899405D01*
X227275057Y-72899405D02*
X227370295Y-72851786D01*
X227370295Y-72851786D02*
X227608390Y-72851786D01*
X227608390Y-72851786D02*
X227703628Y-72899405D01*
X227703628Y-72899405D02*
X227751247Y-72947024D01*
X227751247Y-72947024D02*
X227798866Y-73042262D01*
X227798866Y-73042262D02*
X227798866Y-73232738D01*
X227798866Y-73232738D02*
X227751247Y-73327976D01*
X227751247Y-73327976D02*
X227703628Y-73375595D01*
X227703628Y-73375595D02*
X227608390Y-73423214D01*
X126654819Y-110761905D02*
X127464342Y-110761905D01*
X127464342Y-110761905D02*
X127559580Y-110809524D01*
X127559580Y-110809524D02*
X127607200Y-110857143D01*
X127607200Y-110857143D02*
X127654819Y-110952381D01*
X127654819Y-110952381D02*
X127654819Y-111142857D01*
X127654819Y-111142857D02*
X127607200Y-111238095D01*
X127607200Y-111238095D02*
X127559580Y-111285714D01*
X127559580Y-111285714D02*
X127464342Y-111333333D01*
X127464342Y-111333333D02*
X126654819Y-111333333D01*
X126988152Y-112238095D02*
X127654819Y-112238095D01*
X126607200Y-112000000D02*
X127321485Y-111761905D01*
X127321485Y-111761905D02*
X127321485Y-112380952D01*
X126654819Y-112952381D02*
X126654819Y-113047619D01*
X126654819Y-113047619D02*
X126702438Y-113142857D01*
X126702438Y-113142857D02*
X126750057Y-113190476D01*
X126750057Y-113190476D02*
X126845295Y-113238095D01*
X126845295Y-113238095D02*
X127035771Y-113285714D01*
X127035771Y-113285714D02*
X127273866Y-113285714D01*
X127273866Y-113285714D02*
X127464342Y-113238095D01*
X127464342Y-113238095D02*
X127559580Y-113190476D01*
X127559580Y-113190476D02*
X127607200Y-113142857D01*
X127607200Y-113142857D02*
X127654819Y-113047619D01*
X127654819Y-113047619D02*
X127654819Y-112952381D01*
X127654819Y-112952381D02*
X127607200Y-112857143D01*
X127607200Y-112857143D02*
X127559580Y-112809524D01*
X127559580Y-112809524D02*
X127464342Y-112761905D01*
X127464342Y-112761905D02*
X127273866Y-112714286D01*
X127273866Y-112714286D02*
X127035771Y-112714286D01*
X127035771Y-112714286D02*
X126845295Y-112761905D01*
X126845295Y-112761905D02*
X126750057Y-112809524D01*
X126750057Y-112809524D02*
X126702438Y-112857143D01*
X126702438Y-112857143D02*
X126654819Y-112952381D01*
X216179819Y-70899405D02*
X216989342Y-70899405D01*
X216989342Y-70899405D02*
X217084580Y-70947024D01*
X217084580Y-70947024D02*
X217132200Y-70994643D01*
X217132200Y-70994643D02*
X217179819Y-71089881D01*
X217179819Y-71089881D02*
X217179819Y-71280357D01*
X217179819Y-71280357D02*
X217132200Y-71375595D01*
X217132200Y-71375595D02*
X217084580Y-71423214D01*
X217084580Y-71423214D02*
X216989342Y-71470833D01*
X216989342Y-71470833D02*
X216179819Y-71470833D01*
X217179819Y-72470833D02*
X217179819Y-71899405D01*
X217179819Y-72185119D02*
X216179819Y-72185119D01*
X216179819Y-72185119D02*
X216322676Y-72089881D01*
X216322676Y-72089881D02*
X216417914Y-71994643D01*
X216417914Y-71994643D02*
X216465533Y-71899405D01*
X216608390Y-73042262D02*
X216560771Y-72947024D01*
X216560771Y-72947024D02*
X216513152Y-72899405D01*
X216513152Y-72899405D02*
X216417914Y-72851786D01*
X216417914Y-72851786D02*
X216370295Y-72851786D01*
X216370295Y-72851786D02*
X216275057Y-72899405D01*
X216275057Y-72899405D02*
X216227438Y-72947024D01*
X216227438Y-72947024D02*
X216179819Y-73042262D01*
X216179819Y-73042262D02*
X216179819Y-73232738D01*
X216179819Y-73232738D02*
X216227438Y-73327976D01*
X216227438Y-73327976D02*
X216275057Y-73375595D01*
X216275057Y-73375595D02*
X216370295Y-73423214D01*
X216370295Y-73423214D02*
X216417914Y-73423214D01*
X216417914Y-73423214D02*
X216513152Y-73375595D01*
X216513152Y-73375595D02*
X216560771Y-73327976D01*
X216560771Y-73327976D02*
X216608390Y-73232738D01*
X216608390Y-73232738D02*
X216608390Y-73042262D01*
X216608390Y-73042262D02*
X216656009Y-72947024D01*
X216656009Y-72947024D02*
X216703628Y-72899405D01*
X216703628Y-72899405D02*
X216798866Y-72851786D01*
X216798866Y-72851786D02*
X216989342Y-72851786D01*
X216989342Y-72851786D02*
X217084580Y-72899405D01*
X217084580Y-72899405D02*
X217132200Y-72947024D01*
X217132200Y-72947024D02*
X217179819Y-73042262D01*
X217179819Y-73042262D02*
X217179819Y-73232738D01*
X217179819Y-73232738D02*
X217132200Y-73327976D01*
X217132200Y-73327976D02*
X217084580Y-73375595D01*
X217084580Y-73375595D02*
X216989342Y-73423214D01*
X216989342Y-73423214D02*
X216798866Y-73423214D01*
X216798866Y-73423214D02*
X216703628Y-73375595D01*
X216703628Y-73375595D02*
X216656009Y-73327976D01*
X216656009Y-73327976D02*
X216608390Y-73232738D01*
X147789580Y-78357142D02*
X147837200Y-78309523D01*
X147837200Y-78309523D02*
X147884819Y-78166666D01*
X147884819Y-78166666D02*
X147884819Y-78071428D01*
X147884819Y-78071428D02*
X147837200Y-77928571D01*
X147837200Y-77928571D02*
X147741961Y-77833333D01*
X147741961Y-77833333D02*
X147646723Y-77785714D01*
X147646723Y-77785714D02*
X147456247Y-77738095D01*
X147456247Y-77738095D02*
X147313390Y-77738095D01*
X147313390Y-77738095D02*
X147122914Y-77785714D01*
X147122914Y-77785714D02*
X147027676Y-77833333D01*
X147027676Y-77833333D02*
X146932438Y-77928571D01*
X146932438Y-77928571D02*
X146884819Y-78071428D01*
X146884819Y-78071428D02*
X146884819Y-78166666D01*
X146884819Y-78166666D02*
X146932438Y-78309523D01*
X146932438Y-78309523D02*
X146980057Y-78357142D01*
X146980057Y-78738095D02*
X146932438Y-78785714D01*
X146932438Y-78785714D02*
X146884819Y-78880952D01*
X146884819Y-78880952D02*
X146884819Y-79119047D01*
X146884819Y-79119047D02*
X146932438Y-79214285D01*
X146932438Y-79214285D02*
X146980057Y-79261904D01*
X146980057Y-79261904D02*
X147075295Y-79309523D01*
X147075295Y-79309523D02*
X147170533Y-79309523D01*
X147170533Y-79309523D02*
X147313390Y-79261904D01*
X147313390Y-79261904D02*
X147884819Y-78690476D01*
X147884819Y-78690476D02*
X147884819Y-79309523D01*
X146884819Y-79928571D02*
X146884819Y-80023809D01*
X146884819Y-80023809D02*
X146932438Y-80119047D01*
X146932438Y-80119047D02*
X146980057Y-80166666D01*
X146980057Y-80166666D02*
X147075295Y-80214285D01*
X147075295Y-80214285D02*
X147265771Y-80261904D01*
X147265771Y-80261904D02*
X147503866Y-80261904D01*
X147503866Y-80261904D02*
X147694342Y-80214285D01*
X147694342Y-80214285D02*
X147789580Y-80166666D01*
X147789580Y-80166666D02*
X147837200Y-80119047D01*
X147837200Y-80119047D02*
X147884819Y-80023809D01*
X147884819Y-80023809D02*
X147884819Y-79928571D01*
X147884819Y-79928571D02*
X147837200Y-79833333D01*
X147837200Y-79833333D02*
X147789580Y-79785714D01*
X147789580Y-79785714D02*
X147694342Y-79738095D01*
X147694342Y-79738095D02*
X147503866Y-79690476D01*
X147503866Y-79690476D02*
X147265771Y-79690476D01*
X147265771Y-79690476D02*
X147075295Y-79738095D01*
X147075295Y-79738095D02*
X146980057Y-79785714D01*
X146980057Y-79785714D02*
X146932438Y-79833333D01*
X146932438Y-79833333D02*
X146884819Y-79928571D01*
X86238094Y-79454819D02*
X86238094Y-80264342D01*
X86238094Y-80264342D02*
X86190475Y-80359580D01*
X86190475Y-80359580D02*
X86142856Y-80407200D01*
X86142856Y-80407200D02*
X86047618Y-80454819D01*
X86047618Y-80454819D02*
X85857142Y-80454819D01*
X85857142Y-80454819D02*
X85761904Y-80407200D01*
X85761904Y-80407200D02*
X85714285Y-80359580D01*
X85714285Y-80359580D02*
X85666666Y-80264342D01*
X85666666Y-80264342D02*
X85666666Y-79454819D01*
X85285713Y-79454819D02*
X84619047Y-79454819D01*
X84619047Y-79454819D02*
X85047618Y-80454819D01*
X84047618Y-79454819D02*
X83952380Y-79454819D01*
X83952380Y-79454819D02*
X83857142Y-79502438D01*
X83857142Y-79502438D02*
X83809523Y-79550057D01*
X83809523Y-79550057D02*
X83761904Y-79645295D01*
X83761904Y-79645295D02*
X83714285Y-79835771D01*
X83714285Y-79835771D02*
X83714285Y-80073866D01*
X83714285Y-80073866D02*
X83761904Y-80264342D01*
X83761904Y-80264342D02*
X83809523Y-80359580D01*
X83809523Y-80359580D02*
X83857142Y-80407200D01*
X83857142Y-80407200D02*
X83952380Y-80454819D01*
X83952380Y-80454819D02*
X84047618Y-80454819D01*
X84047618Y-80454819D02*
X84142856Y-80407200D01*
X84142856Y-80407200D02*
X84190475Y-80359580D01*
X84190475Y-80359580D02*
X84238094Y-80264342D01*
X84238094Y-80264342D02*
X84285713Y-80073866D01*
X84285713Y-80073866D02*
X84285713Y-79835771D01*
X84285713Y-79835771D02*
X84238094Y-79645295D01*
X84238094Y-79645295D02*
X84190475Y-79550057D01*
X84190475Y-79550057D02*
X84142856Y-79502438D01*
X84142856Y-79502438D02*
X84047618Y-79454819D01*
X113179819Y-70899405D02*
X113989342Y-70899405D01*
X113989342Y-70899405D02*
X114084580Y-70947024D01*
X114084580Y-70947024D02*
X114132200Y-70994643D01*
X114132200Y-70994643D02*
X114179819Y-71089881D01*
X114179819Y-71089881D02*
X114179819Y-71280357D01*
X114179819Y-71280357D02*
X114132200Y-71375595D01*
X114132200Y-71375595D02*
X114084580Y-71423214D01*
X114084580Y-71423214D02*
X113989342Y-71470833D01*
X113989342Y-71470833D02*
X113179819Y-71470833D01*
X114179819Y-72470833D02*
X114179819Y-71899405D01*
X114179819Y-72185119D02*
X113179819Y-72185119D01*
X113179819Y-72185119D02*
X113322676Y-72089881D01*
X113322676Y-72089881D02*
X113417914Y-71994643D01*
X113417914Y-71994643D02*
X113465533Y-71899405D01*
X113179819Y-73089881D02*
X113179819Y-73185119D01*
X113179819Y-73185119D02*
X113227438Y-73280357D01*
X113227438Y-73280357D02*
X113275057Y-73327976D01*
X113275057Y-73327976D02*
X113370295Y-73375595D01*
X113370295Y-73375595D02*
X113560771Y-73423214D01*
X113560771Y-73423214D02*
X113798866Y-73423214D01*
X113798866Y-73423214D02*
X113989342Y-73375595D01*
X113989342Y-73375595D02*
X114084580Y-73327976D01*
X114084580Y-73327976D02*
X114132200Y-73280357D01*
X114132200Y-73280357D02*
X114179819Y-73185119D01*
X114179819Y-73185119D02*
X114179819Y-73089881D01*
X114179819Y-73089881D02*
X114132200Y-72994643D01*
X114132200Y-72994643D02*
X114084580Y-72947024D01*
X114084580Y-72947024D02*
X113989342Y-72899405D01*
X113989342Y-72899405D02*
X113798866Y-72851786D01*
X113798866Y-72851786D02*
X113560771Y-72851786D01*
X113560771Y-72851786D02*
X113370295Y-72899405D01*
X113370295Y-72899405D02*
X113275057Y-72947024D01*
X113275057Y-72947024D02*
X113227438Y-72994643D01*
X113227438Y-72994643D02*
X113179819Y-73089881D01*
X216179819Y-106624405D02*
X216989342Y-106624405D01*
X216989342Y-106624405D02*
X217084580Y-106672024D01*
X217084580Y-106672024D02*
X217132200Y-106719643D01*
X217132200Y-106719643D02*
X217179819Y-106814881D01*
X217179819Y-106814881D02*
X217179819Y-107005357D01*
X217179819Y-107005357D02*
X217132200Y-107100595D01*
X217132200Y-107100595D02*
X217084580Y-107148214D01*
X217084580Y-107148214D02*
X216989342Y-107195833D01*
X216989342Y-107195833D02*
X216179819Y-107195833D01*
X216179819Y-108100595D02*
X216179819Y-107910119D01*
X216179819Y-107910119D02*
X216227438Y-107814881D01*
X216227438Y-107814881D02*
X216275057Y-107767262D01*
X216275057Y-107767262D02*
X216417914Y-107672024D01*
X216417914Y-107672024D02*
X216608390Y-107624405D01*
X216608390Y-107624405D02*
X216989342Y-107624405D01*
X216989342Y-107624405D02*
X217084580Y-107672024D01*
X217084580Y-107672024D02*
X217132200Y-107719643D01*
X217132200Y-107719643D02*
X217179819Y-107814881D01*
X217179819Y-107814881D02*
X217179819Y-108005357D01*
X217179819Y-108005357D02*
X217132200Y-108100595D01*
X217132200Y-108100595D02*
X217084580Y-108148214D01*
X217084580Y-108148214D02*
X216989342Y-108195833D01*
X216989342Y-108195833D02*
X216751247Y-108195833D01*
X216751247Y-108195833D02*
X216656009Y-108148214D01*
X216656009Y-108148214D02*
X216608390Y-108100595D01*
X216608390Y-108100595D02*
X216560771Y-108005357D01*
X216560771Y-108005357D02*
X216560771Y-107814881D01*
X216560771Y-107814881D02*
X216608390Y-107719643D01*
X216608390Y-107719643D02*
X216656009Y-107672024D01*
X216656009Y-107672024D02*
X216751247Y-107624405D01*
X216179819Y-108814881D02*
X216179819Y-108910119D01*
X216179819Y-108910119D02*
X216227438Y-109005357D01*
X216227438Y-109005357D02*
X216275057Y-109052976D01*
X216275057Y-109052976D02*
X216370295Y-109100595D01*
X216370295Y-109100595D02*
X216560771Y-109148214D01*
X216560771Y-109148214D02*
X216798866Y-109148214D01*
X216798866Y-109148214D02*
X216989342Y-109100595D01*
X216989342Y-109100595D02*
X217084580Y-109052976D01*
X217084580Y-109052976D02*
X217132200Y-109005357D01*
X217132200Y-109005357D02*
X217179819Y-108910119D01*
X217179819Y-108910119D02*
X217179819Y-108814881D01*
X217179819Y-108814881D02*
X217132200Y-108719643D01*
X217132200Y-108719643D02*
X217084580Y-108672024D01*
X217084580Y-108672024D02*
X216989342Y-108624405D01*
X216989342Y-108624405D02*
X216798866Y-108576786D01*
X216798866Y-108576786D02*
X216560771Y-108576786D01*
X216560771Y-108576786D02*
X216370295Y-108624405D01*
X216370295Y-108624405D02*
X216275057Y-108672024D01*
X216275057Y-108672024D02*
X216227438Y-108719643D01*
X216227438Y-108719643D02*
X216179819Y-108814881D01*
X246929580Y-79357142D02*
X246977200Y-79309523D01*
X246977200Y-79309523D02*
X247024819Y-79166666D01*
X247024819Y-79166666D02*
X247024819Y-79071428D01*
X247024819Y-79071428D02*
X246977200Y-78928571D01*
X246977200Y-78928571D02*
X246881961Y-78833333D01*
X246881961Y-78833333D02*
X246786723Y-78785714D01*
X246786723Y-78785714D02*
X246596247Y-78738095D01*
X246596247Y-78738095D02*
X246453390Y-78738095D01*
X246453390Y-78738095D02*
X246262914Y-78785714D01*
X246262914Y-78785714D02*
X246167676Y-78833333D01*
X246167676Y-78833333D02*
X246072438Y-78928571D01*
X246072438Y-78928571D02*
X246024819Y-79071428D01*
X246024819Y-79071428D02*
X246024819Y-79166666D01*
X246024819Y-79166666D02*
X246072438Y-79309523D01*
X246072438Y-79309523D02*
X246120057Y-79357142D01*
X246453390Y-79928571D02*
X246405771Y-79833333D01*
X246405771Y-79833333D02*
X246358152Y-79785714D01*
X246358152Y-79785714D02*
X246262914Y-79738095D01*
X246262914Y-79738095D02*
X246215295Y-79738095D01*
X246215295Y-79738095D02*
X246120057Y-79785714D01*
X246120057Y-79785714D02*
X246072438Y-79833333D01*
X246072438Y-79833333D02*
X246024819Y-79928571D01*
X246024819Y-79928571D02*
X246024819Y-80119047D01*
X246024819Y-80119047D02*
X246072438Y-80214285D01*
X246072438Y-80214285D02*
X246120057Y-80261904D01*
X246120057Y-80261904D02*
X246215295Y-80309523D01*
X246215295Y-80309523D02*
X246262914Y-80309523D01*
X246262914Y-80309523D02*
X246358152Y-80261904D01*
X246358152Y-80261904D02*
X246405771Y-80214285D01*
X246405771Y-80214285D02*
X246453390Y-80119047D01*
X246453390Y-80119047D02*
X246453390Y-79928571D01*
X246453390Y-79928571D02*
X246501009Y-79833333D01*
X246501009Y-79833333D02*
X246548628Y-79785714D01*
X246548628Y-79785714D02*
X246643866Y-79738095D01*
X246643866Y-79738095D02*
X246834342Y-79738095D01*
X246834342Y-79738095D02*
X246929580Y-79785714D01*
X246929580Y-79785714D02*
X246977200Y-79833333D01*
X246977200Y-79833333D02*
X247024819Y-79928571D01*
X247024819Y-79928571D02*
X247024819Y-80119047D01*
X247024819Y-80119047D02*
X246977200Y-80214285D01*
X246977200Y-80214285D02*
X246929580Y-80261904D01*
X246929580Y-80261904D02*
X246834342Y-80309523D01*
X246834342Y-80309523D02*
X246643866Y-80309523D01*
X246643866Y-80309523D02*
X246548628Y-80261904D01*
X246548628Y-80261904D02*
X246501009Y-80214285D01*
X246501009Y-80214285D02*
X246453390Y-80119047D01*
X247024819Y-81261904D02*
X247024819Y-80690476D01*
X247024819Y-80976190D02*
X246024819Y-80976190D01*
X246024819Y-80976190D02*
X246167676Y-80880952D01*
X246167676Y-80880952D02*
X246262914Y-80785714D01*
X246262914Y-80785714D02*
X246310533Y-80690476D01*
X146179819Y-70899405D02*
X146989342Y-70899405D01*
X146989342Y-70899405D02*
X147084580Y-70947024D01*
X147084580Y-70947024D02*
X147132200Y-70994643D01*
X147132200Y-70994643D02*
X147179819Y-71089881D01*
X147179819Y-71089881D02*
X147179819Y-71280357D01*
X147179819Y-71280357D02*
X147132200Y-71375595D01*
X147132200Y-71375595D02*
X147084580Y-71423214D01*
X147084580Y-71423214D02*
X146989342Y-71470833D01*
X146989342Y-71470833D02*
X146179819Y-71470833D01*
X147179819Y-72470833D02*
X147179819Y-71899405D01*
X147179819Y-72185119D02*
X146179819Y-72185119D01*
X146179819Y-72185119D02*
X146322676Y-72089881D01*
X146322676Y-72089881D02*
X146417914Y-71994643D01*
X146417914Y-71994643D02*
X146465533Y-71899405D01*
X146179819Y-72804167D02*
X146179819Y-73423214D01*
X146179819Y-73423214D02*
X146560771Y-73089881D01*
X146560771Y-73089881D02*
X146560771Y-73232738D01*
X146560771Y-73232738D02*
X146608390Y-73327976D01*
X146608390Y-73327976D02*
X146656009Y-73375595D01*
X146656009Y-73375595D02*
X146751247Y-73423214D01*
X146751247Y-73423214D02*
X146989342Y-73423214D01*
X146989342Y-73423214D02*
X147084580Y-73375595D01*
X147084580Y-73375595D02*
X147132200Y-73327976D01*
X147132200Y-73327976D02*
X147179819Y-73232738D01*
X147179819Y-73232738D02*
X147179819Y-72947024D01*
X147179819Y-72947024D02*
X147132200Y-72851786D01*
X147132200Y-72851786D02*
X147084580Y-72804167D01*
X238179819Y-106624405D02*
X238989342Y-106624405D01*
X238989342Y-106624405D02*
X239084580Y-106672024D01*
X239084580Y-106672024D02*
X239132200Y-106719643D01*
X239132200Y-106719643D02*
X239179819Y-106814881D01*
X239179819Y-106814881D02*
X239179819Y-107005357D01*
X239179819Y-107005357D02*
X239132200Y-107100595D01*
X239132200Y-107100595D02*
X239084580Y-107148214D01*
X239084580Y-107148214D02*
X238989342Y-107195833D01*
X238989342Y-107195833D02*
X238179819Y-107195833D01*
X238179819Y-108100595D02*
X238179819Y-107910119D01*
X238179819Y-107910119D02*
X238227438Y-107814881D01*
X238227438Y-107814881D02*
X238275057Y-107767262D01*
X238275057Y-107767262D02*
X238417914Y-107672024D01*
X238417914Y-107672024D02*
X238608390Y-107624405D01*
X238608390Y-107624405D02*
X238989342Y-107624405D01*
X238989342Y-107624405D02*
X239084580Y-107672024D01*
X239084580Y-107672024D02*
X239132200Y-107719643D01*
X239132200Y-107719643D02*
X239179819Y-107814881D01*
X239179819Y-107814881D02*
X239179819Y-108005357D01*
X239179819Y-108005357D02*
X239132200Y-108100595D01*
X239132200Y-108100595D02*
X239084580Y-108148214D01*
X239084580Y-108148214D02*
X238989342Y-108195833D01*
X238989342Y-108195833D02*
X238751247Y-108195833D01*
X238751247Y-108195833D02*
X238656009Y-108148214D01*
X238656009Y-108148214D02*
X238608390Y-108100595D01*
X238608390Y-108100595D02*
X238560771Y-108005357D01*
X238560771Y-108005357D02*
X238560771Y-107814881D01*
X238560771Y-107814881D02*
X238608390Y-107719643D01*
X238608390Y-107719643D02*
X238656009Y-107672024D01*
X238656009Y-107672024D02*
X238751247Y-107624405D01*
X238275057Y-108576786D02*
X238227438Y-108624405D01*
X238227438Y-108624405D02*
X238179819Y-108719643D01*
X238179819Y-108719643D02*
X238179819Y-108957738D01*
X238179819Y-108957738D02*
X238227438Y-109052976D01*
X238227438Y-109052976D02*
X238275057Y-109100595D01*
X238275057Y-109100595D02*
X238370295Y-109148214D01*
X238370295Y-109148214D02*
X238465533Y-109148214D01*
X238465533Y-109148214D02*
X238608390Y-109100595D01*
X238608390Y-109100595D02*
X239179819Y-108529167D01*
X239179819Y-108529167D02*
X239179819Y-109148214D01*
X205179819Y-106624405D02*
X205989342Y-106624405D01*
X205989342Y-106624405D02*
X206084580Y-106672024D01*
X206084580Y-106672024D02*
X206132200Y-106719643D01*
X206132200Y-106719643D02*
X206179819Y-106814881D01*
X206179819Y-106814881D02*
X206179819Y-107005357D01*
X206179819Y-107005357D02*
X206132200Y-107100595D01*
X206132200Y-107100595D02*
X206084580Y-107148214D01*
X206084580Y-107148214D02*
X205989342Y-107195833D01*
X205989342Y-107195833D02*
X205179819Y-107195833D01*
X205179819Y-108148214D02*
X205179819Y-107672024D01*
X205179819Y-107672024D02*
X205656009Y-107624405D01*
X205656009Y-107624405D02*
X205608390Y-107672024D01*
X205608390Y-107672024D02*
X205560771Y-107767262D01*
X205560771Y-107767262D02*
X205560771Y-108005357D01*
X205560771Y-108005357D02*
X205608390Y-108100595D01*
X205608390Y-108100595D02*
X205656009Y-108148214D01*
X205656009Y-108148214D02*
X205751247Y-108195833D01*
X205751247Y-108195833D02*
X205989342Y-108195833D01*
X205989342Y-108195833D02*
X206084580Y-108148214D01*
X206084580Y-108148214D02*
X206132200Y-108100595D01*
X206132200Y-108100595D02*
X206179819Y-108005357D01*
X206179819Y-108005357D02*
X206179819Y-107767262D01*
X206179819Y-107767262D02*
X206132200Y-107672024D01*
X206132200Y-107672024D02*
X206084580Y-107624405D01*
X206179819Y-108672024D02*
X206179819Y-108862500D01*
X206179819Y-108862500D02*
X206132200Y-108957738D01*
X206132200Y-108957738D02*
X206084580Y-109005357D01*
X206084580Y-109005357D02*
X205941723Y-109100595D01*
X205941723Y-109100595D02*
X205751247Y-109148214D01*
X205751247Y-109148214D02*
X205370295Y-109148214D01*
X205370295Y-109148214D02*
X205275057Y-109100595D01*
X205275057Y-109100595D02*
X205227438Y-109052976D01*
X205227438Y-109052976D02*
X205179819Y-108957738D01*
X205179819Y-108957738D02*
X205179819Y-108767262D01*
X205179819Y-108767262D02*
X205227438Y-108672024D01*
X205227438Y-108672024D02*
X205275057Y-108624405D01*
X205275057Y-108624405D02*
X205370295Y-108576786D01*
X205370295Y-108576786D02*
X205608390Y-108576786D01*
X205608390Y-108576786D02*
X205703628Y-108624405D01*
X205703628Y-108624405D02*
X205751247Y-108672024D01*
X205751247Y-108672024D02*
X205798866Y-108767262D01*
X205798866Y-108767262D02*
X205798866Y-108957738D01*
X205798866Y-108957738D02*
X205751247Y-109052976D01*
X205751247Y-109052976D02*
X205703628Y-109100595D01*
X205703628Y-109100595D02*
X205608390Y-109148214D01*
X225679580Y-89107142D02*
X225727200Y-89059523D01*
X225727200Y-89059523D02*
X225774819Y-88916666D01*
X225774819Y-88916666D02*
X225774819Y-88821428D01*
X225774819Y-88821428D02*
X225727200Y-88678571D01*
X225727200Y-88678571D02*
X225631961Y-88583333D01*
X225631961Y-88583333D02*
X225536723Y-88535714D01*
X225536723Y-88535714D02*
X225346247Y-88488095D01*
X225346247Y-88488095D02*
X225203390Y-88488095D01*
X225203390Y-88488095D02*
X225012914Y-88535714D01*
X225012914Y-88535714D02*
X224917676Y-88583333D01*
X224917676Y-88583333D02*
X224822438Y-88678571D01*
X224822438Y-88678571D02*
X224774819Y-88821428D01*
X224774819Y-88821428D02*
X224774819Y-88916666D01*
X224774819Y-88916666D02*
X224822438Y-89059523D01*
X224822438Y-89059523D02*
X224870057Y-89107142D01*
X224774819Y-89440476D02*
X224774819Y-90107142D01*
X224774819Y-90107142D02*
X225774819Y-89678571D01*
X224774819Y-90916666D02*
X224774819Y-90726190D01*
X224774819Y-90726190D02*
X224822438Y-90630952D01*
X224822438Y-90630952D02*
X224870057Y-90583333D01*
X224870057Y-90583333D02*
X225012914Y-90488095D01*
X225012914Y-90488095D02*
X225203390Y-90440476D01*
X225203390Y-90440476D02*
X225584342Y-90440476D01*
X225584342Y-90440476D02*
X225679580Y-90488095D01*
X225679580Y-90488095D02*
X225727200Y-90535714D01*
X225727200Y-90535714D02*
X225774819Y-90630952D01*
X225774819Y-90630952D02*
X225774819Y-90821428D01*
X225774819Y-90821428D02*
X225727200Y-90916666D01*
X225727200Y-90916666D02*
X225679580Y-90964285D01*
X225679580Y-90964285D02*
X225584342Y-91011904D01*
X225584342Y-91011904D02*
X225346247Y-91011904D01*
X225346247Y-91011904D02*
X225251009Y-90964285D01*
X225251009Y-90964285D02*
X225203390Y-90916666D01*
X225203390Y-90916666D02*
X225155771Y-90821428D01*
X225155771Y-90821428D02*
X225155771Y-90630952D01*
X225155771Y-90630952D02*
X225203390Y-90535714D01*
X225203390Y-90535714D02*
X225251009Y-90488095D01*
X225251009Y-90488095D02*
X225346247Y-90440476D01*
X189238094Y-102454819D02*
X189238094Y-103264342D01*
X189238094Y-103264342D02*
X189190475Y-103359580D01*
X189190475Y-103359580D02*
X189142856Y-103407200D01*
X189142856Y-103407200D02*
X189047618Y-103454819D01*
X189047618Y-103454819D02*
X188857142Y-103454819D01*
X188857142Y-103454819D02*
X188761904Y-103407200D01*
X188761904Y-103407200D02*
X188714285Y-103359580D01*
X188714285Y-103359580D02*
X188666666Y-103264342D01*
X188666666Y-103264342D02*
X188666666Y-102454819D01*
X187714285Y-102454819D02*
X188190475Y-102454819D01*
X188190475Y-102454819D02*
X188238094Y-102931009D01*
X188238094Y-102931009D02*
X188190475Y-102883390D01*
X188190475Y-102883390D02*
X188095237Y-102835771D01*
X188095237Y-102835771D02*
X187857142Y-102835771D01*
X187857142Y-102835771D02*
X187761904Y-102883390D01*
X187761904Y-102883390D02*
X187714285Y-102931009D01*
X187714285Y-102931009D02*
X187666666Y-103026247D01*
X187666666Y-103026247D02*
X187666666Y-103264342D01*
X187666666Y-103264342D02*
X187714285Y-103359580D01*
X187714285Y-103359580D02*
X187761904Y-103407200D01*
X187761904Y-103407200D02*
X187857142Y-103454819D01*
X187857142Y-103454819D02*
X188095237Y-103454819D01*
X188095237Y-103454819D02*
X188190475Y-103407200D01*
X188190475Y-103407200D02*
X188238094Y-103359580D01*
X187333332Y-102454819D02*
X186666666Y-102454819D01*
X186666666Y-102454819D02*
X187095237Y-103454819D01*
X243567857Y-118539580D02*
X243615476Y-118587200D01*
X243615476Y-118587200D02*
X243758333Y-118634819D01*
X243758333Y-118634819D02*
X243853571Y-118634819D01*
X243853571Y-118634819D02*
X243996428Y-118587200D01*
X243996428Y-118587200D02*
X244091666Y-118491961D01*
X244091666Y-118491961D02*
X244139285Y-118396723D01*
X244139285Y-118396723D02*
X244186904Y-118206247D01*
X244186904Y-118206247D02*
X244186904Y-118063390D01*
X244186904Y-118063390D02*
X244139285Y-117872914D01*
X244139285Y-117872914D02*
X244091666Y-117777676D01*
X244091666Y-117777676D02*
X243996428Y-117682438D01*
X243996428Y-117682438D02*
X243853571Y-117634819D01*
X243853571Y-117634819D02*
X243758333Y-117634819D01*
X243758333Y-117634819D02*
X243615476Y-117682438D01*
X243615476Y-117682438D02*
X243567857Y-117730057D01*
X242710714Y-117968152D02*
X242710714Y-118634819D01*
X242948809Y-117587200D02*
X243186904Y-118301485D01*
X243186904Y-118301485D02*
X242567857Y-118301485D01*
X241663095Y-118634819D02*
X242234523Y-118634819D01*
X241948809Y-118634819D02*
X241948809Y-117634819D01*
X241948809Y-117634819D02*
X242044047Y-117777676D01*
X242044047Y-117777676D02*
X242139285Y-117872914D01*
X242139285Y-117872914D02*
X242234523Y-117920533D01*
X113904819Y-110761905D02*
X114714342Y-110761905D01*
X114714342Y-110761905D02*
X114809580Y-110809524D01*
X114809580Y-110809524D02*
X114857200Y-110857143D01*
X114857200Y-110857143D02*
X114904819Y-110952381D01*
X114904819Y-110952381D02*
X114904819Y-111142857D01*
X114904819Y-111142857D02*
X114857200Y-111238095D01*
X114857200Y-111238095D02*
X114809580Y-111285714D01*
X114809580Y-111285714D02*
X114714342Y-111333333D01*
X114714342Y-111333333D02*
X113904819Y-111333333D01*
X113904819Y-111714286D02*
X113904819Y-112333333D01*
X113904819Y-112333333D02*
X114285771Y-112000000D01*
X114285771Y-112000000D02*
X114285771Y-112142857D01*
X114285771Y-112142857D02*
X114333390Y-112238095D01*
X114333390Y-112238095D02*
X114381009Y-112285714D01*
X114381009Y-112285714D02*
X114476247Y-112333333D01*
X114476247Y-112333333D02*
X114714342Y-112333333D01*
X114714342Y-112333333D02*
X114809580Y-112285714D01*
X114809580Y-112285714D02*
X114857200Y-112238095D01*
X114857200Y-112238095D02*
X114904819Y-112142857D01*
X114904819Y-112142857D02*
X114904819Y-111857143D01*
X114904819Y-111857143D02*
X114857200Y-111761905D01*
X114857200Y-111761905D02*
X114809580Y-111714286D01*
X113904819Y-113190476D02*
X113904819Y-113000000D01*
X113904819Y-113000000D02*
X113952438Y-112904762D01*
X113952438Y-112904762D02*
X114000057Y-112857143D01*
X114000057Y-112857143D02*
X114142914Y-112761905D01*
X114142914Y-112761905D02*
X114333390Y-112714286D01*
X114333390Y-112714286D02*
X114714342Y-112714286D01*
X114714342Y-112714286D02*
X114809580Y-112761905D01*
X114809580Y-112761905D02*
X114857200Y-112809524D01*
X114857200Y-112809524D02*
X114904819Y-112904762D01*
X114904819Y-112904762D02*
X114904819Y-113095238D01*
X114904819Y-113095238D02*
X114857200Y-113190476D01*
X114857200Y-113190476D02*
X114809580Y-113238095D01*
X114809580Y-113238095D02*
X114714342Y-113285714D01*
X114714342Y-113285714D02*
X114476247Y-113285714D01*
X114476247Y-113285714D02*
X114381009Y-113238095D01*
X114381009Y-113238095D02*
X114333390Y-113190476D01*
X114333390Y-113190476D02*
X114285771Y-113095238D01*
X114285771Y-113095238D02*
X114285771Y-112904762D01*
X114285771Y-112904762D02*
X114333390Y-112809524D01*
X114333390Y-112809524D02*
X114381009Y-112761905D01*
X114381009Y-112761905D02*
X114476247Y-112714286D01*
X91179819Y-71375595D02*
X91989342Y-71375595D01*
X91989342Y-71375595D02*
X92084580Y-71423214D01*
X92084580Y-71423214D02*
X92132200Y-71470833D01*
X92132200Y-71470833D02*
X92179819Y-71566071D01*
X92179819Y-71566071D02*
X92179819Y-71756547D01*
X92179819Y-71756547D02*
X92132200Y-71851785D01*
X92132200Y-71851785D02*
X92084580Y-71899404D01*
X92084580Y-71899404D02*
X91989342Y-71947023D01*
X91989342Y-71947023D02*
X91179819Y-71947023D01*
X91608390Y-72566071D02*
X91560771Y-72470833D01*
X91560771Y-72470833D02*
X91513152Y-72423214D01*
X91513152Y-72423214D02*
X91417914Y-72375595D01*
X91417914Y-72375595D02*
X91370295Y-72375595D01*
X91370295Y-72375595D02*
X91275057Y-72423214D01*
X91275057Y-72423214D02*
X91227438Y-72470833D01*
X91227438Y-72470833D02*
X91179819Y-72566071D01*
X91179819Y-72566071D02*
X91179819Y-72756547D01*
X91179819Y-72756547D02*
X91227438Y-72851785D01*
X91227438Y-72851785D02*
X91275057Y-72899404D01*
X91275057Y-72899404D02*
X91370295Y-72947023D01*
X91370295Y-72947023D02*
X91417914Y-72947023D01*
X91417914Y-72947023D02*
X91513152Y-72899404D01*
X91513152Y-72899404D02*
X91560771Y-72851785D01*
X91560771Y-72851785D02*
X91608390Y-72756547D01*
X91608390Y-72756547D02*
X91608390Y-72566071D01*
X91608390Y-72566071D02*
X91656009Y-72470833D01*
X91656009Y-72470833D02*
X91703628Y-72423214D01*
X91703628Y-72423214D02*
X91798866Y-72375595D01*
X91798866Y-72375595D02*
X91989342Y-72375595D01*
X91989342Y-72375595D02*
X92084580Y-72423214D01*
X92084580Y-72423214D02*
X92132200Y-72470833D01*
X92132200Y-72470833D02*
X92179819Y-72566071D01*
X92179819Y-72566071D02*
X92179819Y-72756547D01*
X92179819Y-72756547D02*
X92132200Y-72851785D01*
X92132200Y-72851785D02*
X92084580Y-72899404D01*
X92084580Y-72899404D02*
X91989342Y-72947023D01*
X91989342Y-72947023D02*
X91798866Y-72947023D01*
X91798866Y-72947023D02*
X91703628Y-72899404D01*
X91703628Y-72899404D02*
X91656009Y-72851785D01*
X91656009Y-72851785D02*
X91608390Y-72756547D01*
X80179819Y-71375595D02*
X80989342Y-71375595D01*
X80989342Y-71375595D02*
X81084580Y-71423214D01*
X81084580Y-71423214D02*
X81132200Y-71470833D01*
X81132200Y-71470833D02*
X81179819Y-71566071D01*
X81179819Y-71566071D02*
X81179819Y-71756547D01*
X81179819Y-71756547D02*
X81132200Y-71851785D01*
X81132200Y-71851785D02*
X81084580Y-71899404D01*
X81084580Y-71899404D02*
X80989342Y-71947023D01*
X80989342Y-71947023D02*
X80179819Y-71947023D01*
X80179819Y-72327976D02*
X80179819Y-72994642D01*
X80179819Y-72994642D02*
X81179819Y-72566071D01*
X249179819Y-83899405D02*
X249989342Y-83899405D01*
X249989342Y-83899405D02*
X250084580Y-83947024D01*
X250084580Y-83947024D02*
X250132200Y-83994643D01*
X250132200Y-83994643D02*
X250179819Y-84089881D01*
X250179819Y-84089881D02*
X250179819Y-84280357D01*
X250179819Y-84280357D02*
X250132200Y-84375595D01*
X250132200Y-84375595D02*
X250084580Y-84423214D01*
X250084580Y-84423214D02*
X249989342Y-84470833D01*
X249989342Y-84470833D02*
X249179819Y-84470833D01*
X249608390Y-85089881D02*
X249560771Y-84994643D01*
X249560771Y-84994643D02*
X249513152Y-84947024D01*
X249513152Y-84947024D02*
X249417914Y-84899405D01*
X249417914Y-84899405D02*
X249370295Y-84899405D01*
X249370295Y-84899405D02*
X249275057Y-84947024D01*
X249275057Y-84947024D02*
X249227438Y-84994643D01*
X249227438Y-84994643D02*
X249179819Y-85089881D01*
X249179819Y-85089881D02*
X249179819Y-85280357D01*
X249179819Y-85280357D02*
X249227438Y-85375595D01*
X249227438Y-85375595D02*
X249275057Y-85423214D01*
X249275057Y-85423214D02*
X249370295Y-85470833D01*
X249370295Y-85470833D02*
X249417914Y-85470833D01*
X249417914Y-85470833D02*
X249513152Y-85423214D01*
X249513152Y-85423214D02*
X249560771Y-85375595D01*
X249560771Y-85375595D02*
X249608390Y-85280357D01*
X249608390Y-85280357D02*
X249608390Y-85089881D01*
X249608390Y-85089881D02*
X249656009Y-84994643D01*
X249656009Y-84994643D02*
X249703628Y-84947024D01*
X249703628Y-84947024D02*
X249798866Y-84899405D01*
X249798866Y-84899405D02*
X249989342Y-84899405D01*
X249989342Y-84899405D02*
X250084580Y-84947024D01*
X250084580Y-84947024D02*
X250132200Y-84994643D01*
X250132200Y-84994643D02*
X250179819Y-85089881D01*
X250179819Y-85089881D02*
X250179819Y-85280357D01*
X250179819Y-85280357D02*
X250132200Y-85375595D01*
X250132200Y-85375595D02*
X250084580Y-85423214D01*
X250084580Y-85423214D02*
X249989342Y-85470833D01*
X249989342Y-85470833D02*
X249798866Y-85470833D01*
X249798866Y-85470833D02*
X249703628Y-85423214D01*
X249703628Y-85423214D02*
X249656009Y-85375595D01*
X249656009Y-85375595D02*
X249608390Y-85280357D01*
X249513152Y-86327976D02*
X250179819Y-86327976D01*
X249132200Y-86089881D02*
X249846485Y-85851786D01*
X249846485Y-85851786D02*
X249846485Y-86470833D01*
X260179819Y-106624405D02*
X260989342Y-106624405D01*
X260989342Y-106624405D02*
X261084580Y-106672024D01*
X261084580Y-106672024D02*
X261132200Y-106719643D01*
X261132200Y-106719643D02*
X261179819Y-106814881D01*
X261179819Y-106814881D02*
X261179819Y-107005357D01*
X261179819Y-107005357D02*
X261132200Y-107100595D01*
X261132200Y-107100595D02*
X261084580Y-107148214D01*
X261084580Y-107148214D02*
X260989342Y-107195833D01*
X260989342Y-107195833D02*
X260179819Y-107195833D01*
X260179819Y-108100595D02*
X260179819Y-107910119D01*
X260179819Y-107910119D02*
X260227438Y-107814881D01*
X260227438Y-107814881D02*
X260275057Y-107767262D01*
X260275057Y-107767262D02*
X260417914Y-107672024D01*
X260417914Y-107672024D02*
X260608390Y-107624405D01*
X260608390Y-107624405D02*
X260989342Y-107624405D01*
X260989342Y-107624405D02*
X261084580Y-107672024D01*
X261084580Y-107672024D02*
X261132200Y-107719643D01*
X261132200Y-107719643D02*
X261179819Y-107814881D01*
X261179819Y-107814881D02*
X261179819Y-108005357D01*
X261179819Y-108005357D02*
X261132200Y-108100595D01*
X261132200Y-108100595D02*
X261084580Y-108148214D01*
X261084580Y-108148214D02*
X260989342Y-108195833D01*
X260989342Y-108195833D02*
X260751247Y-108195833D01*
X260751247Y-108195833D02*
X260656009Y-108148214D01*
X260656009Y-108148214D02*
X260608390Y-108100595D01*
X260608390Y-108100595D02*
X260560771Y-108005357D01*
X260560771Y-108005357D02*
X260560771Y-107814881D01*
X260560771Y-107814881D02*
X260608390Y-107719643D01*
X260608390Y-107719643D02*
X260656009Y-107672024D01*
X260656009Y-107672024D02*
X260751247Y-107624405D01*
X260513152Y-109052976D02*
X261179819Y-109052976D01*
X260132200Y-108814881D02*
X260846485Y-108576786D01*
X260846485Y-108576786D02*
X260846485Y-109195833D01*
X261166666Y-115039580D02*
X261214285Y-115087200D01*
X261214285Y-115087200D02*
X261357142Y-115134819D01*
X261357142Y-115134819D02*
X261452380Y-115134819D01*
X261452380Y-115134819D02*
X261595237Y-115087200D01*
X261595237Y-115087200D02*
X261690475Y-114991961D01*
X261690475Y-114991961D02*
X261738094Y-114896723D01*
X261738094Y-114896723D02*
X261785713Y-114706247D01*
X261785713Y-114706247D02*
X261785713Y-114563390D01*
X261785713Y-114563390D02*
X261738094Y-114372914D01*
X261738094Y-114372914D02*
X261690475Y-114277676D01*
X261690475Y-114277676D02*
X261595237Y-114182438D01*
X261595237Y-114182438D02*
X261452380Y-114134819D01*
X261452380Y-114134819D02*
X261357142Y-114134819D01*
X261357142Y-114134819D02*
X261214285Y-114182438D01*
X261214285Y-114182438D02*
X261166666Y-114230057D01*
X260261904Y-114134819D02*
X260738094Y-114134819D01*
X260738094Y-114134819D02*
X260785713Y-114611009D01*
X260785713Y-114611009D02*
X260738094Y-114563390D01*
X260738094Y-114563390D02*
X260642856Y-114515771D01*
X260642856Y-114515771D02*
X260404761Y-114515771D01*
X260404761Y-114515771D02*
X260309523Y-114563390D01*
X260309523Y-114563390D02*
X260261904Y-114611009D01*
X260261904Y-114611009D02*
X260214285Y-114706247D01*
X260214285Y-114706247D02*
X260214285Y-114944342D01*
X260214285Y-114944342D02*
X260261904Y-115039580D01*
X260261904Y-115039580D02*
X260309523Y-115087200D01*
X260309523Y-115087200D02*
X260404761Y-115134819D01*
X260404761Y-115134819D02*
X260642856Y-115134819D01*
X260642856Y-115134819D02*
X260738094Y-115087200D01*
X260738094Y-115087200D02*
X260785713Y-115039580D01*
X213929580Y-113107142D02*
X213977200Y-113059523D01*
X213977200Y-113059523D02*
X214024819Y-112916666D01*
X214024819Y-112916666D02*
X214024819Y-112821428D01*
X214024819Y-112821428D02*
X213977200Y-112678571D01*
X213977200Y-112678571D02*
X213881961Y-112583333D01*
X213881961Y-112583333D02*
X213786723Y-112535714D01*
X213786723Y-112535714D02*
X213596247Y-112488095D01*
X213596247Y-112488095D02*
X213453390Y-112488095D01*
X213453390Y-112488095D02*
X213262914Y-112535714D01*
X213262914Y-112535714D02*
X213167676Y-112583333D01*
X213167676Y-112583333D02*
X213072438Y-112678571D01*
X213072438Y-112678571D02*
X213024819Y-112821428D01*
X213024819Y-112821428D02*
X213024819Y-112916666D01*
X213024819Y-112916666D02*
X213072438Y-113059523D01*
X213072438Y-113059523D02*
X213120057Y-113107142D01*
X214024819Y-114059523D02*
X214024819Y-113488095D01*
X214024819Y-113773809D02*
X213024819Y-113773809D01*
X213024819Y-113773809D02*
X213167676Y-113678571D01*
X213167676Y-113678571D02*
X213262914Y-113583333D01*
X213262914Y-113583333D02*
X213310533Y-113488095D01*
X213024819Y-114678571D02*
X213024819Y-114773809D01*
X213024819Y-114773809D02*
X213072438Y-114869047D01*
X213072438Y-114869047D02*
X213120057Y-114916666D01*
X213120057Y-114916666D02*
X213215295Y-114964285D01*
X213215295Y-114964285D02*
X213405771Y-115011904D01*
X213405771Y-115011904D02*
X213643866Y-115011904D01*
X213643866Y-115011904D02*
X213834342Y-114964285D01*
X213834342Y-114964285D02*
X213929580Y-114916666D01*
X213929580Y-114916666D02*
X213977200Y-114869047D01*
X213977200Y-114869047D02*
X214024819Y-114773809D01*
X214024819Y-114773809D02*
X214024819Y-114678571D01*
X214024819Y-114678571D02*
X213977200Y-114583333D01*
X213977200Y-114583333D02*
X213929580Y-114535714D01*
X213929580Y-114535714D02*
X213834342Y-114488095D01*
X213834342Y-114488095D02*
X213643866Y-114440476D01*
X213643866Y-114440476D02*
X213405771Y-114440476D01*
X213405771Y-114440476D02*
X213215295Y-114488095D01*
X213215295Y-114488095D02*
X213120057Y-114535714D01*
X213120057Y-114535714D02*
X213072438Y-114583333D01*
X213072438Y-114583333D02*
X213024819Y-114678571D01*
X259359580Y-79357142D02*
X259407200Y-79309523D01*
X259407200Y-79309523D02*
X259454819Y-79166666D01*
X259454819Y-79166666D02*
X259454819Y-79071428D01*
X259454819Y-79071428D02*
X259407200Y-78928571D01*
X259407200Y-78928571D02*
X259311961Y-78833333D01*
X259311961Y-78833333D02*
X259216723Y-78785714D01*
X259216723Y-78785714D02*
X259026247Y-78738095D01*
X259026247Y-78738095D02*
X258883390Y-78738095D01*
X258883390Y-78738095D02*
X258692914Y-78785714D01*
X258692914Y-78785714D02*
X258597676Y-78833333D01*
X258597676Y-78833333D02*
X258502438Y-78928571D01*
X258502438Y-78928571D02*
X258454819Y-79071428D01*
X258454819Y-79071428D02*
X258454819Y-79166666D01*
X258454819Y-79166666D02*
X258502438Y-79309523D01*
X258502438Y-79309523D02*
X258550057Y-79357142D01*
X258454819Y-79690476D02*
X258454819Y-80357142D01*
X258454819Y-80357142D02*
X259454819Y-79928571D01*
X258883390Y-80880952D02*
X258835771Y-80785714D01*
X258835771Y-80785714D02*
X258788152Y-80738095D01*
X258788152Y-80738095D02*
X258692914Y-80690476D01*
X258692914Y-80690476D02*
X258645295Y-80690476D01*
X258645295Y-80690476D02*
X258550057Y-80738095D01*
X258550057Y-80738095D02*
X258502438Y-80785714D01*
X258502438Y-80785714D02*
X258454819Y-80880952D01*
X258454819Y-80880952D02*
X258454819Y-81071428D01*
X258454819Y-81071428D02*
X258502438Y-81166666D01*
X258502438Y-81166666D02*
X258550057Y-81214285D01*
X258550057Y-81214285D02*
X258645295Y-81261904D01*
X258645295Y-81261904D02*
X258692914Y-81261904D01*
X258692914Y-81261904D02*
X258788152Y-81214285D01*
X258788152Y-81214285D02*
X258835771Y-81166666D01*
X258835771Y-81166666D02*
X258883390Y-81071428D01*
X258883390Y-81071428D02*
X258883390Y-80880952D01*
X258883390Y-80880952D02*
X258931009Y-80785714D01*
X258931009Y-80785714D02*
X258978628Y-80738095D01*
X258978628Y-80738095D02*
X259073866Y-80690476D01*
X259073866Y-80690476D02*
X259264342Y-80690476D01*
X259264342Y-80690476D02*
X259359580Y-80738095D01*
X259359580Y-80738095D02*
X259407200Y-80785714D01*
X259407200Y-80785714D02*
X259454819Y-80880952D01*
X259454819Y-80880952D02*
X259454819Y-81071428D01*
X259454819Y-81071428D02*
X259407200Y-81166666D01*
X259407200Y-81166666D02*
X259359580Y-81214285D01*
X259359580Y-81214285D02*
X259264342Y-81261904D01*
X259264342Y-81261904D02*
X259073866Y-81261904D01*
X259073866Y-81261904D02*
X258978628Y-81214285D01*
X258978628Y-81214285D02*
X258931009Y-81166666D01*
X258931009Y-81166666D02*
X258883390Y-81071428D01*
X175238094Y-78954819D02*
X175238094Y-79764342D01*
X175238094Y-79764342D02*
X175190475Y-79859580D01*
X175190475Y-79859580D02*
X175142856Y-79907200D01*
X175142856Y-79907200D02*
X175047618Y-79954819D01*
X175047618Y-79954819D02*
X174857142Y-79954819D01*
X174857142Y-79954819D02*
X174761904Y-79907200D01*
X174761904Y-79907200D02*
X174714285Y-79859580D01*
X174714285Y-79859580D02*
X174666666Y-79764342D01*
X174666666Y-79764342D02*
X174666666Y-78954819D01*
X174285713Y-78954819D02*
X173666666Y-78954819D01*
X173666666Y-78954819D02*
X173999999Y-79335771D01*
X173999999Y-79335771D02*
X173857142Y-79335771D01*
X173857142Y-79335771D02*
X173761904Y-79383390D01*
X173761904Y-79383390D02*
X173714285Y-79431009D01*
X173714285Y-79431009D02*
X173666666Y-79526247D01*
X173666666Y-79526247D02*
X173666666Y-79764342D01*
X173666666Y-79764342D02*
X173714285Y-79859580D01*
X173714285Y-79859580D02*
X173761904Y-79907200D01*
X173761904Y-79907200D02*
X173857142Y-79954819D01*
X173857142Y-79954819D02*
X174142856Y-79954819D01*
X174142856Y-79954819D02*
X174238094Y-79907200D01*
X174238094Y-79907200D02*
X174285713Y-79859580D01*
X173333332Y-78954819D02*
X172666666Y-78954819D01*
X172666666Y-78954819D02*
X173095237Y-79954819D01*
X67789580Y-75319642D02*
X67837200Y-75272023D01*
X67837200Y-75272023D02*
X67884819Y-75129166D01*
X67884819Y-75129166D02*
X67884819Y-75033928D01*
X67884819Y-75033928D02*
X67837200Y-74891071D01*
X67837200Y-74891071D02*
X67741961Y-74795833D01*
X67741961Y-74795833D02*
X67646723Y-74748214D01*
X67646723Y-74748214D02*
X67456247Y-74700595D01*
X67456247Y-74700595D02*
X67313390Y-74700595D01*
X67313390Y-74700595D02*
X67122914Y-74748214D01*
X67122914Y-74748214D02*
X67027676Y-74795833D01*
X67027676Y-74795833D02*
X66932438Y-74891071D01*
X66932438Y-74891071D02*
X66884819Y-75033928D01*
X66884819Y-75033928D02*
X66884819Y-75129166D01*
X66884819Y-75129166D02*
X66932438Y-75272023D01*
X66932438Y-75272023D02*
X66980057Y-75319642D01*
X66980057Y-75700595D02*
X66932438Y-75748214D01*
X66932438Y-75748214D02*
X66884819Y-75843452D01*
X66884819Y-75843452D02*
X66884819Y-76081547D01*
X66884819Y-76081547D02*
X66932438Y-76176785D01*
X66932438Y-76176785D02*
X66980057Y-76224404D01*
X66980057Y-76224404D02*
X67075295Y-76272023D01*
X67075295Y-76272023D02*
X67170533Y-76272023D01*
X67170533Y-76272023D02*
X67313390Y-76224404D01*
X67313390Y-76224404D02*
X67884819Y-75652976D01*
X67884819Y-75652976D02*
X67884819Y-76272023D01*
X67884819Y-77224404D02*
X67884819Y-76652976D01*
X67884819Y-76938690D02*
X66884819Y-76938690D01*
X66884819Y-76938690D02*
X67027676Y-76843452D01*
X67027676Y-76843452D02*
X67122914Y-76748214D01*
X67122914Y-76748214D02*
X67170533Y-76652976D01*
X227179819Y-106624405D02*
X227989342Y-106624405D01*
X227989342Y-106624405D02*
X228084580Y-106672024D01*
X228084580Y-106672024D02*
X228132200Y-106719643D01*
X228132200Y-106719643D02*
X228179819Y-106814881D01*
X228179819Y-106814881D02*
X228179819Y-107005357D01*
X228179819Y-107005357D02*
X228132200Y-107100595D01*
X228132200Y-107100595D02*
X228084580Y-107148214D01*
X228084580Y-107148214D02*
X227989342Y-107195833D01*
X227989342Y-107195833D02*
X227179819Y-107195833D01*
X227179819Y-108100595D02*
X227179819Y-107910119D01*
X227179819Y-107910119D02*
X227227438Y-107814881D01*
X227227438Y-107814881D02*
X227275057Y-107767262D01*
X227275057Y-107767262D02*
X227417914Y-107672024D01*
X227417914Y-107672024D02*
X227608390Y-107624405D01*
X227608390Y-107624405D02*
X227989342Y-107624405D01*
X227989342Y-107624405D02*
X228084580Y-107672024D01*
X228084580Y-107672024D02*
X228132200Y-107719643D01*
X228132200Y-107719643D02*
X228179819Y-107814881D01*
X228179819Y-107814881D02*
X228179819Y-108005357D01*
X228179819Y-108005357D02*
X228132200Y-108100595D01*
X228132200Y-108100595D02*
X228084580Y-108148214D01*
X228084580Y-108148214D02*
X227989342Y-108195833D01*
X227989342Y-108195833D02*
X227751247Y-108195833D01*
X227751247Y-108195833D02*
X227656009Y-108148214D01*
X227656009Y-108148214D02*
X227608390Y-108100595D01*
X227608390Y-108100595D02*
X227560771Y-108005357D01*
X227560771Y-108005357D02*
X227560771Y-107814881D01*
X227560771Y-107814881D02*
X227608390Y-107719643D01*
X227608390Y-107719643D02*
X227656009Y-107672024D01*
X227656009Y-107672024D02*
X227751247Y-107624405D01*
X228179819Y-109148214D02*
X228179819Y-108576786D01*
X228179819Y-108862500D02*
X227179819Y-108862500D01*
X227179819Y-108862500D02*
X227322676Y-108767262D01*
X227322676Y-108767262D02*
X227417914Y-108672024D01*
X227417914Y-108672024D02*
X227465533Y-108576786D01*
X235929580Y-113083333D02*
X235977200Y-113035714D01*
X235977200Y-113035714D02*
X236024819Y-112892857D01*
X236024819Y-112892857D02*
X236024819Y-112797619D01*
X236024819Y-112797619D02*
X235977200Y-112654762D01*
X235977200Y-112654762D02*
X235881961Y-112559524D01*
X235881961Y-112559524D02*
X235786723Y-112511905D01*
X235786723Y-112511905D02*
X235596247Y-112464286D01*
X235596247Y-112464286D02*
X235453390Y-112464286D01*
X235453390Y-112464286D02*
X235262914Y-112511905D01*
X235262914Y-112511905D02*
X235167676Y-112559524D01*
X235167676Y-112559524D02*
X235072438Y-112654762D01*
X235072438Y-112654762D02*
X235024819Y-112797619D01*
X235024819Y-112797619D02*
X235024819Y-112892857D01*
X235024819Y-112892857D02*
X235072438Y-113035714D01*
X235072438Y-113035714D02*
X235120057Y-113083333D01*
X235024819Y-113416667D02*
X235024819Y-114035714D01*
X235024819Y-114035714D02*
X235405771Y-113702381D01*
X235405771Y-113702381D02*
X235405771Y-113845238D01*
X235405771Y-113845238D02*
X235453390Y-113940476D01*
X235453390Y-113940476D02*
X235501009Y-113988095D01*
X235501009Y-113988095D02*
X235596247Y-114035714D01*
X235596247Y-114035714D02*
X235834342Y-114035714D01*
X235834342Y-114035714D02*
X235929580Y-113988095D01*
X235929580Y-113988095D02*
X235977200Y-113940476D01*
X235977200Y-113940476D02*
X236024819Y-113845238D01*
X236024819Y-113845238D02*
X236024819Y-113559524D01*
X236024819Y-113559524D02*
X235977200Y-113464286D01*
X235977200Y-113464286D02*
X235929580Y-113416667D01*
X194179819Y-106624405D02*
X194989342Y-106624405D01*
X194989342Y-106624405D02*
X195084580Y-106672024D01*
X195084580Y-106672024D02*
X195132200Y-106719643D01*
X195132200Y-106719643D02*
X195179819Y-106814881D01*
X195179819Y-106814881D02*
X195179819Y-107005357D01*
X195179819Y-107005357D02*
X195132200Y-107100595D01*
X195132200Y-107100595D02*
X195084580Y-107148214D01*
X195084580Y-107148214D02*
X194989342Y-107195833D01*
X194989342Y-107195833D02*
X194179819Y-107195833D01*
X194179819Y-108148214D02*
X194179819Y-107672024D01*
X194179819Y-107672024D02*
X194656009Y-107624405D01*
X194656009Y-107624405D02*
X194608390Y-107672024D01*
X194608390Y-107672024D02*
X194560771Y-107767262D01*
X194560771Y-107767262D02*
X194560771Y-108005357D01*
X194560771Y-108005357D02*
X194608390Y-108100595D01*
X194608390Y-108100595D02*
X194656009Y-108148214D01*
X194656009Y-108148214D02*
X194751247Y-108195833D01*
X194751247Y-108195833D02*
X194989342Y-108195833D01*
X194989342Y-108195833D02*
X195084580Y-108148214D01*
X195084580Y-108148214D02*
X195132200Y-108100595D01*
X195132200Y-108100595D02*
X195179819Y-108005357D01*
X195179819Y-108005357D02*
X195179819Y-107767262D01*
X195179819Y-107767262D02*
X195132200Y-107672024D01*
X195132200Y-107672024D02*
X195084580Y-107624405D01*
X194608390Y-108767262D02*
X194560771Y-108672024D01*
X194560771Y-108672024D02*
X194513152Y-108624405D01*
X194513152Y-108624405D02*
X194417914Y-108576786D01*
X194417914Y-108576786D02*
X194370295Y-108576786D01*
X194370295Y-108576786D02*
X194275057Y-108624405D01*
X194275057Y-108624405D02*
X194227438Y-108672024D01*
X194227438Y-108672024D02*
X194179819Y-108767262D01*
X194179819Y-108767262D02*
X194179819Y-108957738D01*
X194179819Y-108957738D02*
X194227438Y-109052976D01*
X194227438Y-109052976D02*
X194275057Y-109100595D01*
X194275057Y-109100595D02*
X194370295Y-109148214D01*
X194370295Y-109148214D02*
X194417914Y-109148214D01*
X194417914Y-109148214D02*
X194513152Y-109100595D01*
X194513152Y-109100595D02*
X194560771Y-109052976D01*
X194560771Y-109052976D02*
X194608390Y-108957738D01*
X194608390Y-108957738D02*
X194608390Y-108767262D01*
X194608390Y-108767262D02*
X194656009Y-108672024D01*
X194656009Y-108672024D02*
X194703628Y-108624405D01*
X194703628Y-108624405D02*
X194798866Y-108576786D01*
X194798866Y-108576786D02*
X194989342Y-108576786D01*
X194989342Y-108576786D02*
X195084580Y-108624405D01*
X195084580Y-108624405D02*
X195132200Y-108672024D01*
X195132200Y-108672024D02*
X195179819Y-108767262D01*
X195179819Y-108767262D02*
X195179819Y-108957738D01*
X195179819Y-108957738D02*
X195132200Y-109052976D01*
X195132200Y-109052976D02*
X195084580Y-109100595D01*
X195084580Y-109100595D02*
X194989342Y-109148214D01*
X194989342Y-109148214D02*
X194798866Y-109148214D01*
X194798866Y-109148214D02*
X194703628Y-109100595D01*
X194703628Y-109100595D02*
X194656009Y-109052976D01*
X194656009Y-109052976D02*
X194608390Y-108957738D01*
X114539580Y-78357142D02*
X114587200Y-78309523D01*
X114587200Y-78309523D02*
X114634819Y-78166666D01*
X114634819Y-78166666D02*
X114634819Y-78071428D01*
X114634819Y-78071428D02*
X114587200Y-77928571D01*
X114587200Y-77928571D02*
X114491961Y-77833333D01*
X114491961Y-77833333D02*
X114396723Y-77785714D01*
X114396723Y-77785714D02*
X114206247Y-77738095D01*
X114206247Y-77738095D02*
X114063390Y-77738095D01*
X114063390Y-77738095D02*
X113872914Y-77785714D01*
X113872914Y-77785714D02*
X113777676Y-77833333D01*
X113777676Y-77833333D02*
X113682438Y-77928571D01*
X113682438Y-77928571D02*
X113634819Y-78071428D01*
X113634819Y-78071428D02*
X113634819Y-78166666D01*
X113634819Y-78166666D02*
X113682438Y-78309523D01*
X113682438Y-78309523D02*
X113730057Y-78357142D01*
X113634819Y-78690476D02*
X113634819Y-79309523D01*
X113634819Y-79309523D02*
X114015771Y-78976190D01*
X114015771Y-78976190D02*
X114015771Y-79119047D01*
X114015771Y-79119047D02*
X114063390Y-79214285D01*
X114063390Y-79214285D02*
X114111009Y-79261904D01*
X114111009Y-79261904D02*
X114206247Y-79309523D01*
X114206247Y-79309523D02*
X114444342Y-79309523D01*
X114444342Y-79309523D02*
X114539580Y-79261904D01*
X114539580Y-79261904D02*
X114587200Y-79214285D01*
X114587200Y-79214285D02*
X114634819Y-79119047D01*
X114634819Y-79119047D02*
X114634819Y-78833333D01*
X114634819Y-78833333D02*
X114587200Y-78738095D01*
X114587200Y-78738095D02*
X114539580Y-78690476D01*
X113634819Y-80214285D02*
X113634819Y-79738095D01*
X113634819Y-79738095D02*
X114111009Y-79690476D01*
X114111009Y-79690476D02*
X114063390Y-79738095D01*
X114063390Y-79738095D02*
X114015771Y-79833333D01*
X114015771Y-79833333D02*
X114015771Y-80071428D01*
X114015771Y-80071428D02*
X114063390Y-80166666D01*
X114063390Y-80166666D02*
X114111009Y-80214285D01*
X114111009Y-80214285D02*
X114206247Y-80261904D01*
X114206247Y-80261904D02*
X114444342Y-80261904D01*
X114444342Y-80261904D02*
X114539580Y-80214285D01*
X114539580Y-80214285D02*
X114587200Y-80166666D01*
X114587200Y-80166666D02*
X114634819Y-80071428D01*
X114634819Y-80071428D02*
X114634819Y-79833333D01*
X114634819Y-79833333D02*
X114587200Y-79738095D01*
X114587200Y-79738095D02*
X114539580Y-79690476D01*
X183642857Y-98929580D02*
X183690476Y-98977200D01*
X183690476Y-98977200D02*
X183833333Y-99024819D01*
X183833333Y-99024819D02*
X183928571Y-99024819D01*
X183928571Y-99024819D02*
X184071428Y-98977200D01*
X184071428Y-98977200D02*
X184166666Y-98881961D01*
X184166666Y-98881961D02*
X184214285Y-98786723D01*
X184214285Y-98786723D02*
X184261904Y-98596247D01*
X184261904Y-98596247D02*
X184261904Y-98453390D01*
X184261904Y-98453390D02*
X184214285Y-98262914D01*
X184214285Y-98262914D02*
X184166666Y-98167676D01*
X184166666Y-98167676D02*
X184071428Y-98072438D01*
X184071428Y-98072438D02*
X183928571Y-98024819D01*
X183928571Y-98024819D02*
X183833333Y-98024819D01*
X183833333Y-98024819D02*
X183690476Y-98072438D01*
X183690476Y-98072438D02*
X183642857Y-98120057D01*
X182738095Y-98024819D02*
X183214285Y-98024819D01*
X183214285Y-98024819D02*
X183261904Y-98501009D01*
X183261904Y-98501009D02*
X183214285Y-98453390D01*
X183214285Y-98453390D02*
X183119047Y-98405771D01*
X183119047Y-98405771D02*
X182880952Y-98405771D01*
X182880952Y-98405771D02*
X182785714Y-98453390D01*
X182785714Y-98453390D02*
X182738095Y-98501009D01*
X182738095Y-98501009D02*
X182690476Y-98596247D01*
X182690476Y-98596247D02*
X182690476Y-98834342D01*
X182690476Y-98834342D02*
X182738095Y-98929580D01*
X182738095Y-98929580D02*
X182785714Y-98977200D01*
X182785714Y-98977200D02*
X182880952Y-99024819D01*
X182880952Y-99024819D02*
X183119047Y-99024819D01*
X183119047Y-99024819D02*
X183214285Y-98977200D01*
X183214285Y-98977200D02*
X183261904Y-98929580D01*
X182357142Y-98024819D02*
X181690476Y-98024819D01*
X181690476Y-98024819D02*
X182119047Y-99024819D01*
X182429580Y-90857142D02*
X182477200Y-90809523D01*
X182477200Y-90809523D02*
X182524819Y-90666666D01*
X182524819Y-90666666D02*
X182524819Y-90571428D01*
X182524819Y-90571428D02*
X182477200Y-90428571D01*
X182477200Y-90428571D02*
X182381961Y-90333333D01*
X182381961Y-90333333D02*
X182286723Y-90285714D01*
X182286723Y-90285714D02*
X182096247Y-90238095D01*
X182096247Y-90238095D02*
X181953390Y-90238095D01*
X181953390Y-90238095D02*
X181762914Y-90285714D01*
X181762914Y-90285714D02*
X181667676Y-90333333D01*
X181667676Y-90333333D02*
X181572438Y-90428571D01*
X181572438Y-90428571D02*
X181524819Y-90571428D01*
X181524819Y-90571428D02*
X181524819Y-90666666D01*
X181524819Y-90666666D02*
X181572438Y-90809523D01*
X181572438Y-90809523D02*
X181620057Y-90857142D01*
X181524819Y-91714285D02*
X181524819Y-91523809D01*
X181524819Y-91523809D02*
X181572438Y-91428571D01*
X181572438Y-91428571D02*
X181620057Y-91380952D01*
X181620057Y-91380952D02*
X181762914Y-91285714D01*
X181762914Y-91285714D02*
X181953390Y-91238095D01*
X181953390Y-91238095D02*
X182334342Y-91238095D01*
X182334342Y-91238095D02*
X182429580Y-91285714D01*
X182429580Y-91285714D02*
X182477200Y-91333333D01*
X182477200Y-91333333D02*
X182524819Y-91428571D01*
X182524819Y-91428571D02*
X182524819Y-91619047D01*
X182524819Y-91619047D02*
X182477200Y-91714285D01*
X182477200Y-91714285D02*
X182429580Y-91761904D01*
X182429580Y-91761904D02*
X182334342Y-91809523D01*
X182334342Y-91809523D02*
X182096247Y-91809523D01*
X182096247Y-91809523D02*
X182001009Y-91761904D01*
X182001009Y-91761904D02*
X181953390Y-91714285D01*
X181953390Y-91714285D02*
X181905771Y-91619047D01*
X181905771Y-91619047D02*
X181905771Y-91428571D01*
X181905771Y-91428571D02*
X181953390Y-91333333D01*
X181953390Y-91333333D02*
X182001009Y-91285714D01*
X182001009Y-91285714D02*
X182096247Y-91238095D01*
X181524819Y-92666666D02*
X181524819Y-92476190D01*
X181524819Y-92476190D02*
X181572438Y-92380952D01*
X181572438Y-92380952D02*
X181620057Y-92333333D01*
X181620057Y-92333333D02*
X181762914Y-92238095D01*
X181762914Y-92238095D02*
X181953390Y-92190476D01*
X181953390Y-92190476D02*
X182334342Y-92190476D01*
X182334342Y-92190476D02*
X182429580Y-92238095D01*
X182429580Y-92238095D02*
X182477200Y-92285714D01*
X182477200Y-92285714D02*
X182524819Y-92380952D01*
X182524819Y-92380952D02*
X182524819Y-92571428D01*
X182524819Y-92571428D02*
X182477200Y-92666666D01*
X182477200Y-92666666D02*
X182429580Y-92714285D01*
X182429580Y-92714285D02*
X182334342Y-92761904D01*
X182334342Y-92761904D02*
X182096247Y-92761904D01*
X182096247Y-92761904D02*
X182001009Y-92714285D01*
X182001009Y-92714285D02*
X181953390Y-92666666D01*
X181953390Y-92666666D02*
X181905771Y-92571428D01*
X181905771Y-92571428D02*
X181905771Y-92380952D01*
X181905771Y-92380952D02*
X181953390Y-92285714D01*
X181953390Y-92285714D02*
X182001009Y-92238095D01*
X182001009Y-92238095D02*
X182096247Y-92190476D01*
X129179819Y-106624405D02*
X129989342Y-106624405D01*
X129989342Y-106624405D02*
X130084580Y-106672024D01*
X130084580Y-106672024D02*
X130132200Y-106719643D01*
X130132200Y-106719643D02*
X130179819Y-106814881D01*
X130179819Y-106814881D02*
X130179819Y-107005357D01*
X130179819Y-107005357D02*
X130132200Y-107100595D01*
X130132200Y-107100595D02*
X130084580Y-107148214D01*
X130084580Y-107148214D02*
X129989342Y-107195833D01*
X129989342Y-107195833D02*
X129179819Y-107195833D01*
X129179819Y-108100595D02*
X129179819Y-107910119D01*
X129179819Y-107910119D02*
X129227438Y-107814881D01*
X129227438Y-107814881D02*
X129275057Y-107767262D01*
X129275057Y-107767262D02*
X129417914Y-107672024D01*
X129417914Y-107672024D02*
X129608390Y-107624405D01*
X129608390Y-107624405D02*
X129989342Y-107624405D01*
X129989342Y-107624405D02*
X130084580Y-107672024D01*
X130084580Y-107672024D02*
X130132200Y-107719643D01*
X130132200Y-107719643D02*
X130179819Y-107814881D01*
X130179819Y-107814881D02*
X130179819Y-108005357D01*
X130179819Y-108005357D02*
X130132200Y-108100595D01*
X130132200Y-108100595D02*
X130084580Y-108148214D01*
X130084580Y-108148214D02*
X129989342Y-108195833D01*
X129989342Y-108195833D02*
X129751247Y-108195833D01*
X129751247Y-108195833D02*
X129656009Y-108148214D01*
X129656009Y-108148214D02*
X129608390Y-108100595D01*
X129608390Y-108100595D02*
X129560771Y-108005357D01*
X129560771Y-108005357D02*
X129560771Y-107814881D01*
X129560771Y-107814881D02*
X129608390Y-107719643D01*
X129608390Y-107719643D02*
X129656009Y-107672024D01*
X129656009Y-107672024D02*
X129751247Y-107624405D01*
X129179819Y-109100595D02*
X129179819Y-108624405D01*
X129179819Y-108624405D02*
X129656009Y-108576786D01*
X129656009Y-108576786D02*
X129608390Y-108624405D01*
X129608390Y-108624405D02*
X129560771Y-108719643D01*
X129560771Y-108719643D02*
X129560771Y-108957738D01*
X129560771Y-108957738D02*
X129608390Y-109052976D01*
X129608390Y-109052976D02*
X129656009Y-109100595D01*
X129656009Y-109100595D02*
X129751247Y-109148214D01*
X129751247Y-109148214D02*
X129989342Y-109148214D01*
X129989342Y-109148214D02*
X130084580Y-109100595D01*
X130084580Y-109100595D02*
X130132200Y-109052976D01*
X130132200Y-109052976D02*
X130179819Y-108957738D01*
X130179819Y-108957738D02*
X130179819Y-108719643D01*
X130179819Y-108719643D02*
X130132200Y-108624405D01*
X130132200Y-108624405D02*
X130084580Y-108576786D01*
X249179819Y-70899405D02*
X249989342Y-70899405D01*
X249989342Y-70899405D02*
X250084580Y-70947024D01*
X250084580Y-70947024D02*
X250132200Y-70994643D01*
X250132200Y-70994643D02*
X250179819Y-71089881D01*
X250179819Y-71089881D02*
X250179819Y-71280357D01*
X250179819Y-71280357D02*
X250132200Y-71375595D01*
X250132200Y-71375595D02*
X250084580Y-71423214D01*
X250084580Y-71423214D02*
X249989342Y-71470833D01*
X249989342Y-71470833D02*
X249179819Y-71470833D01*
X249275057Y-71899405D02*
X249227438Y-71947024D01*
X249227438Y-71947024D02*
X249179819Y-72042262D01*
X249179819Y-72042262D02*
X249179819Y-72280357D01*
X249179819Y-72280357D02*
X249227438Y-72375595D01*
X249227438Y-72375595D02*
X249275057Y-72423214D01*
X249275057Y-72423214D02*
X249370295Y-72470833D01*
X249370295Y-72470833D02*
X249465533Y-72470833D01*
X249465533Y-72470833D02*
X249608390Y-72423214D01*
X249608390Y-72423214D02*
X250179819Y-71851786D01*
X250179819Y-71851786D02*
X250179819Y-72470833D01*
X250179819Y-73423214D02*
X250179819Y-72851786D01*
X250179819Y-73137500D02*
X249179819Y-73137500D01*
X249179819Y-73137500D02*
X249322676Y-73042262D01*
X249322676Y-73042262D02*
X249417914Y-72947024D01*
X249417914Y-72947024D02*
X249465533Y-72851786D01*
X116642857Y-111789580D02*
X116690476Y-111837200D01*
X116690476Y-111837200D02*
X116833333Y-111884819D01*
X116833333Y-111884819D02*
X116928571Y-111884819D01*
X116928571Y-111884819D02*
X117071428Y-111837200D01*
X117071428Y-111837200D02*
X117166666Y-111741961D01*
X117166666Y-111741961D02*
X117214285Y-111646723D01*
X117214285Y-111646723D02*
X117261904Y-111456247D01*
X117261904Y-111456247D02*
X117261904Y-111313390D01*
X117261904Y-111313390D02*
X117214285Y-111122914D01*
X117214285Y-111122914D02*
X117166666Y-111027676D01*
X117166666Y-111027676D02*
X117071428Y-110932438D01*
X117071428Y-110932438D02*
X116928571Y-110884819D01*
X116928571Y-110884819D02*
X116833333Y-110884819D01*
X116833333Y-110884819D02*
X116690476Y-110932438D01*
X116690476Y-110932438D02*
X116642857Y-110980057D01*
X116261904Y-110980057D02*
X116214285Y-110932438D01*
X116214285Y-110932438D02*
X116119047Y-110884819D01*
X116119047Y-110884819D02*
X115880952Y-110884819D01*
X115880952Y-110884819D02*
X115785714Y-110932438D01*
X115785714Y-110932438D02*
X115738095Y-110980057D01*
X115738095Y-110980057D02*
X115690476Y-111075295D01*
X115690476Y-111075295D02*
X115690476Y-111170533D01*
X115690476Y-111170533D02*
X115738095Y-111313390D01*
X115738095Y-111313390D02*
X116309523Y-111884819D01*
X116309523Y-111884819D02*
X115690476Y-111884819D01*
X115357142Y-110884819D02*
X114690476Y-110884819D01*
X114690476Y-110884819D02*
X115119047Y-111884819D01*
X214429580Y-88607142D02*
X214477200Y-88559523D01*
X214477200Y-88559523D02*
X214524819Y-88416666D01*
X214524819Y-88416666D02*
X214524819Y-88321428D01*
X214524819Y-88321428D02*
X214477200Y-88178571D01*
X214477200Y-88178571D02*
X214381961Y-88083333D01*
X214381961Y-88083333D02*
X214286723Y-88035714D01*
X214286723Y-88035714D02*
X214096247Y-87988095D01*
X214096247Y-87988095D02*
X213953390Y-87988095D01*
X213953390Y-87988095D02*
X213762914Y-88035714D01*
X213762914Y-88035714D02*
X213667676Y-88083333D01*
X213667676Y-88083333D02*
X213572438Y-88178571D01*
X213572438Y-88178571D02*
X213524819Y-88321428D01*
X213524819Y-88321428D02*
X213524819Y-88416666D01*
X213524819Y-88416666D02*
X213572438Y-88559523D01*
X213572438Y-88559523D02*
X213620057Y-88607142D01*
X213524819Y-88940476D02*
X213524819Y-89607142D01*
X213524819Y-89607142D02*
X214524819Y-89178571D01*
X213620057Y-89940476D02*
X213572438Y-89988095D01*
X213572438Y-89988095D02*
X213524819Y-90083333D01*
X213524819Y-90083333D02*
X213524819Y-90321428D01*
X213524819Y-90321428D02*
X213572438Y-90416666D01*
X213572438Y-90416666D02*
X213620057Y-90464285D01*
X213620057Y-90464285D02*
X213715295Y-90511904D01*
X213715295Y-90511904D02*
X213810533Y-90511904D01*
X213810533Y-90511904D02*
X213953390Y-90464285D01*
X213953390Y-90464285D02*
X214524819Y-89892857D01*
X214524819Y-89892857D02*
X214524819Y-90511904D01*
X136539580Y-78357142D02*
X136587200Y-78309523D01*
X136587200Y-78309523D02*
X136634819Y-78166666D01*
X136634819Y-78166666D02*
X136634819Y-78071428D01*
X136634819Y-78071428D02*
X136587200Y-77928571D01*
X136587200Y-77928571D02*
X136491961Y-77833333D01*
X136491961Y-77833333D02*
X136396723Y-77785714D01*
X136396723Y-77785714D02*
X136206247Y-77738095D01*
X136206247Y-77738095D02*
X136063390Y-77738095D01*
X136063390Y-77738095D02*
X135872914Y-77785714D01*
X135872914Y-77785714D02*
X135777676Y-77833333D01*
X135777676Y-77833333D02*
X135682438Y-77928571D01*
X135682438Y-77928571D02*
X135634819Y-78071428D01*
X135634819Y-78071428D02*
X135634819Y-78166666D01*
X135634819Y-78166666D02*
X135682438Y-78309523D01*
X135682438Y-78309523D02*
X135730057Y-78357142D01*
X136634819Y-79309523D02*
X136634819Y-78738095D01*
X136634819Y-79023809D02*
X135634819Y-79023809D01*
X135634819Y-79023809D02*
X135777676Y-78928571D01*
X135777676Y-78928571D02*
X135872914Y-78833333D01*
X135872914Y-78833333D02*
X135920533Y-78738095D01*
X135634819Y-79642857D02*
X135634819Y-80309523D01*
X135634819Y-80309523D02*
X136634819Y-79880952D01*
X266238094Y-66454819D02*
X266238094Y-67264342D01*
X266238094Y-67264342D02*
X266190475Y-67359580D01*
X266190475Y-67359580D02*
X266142856Y-67407200D01*
X266142856Y-67407200D02*
X266047618Y-67454819D01*
X266047618Y-67454819D02*
X265857142Y-67454819D01*
X265857142Y-67454819D02*
X265761904Y-67407200D01*
X265761904Y-67407200D02*
X265714285Y-67359580D01*
X265714285Y-67359580D02*
X265666666Y-67264342D01*
X265666666Y-67264342D02*
X265666666Y-66454819D01*
X265238094Y-66550057D02*
X265190475Y-66502438D01*
X265190475Y-66502438D02*
X265095237Y-66454819D01*
X265095237Y-66454819D02*
X264857142Y-66454819D01*
X264857142Y-66454819D02*
X264761904Y-66502438D01*
X264761904Y-66502438D02*
X264714285Y-66550057D01*
X264714285Y-66550057D02*
X264666666Y-66645295D01*
X264666666Y-66645295D02*
X264666666Y-66740533D01*
X264666666Y-66740533D02*
X264714285Y-66883390D01*
X264714285Y-66883390D02*
X265285713Y-67454819D01*
X265285713Y-67454819D02*
X264666666Y-67454819D01*
X264285713Y-66550057D02*
X264238094Y-66502438D01*
X264238094Y-66502438D02*
X264142856Y-66454819D01*
X264142856Y-66454819D02*
X263904761Y-66454819D01*
X263904761Y-66454819D02*
X263809523Y-66502438D01*
X263809523Y-66502438D02*
X263761904Y-66550057D01*
X263761904Y-66550057D02*
X263714285Y-66645295D01*
X263714285Y-66645295D02*
X263714285Y-66740533D01*
X263714285Y-66740533D02*
X263761904Y-66883390D01*
X263761904Y-66883390D02*
X264333332Y-67454819D01*
X264333332Y-67454819D02*
X263714285Y-67454819D01*
X168892857Y-66179580D02*
X168940476Y-66227200D01*
X168940476Y-66227200D02*
X169083333Y-66274819D01*
X169083333Y-66274819D02*
X169178571Y-66274819D01*
X169178571Y-66274819D02*
X169321428Y-66227200D01*
X169321428Y-66227200D02*
X169416666Y-66131961D01*
X169416666Y-66131961D02*
X169464285Y-66036723D01*
X169464285Y-66036723D02*
X169511904Y-65846247D01*
X169511904Y-65846247D02*
X169511904Y-65703390D01*
X169511904Y-65703390D02*
X169464285Y-65512914D01*
X169464285Y-65512914D02*
X169416666Y-65417676D01*
X169416666Y-65417676D02*
X169321428Y-65322438D01*
X169321428Y-65322438D02*
X169178571Y-65274819D01*
X169178571Y-65274819D02*
X169083333Y-65274819D01*
X169083333Y-65274819D02*
X168940476Y-65322438D01*
X168940476Y-65322438D02*
X168892857Y-65370057D01*
X167940476Y-66274819D02*
X168511904Y-66274819D01*
X168226190Y-66274819D02*
X168226190Y-65274819D01*
X168226190Y-65274819D02*
X168321428Y-65417676D01*
X168321428Y-65417676D02*
X168416666Y-65512914D01*
X168416666Y-65512914D02*
X168511904Y-65560533D01*
X167035714Y-65274819D02*
X167511904Y-65274819D01*
X167511904Y-65274819D02*
X167559523Y-65751009D01*
X167559523Y-65751009D02*
X167511904Y-65703390D01*
X167511904Y-65703390D02*
X167416666Y-65655771D01*
X167416666Y-65655771D02*
X167178571Y-65655771D01*
X167178571Y-65655771D02*
X167083333Y-65703390D01*
X167083333Y-65703390D02*
X167035714Y-65751009D01*
X167035714Y-65751009D02*
X166988095Y-65846247D01*
X166988095Y-65846247D02*
X166988095Y-66084342D01*
X166988095Y-66084342D02*
X167035714Y-66179580D01*
X167035714Y-66179580D02*
X167083333Y-66227200D01*
X167083333Y-66227200D02*
X167178571Y-66274819D01*
X167178571Y-66274819D02*
X167416666Y-66274819D01*
X167416666Y-66274819D02*
X167511904Y-66227200D01*
X167511904Y-66227200D02*
X167559523Y-66179580D01*
X140179819Y-106624405D02*
X140989342Y-106624405D01*
X140989342Y-106624405D02*
X141084580Y-106672024D01*
X141084580Y-106672024D02*
X141132200Y-106719643D01*
X141132200Y-106719643D02*
X141179819Y-106814881D01*
X141179819Y-106814881D02*
X141179819Y-107005357D01*
X141179819Y-107005357D02*
X141132200Y-107100595D01*
X141132200Y-107100595D02*
X141084580Y-107148214D01*
X141084580Y-107148214D02*
X140989342Y-107195833D01*
X140989342Y-107195833D02*
X140179819Y-107195833D01*
X140179819Y-108100595D02*
X140179819Y-107910119D01*
X140179819Y-107910119D02*
X140227438Y-107814881D01*
X140227438Y-107814881D02*
X140275057Y-107767262D01*
X140275057Y-107767262D02*
X140417914Y-107672024D01*
X140417914Y-107672024D02*
X140608390Y-107624405D01*
X140608390Y-107624405D02*
X140989342Y-107624405D01*
X140989342Y-107624405D02*
X141084580Y-107672024D01*
X141084580Y-107672024D02*
X141132200Y-107719643D01*
X141132200Y-107719643D02*
X141179819Y-107814881D01*
X141179819Y-107814881D02*
X141179819Y-108005357D01*
X141179819Y-108005357D02*
X141132200Y-108100595D01*
X141132200Y-108100595D02*
X141084580Y-108148214D01*
X141084580Y-108148214D02*
X140989342Y-108195833D01*
X140989342Y-108195833D02*
X140751247Y-108195833D01*
X140751247Y-108195833D02*
X140656009Y-108148214D01*
X140656009Y-108148214D02*
X140608390Y-108100595D01*
X140608390Y-108100595D02*
X140560771Y-108005357D01*
X140560771Y-108005357D02*
X140560771Y-107814881D01*
X140560771Y-107814881D02*
X140608390Y-107719643D01*
X140608390Y-107719643D02*
X140656009Y-107672024D01*
X140656009Y-107672024D02*
X140751247Y-107624405D01*
X140179819Y-109052976D02*
X140179819Y-108862500D01*
X140179819Y-108862500D02*
X140227438Y-108767262D01*
X140227438Y-108767262D02*
X140275057Y-108719643D01*
X140275057Y-108719643D02*
X140417914Y-108624405D01*
X140417914Y-108624405D02*
X140608390Y-108576786D01*
X140608390Y-108576786D02*
X140989342Y-108576786D01*
X140989342Y-108576786D02*
X141084580Y-108624405D01*
X141084580Y-108624405D02*
X141132200Y-108672024D01*
X141132200Y-108672024D02*
X141179819Y-108767262D01*
X141179819Y-108767262D02*
X141179819Y-108957738D01*
X141179819Y-108957738D02*
X141132200Y-109052976D01*
X141132200Y-109052976D02*
X141084580Y-109100595D01*
X141084580Y-109100595D02*
X140989342Y-109148214D01*
X140989342Y-109148214D02*
X140751247Y-109148214D01*
X140751247Y-109148214D02*
X140656009Y-109100595D01*
X140656009Y-109100595D02*
X140608390Y-109052976D01*
X140608390Y-109052976D02*
X140560771Y-108957738D01*
X140560771Y-108957738D02*
X140560771Y-108767262D01*
X140560771Y-108767262D02*
X140608390Y-108672024D01*
X140608390Y-108672024D02*
X140656009Y-108624405D01*
X140656009Y-108624405D02*
X140751247Y-108576786D01*
X194179819Y-70899405D02*
X194989342Y-70899405D01*
X194989342Y-70899405D02*
X195084580Y-70947024D01*
X195084580Y-70947024D02*
X195132200Y-70994643D01*
X195132200Y-70994643D02*
X195179819Y-71089881D01*
X195179819Y-71089881D02*
X195179819Y-71280357D01*
X195179819Y-71280357D02*
X195132200Y-71375595D01*
X195132200Y-71375595D02*
X195084580Y-71423214D01*
X195084580Y-71423214D02*
X194989342Y-71470833D01*
X194989342Y-71470833D02*
X194179819Y-71470833D01*
X195179819Y-72470833D02*
X195179819Y-71899405D01*
X195179819Y-72185119D02*
X194179819Y-72185119D01*
X194179819Y-72185119D02*
X194322676Y-72089881D01*
X194322676Y-72089881D02*
X194417914Y-71994643D01*
X194417914Y-71994643D02*
X194465533Y-71899405D01*
X194179819Y-73327976D02*
X194179819Y-73137500D01*
X194179819Y-73137500D02*
X194227438Y-73042262D01*
X194227438Y-73042262D02*
X194275057Y-72994643D01*
X194275057Y-72994643D02*
X194417914Y-72899405D01*
X194417914Y-72899405D02*
X194608390Y-72851786D01*
X194608390Y-72851786D02*
X194989342Y-72851786D01*
X194989342Y-72851786D02*
X195084580Y-72899405D01*
X195084580Y-72899405D02*
X195132200Y-72947024D01*
X195132200Y-72947024D02*
X195179819Y-73042262D01*
X195179819Y-73042262D02*
X195179819Y-73232738D01*
X195179819Y-73232738D02*
X195132200Y-73327976D01*
X195132200Y-73327976D02*
X195084580Y-73375595D01*
X195084580Y-73375595D02*
X194989342Y-73423214D01*
X194989342Y-73423214D02*
X194751247Y-73423214D01*
X194751247Y-73423214D02*
X194656009Y-73375595D01*
X194656009Y-73375595D02*
X194608390Y-73327976D01*
X194608390Y-73327976D02*
X194560771Y-73232738D01*
X194560771Y-73232738D02*
X194560771Y-73042262D01*
X194560771Y-73042262D02*
X194608390Y-72947024D01*
X194608390Y-72947024D02*
X194656009Y-72899405D01*
X194656009Y-72899405D02*
X194751247Y-72851786D01*
X224179580Y-113795833D02*
X224227200Y-113748214D01*
X224227200Y-113748214D02*
X224274819Y-113605357D01*
X224274819Y-113605357D02*
X224274819Y-113510119D01*
X224274819Y-113510119D02*
X224227200Y-113367262D01*
X224227200Y-113367262D02*
X224131961Y-113272024D01*
X224131961Y-113272024D02*
X224036723Y-113224405D01*
X224036723Y-113224405D02*
X223846247Y-113176786D01*
X223846247Y-113176786D02*
X223703390Y-113176786D01*
X223703390Y-113176786D02*
X223512914Y-113224405D01*
X223512914Y-113224405D02*
X223417676Y-113272024D01*
X223417676Y-113272024D02*
X223322438Y-113367262D01*
X223322438Y-113367262D02*
X223274819Y-113510119D01*
X223274819Y-113510119D02*
X223274819Y-113605357D01*
X223274819Y-113605357D02*
X223322438Y-113748214D01*
X223322438Y-113748214D02*
X223370057Y-113795833D01*
X223370057Y-114176786D02*
X223322438Y-114224405D01*
X223322438Y-114224405D02*
X223274819Y-114319643D01*
X223274819Y-114319643D02*
X223274819Y-114557738D01*
X223274819Y-114557738D02*
X223322438Y-114652976D01*
X223322438Y-114652976D02*
X223370057Y-114700595D01*
X223370057Y-114700595D02*
X223465295Y-114748214D01*
X223465295Y-114748214D02*
X223560533Y-114748214D01*
X223560533Y-114748214D02*
X223703390Y-114700595D01*
X223703390Y-114700595D02*
X224274819Y-114129167D01*
X224274819Y-114129167D02*
X224274819Y-114748214D01*
X191929580Y-113583333D02*
X191977200Y-113535714D01*
X191977200Y-113535714D02*
X192024819Y-113392857D01*
X192024819Y-113392857D02*
X192024819Y-113297619D01*
X192024819Y-113297619D02*
X191977200Y-113154762D01*
X191977200Y-113154762D02*
X191881961Y-113059524D01*
X191881961Y-113059524D02*
X191786723Y-113011905D01*
X191786723Y-113011905D02*
X191596247Y-112964286D01*
X191596247Y-112964286D02*
X191453390Y-112964286D01*
X191453390Y-112964286D02*
X191262914Y-113011905D01*
X191262914Y-113011905D02*
X191167676Y-113059524D01*
X191167676Y-113059524D02*
X191072438Y-113154762D01*
X191072438Y-113154762D02*
X191024819Y-113297619D01*
X191024819Y-113297619D02*
X191024819Y-113392857D01*
X191024819Y-113392857D02*
X191072438Y-113535714D01*
X191072438Y-113535714D02*
X191120057Y-113583333D01*
X192024819Y-114059524D02*
X192024819Y-114250000D01*
X192024819Y-114250000D02*
X191977200Y-114345238D01*
X191977200Y-114345238D02*
X191929580Y-114392857D01*
X191929580Y-114392857D02*
X191786723Y-114488095D01*
X191786723Y-114488095D02*
X191596247Y-114535714D01*
X191596247Y-114535714D02*
X191215295Y-114535714D01*
X191215295Y-114535714D02*
X191120057Y-114488095D01*
X191120057Y-114488095D02*
X191072438Y-114440476D01*
X191072438Y-114440476D02*
X191024819Y-114345238D01*
X191024819Y-114345238D02*
X191024819Y-114154762D01*
X191024819Y-114154762D02*
X191072438Y-114059524D01*
X191072438Y-114059524D02*
X191120057Y-114011905D01*
X191120057Y-114011905D02*
X191215295Y-113964286D01*
X191215295Y-113964286D02*
X191453390Y-113964286D01*
X191453390Y-113964286D02*
X191548628Y-114011905D01*
X191548628Y-114011905D02*
X191596247Y-114059524D01*
X191596247Y-114059524D02*
X191643866Y-114154762D01*
X191643866Y-114154762D02*
X191643866Y-114345238D01*
X191643866Y-114345238D02*
X191596247Y-114440476D01*
X191596247Y-114440476D02*
X191548628Y-114488095D01*
X191548628Y-114488095D02*
X191453390Y-114535714D01*
X102179819Y-83899405D02*
X102989342Y-83899405D01*
X102989342Y-83899405D02*
X103084580Y-83947024D01*
X103084580Y-83947024D02*
X103132200Y-83994643D01*
X103132200Y-83994643D02*
X103179819Y-84089881D01*
X103179819Y-84089881D02*
X103179819Y-84280357D01*
X103179819Y-84280357D02*
X103132200Y-84375595D01*
X103132200Y-84375595D02*
X103084580Y-84423214D01*
X103084580Y-84423214D02*
X102989342Y-84470833D01*
X102989342Y-84470833D02*
X102179819Y-84470833D01*
X102179819Y-84851786D02*
X102179819Y-85518452D01*
X102179819Y-85518452D02*
X103179819Y-85089881D01*
X102275057Y-85851786D02*
X102227438Y-85899405D01*
X102227438Y-85899405D02*
X102179819Y-85994643D01*
X102179819Y-85994643D02*
X102179819Y-86232738D01*
X102179819Y-86232738D02*
X102227438Y-86327976D01*
X102227438Y-86327976D02*
X102275057Y-86375595D01*
X102275057Y-86375595D02*
X102370295Y-86423214D01*
X102370295Y-86423214D02*
X102465533Y-86423214D01*
X102465533Y-86423214D02*
X102608390Y-86375595D01*
X102608390Y-86375595D02*
X103179819Y-85804167D01*
X103179819Y-85804167D02*
X103179819Y-86423214D01*
X232642857Y-118539580D02*
X232690476Y-118587200D01*
X232690476Y-118587200D02*
X232833333Y-118634819D01*
X232833333Y-118634819D02*
X232928571Y-118634819D01*
X232928571Y-118634819D02*
X233071428Y-118587200D01*
X233071428Y-118587200D02*
X233166666Y-118491961D01*
X233166666Y-118491961D02*
X233214285Y-118396723D01*
X233214285Y-118396723D02*
X233261904Y-118206247D01*
X233261904Y-118206247D02*
X233261904Y-118063390D01*
X233261904Y-118063390D02*
X233214285Y-117872914D01*
X233214285Y-117872914D02*
X233166666Y-117777676D01*
X233166666Y-117777676D02*
X233071428Y-117682438D01*
X233071428Y-117682438D02*
X232928571Y-117634819D01*
X232928571Y-117634819D02*
X232833333Y-117634819D01*
X232833333Y-117634819D02*
X232690476Y-117682438D01*
X232690476Y-117682438D02*
X232642857Y-117730057D01*
X231785714Y-117634819D02*
X231976190Y-117634819D01*
X231976190Y-117634819D02*
X232071428Y-117682438D01*
X232071428Y-117682438D02*
X232119047Y-117730057D01*
X232119047Y-117730057D02*
X232214285Y-117872914D01*
X232214285Y-117872914D02*
X232261904Y-118063390D01*
X232261904Y-118063390D02*
X232261904Y-118444342D01*
X232261904Y-118444342D02*
X232214285Y-118539580D01*
X232214285Y-118539580D02*
X232166666Y-118587200D01*
X232166666Y-118587200D02*
X232071428Y-118634819D01*
X232071428Y-118634819D02*
X231880952Y-118634819D01*
X231880952Y-118634819D02*
X231785714Y-118587200D01*
X231785714Y-118587200D02*
X231738095Y-118539580D01*
X231738095Y-118539580D02*
X231690476Y-118444342D01*
X231690476Y-118444342D02*
X231690476Y-118206247D01*
X231690476Y-118206247D02*
X231738095Y-118111009D01*
X231738095Y-118111009D02*
X231785714Y-118063390D01*
X231785714Y-118063390D02*
X231880952Y-118015771D01*
X231880952Y-118015771D02*
X232071428Y-118015771D01*
X232071428Y-118015771D02*
X232166666Y-118063390D01*
X232166666Y-118063390D02*
X232214285Y-118111009D01*
X232214285Y-118111009D02*
X232261904Y-118206247D01*
X230738095Y-118634819D02*
X231309523Y-118634819D01*
X231023809Y-118634819D02*
X231023809Y-117634819D01*
X231023809Y-117634819D02*
X231119047Y-117777676D01*
X231119047Y-117777676D02*
X231214285Y-117872914D01*
X231214285Y-117872914D02*
X231309523Y-117920533D01*
X238179819Y-70899405D02*
X238989342Y-70899405D01*
X238989342Y-70899405D02*
X239084580Y-70947024D01*
X239084580Y-70947024D02*
X239132200Y-70994643D01*
X239132200Y-70994643D02*
X239179819Y-71089881D01*
X239179819Y-71089881D02*
X239179819Y-71280357D01*
X239179819Y-71280357D02*
X239132200Y-71375595D01*
X239132200Y-71375595D02*
X239084580Y-71423214D01*
X239084580Y-71423214D02*
X238989342Y-71470833D01*
X238989342Y-71470833D02*
X238179819Y-71470833D01*
X238275057Y-71899405D02*
X238227438Y-71947024D01*
X238227438Y-71947024D02*
X238179819Y-72042262D01*
X238179819Y-72042262D02*
X238179819Y-72280357D01*
X238179819Y-72280357D02*
X238227438Y-72375595D01*
X238227438Y-72375595D02*
X238275057Y-72423214D01*
X238275057Y-72423214D02*
X238370295Y-72470833D01*
X238370295Y-72470833D02*
X238465533Y-72470833D01*
X238465533Y-72470833D02*
X238608390Y-72423214D01*
X238608390Y-72423214D02*
X239179819Y-71851786D01*
X239179819Y-71851786D02*
X239179819Y-72470833D01*
X238179819Y-73089881D02*
X238179819Y-73185119D01*
X238179819Y-73185119D02*
X238227438Y-73280357D01*
X238227438Y-73280357D02*
X238275057Y-73327976D01*
X238275057Y-73327976D02*
X238370295Y-73375595D01*
X238370295Y-73375595D02*
X238560771Y-73423214D01*
X238560771Y-73423214D02*
X238798866Y-73423214D01*
X238798866Y-73423214D02*
X238989342Y-73375595D01*
X238989342Y-73375595D02*
X239084580Y-73327976D01*
X239084580Y-73327976D02*
X239132200Y-73280357D01*
X239132200Y-73280357D02*
X239179819Y-73185119D01*
X239179819Y-73185119D02*
X239179819Y-73089881D01*
X239179819Y-73089881D02*
X239132200Y-72994643D01*
X239132200Y-72994643D02*
X239084580Y-72947024D01*
X239084580Y-72947024D02*
X238989342Y-72899405D01*
X238989342Y-72899405D02*
X238798866Y-72851786D01*
X238798866Y-72851786D02*
X238560771Y-72851786D01*
X238560771Y-72851786D02*
X238370295Y-72899405D01*
X238370295Y-72899405D02*
X238275057Y-72947024D01*
X238275057Y-72947024D02*
X238227438Y-72994643D01*
X238227438Y-72994643D02*
X238179819Y-73089881D01*
X221642857Y-118539580D02*
X221690476Y-118587200D01*
X221690476Y-118587200D02*
X221833333Y-118634819D01*
X221833333Y-118634819D02*
X221928571Y-118634819D01*
X221928571Y-118634819D02*
X222071428Y-118587200D01*
X222071428Y-118587200D02*
X222166666Y-118491961D01*
X222166666Y-118491961D02*
X222214285Y-118396723D01*
X222214285Y-118396723D02*
X222261904Y-118206247D01*
X222261904Y-118206247D02*
X222261904Y-118063390D01*
X222261904Y-118063390D02*
X222214285Y-117872914D01*
X222214285Y-117872914D02*
X222166666Y-117777676D01*
X222166666Y-117777676D02*
X222071428Y-117682438D01*
X222071428Y-117682438D02*
X221928571Y-117634819D01*
X221928571Y-117634819D02*
X221833333Y-117634819D01*
X221833333Y-117634819D02*
X221690476Y-117682438D01*
X221690476Y-117682438D02*
X221642857Y-117730057D01*
X220785714Y-117634819D02*
X220976190Y-117634819D01*
X220976190Y-117634819D02*
X221071428Y-117682438D01*
X221071428Y-117682438D02*
X221119047Y-117730057D01*
X221119047Y-117730057D02*
X221214285Y-117872914D01*
X221214285Y-117872914D02*
X221261904Y-118063390D01*
X221261904Y-118063390D02*
X221261904Y-118444342D01*
X221261904Y-118444342D02*
X221214285Y-118539580D01*
X221214285Y-118539580D02*
X221166666Y-118587200D01*
X221166666Y-118587200D02*
X221071428Y-118634819D01*
X221071428Y-118634819D02*
X220880952Y-118634819D01*
X220880952Y-118634819D02*
X220785714Y-118587200D01*
X220785714Y-118587200D02*
X220738095Y-118539580D01*
X220738095Y-118539580D02*
X220690476Y-118444342D01*
X220690476Y-118444342D02*
X220690476Y-118206247D01*
X220690476Y-118206247D02*
X220738095Y-118111009D01*
X220738095Y-118111009D02*
X220785714Y-118063390D01*
X220785714Y-118063390D02*
X220880952Y-118015771D01*
X220880952Y-118015771D02*
X221071428Y-118015771D01*
X221071428Y-118015771D02*
X221166666Y-118063390D01*
X221166666Y-118063390D02*
X221214285Y-118111009D01*
X221214285Y-118111009D02*
X221261904Y-118206247D01*
X220309523Y-117730057D02*
X220261904Y-117682438D01*
X220261904Y-117682438D02*
X220166666Y-117634819D01*
X220166666Y-117634819D02*
X219928571Y-117634819D01*
X219928571Y-117634819D02*
X219833333Y-117682438D01*
X219833333Y-117682438D02*
X219785714Y-117730057D01*
X219785714Y-117730057D02*
X219738095Y-117825295D01*
X219738095Y-117825295D02*
X219738095Y-117920533D01*
X219738095Y-117920533D02*
X219785714Y-118063390D01*
X219785714Y-118063390D02*
X220357142Y-118634819D01*
X220357142Y-118634819D02*
X219738095Y-118634819D01*
X127430357Y-108789580D02*
X127477976Y-108837200D01*
X127477976Y-108837200D02*
X127620833Y-108884819D01*
X127620833Y-108884819D02*
X127716071Y-108884819D01*
X127716071Y-108884819D02*
X127858928Y-108837200D01*
X127858928Y-108837200D02*
X127954166Y-108741961D01*
X127954166Y-108741961D02*
X128001785Y-108646723D01*
X128001785Y-108646723D02*
X128049404Y-108456247D01*
X128049404Y-108456247D02*
X128049404Y-108313390D01*
X128049404Y-108313390D02*
X128001785Y-108122914D01*
X128001785Y-108122914D02*
X127954166Y-108027676D01*
X127954166Y-108027676D02*
X127858928Y-107932438D01*
X127858928Y-107932438D02*
X127716071Y-107884819D01*
X127716071Y-107884819D02*
X127620833Y-107884819D01*
X127620833Y-107884819D02*
X127477976Y-107932438D01*
X127477976Y-107932438D02*
X127430357Y-107980057D01*
X127049404Y-107980057D02*
X127001785Y-107932438D01*
X127001785Y-107932438D02*
X126906547Y-107884819D01*
X126906547Y-107884819D02*
X126668452Y-107884819D01*
X126668452Y-107884819D02*
X126573214Y-107932438D01*
X126573214Y-107932438D02*
X126525595Y-107980057D01*
X126525595Y-107980057D02*
X126477976Y-108075295D01*
X126477976Y-108075295D02*
X126477976Y-108170533D01*
X126477976Y-108170533D02*
X126525595Y-108313390D01*
X126525595Y-108313390D02*
X127097023Y-108884819D01*
X127097023Y-108884819D02*
X126477976Y-108884819D01*
X125620833Y-108218152D02*
X125620833Y-108884819D01*
X125858928Y-107837200D02*
X126097023Y-108551485D01*
X126097023Y-108551485D02*
X125477976Y-108551485D01*
X204454819Y-83899405D02*
X205264342Y-83899405D01*
X205264342Y-83899405D02*
X205359580Y-83947024D01*
X205359580Y-83947024D02*
X205407200Y-83994643D01*
X205407200Y-83994643D02*
X205454819Y-84089881D01*
X205454819Y-84089881D02*
X205454819Y-84280357D01*
X205454819Y-84280357D02*
X205407200Y-84375595D01*
X205407200Y-84375595D02*
X205359580Y-84423214D01*
X205359580Y-84423214D02*
X205264342Y-84470833D01*
X205264342Y-84470833D02*
X204454819Y-84470833D01*
X204883390Y-85089881D02*
X204835771Y-84994643D01*
X204835771Y-84994643D02*
X204788152Y-84947024D01*
X204788152Y-84947024D02*
X204692914Y-84899405D01*
X204692914Y-84899405D02*
X204645295Y-84899405D01*
X204645295Y-84899405D02*
X204550057Y-84947024D01*
X204550057Y-84947024D02*
X204502438Y-84994643D01*
X204502438Y-84994643D02*
X204454819Y-85089881D01*
X204454819Y-85089881D02*
X204454819Y-85280357D01*
X204454819Y-85280357D02*
X204502438Y-85375595D01*
X204502438Y-85375595D02*
X204550057Y-85423214D01*
X204550057Y-85423214D02*
X204645295Y-85470833D01*
X204645295Y-85470833D02*
X204692914Y-85470833D01*
X204692914Y-85470833D02*
X204788152Y-85423214D01*
X204788152Y-85423214D02*
X204835771Y-85375595D01*
X204835771Y-85375595D02*
X204883390Y-85280357D01*
X204883390Y-85280357D02*
X204883390Y-85089881D01*
X204883390Y-85089881D02*
X204931009Y-84994643D01*
X204931009Y-84994643D02*
X204978628Y-84947024D01*
X204978628Y-84947024D02*
X205073866Y-84899405D01*
X205073866Y-84899405D02*
X205264342Y-84899405D01*
X205264342Y-84899405D02*
X205359580Y-84947024D01*
X205359580Y-84947024D02*
X205407200Y-84994643D01*
X205407200Y-84994643D02*
X205454819Y-85089881D01*
X205454819Y-85089881D02*
X205454819Y-85280357D01*
X205454819Y-85280357D02*
X205407200Y-85375595D01*
X205407200Y-85375595D02*
X205359580Y-85423214D01*
X205359580Y-85423214D02*
X205264342Y-85470833D01*
X205264342Y-85470833D02*
X205073866Y-85470833D01*
X205073866Y-85470833D02*
X204978628Y-85423214D01*
X204978628Y-85423214D02*
X204931009Y-85375595D01*
X204931009Y-85375595D02*
X204883390Y-85280357D01*
X204454819Y-86089881D02*
X204454819Y-86185119D01*
X204454819Y-86185119D02*
X204502438Y-86280357D01*
X204502438Y-86280357D02*
X204550057Y-86327976D01*
X204550057Y-86327976D02*
X204645295Y-86375595D01*
X204645295Y-86375595D02*
X204835771Y-86423214D01*
X204835771Y-86423214D02*
X205073866Y-86423214D01*
X205073866Y-86423214D02*
X205264342Y-86375595D01*
X205264342Y-86375595D02*
X205359580Y-86327976D01*
X205359580Y-86327976D02*
X205407200Y-86280357D01*
X205407200Y-86280357D02*
X205454819Y-86185119D01*
X205454819Y-86185119D02*
X205454819Y-86089881D01*
X205454819Y-86089881D02*
X205407200Y-85994643D01*
X205407200Y-85994643D02*
X205359580Y-85947024D01*
X205359580Y-85947024D02*
X205264342Y-85899405D01*
X205264342Y-85899405D02*
X205073866Y-85851786D01*
X205073866Y-85851786D02*
X204835771Y-85851786D01*
X204835771Y-85851786D02*
X204645295Y-85899405D01*
X204645295Y-85899405D02*
X204550057Y-85947024D01*
X204550057Y-85947024D02*
X204502438Y-85994643D01*
X204502438Y-85994643D02*
X204454819Y-86089881D01*
X77359580Y-81607142D02*
X77407200Y-81559523D01*
X77407200Y-81559523D02*
X77454819Y-81416666D01*
X77454819Y-81416666D02*
X77454819Y-81321428D01*
X77454819Y-81321428D02*
X77407200Y-81178571D01*
X77407200Y-81178571D02*
X77311961Y-81083333D01*
X77311961Y-81083333D02*
X77216723Y-81035714D01*
X77216723Y-81035714D02*
X77026247Y-80988095D01*
X77026247Y-80988095D02*
X76883390Y-80988095D01*
X76883390Y-80988095D02*
X76692914Y-81035714D01*
X76692914Y-81035714D02*
X76597676Y-81083333D01*
X76597676Y-81083333D02*
X76502438Y-81178571D01*
X76502438Y-81178571D02*
X76454819Y-81321428D01*
X76454819Y-81321428D02*
X76454819Y-81416666D01*
X76454819Y-81416666D02*
X76502438Y-81559523D01*
X76502438Y-81559523D02*
X76550057Y-81607142D01*
X76454819Y-81940476D02*
X76454819Y-82559523D01*
X76454819Y-82559523D02*
X76835771Y-82226190D01*
X76835771Y-82226190D02*
X76835771Y-82369047D01*
X76835771Y-82369047D02*
X76883390Y-82464285D01*
X76883390Y-82464285D02*
X76931009Y-82511904D01*
X76931009Y-82511904D02*
X77026247Y-82559523D01*
X77026247Y-82559523D02*
X77264342Y-82559523D01*
X77264342Y-82559523D02*
X77359580Y-82511904D01*
X77359580Y-82511904D02*
X77407200Y-82464285D01*
X77407200Y-82464285D02*
X77454819Y-82369047D01*
X77454819Y-82369047D02*
X77454819Y-82083333D01*
X77454819Y-82083333D02*
X77407200Y-81988095D01*
X77407200Y-81988095D02*
X77359580Y-81940476D01*
X76883390Y-83130952D02*
X76835771Y-83035714D01*
X76835771Y-83035714D02*
X76788152Y-82988095D01*
X76788152Y-82988095D02*
X76692914Y-82940476D01*
X76692914Y-82940476D02*
X76645295Y-82940476D01*
X76645295Y-82940476D02*
X76550057Y-82988095D01*
X76550057Y-82988095D02*
X76502438Y-83035714D01*
X76502438Y-83035714D02*
X76454819Y-83130952D01*
X76454819Y-83130952D02*
X76454819Y-83321428D01*
X76454819Y-83321428D02*
X76502438Y-83416666D01*
X76502438Y-83416666D02*
X76550057Y-83464285D01*
X76550057Y-83464285D02*
X76645295Y-83511904D01*
X76645295Y-83511904D02*
X76692914Y-83511904D01*
X76692914Y-83511904D02*
X76788152Y-83464285D01*
X76788152Y-83464285D02*
X76835771Y-83416666D01*
X76835771Y-83416666D02*
X76883390Y-83321428D01*
X76883390Y-83321428D02*
X76883390Y-83130952D01*
X76883390Y-83130952D02*
X76931009Y-83035714D01*
X76931009Y-83035714D02*
X76978628Y-82988095D01*
X76978628Y-82988095D02*
X77073866Y-82940476D01*
X77073866Y-82940476D02*
X77264342Y-82940476D01*
X77264342Y-82940476D02*
X77359580Y-82988095D01*
X77359580Y-82988095D02*
X77407200Y-83035714D01*
X77407200Y-83035714D02*
X77454819Y-83130952D01*
X77454819Y-83130952D02*
X77454819Y-83321428D01*
X77454819Y-83321428D02*
X77407200Y-83416666D01*
X77407200Y-83416666D02*
X77359580Y-83464285D01*
X77359580Y-83464285D02*
X77264342Y-83511904D01*
X77264342Y-83511904D02*
X77073866Y-83511904D01*
X77073866Y-83511904D02*
X76978628Y-83464285D01*
X76978628Y-83464285D02*
X76931009Y-83416666D01*
X76931009Y-83416666D02*
X76883390Y-83321428D01*
X183179819Y-70899405D02*
X183989342Y-70899405D01*
X183989342Y-70899405D02*
X184084580Y-70947024D01*
X184084580Y-70947024D02*
X184132200Y-70994643D01*
X184132200Y-70994643D02*
X184179819Y-71089881D01*
X184179819Y-71089881D02*
X184179819Y-71280357D01*
X184179819Y-71280357D02*
X184132200Y-71375595D01*
X184132200Y-71375595D02*
X184084580Y-71423214D01*
X184084580Y-71423214D02*
X183989342Y-71470833D01*
X183989342Y-71470833D02*
X183179819Y-71470833D01*
X184179819Y-72470833D02*
X184179819Y-71899405D01*
X184179819Y-72185119D02*
X183179819Y-72185119D01*
X183179819Y-72185119D02*
X183322676Y-72089881D01*
X183322676Y-72089881D02*
X183417914Y-71994643D01*
X183417914Y-71994643D02*
X183465533Y-71899405D01*
X183179819Y-73375595D02*
X183179819Y-72899405D01*
X183179819Y-72899405D02*
X183656009Y-72851786D01*
X183656009Y-72851786D02*
X183608390Y-72899405D01*
X183608390Y-72899405D02*
X183560771Y-72994643D01*
X183560771Y-72994643D02*
X183560771Y-73232738D01*
X183560771Y-73232738D02*
X183608390Y-73327976D01*
X183608390Y-73327976D02*
X183656009Y-73375595D01*
X183656009Y-73375595D02*
X183751247Y-73423214D01*
X183751247Y-73423214D02*
X183989342Y-73423214D01*
X183989342Y-73423214D02*
X184084580Y-73375595D01*
X184084580Y-73375595D02*
X184132200Y-73327976D01*
X184132200Y-73327976D02*
X184179819Y-73232738D01*
X184179819Y-73232738D02*
X184179819Y-72994643D01*
X184179819Y-72994643D02*
X184132200Y-72899405D01*
X184132200Y-72899405D02*
X184084580Y-72851786D01*
X175359580Y-105905894D02*
X175407200Y-105858275D01*
X175407200Y-105858275D02*
X175454819Y-105715418D01*
X175454819Y-105715418D02*
X175454819Y-105620180D01*
X175454819Y-105620180D02*
X175407200Y-105477323D01*
X175407200Y-105477323D02*
X175311961Y-105382085D01*
X175311961Y-105382085D02*
X175216723Y-105334466D01*
X175216723Y-105334466D02*
X175026247Y-105286847D01*
X175026247Y-105286847D02*
X174883390Y-105286847D01*
X174883390Y-105286847D02*
X174692914Y-105334466D01*
X174692914Y-105334466D02*
X174597676Y-105382085D01*
X174597676Y-105382085D02*
X174502438Y-105477323D01*
X174502438Y-105477323D02*
X174454819Y-105620180D01*
X174454819Y-105620180D02*
X174454819Y-105715418D01*
X174454819Y-105715418D02*
X174502438Y-105858275D01*
X174502438Y-105858275D02*
X174550057Y-105905894D01*
X174550057Y-106286847D02*
X174502438Y-106334466D01*
X174502438Y-106334466D02*
X174454819Y-106429704D01*
X174454819Y-106429704D02*
X174454819Y-106667799D01*
X174454819Y-106667799D02*
X174502438Y-106763037D01*
X174502438Y-106763037D02*
X174550057Y-106810656D01*
X174550057Y-106810656D02*
X174645295Y-106858275D01*
X174645295Y-106858275D02*
X174740533Y-106858275D01*
X174740533Y-106858275D02*
X174883390Y-106810656D01*
X174883390Y-106810656D02*
X175454819Y-106239228D01*
X175454819Y-106239228D02*
X175454819Y-106858275D01*
X175454819Y-107334466D02*
X175454819Y-107524942D01*
X175454819Y-107524942D02*
X175407200Y-107620180D01*
X175407200Y-107620180D02*
X175359580Y-107667799D01*
X175359580Y-107667799D02*
X175216723Y-107763037D01*
X175216723Y-107763037D02*
X175026247Y-107810656D01*
X175026247Y-107810656D02*
X174645295Y-107810656D01*
X174645295Y-107810656D02*
X174550057Y-107763037D01*
X174550057Y-107763037D02*
X174502438Y-107715418D01*
X174502438Y-107715418D02*
X174454819Y-107620180D01*
X174454819Y-107620180D02*
X174454819Y-107429704D01*
X174454819Y-107429704D02*
X174502438Y-107334466D01*
X174502438Y-107334466D02*
X174550057Y-107286847D01*
X174550057Y-107286847D02*
X174645295Y-107239228D01*
X174645295Y-107239228D02*
X174883390Y-107239228D01*
X174883390Y-107239228D02*
X174978628Y-107286847D01*
X174978628Y-107286847D02*
X175026247Y-107334466D01*
X175026247Y-107334466D02*
X175073866Y-107429704D01*
X175073866Y-107429704D02*
X175073866Y-107620180D01*
X175073866Y-107620180D02*
X175026247Y-107715418D01*
X175026247Y-107715418D02*
X174978628Y-107763037D01*
X174978628Y-107763037D02*
X174883390Y-107810656D01*
X90642857Y-80359580D02*
X90690476Y-80407200D01*
X90690476Y-80407200D02*
X90833333Y-80454819D01*
X90833333Y-80454819D02*
X90928571Y-80454819D01*
X90928571Y-80454819D02*
X91071428Y-80407200D01*
X91071428Y-80407200D02*
X91166666Y-80311961D01*
X91166666Y-80311961D02*
X91214285Y-80216723D01*
X91214285Y-80216723D02*
X91261904Y-80026247D01*
X91261904Y-80026247D02*
X91261904Y-79883390D01*
X91261904Y-79883390D02*
X91214285Y-79692914D01*
X91214285Y-79692914D02*
X91166666Y-79597676D01*
X91166666Y-79597676D02*
X91071428Y-79502438D01*
X91071428Y-79502438D02*
X90928571Y-79454819D01*
X90928571Y-79454819D02*
X90833333Y-79454819D01*
X90833333Y-79454819D02*
X90690476Y-79502438D01*
X90690476Y-79502438D02*
X90642857Y-79550057D01*
X90309523Y-79454819D02*
X89690476Y-79454819D01*
X89690476Y-79454819D02*
X90023809Y-79835771D01*
X90023809Y-79835771D02*
X89880952Y-79835771D01*
X89880952Y-79835771D02*
X89785714Y-79883390D01*
X89785714Y-79883390D02*
X89738095Y-79931009D01*
X89738095Y-79931009D02*
X89690476Y-80026247D01*
X89690476Y-80026247D02*
X89690476Y-80264342D01*
X89690476Y-80264342D02*
X89738095Y-80359580D01*
X89738095Y-80359580D02*
X89785714Y-80407200D01*
X89785714Y-80407200D02*
X89880952Y-80454819D01*
X89880952Y-80454819D02*
X90166666Y-80454819D01*
X90166666Y-80454819D02*
X90261904Y-80407200D01*
X90261904Y-80407200D02*
X90309523Y-80359580D01*
X89357142Y-79454819D02*
X88690476Y-79454819D01*
X88690476Y-79454819D02*
X89119047Y-80454819D01*
X179679580Y-82607142D02*
X179727200Y-82559523D01*
X179727200Y-82559523D02*
X179774819Y-82416666D01*
X179774819Y-82416666D02*
X179774819Y-82321428D01*
X179774819Y-82321428D02*
X179727200Y-82178571D01*
X179727200Y-82178571D02*
X179631961Y-82083333D01*
X179631961Y-82083333D02*
X179536723Y-82035714D01*
X179536723Y-82035714D02*
X179346247Y-81988095D01*
X179346247Y-81988095D02*
X179203390Y-81988095D01*
X179203390Y-81988095D02*
X179012914Y-82035714D01*
X179012914Y-82035714D02*
X178917676Y-82083333D01*
X178917676Y-82083333D02*
X178822438Y-82178571D01*
X178822438Y-82178571D02*
X178774819Y-82321428D01*
X178774819Y-82321428D02*
X178774819Y-82416666D01*
X178774819Y-82416666D02*
X178822438Y-82559523D01*
X178822438Y-82559523D02*
X178870057Y-82607142D01*
X178870057Y-82988095D02*
X178822438Y-83035714D01*
X178822438Y-83035714D02*
X178774819Y-83130952D01*
X178774819Y-83130952D02*
X178774819Y-83369047D01*
X178774819Y-83369047D02*
X178822438Y-83464285D01*
X178822438Y-83464285D02*
X178870057Y-83511904D01*
X178870057Y-83511904D02*
X178965295Y-83559523D01*
X178965295Y-83559523D02*
X179060533Y-83559523D01*
X179060533Y-83559523D02*
X179203390Y-83511904D01*
X179203390Y-83511904D02*
X179774819Y-82940476D01*
X179774819Y-82940476D02*
X179774819Y-83559523D01*
X179203390Y-84130952D02*
X179155771Y-84035714D01*
X179155771Y-84035714D02*
X179108152Y-83988095D01*
X179108152Y-83988095D02*
X179012914Y-83940476D01*
X179012914Y-83940476D02*
X178965295Y-83940476D01*
X178965295Y-83940476D02*
X178870057Y-83988095D01*
X178870057Y-83988095D02*
X178822438Y-84035714D01*
X178822438Y-84035714D02*
X178774819Y-84130952D01*
X178774819Y-84130952D02*
X178774819Y-84321428D01*
X178774819Y-84321428D02*
X178822438Y-84416666D01*
X178822438Y-84416666D02*
X178870057Y-84464285D01*
X178870057Y-84464285D02*
X178965295Y-84511904D01*
X178965295Y-84511904D02*
X179012914Y-84511904D01*
X179012914Y-84511904D02*
X179108152Y-84464285D01*
X179108152Y-84464285D02*
X179155771Y-84416666D01*
X179155771Y-84416666D02*
X179203390Y-84321428D01*
X179203390Y-84321428D02*
X179203390Y-84130952D01*
X179203390Y-84130952D02*
X179251009Y-84035714D01*
X179251009Y-84035714D02*
X179298628Y-83988095D01*
X179298628Y-83988095D02*
X179393866Y-83940476D01*
X179393866Y-83940476D02*
X179584342Y-83940476D01*
X179584342Y-83940476D02*
X179679580Y-83988095D01*
X179679580Y-83988095D02*
X179727200Y-84035714D01*
X179727200Y-84035714D02*
X179774819Y-84130952D01*
X179774819Y-84130952D02*
X179774819Y-84321428D01*
X179774819Y-84321428D02*
X179727200Y-84416666D01*
X179727200Y-84416666D02*
X179679580Y-84464285D01*
X179679580Y-84464285D02*
X179584342Y-84511904D01*
X179584342Y-84511904D02*
X179393866Y-84511904D01*
X179393866Y-84511904D02*
X179298628Y-84464285D01*
X179298628Y-84464285D02*
X179251009Y-84416666D01*
X179251009Y-84416666D02*
X179203390Y-84321428D01*
X205179819Y-70899405D02*
X205989342Y-70899405D01*
X205989342Y-70899405D02*
X206084580Y-70947024D01*
X206084580Y-70947024D02*
X206132200Y-70994643D01*
X206132200Y-70994643D02*
X206179819Y-71089881D01*
X206179819Y-71089881D02*
X206179819Y-71280357D01*
X206179819Y-71280357D02*
X206132200Y-71375595D01*
X206132200Y-71375595D02*
X206084580Y-71423214D01*
X206084580Y-71423214D02*
X205989342Y-71470833D01*
X205989342Y-71470833D02*
X205179819Y-71470833D01*
X206179819Y-72470833D02*
X206179819Y-71899405D01*
X206179819Y-72185119D02*
X205179819Y-72185119D01*
X205179819Y-72185119D02*
X205322676Y-72089881D01*
X205322676Y-72089881D02*
X205417914Y-71994643D01*
X205417914Y-71994643D02*
X205465533Y-71899405D01*
X205179819Y-72804167D02*
X205179819Y-73470833D01*
X205179819Y-73470833D02*
X206179819Y-73042262D01*
X183179819Y-83899405D02*
X183989342Y-83899405D01*
X183989342Y-83899405D02*
X184084580Y-83947024D01*
X184084580Y-83947024D02*
X184132200Y-83994643D01*
X184132200Y-83994643D02*
X184179819Y-84089881D01*
X184179819Y-84089881D02*
X184179819Y-84280357D01*
X184179819Y-84280357D02*
X184132200Y-84375595D01*
X184132200Y-84375595D02*
X184084580Y-84423214D01*
X184084580Y-84423214D02*
X183989342Y-84470833D01*
X183989342Y-84470833D02*
X183179819Y-84470833D01*
X183179819Y-84851786D02*
X183179819Y-85518452D01*
X183179819Y-85518452D02*
X184179819Y-85089881D01*
X183608390Y-86042262D02*
X183560771Y-85947024D01*
X183560771Y-85947024D02*
X183513152Y-85899405D01*
X183513152Y-85899405D02*
X183417914Y-85851786D01*
X183417914Y-85851786D02*
X183370295Y-85851786D01*
X183370295Y-85851786D02*
X183275057Y-85899405D01*
X183275057Y-85899405D02*
X183227438Y-85947024D01*
X183227438Y-85947024D02*
X183179819Y-86042262D01*
X183179819Y-86042262D02*
X183179819Y-86232738D01*
X183179819Y-86232738D02*
X183227438Y-86327976D01*
X183227438Y-86327976D02*
X183275057Y-86375595D01*
X183275057Y-86375595D02*
X183370295Y-86423214D01*
X183370295Y-86423214D02*
X183417914Y-86423214D01*
X183417914Y-86423214D02*
X183513152Y-86375595D01*
X183513152Y-86375595D02*
X183560771Y-86327976D01*
X183560771Y-86327976D02*
X183608390Y-86232738D01*
X183608390Y-86232738D02*
X183608390Y-86042262D01*
X183608390Y-86042262D02*
X183656009Y-85947024D01*
X183656009Y-85947024D02*
X183703628Y-85899405D01*
X183703628Y-85899405D02*
X183798866Y-85851786D01*
X183798866Y-85851786D02*
X183989342Y-85851786D01*
X183989342Y-85851786D02*
X184084580Y-85899405D01*
X184084580Y-85899405D02*
X184132200Y-85947024D01*
X184132200Y-85947024D02*
X184179819Y-86042262D01*
X184179819Y-86042262D02*
X184179819Y-86232738D01*
X184179819Y-86232738D02*
X184132200Y-86327976D01*
X184132200Y-86327976D02*
X184084580Y-86375595D01*
X184084580Y-86375595D02*
X183989342Y-86423214D01*
X183989342Y-86423214D02*
X183798866Y-86423214D01*
X183798866Y-86423214D02*
X183703628Y-86375595D01*
X183703628Y-86375595D02*
X183656009Y-86327976D01*
X183656009Y-86327976D02*
X183608390Y-86232738D01*
X135179819Y-70899405D02*
X135989342Y-70899405D01*
X135989342Y-70899405D02*
X136084580Y-70947024D01*
X136084580Y-70947024D02*
X136132200Y-70994643D01*
X136132200Y-70994643D02*
X136179819Y-71089881D01*
X136179819Y-71089881D02*
X136179819Y-71280357D01*
X136179819Y-71280357D02*
X136132200Y-71375595D01*
X136132200Y-71375595D02*
X136084580Y-71423214D01*
X136084580Y-71423214D02*
X135989342Y-71470833D01*
X135989342Y-71470833D02*
X135179819Y-71470833D01*
X136179819Y-72470833D02*
X136179819Y-71899405D01*
X136179819Y-72185119D02*
X135179819Y-72185119D01*
X135179819Y-72185119D02*
X135322676Y-72089881D01*
X135322676Y-72089881D02*
X135417914Y-71994643D01*
X135417914Y-71994643D02*
X135465533Y-71899405D01*
X135275057Y-72851786D02*
X135227438Y-72899405D01*
X135227438Y-72899405D02*
X135179819Y-72994643D01*
X135179819Y-72994643D02*
X135179819Y-73232738D01*
X135179819Y-73232738D02*
X135227438Y-73327976D01*
X135227438Y-73327976D02*
X135275057Y-73375595D01*
X135275057Y-73375595D02*
X135370295Y-73423214D01*
X135370295Y-73423214D02*
X135465533Y-73423214D01*
X135465533Y-73423214D02*
X135608390Y-73375595D01*
X135608390Y-73375595D02*
X136179819Y-72804167D01*
X136179819Y-72804167D02*
X136179819Y-73423214D01*
X177579819Y-95899405D02*
X178389342Y-95899405D01*
X178389342Y-95899405D02*
X178484580Y-95947024D01*
X178484580Y-95947024D02*
X178532200Y-95994643D01*
X178532200Y-95994643D02*
X178579819Y-96089881D01*
X178579819Y-96089881D02*
X178579819Y-96280357D01*
X178579819Y-96280357D02*
X178532200Y-96375595D01*
X178532200Y-96375595D02*
X178484580Y-96423214D01*
X178484580Y-96423214D02*
X178389342Y-96470833D01*
X178389342Y-96470833D02*
X177579819Y-96470833D01*
X177579819Y-97375595D02*
X177579819Y-97185119D01*
X177579819Y-97185119D02*
X177627438Y-97089881D01*
X177627438Y-97089881D02*
X177675057Y-97042262D01*
X177675057Y-97042262D02*
X177817914Y-96947024D01*
X177817914Y-96947024D02*
X178008390Y-96899405D01*
X178008390Y-96899405D02*
X178389342Y-96899405D01*
X178389342Y-96899405D02*
X178484580Y-96947024D01*
X178484580Y-96947024D02*
X178532200Y-96994643D01*
X178532200Y-96994643D02*
X178579819Y-97089881D01*
X178579819Y-97089881D02*
X178579819Y-97280357D01*
X178579819Y-97280357D02*
X178532200Y-97375595D01*
X178532200Y-97375595D02*
X178484580Y-97423214D01*
X178484580Y-97423214D02*
X178389342Y-97470833D01*
X178389342Y-97470833D02*
X178151247Y-97470833D01*
X178151247Y-97470833D02*
X178056009Y-97423214D01*
X178056009Y-97423214D02*
X178008390Y-97375595D01*
X178008390Y-97375595D02*
X177960771Y-97280357D01*
X177960771Y-97280357D02*
X177960771Y-97089881D01*
X177960771Y-97089881D02*
X178008390Y-96994643D01*
X178008390Y-96994643D02*
X178056009Y-96947024D01*
X178056009Y-96947024D02*
X178151247Y-96899405D01*
X178579819Y-97947024D02*
X178579819Y-98137500D01*
X178579819Y-98137500D02*
X178532200Y-98232738D01*
X178532200Y-98232738D02*
X178484580Y-98280357D01*
X178484580Y-98280357D02*
X178341723Y-98375595D01*
X178341723Y-98375595D02*
X178151247Y-98423214D01*
X178151247Y-98423214D02*
X177770295Y-98423214D01*
X177770295Y-98423214D02*
X177675057Y-98375595D01*
X177675057Y-98375595D02*
X177627438Y-98327976D01*
X177627438Y-98327976D02*
X177579819Y-98232738D01*
X177579819Y-98232738D02*
X177579819Y-98042262D01*
X177579819Y-98042262D02*
X177627438Y-97947024D01*
X177627438Y-97947024D02*
X177675057Y-97899405D01*
X177675057Y-97899405D02*
X177770295Y-97851786D01*
X177770295Y-97851786D02*
X178008390Y-97851786D01*
X178008390Y-97851786D02*
X178103628Y-97899405D01*
X178103628Y-97899405D02*
X178151247Y-97947024D01*
X178151247Y-97947024D02*
X178198866Y-98042262D01*
X178198866Y-98042262D02*
X178198866Y-98232738D01*
X178198866Y-98232738D02*
X178151247Y-98327976D01*
X178151247Y-98327976D02*
X178103628Y-98375595D01*
X178103628Y-98375595D02*
X178008390Y-98423214D01*
X135179819Y-83899405D02*
X135989342Y-83899405D01*
X135989342Y-83899405D02*
X136084580Y-83947024D01*
X136084580Y-83947024D02*
X136132200Y-83994643D01*
X136132200Y-83994643D02*
X136179819Y-84089881D01*
X136179819Y-84089881D02*
X136179819Y-84280357D01*
X136179819Y-84280357D02*
X136132200Y-84375595D01*
X136132200Y-84375595D02*
X136084580Y-84423214D01*
X136084580Y-84423214D02*
X135989342Y-84470833D01*
X135989342Y-84470833D02*
X135179819Y-84470833D01*
X135179819Y-84851786D02*
X135179819Y-85518452D01*
X135179819Y-85518452D02*
X136179819Y-85089881D01*
X135179819Y-86375595D02*
X135179819Y-85899405D01*
X135179819Y-85899405D02*
X135656009Y-85851786D01*
X135656009Y-85851786D02*
X135608390Y-85899405D01*
X135608390Y-85899405D02*
X135560771Y-85994643D01*
X135560771Y-85994643D02*
X135560771Y-86232738D01*
X135560771Y-86232738D02*
X135608390Y-86327976D01*
X135608390Y-86327976D02*
X135656009Y-86375595D01*
X135656009Y-86375595D02*
X135751247Y-86423214D01*
X135751247Y-86423214D02*
X135989342Y-86423214D01*
X135989342Y-86423214D02*
X136084580Y-86375595D01*
X136084580Y-86375595D02*
X136132200Y-86327976D01*
X136132200Y-86327976D02*
X136179819Y-86232738D01*
X136179819Y-86232738D02*
X136179819Y-85994643D01*
X136179819Y-85994643D02*
X136132200Y-85899405D01*
X136132200Y-85899405D02*
X136084580Y-85851786D01*
X158789580Y-78357142D02*
X158837200Y-78309523D01*
X158837200Y-78309523D02*
X158884819Y-78166666D01*
X158884819Y-78166666D02*
X158884819Y-78071428D01*
X158884819Y-78071428D02*
X158837200Y-77928571D01*
X158837200Y-77928571D02*
X158741961Y-77833333D01*
X158741961Y-77833333D02*
X158646723Y-77785714D01*
X158646723Y-77785714D02*
X158456247Y-77738095D01*
X158456247Y-77738095D02*
X158313390Y-77738095D01*
X158313390Y-77738095D02*
X158122914Y-77785714D01*
X158122914Y-77785714D02*
X158027676Y-77833333D01*
X158027676Y-77833333D02*
X157932438Y-77928571D01*
X157932438Y-77928571D02*
X157884819Y-78071428D01*
X157884819Y-78071428D02*
X157884819Y-78166666D01*
X157884819Y-78166666D02*
X157932438Y-78309523D01*
X157932438Y-78309523D02*
X157980057Y-78357142D01*
X157980057Y-78738095D02*
X157932438Y-78785714D01*
X157932438Y-78785714D02*
X157884819Y-78880952D01*
X157884819Y-78880952D02*
X157884819Y-79119047D01*
X157884819Y-79119047D02*
X157932438Y-79214285D01*
X157932438Y-79214285D02*
X157980057Y-79261904D01*
X157980057Y-79261904D02*
X158075295Y-79309523D01*
X158075295Y-79309523D02*
X158170533Y-79309523D01*
X158170533Y-79309523D02*
X158313390Y-79261904D01*
X158313390Y-79261904D02*
X158884819Y-78690476D01*
X158884819Y-78690476D02*
X158884819Y-79309523D01*
X157884819Y-79642857D02*
X157884819Y-80261904D01*
X157884819Y-80261904D02*
X158265771Y-79928571D01*
X158265771Y-79928571D02*
X158265771Y-80071428D01*
X158265771Y-80071428D02*
X158313390Y-80166666D01*
X158313390Y-80166666D02*
X158361009Y-80214285D01*
X158361009Y-80214285D02*
X158456247Y-80261904D01*
X158456247Y-80261904D02*
X158694342Y-80261904D01*
X158694342Y-80261904D02*
X158789580Y-80214285D01*
X158789580Y-80214285D02*
X158837200Y-80166666D01*
X158837200Y-80166666D02*
X158884819Y-80071428D01*
X158884819Y-80071428D02*
X158884819Y-79785714D01*
X158884819Y-79785714D02*
X158837200Y-79690476D01*
X158837200Y-79690476D02*
X158789580Y-79642857D01*
X181238094Y-102454819D02*
X181238094Y-103264342D01*
X181238094Y-103264342D02*
X181190475Y-103359580D01*
X181190475Y-103359580D02*
X181142856Y-103407200D01*
X181142856Y-103407200D02*
X181047618Y-103454819D01*
X181047618Y-103454819D02*
X180857142Y-103454819D01*
X180857142Y-103454819D02*
X180761904Y-103407200D01*
X180761904Y-103407200D02*
X180714285Y-103359580D01*
X180714285Y-103359580D02*
X180666666Y-103264342D01*
X180666666Y-103264342D02*
X180666666Y-102454819D01*
X180285713Y-102454819D02*
X179666666Y-102454819D01*
X179666666Y-102454819D02*
X179999999Y-102835771D01*
X179999999Y-102835771D02*
X179857142Y-102835771D01*
X179857142Y-102835771D02*
X179761904Y-102883390D01*
X179761904Y-102883390D02*
X179714285Y-102931009D01*
X179714285Y-102931009D02*
X179666666Y-103026247D01*
X179666666Y-103026247D02*
X179666666Y-103264342D01*
X179666666Y-103264342D02*
X179714285Y-103359580D01*
X179714285Y-103359580D02*
X179761904Y-103407200D01*
X179761904Y-103407200D02*
X179857142Y-103454819D01*
X179857142Y-103454819D02*
X180142856Y-103454819D01*
X180142856Y-103454819D02*
X180238094Y-103407200D01*
X180238094Y-103407200D02*
X180285713Y-103359580D01*
X179190475Y-103454819D02*
X178999999Y-103454819D01*
X178999999Y-103454819D02*
X178904761Y-103407200D01*
X178904761Y-103407200D02*
X178857142Y-103359580D01*
X178857142Y-103359580D02*
X178761904Y-103216723D01*
X178761904Y-103216723D02*
X178714285Y-103026247D01*
X178714285Y-103026247D02*
X178714285Y-102645295D01*
X178714285Y-102645295D02*
X178761904Y-102550057D01*
X178761904Y-102550057D02*
X178809523Y-102502438D01*
X178809523Y-102502438D02*
X178904761Y-102454819D01*
X178904761Y-102454819D02*
X179095237Y-102454819D01*
X179095237Y-102454819D02*
X179190475Y-102502438D01*
X179190475Y-102502438D02*
X179238094Y-102550057D01*
X179238094Y-102550057D02*
X179285713Y-102645295D01*
X179285713Y-102645295D02*
X179285713Y-102883390D01*
X179285713Y-102883390D02*
X179238094Y-102978628D01*
X179238094Y-102978628D02*
X179190475Y-103026247D01*
X179190475Y-103026247D02*
X179095237Y-103073866D01*
X179095237Y-103073866D02*
X178904761Y-103073866D01*
X178904761Y-103073866D02*
X178809523Y-103026247D01*
X178809523Y-103026247D02*
X178761904Y-102978628D01*
X178761904Y-102978628D02*
X178714285Y-102883390D01*
X35679580Y-107357142D02*
X35727200Y-107309523D01*
X35727200Y-107309523D02*
X35774819Y-107166666D01*
X35774819Y-107166666D02*
X35774819Y-107071428D01*
X35774819Y-107071428D02*
X35727200Y-106928571D01*
X35727200Y-106928571D02*
X35631961Y-106833333D01*
X35631961Y-106833333D02*
X35536723Y-106785714D01*
X35536723Y-106785714D02*
X35346247Y-106738095D01*
X35346247Y-106738095D02*
X35203390Y-106738095D01*
X35203390Y-106738095D02*
X35012914Y-106785714D01*
X35012914Y-106785714D02*
X34917676Y-106833333D01*
X34917676Y-106833333D02*
X34822438Y-106928571D01*
X34822438Y-106928571D02*
X34774819Y-107071428D01*
X34774819Y-107071428D02*
X34774819Y-107166666D01*
X34774819Y-107166666D02*
X34822438Y-107309523D01*
X34822438Y-107309523D02*
X34870057Y-107357142D01*
X35774819Y-107833333D02*
X35774819Y-108023809D01*
X35774819Y-108023809D02*
X35727200Y-108119047D01*
X35727200Y-108119047D02*
X35679580Y-108166666D01*
X35679580Y-108166666D02*
X35536723Y-108261904D01*
X35536723Y-108261904D02*
X35346247Y-108309523D01*
X35346247Y-108309523D02*
X34965295Y-108309523D01*
X34965295Y-108309523D02*
X34870057Y-108261904D01*
X34870057Y-108261904D02*
X34822438Y-108214285D01*
X34822438Y-108214285D02*
X34774819Y-108119047D01*
X34774819Y-108119047D02*
X34774819Y-107928571D01*
X34774819Y-107928571D02*
X34822438Y-107833333D01*
X34822438Y-107833333D02*
X34870057Y-107785714D01*
X34870057Y-107785714D02*
X34965295Y-107738095D01*
X34965295Y-107738095D02*
X35203390Y-107738095D01*
X35203390Y-107738095D02*
X35298628Y-107785714D01*
X35298628Y-107785714D02*
X35346247Y-107833333D01*
X35346247Y-107833333D02*
X35393866Y-107928571D01*
X35393866Y-107928571D02*
X35393866Y-108119047D01*
X35393866Y-108119047D02*
X35346247Y-108214285D01*
X35346247Y-108214285D02*
X35298628Y-108261904D01*
X35298628Y-108261904D02*
X35203390Y-108309523D01*
X34774819Y-109166666D02*
X34774819Y-108976190D01*
X34774819Y-108976190D02*
X34822438Y-108880952D01*
X34822438Y-108880952D02*
X34870057Y-108833333D01*
X34870057Y-108833333D02*
X35012914Y-108738095D01*
X35012914Y-108738095D02*
X35203390Y-108690476D01*
X35203390Y-108690476D02*
X35584342Y-108690476D01*
X35584342Y-108690476D02*
X35679580Y-108738095D01*
X35679580Y-108738095D02*
X35727200Y-108785714D01*
X35727200Y-108785714D02*
X35774819Y-108880952D01*
X35774819Y-108880952D02*
X35774819Y-109071428D01*
X35774819Y-109071428D02*
X35727200Y-109166666D01*
X35727200Y-109166666D02*
X35679580Y-109214285D01*
X35679580Y-109214285D02*
X35584342Y-109261904D01*
X35584342Y-109261904D02*
X35346247Y-109261904D01*
X35346247Y-109261904D02*
X35251009Y-109214285D01*
X35251009Y-109214285D02*
X35203390Y-109166666D01*
X35203390Y-109166666D02*
X35155771Y-109071428D01*
X35155771Y-109071428D02*
X35155771Y-108880952D01*
X35155771Y-108880952D02*
X35203390Y-108785714D01*
X35203390Y-108785714D02*
X35251009Y-108738095D01*
X35251009Y-108738095D02*
X35346247Y-108690476D01*
X202179580Y-113833333D02*
X202227200Y-113785714D01*
X202227200Y-113785714D02*
X202274819Y-113642857D01*
X202274819Y-113642857D02*
X202274819Y-113547619D01*
X202274819Y-113547619D02*
X202227200Y-113404762D01*
X202227200Y-113404762D02*
X202131961Y-113309524D01*
X202131961Y-113309524D02*
X202036723Y-113261905D01*
X202036723Y-113261905D02*
X201846247Y-113214286D01*
X201846247Y-113214286D02*
X201703390Y-113214286D01*
X201703390Y-113214286D02*
X201512914Y-113261905D01*
X201512914Y-113261905D02*
X201417676Y-113309524D01*
X201417676Y-113309524D02*
X201322438Y-113404762D01*
X201322438Y-113404762D02*
X201274819Y-113547619D01*
X201274819Y-113547619D02*
X201274819Y-113642857D01*
X201274819Y-113642857D02*
X201322438Y-113785714D01*
X201322438Y-113785714D02*
X201370057Y-113833333D01*
X201703390Y-114404762D02*
X201655771Y-114309524D01*
X201655771Y-114309524D02*
X201608152Y-114261905D01*
X201608152Y-114261905D02*
X201512914Y-114214286D01*
X201512914Y-114214286D02*
X201465295Y-114214286D01*
X201465295Y-114214286D02*
X201370057Y-114261905D01*
X201370057Y-114261905D02*
X201322438Y-114309524D01*
X201322438Y-114309524D02*
X201274819Y-114404762D01*
X201274819Y-114404762D02*
X201274819Y-114595238D01*
X201274819Y-114595238D02*
X201322438Y-114690476D01*
X201322438Y-114690476D02*
X201370057Y-114738095D01*
X201370057Y-114738095D02*
X201465295Y-114785714D01*
X201465295Y-114785714D02*
X201512914Y-114785714D01*
X201512914Y-114785714D02*
X201608152Y-114738095D01*
X201608152Y-114738095D02*
X201655771Y-114690476D01*
X201655771Y-114690476D02*
X201703390Y-114595238D01*
X201703390Y-114595238D02*
X201703390Y-114404762D01*
X201703390Y-114404762D02*
X201751009Y-114309524D01*
X201751009Y-114309524D02*
X201798628Y-114261905D01*
X201798628Y-114261905D02*
X201893866Y-114214286D01*
X201893866Y-114214286D02*
X202084342Y-114214286D01*
X202084342Y-114214286D02*
X202179580Y-114261905D01*
X202179580Y-114261905D02*
X202227200Y-114309524D01*
X202227200Y-114309524D02*
X202274819Y-114404762D01*
X202274819Y-114404762D02*
X202274819Y-114595238D01*
X202274819Y-114595238D02*
X202227200Y-114690476D01*
X202227200Y-114690476D02*
X202179580Y-114738095D01*
X202179580Y-114738095D02*
X202084342Y-114785714D01*
X202084342Y-114785714D02*
X201893866Y-114785714D01*
X201893866Y-114785714D02*
X201798628Y-114738095D01*
X201798628Y-114738095D02*
X201751009Y-114690476D01*
X201751009Y-114690476D02*
X201703390Y-114595238D01*
X97238094Y-79454819D02*
X97238094Y-80264342D01*
X97238094Y-80264342D02*
X97190475Y-80359580D01*
X97190475Y-80359580D02*
X97142856Y-80407200D01*
X97142856Y-80407200D02*
X97047618Y-80454819D01*
X97047618Y-80454819D02*
X96857142Y-80454819D01*
X96857142Y-80454819D02*
X96761904Y-80407200D01*
X96761904Y-80407200D02*
X96714285Y-80359580D01*
X96714285Y-80359580D02*
X96666666Y-80264342D01*
X96666666Y-80264342D02*
X96666666Y-79454819D01*
X96285713Y-79454819D02*
X95619047Y-79454819D01*
X95619047Y-79454819D02*
X96047618Y-80454819D01*
X94714285Y-80454819D02*
X95285713Y-80454819D01*
X94999999Y-80454819D02*
X94999999Y-79454819D01*
X94999999Y-79454819D02*
X95095237Y-79597676D01*
X95095237Y-79597676D02*
X95190475Y-79692914D01*
X95190475Y-79692914D02*
X95285713Y-79740533D01*
X124179819Y-83899405D02*
X124989342Y-83899405D01*
X124989342Y-83899405D02*
X125084580Y-83947024D01*
X125084580Y-83947024D02*
X125132200Y-83994643D01*
X125132200Y-83994643D02*
X125179819Y-84089881D01*
X125179819Y-84089881D02*
X125179819Y-84280357D01*
X125179819Y-84280357D02*
X125132200Y-84375595D01*
X125132200Y-84375595D02*
X125084580Y-84423214D01*
X125084580Y-84423214D02*
X124989342Y-84470833D01*
X124989342Y-84470833D02*
X124179819Y-84470833D01*
X124179819Y-84851786D02*
X124179819Y-85518452D01*
X124179819Y-85518452D02*
X125179819Y-85089881D01*
X124513152Y-86327976D02*
X125179819Y-86327976D01*
X124132200Y-86089881D02*
X124846485Y-85851786D01*
X124846485Y-85851786D02*
X124846485Y-86470833D01*
X227179819Y-83899405D02*
X227989342Y-83899405D01*
X227989342Y-83899405D02*
X228084580Y-83947024D01*
X228084580Y-83947024D02*
X228132200Y-83994643D01*
X228132200Y-83994643D02*
X228179819Y-84089881D01*
X228179819Y-84089881D02*
X228179819Y-84280357D01*
X228179819Y-84280357D02*
X228132200Y-84375595D01*
X228132200Y-84375595D02*
X228084580Y-84423214D01*
X228084580Y-84423214D02*
X227989342Y-84470833D01*
X227989342Y-84470833D02*
X227179819Y-84470833D01*
X227608390Y-85089881D02*
X227560771Y-84994643D01*
X227560771Y-84994643D02*
X227513152Y-84947024D01*
X227513152Y-84947024D02*
X227417914Y-84899405D01*
X227417914Y-84899405D02*
X227370295Y-84899405D01*
X227370295Y-84899405D02*
X227275057Y-84947024D01*
X227275057Y-84947024D02*
X227227438Y-84994643D01*
X227227438Y-84994643D02*
X227179819Y-85089881D01*
X227179819Y-85089881D02*
X227179819Y-85280357D01*
X227179819Y-85280357D02*
X227227438Y-85375595D01*
X227227438Y-85375595D02*
X227275057Y-85423214D01*
X227275057Y-85423214D02*
X227370295Y-85470833D01*
X227370295Y-85470833D02*
X227417914Y-85470833D01*
X227417914Y-85470833D02*
X227513152Y-85423214D01*
X227513152Y-85423214D02*
X227560771Y-85375595D01*
X227560771Y-85375595D02*
X227608390Y-85280357D01*
X227608390Y-85280357D02*
X227608390Y-85089881D01*
X227608390Y-85089881D02*
X227656009Y-84994643D01*
X227656009Y-84994643D02*
X227703628Y-84947024D01*
X227703628Y-84947024D02*
X227798866Y-84899405D01*
X227798866Y-84899405D02*
X227989342Y-84899405D01*
X227989342Y-84899405D02*
X228084580Y-84947024D01*
X228084580Y-84947024D02*
X228132200Y-84994643D01*
X228132200Y-84994643D02*
X228179819Y-85089881D01*
X228179819Y-85089881D02*
X228179819Y-85280357D01*
X228179819Y-85280357D02*
X228132200Y-85375595D01*
X228132200Y-85375595D02*
X228084580Y-85423214D01*
X228084580Y-85423214D02*
X227989342Y-85470833D01*
X227989342Y-85470833D02*
X227798866Y-85470833D01*
X227798866Y-85470833D02*
X227703628Y-85423214D01*
X227703628Y-85423214D02*
X227656009Y-85375595D01*
X227656009Y-85375595D02*
X227608390Y-85280357D01*
X227275057Y-85851786D02*
X227227438Y-85899405D01*
X227227438Y-85899405D02*
X227179819Y-85994643D01*
X227179819Y-85994643D02*
X227179819Y-86232738D01*
X227179819Y-86232738D02*
X227227438Y-86327976D01*
X227227438Y-86327976D02*
X227275057Y-86375595D01*
X227275057Y-86375595D02*
X227370295Y-86423214D01*
X227370295Y-86423214D02*
X227465533Y-86423214D01*
X227465533Y-86423214D02*
X227608390Y-86375595D01*
X227608390Y-86375595D02*
X228179819Y-85804167D01*
X228179819Y-85804167D02*
X228179819Y-86423214D01*
X146179819Y-83899405D02*
X146989342Y-83899405D01*
X146989342Y-83899405D02*
X147084580Y-83947024D01*
X147084580Y-83947024D02*
X147132200Y-83994643D01*
X147132200Y-83994643D02*
X147179819Y-84089881D01*
X147179819Y-84089881D02*
X147179819Y-84280357D01*
X147179819Y-84280357D02*
X147132200Y-84375595D01*
X147132200Y-84375595D02*
X147084580Y-84423214D01*
X147084580Y-84423214D02*
X146989342Y-84470833D01*
X146989342Y-84470833D02*
X146179819Y-84470833D01*
X146179819Y-84851786D02*
X146179819Y-85518452D01*
X146179819Y-85518452D02*
X147179819Y-85089881D01*
X146179819Y-86327976D02*
X146179819Y-86137500D01*
X146179819Y-86137500D02*
X146227438Y-86042262D01*
X146227438Y-86042262D02*
X146275057Y-85994643D01*
X146275057Y-85994643D02*
X146417914Y-85899405D01*
X146417914Y-85899405D02*
X146608390Y-85851786D01*
X146608390Y-85851786D02*
X146989342Y-85851786D01*
X146989342Y-85851786D02*
X147084580Y-85899405D01*
X147084580Y-85899405D02*
X147132200Y-85947024D01*
X147132200Y-85947024D02*
X147179819Y-86042262D01*
X147179819Y-86042262D02*
X147179819Y-86232738D01*
X147179819Y-86232738D02*
X147132200Y-86327976D01*
X147132200Y-86327976D02*
X147084580Y-86375595D01*
X147084580Y-86375595D02*
X146989342Y-86423214D01*
X146989342Y-86423214D02*
X146751247Y-86423214D01*
X146751247Y-86423214D02*
X146656009Y-86375595D01*
X146656009Y-86375595D02*
X146608390Y-86327976D01*
X146608390Y-86327976D02*
X146560771Y-86232738D01*
X146560771Y-86232738D02*
X146560771Y-86042262D01*
X146560771Y-86042262D02*
X146608390Y-85947024D01*
X146608390Y-85947024D02*
X146656009Y-85899405D01*
X146656009Y-85899405D02*
X146751247Y-85851786D01*
X266238094Y-79454819D02*
X266238094Y-80264342D01*
X266238094Y-80264342D02*
X266190475Y-80359580D01*
X266190475Y-80359580D02*
X266142856Y-80407200D01*
X266142856Y-80407200D02*
X266047618Y-80454819D01*
X266047618Y-80454819D02*
X265857142Y-80454819D01*
X265857142Y-80454819D02*
X265761904Y-80407200D01*
X265761904Y-80407200D02*
X265714285Y-80359580D01*
X265714285Y-80359580D02*
X265666666Y-80264342D01*
X265666666Y-80264342D02*
X265666666Y-79454819D01*
X265047618Y-79883390D02*
X265142856Y-79835771D01*
X265142856Y-79835771D02*
X265190475Y-79788152D01*
X265190475Y-79788152D02*
X265238094Y-79692914D01*
X265238094Y-79692914D02*
X265238094Y-79645295D01*
X265238094Y-79645295D02*
X265190475Y-79550057D01*
X265190475Y-79550057D02*
X265142856Y-79502438D01*
X265142856Y-79502438D02*
X265047618Y-79454819D01*
X265047618Y-79454819D02*
X264857142Y-79454819D01*
X264857142Y-79454819D02*
X264761904Y-79502438D01*
X264761904Y-79502438D02*
X264714285Y-79550057D01*
X264714285Y-79550057D02*
X264666666Y-79645295D01*
X264666666Y-79645295D02*
X264666666Y-79692914D01*
X264666666Y-79692914D02*
X264714285Y-79788152D01*
X264714285Y-79788152D02*
X264761904Y-79835771D01*
X264761904Y-79835771D02*
X264857142Y-79883390D01*
X264857142Y-79883390D02*
X265047618Y-79883390D01*
X265047618Y-79883390D02*
X265142856Y-79931009D01*
X265142856Y-79931009D02*
X265190475Y-79978628D01*
X265190475Y-79978628D02*
X265238094Y-80073866D01*
X265238094Y-80073866D02*
X265238094Y-80264342D01*
X265238094Y-80264342D02*
X265190475Y-80359580D01*
X265190475Y-80359580D02*
X265142856Y-80407200D01*
X265142856Y-80407200D02*
X265047618Y-80454819D01*
X265047618Y-80454819D02*
X264857142Y-80454819D01*
X264857142Y-80454819D02*
X264761904Y-80407200D01*
X264761904Y-80407200D02*
X264714285Y-80359580D01*
X264714285Y-80359580D02*
X264666666Y-80264342D01*
X264666666Y-80264342D02*
X264666666Y-80073866D01*
X264666666Y-80073866D02*
X264714285Y-79978628D01*
X264714285Y-79978628D02*
X264761904Y-79931009D01*
X264761904Y-79931009D02*
X264857142Y-79883390D01*
X263761904Y-79454819D02*
X264238094Y-79454819D01*
X264238094Y-79454819D02*
X264285713Y-79931009D01*
X264285713Y-79931009D02*
X264238094Y-79883390D01*
X264238094Y-79883390D02*
X264142856Y-79835771D01*
X264142856Y-79835771D02*
X263904761Y-79835771D01*
X263904761Y-79835771D02*
X263809523Y-79883390D01*
X263809523Y-79883390D02*
X263761904Y-79931009D01*
X263761904Y-79931009D02*
X263714285Y-80026247D01*
X263714285Y-80026247D02*
X263714285Y-80264342D01*
X263714285Y-80264342D02*
X263761904Y-80359580D01*
X263761904Y-80359580D02*
X263809523Y-80407200D01*
X263809523Y-80407200D02*
X263904761Y-80454819D01*
X263904761Y-80454819D02*
X264142856Y-80454819D01*
X264142856Y-80454819D02*
X264238094Y-80407200D01*
X264238094Y-80407200D02*
X264285713Y-80359580D01*
X113179819Y-83899405D02*
X113989342Y-83899405D01*
X113989342Y-83899405D02*
X114084580Y-83947024D01*
X114084580Y-83947024D02*
X114132200Y-83994643D01*
X114132200Y-83994643D02*
X114179819Y-84089881D01*
X114179819Y-84089881D02*
X114179819Y-84280357D01*
X114179819Y-84280357D02*
X114132200Y-84375595D01*
X114132200Y-84375595D02*
X114084580Y-84423214D01*
X114084580Y-84423214D02*
X113989342Y-84470833D01*
X113989342Y-84470833D02*
X113179819Y-84470833D01*
X113179819Y-84851786D02*
X113179819Y-85518452D01*
X113179819Y-85518452D02*
X114179819Y-85089881D01*
X113179819Y-85804167D02*
X113179819Y-86423214D01*
X113179819Y-86423214D02*
X113560771Y-86089881D01*
X113560771Y-86089881D02*
X113560771Y-86232738D01*
X113560771Y-86232738D02*
X113608390Y-86327976D01*
X113608390Y-86327976D02*
X113656009Y-86375595D01*
X113656009Y-86375595D02*
X113751247Y-86423214D01*
X113751247Y-86423214D02*
X113989342Y-86423214D01*
X113989342Y-86423214D02*
X114084580Y-86375595D01*
X114084580Y-86375595D02*
X114132200Y-86327976D01*
X114132200Y-86327976D02*
X114179819Y-86232738D01*
X114179819Y-86232738D02*
X114179819Y-85947024D01*
X114179819Y-85947024D02*
X114132200Y-85851786D01*
X114132200Y-85851786D02*
X114084580Y-85804167D01*
X216179819Y-83899405D02*
X216989342Y-83899405D01*
X216989342Y-83899405D02*
X217084580Y-83947024D01*
X217084580Y-83947024D02*
X217132200Y-83994643D01*
X217132200Y-83994643D02*
X217179819Y-84089881D01*
X217179819Y-84089881D02*
X217179819Y-84280357D01*
X217179819Y-84280357D02*
X217132200Y-84375595D01*
X217132200Y-84375595D02*
X217084580Y-84423214D01*
X217084580Y-84423214D02*
X216989342Y-84470833D01*
X216989342Y-84470833D02*
X216179819Y-84470833D01*
X216608390Y-85089881D02*
X216560771Y-84994643D01*
X216560771Y-84994643D02*
X216513152Y-84947024D01*
X216513152Y-84947024D02*
X216417914Y-84899405D01*
X216417914Y-84899405D02*
X216370295Y-84899405D01*
X216370295Y-84899405D02*
X216275057Y-84947024D01*
X216275057Y-84947024D02*
X216227438Y-84994643D01*
X216227438Y-84994643D02*
X216179819Y-85089881D01*
X216179819Y-85089881D02*
X216179819Y-85280357D01*
X216179819Y-85280357D02*
X216227438Y-85375595D01*
X216227438Y-85375595D02*
X216275057Y-85423214D01*
X216275057Y-85423214D02*
X216370295Y-85470833D01*
X216370295Y-85470833D02*
X216417914Y-85470833D01*
X216417914Y-85470833D02*
X216513152Y-85423214D01*
X216513152Y-85423214D02*
X216560771Y-85375595D01*
X216560771Y-85375595D02*
X216608390Y-85280357D01*
X216608390Y-85280357D02*
X216608390Y-85089881D01*
X216608390Y-85089881D02*
X216656009Y-84994643D01*
X216656009Y-84994643D02*
X216703628Y-84947024D01*
X216703628Y-84947024D02*
X216798866Y-84899405D01*
X216798866Y-84899405D02*
X216989342Y-84899405D01*
X216989342Y-84899405D02*
X217084580Y-84947024D01*
X217084580Y-84947024D02*
X217132200Y-84994643D01*
X217132200Y-84994643D02*
X217179819Y-85089881D01*
X217179819Y-85089881D02*
X217179819Y-85280357D01*
X217179819Y-85280357D02*
X217132200Y-85375595D01*
X217132200Y-85375595D02*
X217084580Y-85423214D01*
X217084580Y-85423214D02*
X216989342Y-85470833D01*
X216989342Y-85470833D02*
X216798866Y-85470833D01*
X216798866Y-85470833D02*
X216703628Y-85423214D01*
X216703628Y-85423214D02*
X216656009Y-85375595D01*
X216656009Y-85375595D02*
X216608390Y-85280357D01*
X217179819Y-86423214D02*
X217179819Y-85851786D01*
X217179819Y-86137500D02*
X216179819Y-86137500D01*
X216179819Y-86137500D02*
X216322676Y-86042262D01*
X216322676Y-86042262D02*
X216417914Y-85947024D01*
X216417914Y-85947024D02*
X216465533Y-85851786D01*
X124179819Y-70899405D02*
X124989342Y-70899405D01*
X124989342Y-70899405D02*
X125084580Y-70947024D01*
X125084580Y-70947024D02*
X125132200Y-70994643D01*
X125132200Y-70994643D02*
X125179819Y-71089881D01*
X125179819Y-71089881D02*
X125179819Y-71280357D01*
X125179819Y-71280357D02*
X125132200Y-71375595D01*
X125132200Y-71375595D02*
X125084580Y-71423214D01*
X125084580Y-71423214D02*
X124989342Y-71470833D01*
X124989342Y-71470833D02*
X124179819Y-71470833D01*
X125179819Y-72470833D02*
X125179819Y-71899405D01*
X125179819Y-72185119D02*
X124179819Y-72185119D01*
X124179819Y-72185119D02*
X124322676Y-72089881D01*
X124322676Y-72089881D02*
X124417914Y-71994643D01*
X124417914Y-71994643D02*
X124465533Y-71899405D01*
X125179819Y-73423214D02*
X125179819Y-72851786D01*
X125179819Y-73137500D02*
X124179819Y-73137500D01*
X124179819Y-73137500D02*
X124322676Y-73042262D01*
X124322676Y-73042262D02*
X124417914Y-72947024D01*
X124417914Y-72947024D02*
X124465533Y-72851786D01*
X104119580Y-78357142D02*
X104167200Y-78309523D01*
X104167200Y-78309523D02*
X104214819Y-78166666D01*
X104214819Y-78166666D02*
X104214819Y-78071428D01*
X104214819Y-78071428D02*
X104167200Y-77928571D01*
X104167200Y-77928571D02*
X104071961Y-77833333D01*
X104071961Y-77833333D02*
X103976723Y-77785714D01*
X103976723Y-77785714D02*
X103786247Y-77738095D01*
X103786247Y-77738095D02*
X103643390Y-77738095D01*
X103643390Y-77738095D02*
X103452914Y-77785714D01*
X103452914Y-77785714D02*
X103357676Y-77833333D01*
X103357676Y-77833333D02*
X103262438Y-77928571D01*
X103262438Y-77928571D02*
X103214819Y-78071428D01*
X103214819Y-78071428D02*
X103214819Y-78166666D01*
X103214819Y-78166666D02*
X103262438Y-78309523D01*
X103262438Y-78309523D02*
X103310057Y-78357142D01*
X103214819Y-78690476D02*
X103214819Y-79309523D01*
X103214819Y-79309523D02*
X103595771Y-78976190D01*
X103595771Y-78976190D02*
X103595771Y-79119047D01*
X103595771Y-79119047D02*
X103643390Y-79214285D01*
X103643390Y-79214285D02*
X103691009Y-79261904D01*
X103691009Y-79261904D02*
X103786247Y-79309523D01*
X103786247Y-79309523D02*
X104024342Y-79309523D01*
X104024342Y-79309523D02*
X104119580Y-79261904D01*
X104119580Y-79261904D02*
X104167200Y-79214285D01*
X104167200Y-79214285D02*
X104214819Y-79119047D01*
X104214819Y-79119047D02*
X104214819Y-78833333D01*
X104214819Y-78833333D02*
X104167200Y-78738095D01*
X104167200Y-78738095D02*
X104119580Y-78690476D01*
X103214819Y-80166666D02*
X103214819Y-79976190D01*
X103214819Y-79976190D02*
X103262438Y-79880952D01*
X103262438Y-79880952D02*
X103310057Y-79833333D01*
X103310057Y-79833333D02*
X103452914Y-79738095D01*
X103452914Y-79738095D02*
X103643390Y-79690476D01*
X103643390Y-79690476D02*
X104024342Y-79690476D01*
X104024342Y-79690476D02*
X104119580Y-79738095D01*
X104119580Y-79738095D02*
X104167200Y-79785714D01*
X104167200Y-79785714D02*
X104214819Y-79880952D01*
X104214819Y-79880952D02*
X104214819Y-80071428D01*
X104214819Y-80071428D02*
X104167200Y-80166666D01*
X104167200Y-80166666D02*
X104119580Y-80214285D01*
X104119580Y-80214285D02*
X104024342Y-80261904D01*
X104024342Y-80261904D02*
X103786247Y-80261904D01*
X103786247Y-80261904D02*
X103691009Y-80214285D01*
X103691009Y-80214285D02*
X103643390Y-80166666D01*
X103643390Y-80166666D02*
X103595771Y-80071428D01*
X103595771Y-80071428D02*
X103595771Y-79880952D01*
X103595771Y-79880952D02*
X103643390Y-79785714D01*
X103643390Y-79785714D02*
X103691009Y-79738095D01*
X103691009Y-79738095D02*
X103786247Y-79690476D01*
X175238094Y-67004819D02*
X175238094Y-67814342D01*
X175238094Y-67814342D02*
X175190475Y-67909580D01*
X175190475Y-67909580D02*
X175142856Y-67957200D01*
X175142856Y-67957200D02*
X175047618Y-68004819D01*
X175047618Y-68004819D02*
X174857142Y-68004819D01*
X174857142Y-68004819D02*
X174761904Y-67957200D01*
X174761904Y-67957200D02*
X174714285Y-67909580D01*
X174714285Y-67909580D02*
X174666666Y-67814342D01*
X174666666Y-67814342D02*
X174666666Y-67004819D01*
X174285713Y-67004819D02*
X173666666Y-67004819D01*
X173666666Y-67004819D02*
X173999999Y-67385771D01*
X173999999Y-67385771D02*
X173857142Y-67385771D01*
X173857142Y-67385771D02*
X173761904Y-67433390D01*
X173761904Y-67433390D02*
X173714285Y-67481009D01*
X173714285Y-67481009D02*
X173666666Y-67576247D01*
X173666666Y-67576247D02*
X173666666Y-67814342D01*
X173666666Y-67814342D02*
X173714285Y-67909580D01*
X173714285Y-67909580D02*
X173761904Y-67957200D01*
X173761904Y-67957200D02*
X173857142Y-68004819D01*
X173857142Y-68004819D02*
X174142856Y-68004819D01*
X174142856Y-68004819D02*
X174238094Y-67957200D01*
X174238094Y-67957200D02*
X174285713Y-67909580D01*
X172714285Y-68004819D02*
X173285713Y-68004819D01*
X172999999Y-68004819D02*
X172999999Y-67004819D01*
X172999999Y-67004819D02*
X173095237Y-67147676D01*
X173095237Y-67147676D02*
X173190475Y-67242914D01*
X173190475Y-67242914D02*
X173285713Y-67290533D01*
X236429580Y-88607142D02*
X236477200Y-88559523D01*
X236477200Y-88559523D02*
X236524819Y-88416666D01*
X236524819Y-88416666D02*
X236524819Y-88321428D01*
X236524819Y-88321428D02*
X236477200Y-88178571D01*
X236477200Y-88178571D02*
X236381961Y-88083333D01*
X236381961Y-88083333D02*
X236286723Y-88035714D01*
X236286723Y-88035714D02*
X236096247Y-87988095D01*
X236096247Y-87988095D02*
X235953390Y-87988095D01*
X235953390Y-87988095D02*
X235762914Y-88035714D01*
X235762914Y-88035714D02*
X235667676Y-88083333D01*
X235667676Y-88083333D02*
X235572438Y-88178571D01*
X235572438Y-88178571D02*
X235524819Y-88321428D01*
X235524819Y-88321428D02*
X235524819Y-88416666D01*
X235524819Y-88416666D02*
X235572438Y-88559523D01*
X235572438Y-88559523D02*
X235620057Y-88607142D01*
X235524819Y-88940476D02*
X235524819Y-89607142D01*
X235524819Y-89607142D02*
X236524819Y-89178571D01*
X235524819Y-90464285D02*
X235524819Y-89988095D01*
X235524819Y-89988095D02*
X236001009Y-89940476D01*
X236001009Y-89940476D02*
X235953390Y-89988095D01*
X235953390Y-89988095D02*
X235905771Y-90083333D01*
X235905771Y-90083333D02*
X235905771Y-90321428D01*
X235905771Y-90321428D02*
X235953390Y-90416666D01*
X235953390Y-90416666D02*
X236001009Y-90464285D01*
X236001009Y-90464285D02*
X236096247Y-90511904D01*
X236096247Y-90511904D02*
X236334342Y-90511904D01*
X236334342Y-90511904D02*
X236429580Y-90464285D01*
X236429580Y-90464285D02*
X236477200Y-90416666D01*
X236477200Y-90416666D02*
X236524819Y-90321428D01*
X236524819Y-90321428D02*
X236524819Y-90083333D01*
X236524819Y-90083333D02*
X236477200Y-89988095D01*
X236477200Y-89988095D02*
X236429580Y-89940476D01*
X259359580Y-68357142D02*
X259407200Y-68309523D01*
X259407200Y-68309523D02*
X259454819Y-68166666D01*
X259454819Y-68166666D02*
X259454819Y-68071428D01*
X259454819Y-68071428D02*
X259407200Y-67928571D01*
X259407200Y-67928571D02*
X259311961Y-67833333D01*
X259311961Y-67833333D02*
X259216723Y-67785714D01*
X259216723Y-67785714D02*
X259026247Y-67738095D01*
X259026247Y-67738095D02*
X258883390Y-67738095D01*
X258883390Y-67738095D02*
X258692914Y-67785714D01*
X258692914Y-67785714D02*
X258597676Y-67833333D01*
X258597676Y-67833333D02*
X258502438Y-67928571D01*
X258502438Y-67928571D02*
X258454819Y-68071428D01*
X258454819Y-68071428D02*
X258454819Y-68166666D01*
X258454819Y-68166666D02*
X258502438Y-68309523D01*
X258502438Y-68309523D02*
X258550057Y-68357142D01*
X258883390Y-68928571D02*
X258835771Y-68833333D01*
X258835771Y-68833333D02*
X258788152Y-68785714D01*
X258788152Y-68785714D02*
X258692914Y-68738095D01*
X258692914Y-68738095D02*
X258645295Y-68738095D01*
X258645295Y-68738095D02*
X258550057Y-68785714D01*
X258550057Y-68785714D02*
X258502438Y-68833333D01*
X258502438Y-68833333D02*
X258454819Y-68928571D01*
X258454819Y-68928571D02*
X258454819Y-69119047D01*
X258454819Y-69119047D02*
X258502438Y-69214285D01*
X258502438Y-69214285D02*
X258550057Y-69261904D01*
X258550057Y-69261904D02*
X258645295Y-69309523D01*
X258645295Y-69309523D02*
X258692914Y-69309523D01*
X258692914Y-69309523D02*
X258788152Y-69261904D01*
X258788152Y-69261904D02*
X258835771Y-69214285D01*
X258835771Y-69214285D02*
X258883390Y-69119047D01*
X258883390Y-69119047D02*
X258883390Y-68928571D01*
X258883390Y-68928571D02*
X258931009Y-68833333D01*
X258931009Y-68833333D02*
X258978628Y-68785714D01*
X258978628Y-68785714D02*
X259073866Y-68738095D01*
X259073866Y-68738095D02*
X259264342Y-68738095D01*
X259264342Y-68738095D02*
X259359580Y-68785714D01*
X259359580Y-68785714D02*
X259407200Y-68833333D01*
X259407200Y-68833333D02*
X259454819Y-68928571D01*
X259454819Y-68928571D02*
X259454819Y-69119047D01*
X259454819Y-69119047D02*
X259407200Y-69214285D01*
X259407200Y-69214285D02*
X259359580Y-69261904D01*
X259359580Y-69261904D02*
X259264342Y-69309523D01*
X259264342Y-69309523D02*
X259073866Y-69309523D01*
X259073866Y-69309523D02*
X258978628Y-69261904D01*
X258978628Y-69261904D02*
X258931009Y-69214285D01*
X258931009Y-69214285D02*
X258883390Y-69119047D01*
X258550057Y-69690476D02*
X258502438Y-69738095D01*
X258502438Y-69738095D02*
X258454819Y-69833333D01*
X258454819Y-69833333D02*
X258454819Y-70071428D01*
X258454819Y-70071428D02*
X258502438Y-70166666D01*
X258502438Y-70166666D02*
X258550057Y-70214285D01*
X258550057Y-70214285D02*
X258645295Y-70261904D01*
X258645295Y-70261904D02*
X258740533Y-70261904D01*
X258740533Y-70261904D02*
X258883390Y-70214285D01*
X258883390Y-70214285D02*
X259454819Y-69642857D01*
X259454819Y-69642857D02*
X259454819Y-70261904D01*
X174359580Y-110607142D02*
X174407200Y-110559523D01*
X174407200Y-110559523D02*
X174454819Y-110416666D01*
X174454819Y-110416666D02*
X174454819Y-110321428D01*
X174454819Y-110321428D02*
X174407200Y-110178571D01*
X174407200Y-110178571D02*
X174311961Y-110083333D01*
X174311961Y-110083333D02*
X174216723Y-110035714D01*
X174216723Y-110035714D02*
X174026247Y-109988095D01*
X174026247Y-109988095D02*
X173883390Y-109988095D01*
X173883390Y-109988095D02*
X173692914Y-110035714D01*
X173692914Y-110035714D02*
X173597676Y-110083333D01*
X173597676Y-110083333D02*
X173502438Y-110178571D01*
X173502438Y-110178571D02*
X173454819Y-110321428D01*
X173454819Y-110321428D02*
X173454819Y-110416666D01*
X173454819Y-110416666D02*
X173502438Y-110559523D01*
X173502438Y-110559523D02*
X173550057Y-110607142D01*
X174454819Y-111083333D02*
X174454819Y-111273809D01*
X174454819Y-111273809D02*
X174407200Y-111369047D01*
X174407200Y-111369047D02*
X174359580Y-111416666D01*
X174359580Y-111416666D02*
X174216723Y-111511904D01*
X174216723Y-111511904D02*
X174026247Y-111559523D01*
X174026247Y-111559523D02*
X173645295Y-111559523D01*
X173645295Y-111559523D02*
X173550057Y-111511904D01*
X173550057Y-111511904D02*
X173502438Y-111464285D01*
X173502438Y-111464285D02*
X173454819Y-111369047D01*
X173454819Y-111369047D02*
X173454819Y-111178571D01*
X173454819Y-111178571D02*
X173502438Y-111083333D01*
X173502438Y-111083333D02*
X173550057Y-111035714D01*
X173550057Y-111035714D02*
X173645295Y-110988095D01*
X173645295Y-110988095D02*
X173883390Y-110988095D01*
X173883390Y-110988095D02*
X173978628Y-111035714D01*
X173978628Y-111035714D02*
X174026247Y-111083333D01*
X174026247Y-111083333D02*
X174073866Y-111178571D01*
X174073866Y-111178571D02*
X174073866Y-111369047D01*
X174073866Y-111369047D02*
X174026247Y-111464285D01*
X174026247Y-111464285D02*
X173978628Y-111511904D01*
X173978628Y-111511904D02*
X173883390Y-111559523D01*
X173454819Y-112464285D02*
X173454819Y-111988095D01*
X173454819Y-111988095D02*
X173931009Y-111940476D01*
X173931009Y-111940476D02*
X173883390Y-111988095D01*
X173883390Y-111988095D02*
X173835771Y-112083333D01*
X173835771Y-112083333D02*
X173835771Y-112321428D01*
X173835771Y-112321428D02*
X173883390Y-112416666D01*
X173883390Y-112416666D02*
X173931009Y-112464285D01*
X173931009Y-112464285D02*
X174026247Y-112511904D01*
X174026247Y-112511904D02*
X174264342Y-112511904D01*
X174264342Y-112511904D02*
X174359580Y-112464285D01*
X174359580Y-112464285D02*
X174407200Y-112416666D01*
X174407200Y-112416666D02*
X174454819Y-112321428D01*
X174454819Y-112321428D02*
X174454819Y-112083333D01*
X174454819Y-112083333D02*
X174407200Y-111988095D01*
X174407200Y-111988095D02*
X174359580Y-111940476D01*
X194179819Y-83899405D02*
X194989342Y-83899405D01*
X194989342Y-83899405D02*
X195084580Y-83947024D01*
X195084580Y-83947024D02*
X195132200Y-83994643D01*
X195132200Y-83994643D02*
X195179819Y-84089881D01*
X195179819Y-84089881D02*
X195179819Y-84280357D01*
X195179819Y-84280357D02*
X195132200Y-84375595D01*
X195132200Y-84375595D02*
X195084580Y-84423214D01*
X195084580Y-84423214D02*
X194989342Y-84470833D01*
X194989342Y-84470833D02*
X194179819Y-84470833D01*
X194179819Y-84851786D02*
X194179819Y-85518452D01*
X194179819Y-85518452D02*
X195179819Y-85089881D01*
X195179819Y-85947024D02*
X195179819Y-86137500D01*
X195179819Y-86137500D02*
X195132200Y-86232738D01*
X195132200Y-86232738D02*
X195084580Y-86280357D01*
X195084580Y-86280357D02*
X194941723Y-86375595D01*
X194941723Y-86375595D02*
X194751247Y-86423214D01*
X194751247Y-86423214D02*
X194370295Y-86423214D01*
X194370295Y-86423214D02*
X194275057Y-86375595D01*
X194275057Y-86375595D02*
X194227438Y-86327976D01*
X194227438Y-86327976D02*
X194179819Y-86232738D01*
X194179819Y-86232738D02*
X194179819Y-86042262D01*
X194179819Y-86042262D02*
X194227438Y-85947024D01*
X194227438Y-85947024D02*
X194275057Y-85899405D01*
X194275057Y-85899405D02*
X194370295Y-85851786D01*
X194370295Y-85851786D02*
X194608390Y-85851786D01*
X194608390Y-85851786D02*
X194703628Y-85899405D01*
X194703628Y-85899405D02*
X194751247Y-85947024D01*
X194751247Y-85947024D02*
X194798866Y-86042262D01*
X194798866Y-86042262D02*
X194798866Y-86232738D01*
X194798866Y-86232738D02*
X194751247Y-86327976D01*
X194751247Y-86327976D02*
X194703628Y-86375595D01*
X194703628Y-86375595D02*
X194608390Y-86423214D01*
X204881605Y-91359580D02*
X204929224Y-91407200D01*
X204929224Y-91407200D02*
X205072081Y-91454819D01*
X205072081Y-91454819D02*
X205167319Y-91454819D01*
X205167319Y-91454819D02*
X205310176Y-91407200D01*
X205310176Y-91407200D02*
X205405414Y-91311961D01*
X205405414Y-91311961D02*
X205453033Y-91216723D01*
X205453033Y-91216723D02*
X205500652Y-91026247D01*
X205500652Y-91026247D02*
X205500652Y-90883390D01*
X205500652Y-90883390D02*
X205453033Y-90692914D01*
X205453033Y-90692914D02*
X205405414Y-90597676D01*
X205405414Y-90597676D02*
X205310176Y-90502438D01*
X205310176Y-90502438D02*
X205167319Y-90454819D01*
X205167319Y-90454819D02*
X205072081Y-90454819D01*
X205072081Y-90454819D02*
X204929224Y-90502438D01*
X204929224Y-90502438D02*
X204881605Y-90550057D01*
X204024462Y-90454819D02*
X204214938Y-90454819D01*
X204214938Y-90454819D02*
X204310176Y-90502438D01*
X204310176Y-90502438D02*
X204357795Y-90550057D01*
X204357795Y-90550057D02*
X204453033Y-90692914D01*
X204453033Y-90692914D02*
X204500652Y-90883390D01*
X204500652Y-90883390D02*
X204500652Y-91264342D01*
X204500652Y-91264342D02*
X204453033Y-91359580D01*
X204453033Y-91359580D02*
X204405414Y-91407200D01*
X204405414Y-91407200D02*
X204310176Y-91454819D01*
X204310176Y-91454819D02*
X204119700Y-91454819D01*
X204119700Y-91454819D02*
X204024462Y-91407200D01*
X204024462Y-91407200D02*
X203976843Y-91359580D01*
X203976843Y-91359580D02*
X203929224Y-91264342D01*
X203929224Y-91264342D02*
X203929224Y-91026247D01*
X203929224Y-91026247D02*
X203976843Y-90931009D01*
X203976843Y-90931009D02*
X204024462Y-90883390D01*
X204024462Y-90883390D02*
X204119700Y-90835771D01*
X204119700Y-90835771D02*
X204310176Y-90835771D01*
X204310176Y-90835771D02*
X204405414Y-90883390D01*
X204405414Y-90883390D02*
X204453033Y-90931009D01*
X204453033Y-90931009D02*
X204500652Y-91026247D01*
X203453033Y-91454819D02*
X203262557Y-91454819D01*
X203262557Y-91454819D02*
X203167319Y-91407200D01*
X203167319Y-91407200D02*
X203119700Y-91359580D01*
X203119700Y-91359580D02*
X203024462Y-91216723D01*
X203024462Y-91216723D02*
X202976843Y-91026247D01*
X202976843Y-91026247D02*
X202976843Y-90645295D01*
X202976843Y-90645295D02*
X203024462Y-90550057D01*
X203024462Y-90550057D02*
X203072081Y-90502438D01*
X203072081Y-90502438D02*
X203167319Y-90454819D01*
X203167319Y-90454819D02*
X203357795Y-90454819D01*
X203357795Y-90454819D02*
X203453033Y-90502438D01*
X203453033Y-90502438D02*
X203500652Y-90550057D01*
X203500652Y-90550057D02*
X203548271Y-90645295D01*
X203548271Y-90645295D02*
X203548271Y-90883390D01*
X203548271Y-90883390D02*
X203500652Y-90978628D01*
X203500652Y-90978628D02*
X203453033Y-91026247D01*
X203453033Y-91026247D02*
X203357795Y-91073866D01*
X203357795Y-91073866D02*
X203167319Y-91073866D01*
X203167319Y-91073866D02*
X203072081Y-91026247D01*
X203072081Y-91026247D02*
X203024462Y-90978628D01*
X203024462Y-90978628D02*
X202976843Y-90883390D01*
X157179819Y-83899405D02*
X157989342Y-83899405D01*
X157989342Y-83899405D02*
X158084580Y-83947024D01*
X158084580Y-83947024D02*
X158132200Y-83994643D01*
X158132200Y-83994643D02*
X158179819Y-84089881D01*
X158179819Y-84089881D02*
X158179819Y-84280357D01*
X158179819Y-84280357D02*
X158132200Y-84375595D01*
X158132200Y-84375595D02*
X158084580Y-84423214D01*
X158084580Y-84423214D02*
X157989342Y-84470833D01*
X157989342Y-84470833D02*
X157179819Y-84470833D01*
X157179819Y-84851786D02*
X157179819Y-85518452D01*
X157179819Y-85518452D02*
X158179819Y-85089881D01*
X157179819Y-85804167D02*
X157179819Y-86470833D01*
X157179819Y-86470833D02*
X158179819Y-86042262D01*
X247929580Y-88357142D02*
X247977200Y-88309523D01*
X247977200Y-88309523D02*
X248024819Y-88166666D01*
X248024819Y-88166666D02*
X248024819Y-88071428D01*
X248024819Y-88071428D02*
X247977200Y-87928571D01*
X247977200Y-87928571D02*
X247881961Y-87833333D01*
X247881961Y-87833333D02*
X247786723Y-87785714D01*
X247786723Y-87785714D02*
X247596247Y-87738095D01*
X247596247Y-87738095D02*
X247453390Y-87738095D01*
X247453390Y-87738095D02*
X247262914Y-87785714D01*
X247262914Y-87785714D02*
X247167676Y-87833333D01*
X247167676Y-87833333D02*
X247072438Y-87928571D01*
X247072438Y-87928571D02*
X247024819Y-88071428D01*
X247024819Y-88071428D02*
X247024819Y-88166666D01*
X247024819Y-88166666D02*
X247072438Y-88309523D01*
X247072438Y-88309523D02*
X247120057Y-88357142D01*
X247024819Y-88690476D02*
X247024819Y-89357142D01*
X247024819Y-89357142D02*
X248024819Y-88928571D01*
X247024819Y-89642857D02*
X247024819Y-90309523D01*
X247024819Y-90309523D02*
X248024819Y-89880952D01*
X238179819Y-83899405D02*
X238989342Y-83899405D01*
X238989342Y-83899405D02*
X239084580Y-83947024D01*
X239084580Y-83947024D02*
X239132200Y-83994643D01*
X239132200Y-83994643D02*
X239179819Y-84089881D01*
X239179819Y-84089881D02*
X239179819Y-84280357D01*
X239179819Y-84280357D02*
X239132200Y-84375595D01*
X239132200Y-84375595D02*
X239084580Y-84423214D01*
X239084580Y-84423214D02*
X238989342Y-84470833D01*
X238989342Y-84470833D02*
X238179819Y-84470833D01*
X238608390Y-85089881D02*
X238560771Y-84994643D01*
X238560771Y-84994643D02*
X238513152Y-84947024D01*
X238513152Y-84947024D02*
X238417914Y-84899405D01*
X238417914Y-84899405D02*
X238370295Y-84899405D01*
X238370295Y-84899405D02*
X238275057Y-84947024D01*
X238275057Y-84947024D02*
X238227438Y-84994643D01*
X238227438Y-84994643D02*
X238179819Y-85089881D01*
X238179819Y-85089881D02*
X238179819Y-85280357D01*
X238179819Y-85280357D02*
X238227438Y-85375595D01*
X238227438Y-85375595D02*
X238275057Y-85423214D01*
X238275057Y-85423214D02*
X238370295Y-85470833D01*
X238370295Y-85470833D02*
X238417914Y-85470833D01*
X238417914Y-85470833D02*
X238513152Y-85423214D01*
X238513152Y-85423214D02*
X238560771Y-85375595D01*
X238560771Y-85375595D02*
X238608390Y-85280357D01*
X238608390Y-85280357D02*
X238608390Y-85089881D01*
X238608390Y-85089881D02*
X238656009Y-84994643D01*
X238656009Y-84994643D02*
X238703628Y-84947024D01*
X238703628Y-84947024D02*
X238798866Y-84899405D01*
X238798866Y-84899405D02*
X238989342Y-84899405D01*
X238989342Y-84899405D02*
X239084580Y-84947024D01*
X239084580Y-84947024D02*
X239132200Y-84994643D01*
X239132200Y-84994643D02*
X239179819Y-85089881D01*
X239179819Y-85089881D02*
X239179819Y-85280357D01*
X239179819Y-85280357D02*
X239132200Y-85375595D01*
X239132200Y-85375595D02*
X239084580Y-85423214D01*
X239084580Y-85423214D02*
X238989342Y-85470833D01*
X238989342Y-85470833D02*
X238798866Y-85470833D01*
X238798866Y-85470833D02*
X238703628Y-85423214D01*
X238703628Y-85423214D02*
X238656009Y-85375595D01*
X238656009Y-85375595D02*
X238608390Y-85280357D01*
X238179819Y-85804167D02*
X238179819Y-86423214D01*
X238179819Y-86423214D02*
X238560771Y-86089881D01*
X238560771Y-86089881D02*
X238560771Y-86232738D01*
X238560771Y-86232738D02*
X238608390Y-86327976D01*
X238608390Y-86327976D02*
X238656009Y-86375595D01*
X238656009Y-86375595D02*
X238751247Y-86423214D01*
X238751247Y-86423214D02*
X238989342Y-86423214D01*
X238989342Y-86423214D02*
X239084580Y-86375595D01*
X239084580Y-86375595D02*
X239132200Y-86327976D01*
X239132200Y-86327976D02*
X239179819Y-86232738D01*
X239179819Y-86232738D02*
X239179819Y-85947024D01*
X239179819Y-85947024D02*
X239132200Y-85851786D01*
X239132200Y-85851786D02*
X239084580Y-85804167D01*
X102179819Y-71375595D02*
X102989342Y-71375595D01*
X102989342Y-71375595D02*
X103084580Y-71423214D01*
X103084580Y-71423214D02*
X103132200Y-71470833D01*
X103132200Y-71470833D02*
X103179819Y-71566071D01*
X103179819Y-71566071D02*
X103179819Y-71756547D01*
X103179819Y-71756547D02*
X103132200Y-71851785D01*
X103132200Y-71851785D02*
X103084580Y-71899404D01*
X103084580Y-71899404D02*
X102989342Y-71947023D01*
X102989342Y-71947023D02*
X102179819Y-71947023D01*
X103179819Y-72470833D02*
X103179819Y-72661309D01*
X103179819Y-72661309D02*
X103132200Y-72756547D01*
X103132200Y-72756547D02*
X103084580Y-72804166D01*
X103084580Y-72804166D02*
X102941723Y-72899404D01*
X102941723Y-72899404D02*
X102751247Y-72947023D01*
X102751247Y-72947023D02*
X102370295Y-72947023D01*
X102370295Y-72947023D02*
X102275057Y-72899404D01*
X102275057Y-72899404D02*
X102227438Y-72851785D01*
X102227438Y-72851785D02*
X102179819Y-72756547D01*
X102179819Y-72756547D02*
X102179819Y-72566071D01*
X102179819Y-72566071D02*
X102227438Y-72470833D01*
X102227438Y-72470833D02*
X102275057Y-72423214D01*
X102275057Y-72423214D02*
X102370295Y-72375595D01*
X102370295Y-72375595D02*
X102608390Y-72375595D01*
X102608390Y-72375595D02*
X102703628Y-72423214D01*
X102703628Y-72423214D02*
X102751247Y-72470833D01*
X102751247Y-72470833D02*
X102798866Y-72566071D01*
X102798866Y-72566071D02*
X102798866Y-72756547D01*
X102798866Y-72756547D02*
X102751247Y-72851785D01*
X102751247Y-72851785D02*
X102703628Y-72899404D01*
X102703628Y-72899404D02*
X102608390Y-72947023D01*
X249179819Y-106624405D02*
X249989342Y-106624405D01*
X249989342Y-106624405D02*
X250084580Y-106672024D01*
X250084580Y-106672024D02*
X250132200Y-106719643D01*
X250132200Y-106719643D02*
X250179819Y-106814881D01*
X250179819Y-106814881D02*
X250179819Y-107005357D01*
X250179819Y-107005357D02*
X250132200Y-107100595D01*
X250132200Y-107100595D02*
X250084580Y-107148214D01*
X250084580Y-107148214D02*
X249989342Y-107195833D01*
X249989342Y-107195833D02*
X249179819Y-107195833D01*
X249179819Y-108100595D02*
X249179819Y-107910119D01*
X249179819Y-107910119D02*
X249227438Y-107814881D01*
X249227438Y-107814881D02*
X249275057Y-107767262D01*
X249275057Y-107767262D02*
X249417914Y-107672024D01*
X249417914Y-107672024D02*
X249608390Y-107624405D01*
X249608390Y-107624405D02*
X249989342Y-107624405D01*
X249989342Y-107624405D02*
X250084580Y-107672024D01*
X250084580Y-107672024D02*
X250132200Y-107719643D01*
X250132200Y-107719643D02*
X250179819Y-107814881D01*
X250179819Y-107814881D02*
X250179819Y-108005357D01*
X250179819Y-108005357D02*
X250132200Y-108100595D01*
X250132200Y-108100595D02*
X250084580Y-108148214D01*
X250084580Y-108148214D02*
X249989342Y-108195833D01*
X249989342Y-108195833D02*
X249751247Y-108195833D01*
X249751247Y-108195833D02*
X249656009Y-108148214D01*
X249656009Y-108148214D02*
X249608390Y-108100595D01*
X249608390Y-108100595D02*
X249560771Y-108005357D01*
X249560771Y-108005357D02*
X249560771Y-107814881D01*
X249560771Y-107814881D02*
X249608390Y-107719643D01*
X249608390Y-107719643D02*
X249656009Y-107672024D01*
X249656009Y-107672024D02*
X249751247Y-107624405D01*
X249179819Y-108529167D02*
X249179819Y-109148214D01*
X249179819Y-109148214D02*
X249560771Y-108814881D01*
X249560771Y-108814881D02*
X249560771Y-108957738D01*
X249560771Y-108957738D02*
X249608390Y-109052976D01*
X249608390Y-109052976D02*
X249656009Y-109100595D01*
X249656009Y-109100595D02*
X249751247Y-109148214D01*
X249751247Y-109148214D02*
X249989342Y-109148214D01*
X249989342Y-109148214D02*
X250084580Y-109100595D01*
X250084580Y-109100595D02*
X250132200Y-109052976D01*
X250132200Y-109052976D02*
X250179819Y-108957738D01*
X250179819Y-108957738D02*
X250179819Y-108672024D01*
X250179819Y-108672024D02*
X250132200Y-108576786D01*
X250132200Y-108576786D02*
X250084580Y-108529167D01*
X157179819Y-70899405D02*
X157989342Y-70899405D01*
X157989342Y-70899405D02*
X158084580Y-70947024D01*
X158084580Y-70947024D02*
X158132200Y-70994643D01*
X158132200Y-70994643D02*
X158179819Y-71089881D01*
X158179819Y-71089881D02*
X158179819Y-71280357D01*
X158179819Y-71280357D02*
X158132200Y-71375595D01*
X158132200Y-71375595D02*
X158084580Y-71423214D01*
X158084580Y-71423214D02*
X157989342Y-71470833D01*
X157989342Y-71470833D02*
X157179819Y-71470833D01*
X158179819Y-72470833D02*
X158179819Y-71899405D01*
X158179819Y-72185119D02*
X157179819Y-72185119D01*
X157179819Y-72185119D02*
X157322676Y-72089881D01*
X157322676Y-72089881D02*
X157417914Y-71994643D01*
X157417914Y-71994643D02*
X157465533Y-71899405D01*
X157513152Y-73327976D02*
X158179819Y-73327976D01*
X157132200Y-73089881D02*
X157846485Y-72851786D01*
X157846485Y-72851786D02*
X157846485Y-73470833D01*
X53359580Y-97207142D02*
X53407200Y-97159523D01*
X53407200Y-97159523D02*
X53454819Y-97016666D01*
X53454819Y-97016666D02*
X53454819Y-96921428D01*
X53454819Y-96921428D02*
X53407200Y-96778571D01*
X53407200Y-96778571D02*
X53311961Y-96683333D01*
X53311961Y-96683333D02*
X53216723Y-96635714D01*
X53216723Y-96635714D02*
X53026247Y-96588095D01*
X53026247Y-96588095D02*
X52883390Y-96588095D01*
X52883390Y-96588095D02*
X52692914Y-96635714D01*
X52692914Y-96635714D02*
X52597676Y-96683333D01*
X52597676Y-96683333D02*
X52502438Y-96778571D01*
X52502438Y-96778571D02*
X52454819Y-96921428D01*
X52454819Y-96921428D02*
X52454819Y-97016666D01*
X52454819Y-97016666D02*
X52502438Y-97159523D01*
X52502438Y-97159523D02*
X52550057Y-97207142D01*
X53454819Y-98159523D02*
X53454819Y-97588095D01*
X53454819Y-97873809D02*
X52454819Y-97873809D01*
X52454819Y-97873809D02*
X52597676Y-97778571D01*
X52597676Y-97778571D02*
X52692914Y-97683333D01*
X52692914Y-97683333D02*
X52740533Y-97588095D01*
X52883390Y-98730952D02*
X52835771Y-98635714D01*
X52835771Y-98635714D02*
X52788152Y-98588095D01*
X52788152Y-98588095D02*
X52692914Y-98540476D01*
X52692914Y-98540476D02*
X52645295Y-98540476D01*
X52645295Y-98540476D02*
X52550057Y-98588095D01*
X52550057Y-98588095D02*
X52502438Y-98635714D01*
X52502438Y-98635714D02*
X52454819Y-98730952D01*
X52454819Y-98730952D02*
X52454819Y-98921428D01*
X52454819Y-98921428D02*
X52502438Y-99016666D01*
X52502438Y-99016666D02*
X52550057Y-99064285D01*
X52550057Y-99064285D02*
X52645295Y-99111904D01*
X52645295Y-99111904D02*
X52692914Y-99111904D01*
X52692914Y-99111904D02*
X52788152Y-99064285D01*
X52788152Y-99064285D02*
X52835771Y-99016666D01*
X52835771Y-99016666D02*
X52883390Y-98921428D01*
X52883390Y-98921428D02*
X52883390Y-98730952D01*
X52883390Y-98730952D02*
X52931009Y-98635714D01*
X52931009Y-98635714D02*
X52978628Y-98588095D01*
X52978628Y-98588095D02*
X53073866Y-98540476D01*
X53073866Y-98540476D02*
X53264342Y-98540476D01*
X53264342Y-98540476D02*
X53359580Y-98588095D01*
X53359580Y-98588095D02*
X53407200Y-98635714D01*
X53407200Y-98635714D02*
X53454819Y-98730952D01*
X53454819Y-98730952D02*
X53454819Y-98921428D01*
X53454819Y-98921428D02*
X53407200Y-99016666D01*
X53407200Y-99016666D02*
X53359580Y-99064285D01*
X53359580Y-99064285D02*
X53264342Y-99111904D01*
X53264342Y-99111904D02*
X53073866Y-99111904D01*
X53073866Y-99111904D02*
X52978628Y-99064285D01*
X52978628Y-99064285D02*
X52931009Y-99016666D01*
X52931009Y-99016666D02*
X52883390Y-98921428D01*
X162179819Y-106624405D02*
X162989342Y-106624405D01*
X162989342Y-106624405D02*
X163084580Y-106672024D01*
X163084580Y-106672024D02*
X163132200Y-106719643D01*
X163132200Y-106719643D02*
X163179819Y-106814881D01*
X163179819Y-106814881D02*
X163179819Y-107005357D01*
X163179819Y-107005357D02*
X163132200Y-107100595D01*
X163132200Y-107100595D02*
X163084580Y-107148214D01*
X163084580Y-107148214D02*
X162989342Y-107195833D01*
X162989342Y-107195833D02*
X162179819Y-107195833D01*
X162179819Y-108100595D02*
X162179819Y-107910119D01*
X162179819Y-107910119D02*
X162227438Y-107814881D01*
X162227438Y-107814881D02*
X162275057Y-107767262D01*
X162275057Y-107767262D02*
X162417914Y-107672024D01*
X162417914Y-107672024D02*
X162608390Y-107624405D01*
X162608390Y-107624405D02*
X162989342Y-107624405D01*
X162989342Y-107624405D02*
X163084580Y-107672024D01*
X163084580Y-107672024D02*
X163132200Y-107719643D01*
X163132200Y-107719643D02*
X163179819Y-107814881D01*
X163179819Y-107814881D02*
X163179819Y-108005357D01*
X163179819Y-108005357D02*
X163132200Y-108100595D01*
X163132200Y-108100595D02*
X163084580Y-108148214D01*
X163084580Y-108148214D02*
X162989342Y-108195833D01*
X162989342Y-108195833D02*
X162751247Y-108195833D01*
X162751247Y-108195833D02*
X162656009Y-108148214D01*
X162656009Y-108148214D02*
X162608390Y-108100595D01*
X162608390Y-108100595D02*
X162560771Y-108005357D01*
X162560771Y-108005357D02*
X162560771Y-107814881D01*
X162560771Y-107814881D02*
X162608390Y-107719643D01*
X162608390Y-107719643D02*
X162656009Y-107672024D01*
X162656009Y-107672024D02*
X162751247Y-107624405D01*
X162608390Y-108767262D02*
X162560771Y-108672024D01*
X162560771Y-108672024D02*
X162513152Y-108624405D01*
X162513152Y-108624405D02*
X162417914Y-108576786D01*
X162417914Y-108576786D02*
X162370295Y-108576786D01*
X162370295Y-108576786D02*
X162275057Y-108624405D01*
X162275057Y-108624405D02*
X162227438Y-108672024D01*
X162227438Y-108672024D02*
X162179819Y-108767262D01*
X162179819Y-108767262D02*
X162179819Y-108957738D01*
X162179819Y-108957738D02*
X162227438Y-109052976D01*
X162227438Y-109052976D02*
X162275057Y-109100595D01*
X162275057Y-109100595D02*
X162370295Y-109148214D01*
X162370295Y-109148214D02*
X162417914Y-109148214D01*
X162417914Y-109148214D02*
X162513152Y-109100595D01*
X162513152Y-109100595D02*
X162560771Y-109052976D01*
X162560771Y-109052976D02*
X162608390Y-108957738D01*
X162608390Y-108957738D02*
X162608390Y-108767262D01*
X162608390Y-108767262D02*
X162656009Y-108672024D01*
X162656009Y-108672024D02*
X162703628Y-108624405D01*
X162703628Y-108624405D02*
X162798866Y-108576786D01*
X162798866Y-108576786D02*
X162989342Y-108576786D01*
X162989342Y-108576786D02*
X163084580Y-108624405D01*
X163084580Y-108624405D02*
X163132200Y-108672024D01*
X163132200Y-108672024D02*
X163179819Y-108767262D01*
X163179819Y-108767262D02*
X163179819Y-108957738D01*
X163179819Y-108957738D02*
X163132200Y-109052976D01*
X163132200Y-109052976D02*
X163084580Y-109100595D01*
X163084580Y-109100595D02*
X162989342Y-109148214D01*
X162989342Y-109148214D02*
X162798866Y-109148214D01*
X162798866Y-109148214D02*
X162703628Y-109100595D01*
X162703628Y-109100595D02*
X162656009Y-109052976D01*
X162656009Y-109052976D02*
X162608390Y-108957738D01*
D11*
%TO.C,U32*%
X59765000Y-82750000D02*
X59765000Y-80550000D01*
X59765000Y-82750000D02*
X59765000Y-84950000D01*
X65235000Y-82750000D02*
X65235000Y-80550000D01*
X65235000Y-82750000D02*
X65235000Y-84950000D01*
X65015000Y-86940000D02*
X64535000Y-86940000D01*
X64775000Y-86610000D01*
X65015000Y-86940000D01*
G36*
X65015000Y-86940000D02*
G01*
X64535000Y-86940000D01*
X64775000Y-86610000D01*
X65015000Y-86940000D01*
G37*
%TO.C,U67*%
X152540000Y-107862500D02*
X152540000Y-105662500D01*
X152540000Y-107862500D02*
X152540000Y-110062500D01*
X159310000Y-107862500D02*
X159310000Y-105662500D01*
X159310000Y-107862500D02*
X159310000Y-110062500D01*
X153000000Y-104002500D02*
X152760000Y-103672500D01*
X153240000Y-103672500D01*
X153000000Y-104002500D01*
G36*
X153000000Y-104002500D02*
G01*
X152760000Y-103672500D01*
X153240000Y-103672500D01*
X153000000Y-104002500D01*
G37*
%TO.C,U33*%
X57015000Y-96750000D02*
X57015000Y-94550000D01*
X57015000Y-96750000D02*
X57015000Y-98950000D01*
X62485000Y-96750000D02*
X62485000Y-94550000D01*
X62485000Y-96750000D02*
X62485000Y-98950000D01*
X57475000Y-92890000D02*
X57235000Y-92560000D01*
X57715000Y-92560000D01*
X57475000Y-92890000D01*
G36*
X57475000Y-92890000D02*
G01*
X57235000Y-92560000D01*
X57715000Y-92560000D01*
X57475000Y-92890000D01*
G37*
%TO.C,C26*%
X122765000Y-81011252D02*
X122765000Y-80488748D01*
X124235000Y-81011252D02*
X124235000Y-80488748D01*
%TO.C,C4*%
X248765000Y-112988748D02*
X248765000Y-113511252D01*
X250235000Y-112988748D02*
X250235000Y-113511252D01*
%TO.C,C63*%
X193015000Y-88738748D02*
X193015000Y-89261252D01*
X194485000Y-88738748D02*
X194485000Y-89261252D01*
%TO.C,U19*%
X228540000Y-72137500D02*
X228540000Y-69937500D01*
X228540000Y-72137500D02*
X228540000Y-74337500D01*
X235310000Y-72137500D02*
X235310000Y-69937500D01*
X235310000Y-72137500D02*
X235310000Y-74337500D01*
X229000000Y-68277500D02*
X228760000Y-67947500D01*
X229240000Y-67947500D01*
X229000000Y-68277500D01*
G36*
X229000000Y-68277500D02*
G01*
X228760000Y-67947500D01*
X229240000Y-67947500D01*
X229000000Y-68277500D01*
G37*
%TO.C,U40*%
X121140000Y-112000000D02*
X121140000Y-109800000D01*
X121140000Y-112000000D02*
X121140000Y-114200000D01*
X126360000Y-112000000D02*
X126360000Y-109800000D01*
X126360000Y-112000000D02*
X126360000Y-114200000D01*
X126490000Y-115140000D02*
X126160000Y-114900000D01*
X126490000Y-114660000D01*
X126490000Y-115140000D01*
G36*
X126490000Y-115140000D02*
G01*
X126160000Y-114900000D01*
X126490000Y-114660000D01*
X126490000Y-115140000D01*
G37*
%TO.C,U18*%
X217540000Y-72137500D02*
X217540000Y-69937500D01*
X217540000Y-72137500D02*
X217540000Y-74337500D01*
X224310000Y-72137500D02*
X224310000Y-69937500D01*
X224310000Y-72137500D02*
X224310000Y-74337500D01*
X218000000Y-68277500D02*
X217760000Y-67947500D01*
X218240000Y-67947500D01*
X218000000Y-68277500D01*
G36*
X218000000Y-68277500D02*
G01*
X217760000Y-67947500D01*
X218240000Y-67947500D01*
X218000000Y-68277500D01*
G37*
%TO.C,C20*%
X145015000Y-81011252D02*
X145015000Y-80488748D01*
X146485000Y-81011252D02*
X146485000Y-80488748D01*
%TO.C,U70*%
X81540000Y-85137500D02*
X81540000Y-82937500D01*
X81540000Y-85137500D02*
X81540000Y-87337500D01*
X88310000Y-85137500D02*
X88310000Y-82937500D01*
X88310000Y-85137500D02*
X88310000Y-87337500D01*
X82000000Y-81277500D02*
X81760000Y-80947500D01*
X82240000Y-80947500D01*
X82000000Y-81277500D01*
G36*
X82000000Y-81277500D02*
G01*
X81760000Y-80947500D01*
X82240000Y-80947500D01*
X82000000Y-81277500D01*
G37*
%TO.C,U10*%
X114540000Y-72137500D02*
X114540000Y-69937500D01*
X114540000Y-72137500D02*
X114540000Y-74337500D01*
X121310000Y-72137500D02*
X121310000Y-69937500D01*
X121310000Y-72137500D02*
X121310000Y-74337500D01*
X115000000Y-68277500D02*
X114760000Y-67947500D01*
X115240000Y-67947500D01*
X115000000Y-68277500D01*
G36*
X115000000Y-68277500D02*
G01*
X114760000Y-67947500D01*
X115240000Y-67947500D01*
X115000000Y-68277500D01*
G37*
%TO.C,U60*%
X217540000Y-107862500D02*
X217540000Y-105662500D01*
X217540000Y-107862500D02*
X217540000Y-110062500D01*
X224310000Y-107862500D02*
X224310000Y-105662500D01*
X224310000Y-107862500D02*
X224310000Y-110062500D01*
X218000000Y-104002500D02*
X217760000Y-103672500D01*
X218240000Y-103672500D01*
X218000000Y-104002500D01*
G36*
X218000000Y-104002500D02*
G01*
X217760000Y-103672500D01*
X218240000Y-103672500D01*
X218000000Y-104002500D01*
G37*
%TO.C,C81*%
X247515000Y-80738748D02*
X247515000Y-81261252D01*
X248985000Y-80738748D02*
X248985000Y-81261252D01*
%TO.C,U13*%
X147540000Y-72137500D02*
X147540000Y-69937500D01*
X147540000Y-72137500D02*
X147540000Y-74337500D01*
X154310000Y-72137500D02*
X154310000Y-69937500D01*
X154310000Y-72137500D02*
X154310000Y-74337500D01*
X148000000Y-68277500D02*
X147760000Y-67947500D01*
X148240000Y-67947500D01*
X148000000Y-68277500D01*
G36*
X148000000Y-68277500D02*
G01*
X147760000Y-67947500D01*
X148240000Y-67947500D01*
X148000000Y-68277500D01*
G37*
%TO.C,U62*%
X239540000Y-107862500D02*
X239540000Y-105662500D01*
X239540000Y-107862500D02*
X239540000Y-110062500D01*
X246310000Y-107862500D02*
X246310000Y-105662500D01*
X246310000Y-107862500D02*
X246310000Y-110062500D01*
X240000000Y-104002500D02*
X239760000Y-103672500D01*
X240240000Y-103672500D01*
X240000000Y-104002500D01*
G36*
X240000000Y-104002500D02*
G01*
X239760000Y-103672500D01*
X240240000Y-103672500D01*
X240000000Y-104002500D01*
G37*
%TO.C,U59*%
X206540000Y-107862500D02*
X206540000Y-105662500D01*
X206540000Y-107862500D02*
X206540000Y-110062500D01*
X213310000Y-107862500D02*
X213310000Y-105662500D01*
X213310000Y-107862500D02*
X213310000Y-110062500D01*
X207000000Y-104002500D02*
X206760000Y-103672500D01*
X207240000Y-103672500D01*
X207000000Y-104002500D01*
G36*
X207000000Y-104002500D02*
G01*
X206760000Y-103672500D01*
X207240000Y-103672500D01*
X207000000Y-104002500D01*
G37*
%TO.C,C76*%
X226265000Y-89488748D02*
X226265000Y-90011252D01*
X227735000Y-89488748D02*
X227735000Y-90011252D01*
%TO.C,U57*%
X184540000Y-107862500D02*
X184540000Y-105662500D01*
X184540000Y-107862500D02*
X184540000Y-110062500D01*
X191310000Y-107862500D02*
X191310000Y-105662500D01*
X191310000Y-107862500D02*
X191310000Y-110062500D01*
X185000000Y-104002500D02*
X184760000Y-103672500D01*
X185240000Y-103672500D01*
X185000000Y-104002500D01*
G36*
X185000000Y-104002500D02*
G01*
X184760000Y-103672500D01*
X185240000Y-103672500D01*
X185000000Y-104002500D01*
G37*
%TO.C,C41*%
X242663748Y-115765000D02*
X243186252Y-115765000D01*
X242663748Y-117235000D02*
X243186252Y-117235000D01*
%TO.C,U36*%
X108390000Y-112000000D02*
X108390000Y-109800000D01*
X108390000Y-112000000D02*
X108390000Y-114200000D01*
X113610000Y-112000000D02*
X113610000Y-109800000D01*
X113610000Y-112000000D02*
X113610000Y-114200000D01*
X113740000Y-115140000D02*
X113410000Y-114900000D01*
X113740000Y-114660000D01*
X113740000Y-115140000D01*
G36*
X113740000Y-115140000D02*
G01*
X113410000Y-114900000D01*
X113740000Y-114660000D01*
X113740000Y-115140000D01*
G37*
%TO.C,U8*%
X92540000Y-72137500D02*
X92540000Y-69937500D01*
X92540000Y-72137500D02*
X92540000Y-74337500D01*
X99310000Y-72137500D02*
X99310000Y-69937500D01*
X99310000Y-72137500D02*
X99310000Y-74337500D01*
X93000000Y-68277500D02*
X92760000Y-67947500D01*
X93240000Y-67947500D01*
X93000000Y-68277500D01*
G36*
X93000000Y-68277500D02*
G01*
X92760000Y-67947500D01*
X93240000Y-67947500D01*
X93000000Y-68277500D01*
G37*
%TO.C,U7*%
X81540000Y-72137500D02*
X81540000Y-69937500D01*
X81540000Y-72137500D02*
X81540000Y-74337500D01*
X88310000Y-72137500D02*
X88310000Y-69937500D01*
X88310000Y-72137500D02*
X88310000Y-74337500D01*
X82000000Y-68277500D02*
X81760000Y-67947500D01*
X82240000Y-67947500D01*
X82000000Y-68277500D01*
G36*
X82000000Y-68277500D02*
G01*
X81760000Y-67947500D01*
X82240000Y-67947500D01*
X82000000Y-68277500D01*
G37*
%TO.C,U84*%
X250540000Y-85137500D02*
X250540000Y-82937500D01*
X250540000Y-85137500D02*
X250540000Y-87337500D01*
X257310000Y-85137500D02*
X257310000Y-82937500D01*
X257310000Y-85137500D02*
X257310000Y-87337500D01*
X251000000Y-81277500D02*
X250760000Y-80947500D01*
X251240000Y-80947500D01*
X251000000Y-81277500D01*
G36*
X251000000Y-81277500D02*
G01*
X250760000Y-80947500D01*
X251240000Y-80947500D01*
X251000000Y-81277500D01*
G37*
%TO.C,U64*%
X261540000Y-107862500D02*
X261540000Y-105662500D01*
X261540000Y-107862500D02*
X261540000Y-110062500D01*
X268310000Y-107862500D02*
X268310000Y-105662500D01*
X268310000Y-107862500D02*
X268310000Y-110062500D01*
X262000000Y-104002500D02*
X261760000Y-103672500D01*
X262240000Y-103672500D01*
X262000000Y-104002500D01*
G36*
X262000000Y-104002500D02*
G01*
X261760000Y-103672500D01*
X262240000Y-103672500D01*
X262000000Y-104002500D01*
G37*
%TO.C,C5*%
X260738748Y-112265000D02*
X261261252Y-112265000D01*
X260738748Y-113735000D02*
X261261252Y-113735000D01*
%TO.C,C10*%
X214515000Y-113488748D02*
X214515000Y-114011252D01*
X215985000Y-113488748D02*
X215985000Y-114011252D01*
%TO.C,C78*%
X258515000Y-83488748D02*
X258515000Y-84011252D01*
X259985000Y-83488748D02*
X259985000Y-84011252D01*
%TO.C,U37*%
X174000000Y-80340000D02*
X171800000Y-80340000D01*
X174000000Y-80340000D02*
X176200000Y-80340000D01*
X174000000Y-85560000D02*
X171800000Y-85560000D01*
X174000000Y-85560000D02*
X176200000Y-85560000D01*
X176900000Y-80540000D02*
X176660000Y-80210000D01*
X177140000Y-80210000D01*
X176900000Y-80540000D01*
G36*
X176900000Y-80540000D02*
G01*
X176660000Y-80210000D01*
X177140000Y-80210000D01*
X176900000Y-80540000D01*
G37*
%TO.C,C21*%
X65015000Y-76223752D02*
X65015000Y-75701248D01*
X66485000Y-76223752D02*
X66485000Y-75701248D01*
%TO.C,U61*%
X228540000Y-107862500D02*
X228540000Y-105662500D01*
X228540000Y-107862500D02*
X228540000Y-110062500D01*
X235310000Y-107862500D02*
X235310000Y-105662500D01*
X235310000Y-107862500D02*
X235310000Y-110062500D01*
X229000000Y-104002500D02*
X228760000Y-103672500D01*
X229240000Y-103672500D01*
X229000000Y-104002500D01*
G36*
X229000000Y-104002500D02*
G01*
X228760000Y-103672500D01*
X229240000Y-103672500D01*
X229000000Y-104002500D01*
G37*
%TO.C,C3*%
X236515000Y-112988748D02*
X236515000Y-113511252D01*
X237985000Y-112988748D02*
X237985000Y-113511252D01*
%TO.C,U58*%
X195540000Y-107862500D02*
X195540000Y-105662500D01*
X195540000Y-107862500D02*
X195540000Y-110062500D01*
X202310000Y-107862500D02*
X202310000Y-105662500D01*
X202310000Y-107862500D02*
X202310000Y-110062500D01*
X196000000Y-104002500D02*
X195760000Y-103672500D01*
X196240000Y-103672500D01*
X196000000Y-104002500D01*
G36*
X196000000Y-104002500D02*
G01*
X195760000Y-103672500D01*
X196240000Y-103672500D01*
X196000000Y-104002500D01*
G37*
%TO.C,C35*%
X111765000Y-81011252D02*
X111765000Y-80488748D01*
X113235000Y-81011252D02*
X113235000Y-80488748D01*
%TO.C,C57*%
X183261252Y-99515000D02*
X182738748Y-99515000D01*
X183261252Y-100985000D02*
X182738748Y-100985000D01*
%TO.C,C66*%
X183015000Y-91238748D02*
X183015000Y-91761252D01*
X184485000Y-91238748D02*
X184485000Y-91761252D01*
%TO.C,U65*%
X130540000Y-107862500D02*
X130540000Y-105662500D01*
X130540000Y-107862500D02*
X130540000Y-110062500D01*
X137310000Y-107862500D02*
X137310000Y-105662500D01*
X137310000Y-107862500D02*
X137310000Y-110062500D01*
X131000000Y-104002500D02*
X130760000Y-103672500D01*
X131240000Y-103672500D01*
X131000000Y-104002500D01*
G36*
X131000000Y-104002500D02*
G01*
X130760000Y-103672500D01*
X131240000Y-103672500D01*
X131000000Y-104002500D01*
G37*
%TO.C,U21*%
X250540000Y-72137500D02*
X250540000Y-69937500D01*
X250540000Y-72137500D02*
X250540000Y-74337500D01*
X257310000Y-72137500D02*
X257310000Y-69937500D01*
X257310000Y-72137500D02*
X257310000Y-74337500D01*
X251000000Y-68277500D02*
X250760000Y-67947500D01*
X251240000Y-67947500D01*
X251000000Y-68277500D01*
G36*
X251000000Y-68277500D02*
G01*
X250760000Y-67947500D01*
X251240000Y-67947500D01*
X251000000Y-68277500D01*
G37*
%TO.C,C27*%
X115738748Y-109015000D02*
X116261252Y-109015000D01*
X115738748Y-110485000D02*
X116261252Y-110485000D01*
%TO.C,C72*%
X215015000Y-88988748D02*
X215015000Y-89511252D01*
X216485000Y-88988748D02*
X216485000Y-89511252D01*
%TO.C,C17*%
X133765000Y-80973752D02*
X133765000Y-80451248D01*
X135235000Y-80973752D02*
X135235000Y-80451248D01*
%TO.C,U22*%
X261540000Y-72137500D02*
X261540000Y-69937500D01*
X261540000Y-72137500D02*
X261540000Y-74337500D01*
X268310000Y-72137500D02*
X268310000Y-69937500D01*
X268310000Y-72137500D02*
X268310000Y-74337500D01*
X262000000Y-68277500D02*
X261760000Y-67947500D01*
X262240000Y-67947500D01*
X262000000Y-68277500D01*
G36*
X262000000Y-68277500D02*
G01*
X261760000Y-67947500D01*
X262240000Y-67947500D01*
X262000000Y-68277500D01*
G37*
%TO.C,C15*%
X168511252Y-66765000D02*
X167988748Y-66765000D01*
X168511252Y-68235000D02*
X167988748Y-68235000D01*
%TO.C,U66*%
X141540000Y-107862500D02*
X141540000Y-105662500D01*
X141540000Y-107862500D02*
X141540000Y-110062500D01*
X148310000Y-107862500D02*
X148310000Y-105662500D01*
X148310000Y-107862500D02*
X148310000Y-110062500D01*
X142000000Y-104002500D02*
X141760000Y-103672500D01*
X142240000Y-103672500D01*
X142000000Y-104002500D01*
G36*
X142000000Y-104002500D02*
G01*
X141760000Y-103672500D01*
X142240000Y-103672500D01*
X142000000Y-104002500D01*
G37*
%TO.C,U16*%
X195540000Y-72137500D02*
X195540000Y-69937500D01*
X195540000Y-72137500D02*
X195540000Y-74337500D01*
X202310000Y-72137500D02*
X202310000Y-69937500D01*
X202310000Y-72137500D02*
X202310000Y-74337500D01*
X196000000Y-68277500D02*
X195760000Y-67947500D01*
X196240000Y-67947500D01*
X196000000Y-68277500D01*
G36*
X196000000Y-68277500D02*
G01*
X195760000Y-67947500D01*
X196240000Y-67947500D01*
X196000000Y-68277500D01*
G37*
%TO.C,C2*%
X224765000Y-113701248D02*
X224765000Y-114223752D01*
X226235000Y-113701248D02*
X226235000Y-114223752D01*
%TO.C,C9*%
X192515000Y-113488748D02*
X192515000Y-114011252D01*
X193985000Y-113488748D02*
X193985000Y-114011252D01*
%TO.C,U72*%
X103540000Y-85137500D02*
X103540000Y-82937500D01*
X103540000Y-85137500D02*
X103540000Y-87337500D01*
X110310000Y-85137500D02*
X110310000Y-82937500D01*
X110310000Y-85137500D02*
X110310000Y-87337500D01*
X104000000Y-81277500D02*
X103760000Y-80947500D01*
X104240000Y-80947500D01*
X104000000Y-81277500D01*
G36*
X104000000Y-81277500D02*
G01*
X103760000Y-80947500D01*
X104240000Y-80947500D01*
X104000000Y-81277500D01*
G37*
%TO.C,C61*%
X231738748Y-115765000D02*
X232261252Y-115765000D01*
X231738748Y-117235000D02*
X232261252Y-117235000D01*
%TO.C,U20*%
X239540000Y-72137500D02*
X239540000Y-69937500D01*
X239540000Y-72137500D02*
X239540000Y-74337500D01*
X246310000Y-72137500D02*
X246310000Y-69937500D01*
X246310000Y-72137500D02*
X246310000Y-74337500D01*
X240000000Y-68277500D02*
X239760000Y-67947500D01*
X240240000Y-67947500D01*
X240000000Y-68277500D01*
G36*
X240000000Y-68277500D02*
G01*
X239760000Y-67947500D01*
X240240000Y-67947500D01*
X240000000Y-68277500D01*
G37*
%TO.C,C62*%
X220738748Y-115765000D02*
X221261252Y-115765000D01*
X220738748Y-117235000D02*
X221261252Y-117235000D01*
%TO.C,C24*%
X126526248Y-106015000D02*
X127048752Y-106015000D01*
X126526248Y-107485000D02*
X127048752Y-107485000D01*
%TO.C,U80*%
X206540000Y-85137500D02*
X206540000Y-82937500D01*
X206540000Y-85137500D02*
X206540000Y-87337500D01*
X213310000Y-85137500D02*
X213310000Y-82937500D01*
X213310000Y-85137500D02*
X213310000Y-87337500D01*
X207000000Y-81277500D02*
X206760000Y-80947500D01*
X207240000Y-80947500D01*
X207000000Y-81277500D01*
G36*
X207000000Y-81277500D02*
G01*
X206760000Y-80947500D01*
X207240000Y-80947500D01*
X207000000Y-81277500D01*
G37*
%TO.C,C38*%
X78265000Y-82511252D02*
X78265000Y-81988748D01*
X79735000Y-82511252D02*
X79735000Y-81988748D01*
%TO.C,U15*%
X184540000Y-72137500D02*
X184540000Y-69937500D01*
X184540000Y-72137500D02*
X184540000Y-74337500D01*
X191310000Y-72137500D02*
X191310000Y-69937500D01*
X191310000Y-72137500D02*
X191310000Y-74337500D01*
X185000000Y-68277500D02*
X184760000Y-67947500D01*
X185240000Y-67947500D01*
X185000000Y-68277500D01*
G36*
X185000000Y-68277500D02*
G01*
X184760000Y-67947500D01*
X185240000Y-67947500D01*
X185000000Y-68277500D01*
G37*
%TO.C,C29*%
X176015000Y-106548752D02*
X176015000Y-106026248D01*
X177485000Y-106548752D02*
X177485000Y-106026248D01*
%TO.C,C37*%
X90015000Y-82738748D02*
X90015000Y-83261252D01*
X91485000Y-82738748D02*
X91485000Y-83261252D01*
%TO.C,C28*%
X180265000Y-82988748D02*
X180265000Y-83511252D01*
X181735000Y-82988748D02*
X181735000Y-83511252D01*
%TO.C,U17*%
X206540000Y-72137500D02*
X206540000Y-69937500D01*
X206540000Y-72137500D02*
X206540000Y-74337500D01*
X213310000Y-72137500D02*
X213310000Y-69937500D01*
X213310000Y-72137500D02*
X213310000Y-74337500D01*
X207000000Y-68277500D02*
X206760000Y-67947500D01*
X207240000Y-67947500D01*
X207000000Y-68277500D01*
G36*
X207000000Y-68277500D02*
G01*
X206760000Y-67947500D01*
X207240000Y-67947500D01*
X207000000Y-68277500D01*
G37*
%TO.C,U78*%
X184540000Y-85137500D02*
X184540000Y-82937500D01*
X184540000Y-85137500D02*
X184540000Y-87337500D01*
X191310000Y-85137500D02*
X191310000Y-82937500D01*
X191310000Y-85137500D02*
X191310000Y-87337500D01*
X185000000Y-81277500D02*
X184760000Y-80947500D01*
X185240000Y-80947500D01*
X185000000Y-81277500D01*
G36*
X185000000Y-81277500D02*
G01*
X184760000Y-80947500D01*
X185240000Y-80947500D01*
X185000000Y-81277500D01*
G37*
%TO.C,U12*%
X136540000Y-72137500D02*
X136540000Y-69937500D01*
X136540000Y-72137500D02*
X136540000Y-74337500D01*
X143310000Y-72137500D02*
X143310000Y-69937500D01*
X143310000Y-72137500D02*
X143310000Y-74337500D01*
X137000000Y-68277500D02*
X136760000Y-67947500D01*
X137240000Y-67947500D01*
X137000000Y-68277500D01*
G36*
X137000000Y-68277500D02*
G01*
X136760000Y-67947500D01*
X137240000Y-67947500D01*
X137000000Y-68277500D01*
G37*
%TO.C,U69*%
X170540000Y-97137500D02*
X170540000Y-94937500D01*
X170540000Y-97137500D02*
X170540000Y-99337500D01*
X177310000Y-97137500D02*
X177310000Y-94937500D01*
X177310000Y-97137500D02*
X177310000Y-99337500D01*
X177090000Y-101327500D02*
X176610000Y-101327500D01*
X176850000Y-100997500D01*
X177090000Y-101327500D01*
G36*
X177090000Y-101327500D02*
G01*
X176610000Y-101327500D01*
X176850000Y-100997500D01*
X177090000Y-101327500D01*
G37*
%TO.C,U75*%
X136540000Y-85137500D02*
X136540000Y-82937500D01*
X136540000Y-85137500D02*
X136540000Y-87337500D01*
X143310000Y-85137500D02*
X143310000Y-82937500D01*
X143310000Y-85137500D02*
X143310000Y-87337500D01*
X137000000Y-81277500D02*
X136760000Y-80947500D01*
X137240000Y-80947500D01*
X137000000Y-81277500D01*
G36*
X137000000Y-81277500D02*
G01*
X136760000Y-80947500D01*
X137240000Y-80947500D01*
X137000000Y-81277500D01*
G37*
%TO.C,C23*%
X156015000Y-81261252D02*
X156015000Y-80738748D01*
X157485000Y-81261252D02*
X157485000Y-80738748D01*
%TO.C,U39*%
X177890000Y-107750000D02*
X177890000Y-105550000D01*
X177890000Y-107750000D02*
X177890000Y-109950000D01*
X183110000Y-107750000D02*
X183110000Y-105550000D01*
X183110000Y-107750000D02*
X183110000Y-109950000D01*
X178090000Y-104850000D02*
X177760000Y-105090000D01*
X177760000Y-104610000D01*
X178090000Y-104850000D01*
G36*
X178090000Y-104850000D02*
G01*
X177760000Y-105090000D01*
X177760000Y-104610000D01*
X178090000Y-104850000D01*
G37*
%TO.C,C96*%
X36265000Y-107738748D02*
X36265000Y-108261252D01*
X37735000Y-107738748D02*
X37735000Y-108261252D01*
%TO.C,C8*%
X202765000Y-113738748D02*
X202765000Y-114261252D01*
X204235000Y-113738748D02*
X204235000Y-114261252D01*
%TO.C,U71*%
X92540000Y-85137500D02*
X92540000Y-82937500D01*
X92540000Y-85137500D02*
X92540000Y-87337500D01*
X99310000Y-85137500D02*
X99310000Y-82937500D01*
X99310000Y-85137500D02*
X99310000Y-87337500D01*
X93000000Y-81277500D02*
X92760000Y-80947500D01*
X93240000Y-80947500D01*
X93000000Y-81277500D01*
G36*
X93000000Y-81277500D02*
G01*
X92760000Y-80947500D01*
X93240000Y-80947500D01*
X93000000Y-81277500D01*
G37*
%TO.C,U74*%
X125540000Y-85137500D02*
X125540000Y-82937500D01*
X125540000Y-85137500D02*
X125540000Y-87337500D01*
X132310000Y-85137500D02*
X132310000Y-82937500D01*
X132310000Y-85137500D02*
X132310000Y-87337500D01*
X126000000Y-81277500D02*
X125760000Y-80947500D01*
X126240000Y-80947500D01*
X126000000Y-81277500D01*
G36*
X126000000Y-81277500D02*
G01*
X125760000Y-80947500D01*
X126240000Y-80947500D01*
X126000000Y-81277500D01*
G37*
%TO.C,U82*%
X228540000Y-85137500D02*
X228540000Y-82937500D01*
X228540000Y-85137500D02*
X228540000Y-87337500D01*
X235310000Y-85137500D02*
X235310000Y-82937500D01*
X235310000Y-85137500D02*
X235310000Y-87337500D01*
X229000000Y-81277500D02*
X228760000Y-80947500D01*
X229240000Y-80947500D01*
X229000000Y-81277500D01*
G36*
X229000000Y-81277500D02*
G01*
X228760000Y-80947500D01*
X229240000Y-80947500D01*
X229000000Y-81277500D01*
G37*
%TO.C,U76*%
X147540000Y-85137500D02*
X147540000Y-82937500D01*
X147540000Y-85137500D02*
X147540000Y-87337500D01*
X154310000Y-85137500D02*
X154310000Y-82937500D01*
X154310000Y-85137500D02*
X154310000Y-87337500D01*
X148000000Y-81277500D02*
X147760000Y-80947500D01*
X148240000Y-80947500D01*
X148000000Y-81277500D01*
G36*
X148000000Y-81277500D02*
G01*
X147760000Y-80947500D01*
X148240000Y-80947500D01*
X148000000Y-81277500D01*
G37*
%TO.C,U85*%
X261540000Y-85137500D02*
X261540000Y-82937500D01*
X261540000Y-85137500D02*
X261540000Y-87337500D01*
X268310000Y-85137500D02*
X268310000Y-82937500D01*
X268310000Y-85137500D02*
X268310000Y-87337500D01*
X262000000Y-81277500D02*
X261760000Y-80947500D01*
X262240000Y-80947500D01*
X262000000Y-81277500D01*
G36*
X262000000Y-81277500D02*
G01*
X261760000Y-80947500D01*
X262240000Y-80947500D01*
X262000000Y-81277500D01*
G37*
%TO.C,U73*%
X114540000Y-85137500D02*
X114540000Y-82937500D01*
X114540000Y-85137500D02*
X114540000Y-87337500D01*
X121310000Y-85137500D02*
X121310000Y-82937500D01*
X121310000Y-85137500D02*
X121310000Y-87337500D01*
X115000000Y-81277500D02*
X114760000Y-80947500D01*
X115240000Y-80947500D01*
X115000000Y-81277500D01*
G36*
X115000000Y-81277500D02*
G01*
X114760000Y-80947500D01*
X115240000Y-80947500D01*
X115000000Y-81277500D01*
G37*
%TO.C,U81*%
X217540000Y-85137500D02*
X217540000Y-82937500D01*
X217540000Y-85137500D02*
X217540000Y-87337500D01*
X224310000Y-85137500D02*
X224310000Y-82937500D01*
X224310000Y-85137500D02*
X224310000Y-87337500D01*
X218000000Y-81277500D02*
X217760000Y-80947500D01*
X218240000Y-80947500D01*
X218000000Y-81277500D01*
G36*
X218000000Y-81277500D02*
G01*
X217760000Y-80947500D01*
X218240000Y-80947500D01*
X218000000Y-81277500D01*
G37*
%TO.C,U11*%
X125540000Y-72137500D02*
X125540000Y-69937500D01*
X125540000Y-72137500D02*
X125540000Y-74337500D01*
X132310000Y-72137500D02*
X132310000Y-69937500D01*
X132310000Y-72137500D02*
X132310000Y-74337500D01*
X126000000Y-68277500D02*
X125760000Y-67947500D01*
X126240000Y-67947500D01*
X126000000Y-68277500D01*
G36*
X126000000Y-68277500D02*
G01*
X125760000Y-67947500D01*
X126240000Y-67947500D01*
X126000000Y-68277500D01*
G37*
%TO.C,C36*%
X101015000Y-81011252D02*
X101015000Y-80488748D01*
X102485000Y-81011252D02*
X102485000Y-80488748D01*
%TO.C,U31*%
X174000000Y-68390000D02*
X171800000Y-68390000D01*
X174000000Y-68390000D02*
X176200000Y-68390000D01*
X174000000Y-73610000D02*
X171800000Y-73610000D01*
X174000000Y-73610000D02*
X176200000Y-73610000D01*
X176900000Y-68590000D02*
X176660000Y-68260000D01*
X177140000Y-68260000D01*
X176900000Y-68590000D01*
G36*
X176900000Y-68590000D02*
G01*
X176660000Y-68260000D01*
X177140000Y-68260000D01*
X176900000Y-68590000D01*
G37*
%TO.C,C75*%
X237015000Y-88988748D02*
X237015000Y-89511252D01*
X238485000Y-88988748D02*
X238485000Y-89511252D01*
%TO.C,C82*%
X259515000Y-73011252D02*
X259515000Y-72488748D01*
X260985000Y-73011252D02*
X260985000Y-72488748D01*
%TO.C,C95*%
X175015000Y-111511252D02*
X175015000Y-110988748D01*
X176485000Y-111511252D02*
X176485000Y-110988748D01*
%TO.C,U79*%
X195540000Y-85137500D02*
X195540000Y-82937500D01*
X195540000Y-85137500D02*
X195540000Y-87337500D01*
X202310000Y-85137500D02*
X202310000Y-82937500D01*
X202310000Y-85137500D02*
X202310000Y-87337500D01*
X196000000Y-81277500D02*
X195760000Y-80947500D01*
X196240000Y-80947500D01*
X196000000Y-81277500D01*
G36*
X196000000Y-81277500D02*
G01*
X195760000Y-80947500D01*
X196240000Y-80947500D01*
X196000000Y-81277500D01*
G37*
%TO.C,C69*%
X204761252Y-88015000D02*
X204238748Y-88015000D01*
X204761252Y-89485000D02*
X204238748Y-89485000D01*
%TO.C,U77*%
X158540000Y-85137500D02*
X158540000Y-82937500D01*
X158540000Y-85137500D02*
X158540000Y-87337500D01*
X165310000Y-85137500D02*
X165310000Y-82937500D01*
X165310000Y-85137500D02*
X165310000Y-87337500D01*
X159000000Y-81277500D02*
X158760000Y-80947500D01*
X159240000Y-80947500D01*
X159000000Y-81277500D01*
G36*
X159000000Y-81277500D02*
G01*
X158760000Y-80947500D01*
X159240000Y-80947500D01*
X159000000Y-81277500D01*
G37*
%TO.C,C77*%
X248515000Y-88738748D02*
X248515000Y-89261252D01*
X249985000Y-88738748D02*
X249985000Y-89261252D01*
%TO.C,U83*%
X239540000Y-85137500D02*
X239540000Y-82937500D01*
X239540000Y-85137500D02*
X239540000Y-87337500D01*
X246310000Y-85137500D02*
X246310000Y-82937500D01*
X246310000Y-85137500D02*
X246310000Y-87337500D01*
X240000000Y-81277500D02*
X239760000Y-80947500D01*
X240240000Y-80947500D01*
X240000000Y-81277500D01*
G36*
X240000000Y-81277500D02*
G01*
X239760000Y-80947500D01*
X240240000Y-80947500D01*
X240000000Y-81277500D01*
G37*
%TO.C,U9*%
X103540000Y-72137500D02*
X103540000Y-69937500D01*
X103540000Y-72137500D02*
X103540000Y-74337500D01*
X110310000Y-72137500D02*
X110310000Y-69937500D01*
X110310000Y-72137500D02*
X110310000Y-74337500D01*
X104000000Y-68277500D02*
X103760000Y-67947500D01*
X104240000Y-67947500D01*
X104000000Y-68277500D01*
G36*
X104000000Y-68277500D02*
G01*
X103760000Y-67947500D01*
X104240000Y-67947500D01*
X104000000Y-68277500D01*
G37*
%TO.C,U63*%
X250540000Y-107862500D02*
X250540000Y-105662500D01*
X250540000Y-107862500D02*
X250540000Y-110062500D01*
X257310000Y-107862500D02*
X257310000Y-105662500D01*
X257310000Y-107862500D02*
X257310000Y-110062500D01*
X251000000Y-104002500D02*
X250760000Y-103672500D01*
X251240000Y-103672500D01*
X251000000Y-104002500D01*
G36*
X251000000Y-104002500D02*
G01*
X250760000Y-103672500D01*
X251240000Y-103672500D01*
X251000000Y-104002500D01*
G37*
%TO.C,U14*%
X158540000Y-72137500D02*
X158540000Y-69937500D01*
X158540000Y-72137500D02*
X158540000Y-74337500D01*
X165310000Y-72137500D02*
X165310000Y-69937500D01*
X165310000Y-72137500D02*
X165310000Y-74337500D01*
X159000000Y-68277500D02*
X158760000Y-67947500D01*
X159240000Y-67947500D01*
X159000000Y-68277500D01*
G36*
X159000000Y-68277500D02*
G01*
X158760000Y-67947500D01*
X159240000Y-67947500D01*
X159000000Y-68277500D01*
G37*
%TO.C,C18*%
X54515000Y-97761252D02*
X54515000Y-97238748D01*
X55985000Y-97761252D02*
X55985000Y-97238748D01*
%TO.C,U68*%
X163540000Y-107862500D02*
X163540000Y-105662500D01*
X163540000Y-107862500D02*
X163540000Y-110062500D01*
X170310000Y-107862500D02*
X170310000Y-105662500D01*
X170310000Y-107862500D02*
X170310000Y-110062500D01*
X164000000Y-104002500D02*
X163760000Y-103672500D01*
X164240000Y-103672500D01*
X164000000Y-104002500D01*
G36*
X164000000Y-104002500D02*
G01*
X163760000Y-103672500D01*
X164240000Y-103672500D01*
X164000000Y-104002500D01*
G37*
%TD*%
M02*
