%TF.GenerationSoftware,KiCad,Pcbnew,9.0.2+dfsg-1*%
%TF.CreationDate,2026-06-16T21:06:13+01:00*%
%TF.ProjectId,CardTester,43617264-5465-4737-9465-722e6b696361,rev?*%
%TF.SameCoordinates,Original*%
%TF.FileFunction,Paste,Bot*%
%TF.FilePolarity,Positive*%
%FSLAX46Y46*%
G04 Gerber Fmt 4.6, Leading zero omitted, Abs format (unit mm)*
G04 Created by KiCad (PCBNEW 9.0.2+dfsg-1) date 2026-06-16 21:06:13*
%MOMM*%
%LPD*%
G01*
G04 APERTURE LIST*
G04 Aperture macros list*
%AMRoundRect*
0 Rectangle with rounded corners*
0 $1 Rounding radius*
0 $2 $3 $4 $5 $6 $7 $8 $9 X,Y pos of 4 corners*
0 Add a 4 corners polygon primitive as box body*
4,1,4,$2,$3,$4,$5,$6,$7,$8,$9,$2,$3,0*
0 Add four circle primitives for the rounded corners*
1,1,$1+$1,$2,$3*
1,1,$1+$1,$4,$5*
1,1,$1+$1,$6,$7*
1,1,$1+$1,$8,$9*
0 Add four rect primitives between the rounded corners*
20,1,$1+$1,$2,$3,$4,$5,0*
20,1,$1+$1,$4,$5,$6,$7,0*
20,1,$1+$1,$6,$7,$8,$9,0*
20,1,$1+$1,$8,$9,$2,$3,0*%
G04 Aperture macros list end*
%ADD10RoundRect,0.100000X0.100000X-0.637500X0.100000X0.637500X-0.100000X0.637500X-0.100000X-0.637500X0*%
%ADD11RoundRect,0.100000X-0.100000X0.637500X-0.100000X-0.637500X0.100000X-0.637500X0.100000X0.637500X0*%
%ADD12RoundRect,0.250000X0.475000X-0.337500X0.475000X0.337500X-0.475000X0.337500X-0.475000X-0.337500X0*%
%ADD13RoundRect,0.250000X-0.475000X0.337500X-0.475000X-0.337500X0.475000X-0.337500X0.475000X0.337500X0*%
%ADD14RoundRect,0.250000X-0.337500X-0.475000X0.337500X-0.475000X0.337500X0.475000X-0.337500X0.475000X0*%
%ADD15RoundRect,0.100000X0.637500X0.100000X-0.637500X0.100000X-0.637500X-0.100000X0.637500X-0.100000X0*%
%ADD16RoundRect,0.250000X0.337500X0.475000X-0.337500X0.475000X-0.337500X-0.475000X0.337500X-0.475000X0*%
G04 APERTURE END LIST*
D10*
%TO.C,U32*%
X64775000Y-85612500D03*
X64125000Y-85612500D03*
X63475000Y-85612500D03*
X62825000Y-85612500D03*
X62175000Y-85612500D03*
X61525000Y-85612500D03*
X60875000Y-85612500D03*
X60225000Y-85612500D03*
X60225000Y-79887500D03*
X60875000Y-79887500D03*
X61525000Y-79887500D03*
X62175000Y-79887500D03*
X62825000Y-79887500D03*
X63475000Y-79887500D03*
X64125000Y-79887500D03*
X64775000Y-79887500D03*
%TD*%
D11*
%TO.C,U67*%
X153000000Y-105000000D03*
X153650000Y-105000000D03*
X154300000Y-105000000D03*
X154950000Y-105000000D03*
X155600000Y-105000000D03*
X156250000Y-105000000D03*
X156900000Y-105000000D03*
X157550000Y-105000000D03*
X158200000Y-105000000D03*
X158850000Y-105000000D03*
X158850000Y-110725000D03*
X158200000Y-110725000D03*
X157550000Y-110725000D03*
X156900000Y-110725000D03*
X156250000Y-110725000D03*
X155600000Y-110725000D03*
X154950000Y-110725000D03*
X154300000Y-110725000D03*
X153650000Y-110725000D03*
X153000000Y-110725000D03*
%TD*%
%TO.C,U33*%
X57475000Y-93887500D03*
X58125000Y-93887500D03*
X58775000Y-93887500D03*
X59425000Y-93887500D03*
X60075000Y-93887500D03*
X60725000Y-93887500D03*
X61375000Y-93887500D03*
X62025000Y-93887500D03*
X62025000Y-99612500D03*
X61375000Y-99612500D03*
X60725000Y-99612500D03*
X60075000Y-99612500D03*
X59425000Y-99612500D03*
X58775000Y-99612500D03*
X58125000Y-99612500D03*
X57475000Y-99612500D03*
%TD*%
D12*
%TO.C,C26*%
X123500000Y-81787500D03*
X123500000Y-79712500D03*
%TD*%
D13*
%TO.C,C4*%
X249500000Y-112212500D03*
X249500000Y-114287500D03*
%TD*%
%TO.C,C63*%
X193750000Y-87962500D03*
X193750000Y-90037500D03*
%TD*%
D11*
%TO.C,U19*%
X229000000Y-69275000D03*
X229650000Y-69275000D03*
X230300000Y-69275000D03*
X230950000Y-69275000D03*
X231600000Y-69275000D03*
X232250000Y-69275000D03*
X232900000Y-69275000D03*
X233550000Y-69275000D03*
X234200000Y-69275000D03*
X234850000Y-69275000D03*
X234850000Y-75000000D03*
X234200000Y-75000000D03*
X233550000Y-75000000D03*
X232900000Y-75000000D03*
X232250000Y-75000000D03*
X231600000Y-75000000D03*
X230950000Y-75000000D03*
X230300000Y-75000000D03*
X229650000Y-75000000D03*
X229000000Y-75000000D03*
%TD*%
D10*
%TO.C,U40*%
X125700000Y-114862500D03*
X125050000Y-114862500D03*
X124400000Y-114862500D03*
X123750000Y-114862500D03*
X123100000Y-114862500D03*
X122450000Y-114862500D03*
X121800000Y-114862500D03*
X121800000Y-109137500D03*
X122450000Y-109137500D03*
X123100000Y-109137500D03*
X123750000Y-109137500D03*
X124400000Y-109137500D03*
X125050000Y-109137500D03*
X125700000Y-109137500D03*
%TD*%
D11*
%TO.C,U18*%
X218000000Y-69275000D03*
X218650000Y-69275000D03*
X219300000Y-69275000D03*
X219950000Y-69275000D03*
X220600000Y-69275000D03*
X221250000Y-69275000D03*
X221900000Y-69275000D03*
X222550000Y-69275000D03*
X223200000Y-69275000D03*
X223850000Y-69275000D03*
X223850000Y-75000000D03*
X223200000Y-75000000D03*
X222550000Y-75000000D03*
X221900000Y-75000000D03*
X221250000Y-75000000D03*
X220600000Y-75000000D03*
X219950000Y-75000000D03*
X219300000Y-75000000D03*
X218650000Y-75000000D03*
X218000000Y-75000000D03*
%TD*%
D12*
%TO.C,C20*%
X145750000Y-81787500D03*
X145750000Y-79712500D03*
%TD*%
D11*
%TO.C,U70*%
X82000000Y-82275000D03*
X82650000Y-82275000D03*
X83300000Y-82275000D03*
X83950000Y-82275000D03*
X84600000Y-82275000D03*
X85250000Y-82275000D03*
X85900000Y-82275000D03*
X86550000Y-82275000D03*
X87200000Y-82275000D03*
X87850000Y-82275000D03*
X87850000Y-88000000D03*
X87200000Y-88000000D03*
X86550000Y-88000000D03*
X85900000Y-88000000D03*
X85250000Y-88000000D03*
X84600000Y-88000000D03*
X83950000Y-88000000D03*
X83300000Y-88000000D03*
X82650000Y-88000000D03*
X82000000Y-88000000D03*
%TD*%
%TO.C,U10*%
X115000000Y-69275000D03*
X115650000Y-69275000D03*
X116300000Y-69275000D03*
X116950000Y-69275000D03*
X117600000Y-69275000D03*
X118250000Y-69275000D03*
X118900000Y-69275000D03*
X119550000Y-69275000D03*
X120200000Y-69275000D03*
X120850000Y-69275000D03*
X120850000Y-75000000D03*
X120200000Y-75000000D03*
X119550000Y-75000000D03*
X118900000Y-75000000D03*
X118250000Y-75000000D03*
X117600000Y-75000000D03*
X116950000Y-75000000D03*
X116300000Y-75000000D03*
X115650000Y-75000000D03*
X115000000Y-75000000D03*
%TD*%
%TO.C,U60*%
X218000000Y-105000000D03*
X218650000Y-105000000D03*
X219300000Y-105000000D03*
X219950000Y-105000000D03*
X220600000Y-105000000D03*
X221250000Y-105000000D03*
X221900000Y-105000000D03*
X222550000Y-105000000D03*
X223200000Y-105000000D03*
X223850000Y-105000000D03*
X223850000Y-110725000D03*
X223200000Y-110725000D03*
X222550000Y-110725000D03*
X221900000Y-110725000D03*
X221250000Y-110725000D03*
X220600000Y-110725000D03*
X219950000Y-110725000D03*
X219300000Y-110725000D03*
X218650000Y-110725000D03*
X218000000Y-110725000D03*
%TD*%
D13*
%TO.C,C81*%
X248250000Y-79962500D03*
X248250000Y-82037500D03*
%TD*%
D11*
%TO.C,U13*%
X148000000Y-69275000D03*
X148650000Y-69275000D03*
X149300000Y-69275000D03*
X149950000Y-69275000D03*
X150600000Y-69275000D03*
X151250000Y-69275000D03*
X151900000Y-69275000D03*
X152550000Y-69275000D03*
X153200000Y-69275000D03*
X153850000Y-69275000D03*
X153850000Y-75000000D03*
X153200000Y-75000000D03*
X152550000Y-75000000D03*
X151900000Y-75000000D03*
X151250000Y-75000000D03*
X150600000Y-75000000D03*
X149950000Y-75000000D03*
X149300000Y-75000000D03*
X148650000Y-75000000D03*
X148000000Y-75000000D03*
%TD*%
%TO.C,U62*%
X240000000Y-105000000D03*
X240650000Y-105000000D03*
X241300000Y-105000000D03*
X241950000Y-105000000D03*
X242600000Y-105000000D03*
X243250000Y-105000000D03*
X243900000Y-105000000D03*
X244550000Y-105000000D03*
X245200000Y-105000000D03*
X245850000Y-105000000D03*
X245850000Y-110725000D03*
X245200000Y-110725000D03*
X244550000Y-110725000D03*
X243900000Y-110725000D03*
X243250000Y-110725000D03*
X242600000Y-110725000D03*
X241950000Y-110725000D03*
X241300000Y-110725000D03*
X240650000Y-110725000D03*
X240000000Y-110725000D03*
%TD*%
%TO.C,U59*%
X207000000Y-105000000D03*
X207650000Y-105000000D03*
X208300000Y-105000000D03*
X208950000Y-105000000D03*
X209600000Y-105000000D03*
X210250000Y-105000000D03*
X210900000Y-105000000D03*
X211550000Y-105000000D03*
X212200000Y-105000000D03*
X212850000Y-105000000D03*
X212850000Y-110725000D03*
X212200000Y-110725000D03*
X211550000Y-110725000D03*
X210900000Y-110725000D03*
X210250000Y-110725000D03*
X209600000Y-110725000D03*
X208950000Y-110725000D03*
X208300000Y-110725000D03*
X207650000Y-110725000D03*
X207000000Y-110725000D03*
%TD*%
D13*
%TO.C,C76*%
X227000000Y-88712500D03*
X227000000Y-90787500D03*
%TD*%
D11*
%TO.C,U57*%
X185000000Y-105000000D03*
X185650000Y-105000000D03*
X186300000Y-105000000D03*
X186950000Y-105000000D03*
X187600000Y-105000000D03*
X188250000Y-105000000D03*
X188900000Y-105000000D03*
X189550000Y-105000000D03*
X190200000Y-105000000D03*
X190850000Y-105000000D03*
X190850000Y-110725000D03*
X190200000Y-110725000D03*
X189550000Y-110725000D03*
X188900000Y-110725000D03*
X188250000Y-110725000D03*
X187600000Y-110725000D03*
X186950000Y-110725000D03*
X186300000Y-110725000D03*
X185650000Y-110725000D03*
X185000000Y-110725000D03*
%TD*%
D14*
%TO.C,C41*%
X241887500Y-116500000D03*
X243962500Y-116500000D03*
%TD*%
D10*
%TO.C,U36*%
X112950000Y-114862500D03*
X112300000Y-114862500D03*
X111650000Y-114862500D03*
X111000000Y-114862500D03*
X110350000Y-114862500D03*
X109700000Y-114862500D03*
X109050000Y-114862500D03*
X109050000Y-109137500D03*
X109700000Y-109137500D03*
X110350000Y-109137500D03*
X111000000Y-109137500D03*
X111650000Y-109137500D03*
X112300000Y-109137500D03*
X112950000Y-109137500D03*
%TD*%
D11*
%TO.C,U8*%
X93000000Y-69275000D03*
X93650000Y-69275000D03*
X94300000Y-69275000D03*
X94950000Y-69275000D03*
X95600000Y-69275000D03*
X96250000Y-69275000D03*
X96900000Y-69275000D03*
X97550000Y-69275000D03*
X98200000Y-69275000D03*
X98850000Y-69275000D03*
X98850000Y-75000000D03*
X98200000Y-75000000D03*
X97550000Y-75000000D03*
X96900000Y-75000000D03*
X96250000Y-75000000D03*
X95600000Y-75000000D03*
X94950000Y-75000000D03*
X94300000Y-75000000D03*
X93650000Y-75000000D03*
X93000000Y-75000000D03*
%TD*%
%TO.C,U7*%
X82000000Y-69275000D03*
X82650000Y-69275000D03*
X83300000Y-69275000D03*
X83950000Y-69275000D03*
X84600000Y-69275000D03*
X85250000Y-69275000D03*
X85900000Y-69275000D03*
X86550000Y-69275000D03*
X87200000Y-69275000D03*
X87850000Y-69275000D03*
X87850000Y-75000000D03*
X87200000Y-75000000D03*
X86550000Y-75000000D03*
X85900000Y-75000000D03*
X85250000Y-75000000D03*
X84600000Y-75000000D03*
X83950000Y-75000000D03*
X83300000Y-75000000D03*
X82650000Y-75000000D03*
X82000000Y-75000000D03*
%TD*%
%TO.C,U84*%
X251000000Y-82275000D03*
X251650000Y-82275000D03*
X252300000Y-82275000D03*
X252950000Y-82275000D03*
X253600000Y-82275000D03*
X254250000Y-82275000D03*
X254900000Y-82275000D03*
X255550000Y-82275000D03*
X256200000Y-82275000D03*
X256850000Y-82275000D03*
X256850000Y-88000000D03*
X256200000Y-88000000D03*
X255550000Y-88000000D03*
X254900000Y-88000000D03*
X254250000Y-88000000D03*
X253600000Y-88000000D03*
X252950000Y-88000000D03*
X252300000Y-88000000D03*
X251650000Y-88000000D03*
X251000000Y-88000000D03*
%TD*%
%TO.C,U64*%
X262000000Y-105000000D03*
X262650000Y-105000000D03*
X263300000Y-105000000D03*
X263950000Y-105000000D03*
X264600000Y-105000000D03*
X265250000Y-105000000D03*
X265900000Y-105000000D03*
X266550000Y-105000000D03*
X267200000Y-105000000D03*
X267850000Y-105000000D03*
X267850000Y-110725000D03*
X267200000Y-110725000D03*
X266550000Y-110725000D03*
X265900000Y-110725000D03*
X265250000Y-110725000D03*
X264600000Y-110725000D03*
X263950000Y-110725000D03*
X263300000Y-110725000D03*
X262650000Y-110725000D03*
X262000000Y-110725000D03*
%TD*%
D14*
%TO.C,C5*%
X259962500Y-113000000D03*
X262037500Y-113000000D03*
%TD*%
D13*
%TO.C,C10*%
X215250000Y-112712500D03*
X215250000Y-114787500D03*
%TD*%
%TO.C,C78*%
X259250000Y-82712500D03*
X259250000Y-84787500D03*
%TD*%
D15*
%TO.C,U37*%
X176862500Y-81000000D03*
X176862500Y-81650000D03*
X176862500Y-82300000D03*
X176862500Y-82950000D03*
X176862500Y-83600000D03*
X176862500Y-84250000D03*
X176862500Y-84900000D03*
X171137500Y-84900000D03*
X171137500Y-84250000D03*
X171137500Y-83600000D03*
X171137500Y-82950000D03*
X171137500Y-82300000D03*
X171137500Y-81650000D03*
X171137500Y-81000000D03*
%TD*%
D12*
%TO.C,C21*%
X65750000Y-77000000D03*
X65750000Y-74925000D03*
%TD*%
D11*
%TO.C,U61*%
X229000000Y-105000000D03*
X229650000Y-105000000D03*
X230300000Y-105000000D03*
X230950000Y-105000000D03*
X231600000Y-105000000D03*
X232250000Y-105000000D03*
X232900000Y-105000000D03*
X233550000Y-105000000D03*
X234200000Y-105000000D03*
X234850000Y-105000000D03*
X234850000Y-110725000D03*
X234200000Y-110725000D03*
X233550000Y-110725000D03*
X232900000Y-110725000D03*
X232250000Y-110725000D03*
X231600000Y-110725000D03*
X230950000Y-110725000D03*
X230300000Y-110725000D03*
X229650000Y-110725000D03*
X229000000Y-110725000D03*
%TD*%
D13*
%TO.C,C3*%
X237250000Y-112212500D03*
X237250000Y-114287500D03*
%TD*%
D11*
%TO.C,U58*%
X196000000Y-105000000D03*
X196650000Y-105000000D03*
X197300000Y-105000000D03*
X197950000Y-105000000D03*
X198600000Y-105000000D03*
X199250000Y-105000000D03*
X199900000Y-105000000D03*
X200550000Y-105000000D03*
X201200000Y-105000000D03*
X201850000Y-105000000D03*
X201850000Y-110725000D03*
X201200000Y-110725000D03*
X200550000Y-110725000D03*
X199900000Y-110725000D03*
X199250000Y-110725000D03*
X198600000Y-110725000D03*
X197950000Y-110725000D03*
X197300000Y-110725000D03*
X196650000Y-110725000D03*
X196000000Y-110725000D03*
%TD*%
D12*
%TO.C,C35*%
X112500000Y-81787500D03*
X112500000Y-79712500D03*
%TD*%
D16*
%TO.C,C57*%
X184037500Y-100250000D03*
X181962500Y-100250000D03*
%TD*%
D13*
%TO.C,C66*%
X183750000Y-90462500D03*
X183750000Y-92537500D03*
%TD*%
D11*
%TO.C,U65*%
X131000000Y-105000000D03*
X131650000Y-105000000D03*
X132300000Y-105000000D03*
X132950000Y-105000000D03*
X133600000Y-105000000D03*
X134250000Y-105000000D03*
X134900000Y-105000000D03*
X135550000Y-105000000D03*
X136200000Y-105000000D03*
X136850000Y-105000000D03*
X136850000Y-110725000D03*
X136200000Y-110725000D03*
X135550000Y-110725000D03*
X134900000Y-110725000D03*
X134250000Y-110725000D03*
X133600000Y-110725000D03*
X132950000Y-110725000D03*
X132300000Y-110725000D03*
X131650000Y-110725000D03*
X131000000Y-110725000D03*
%TD*%
%TO.C,U21*%
X251000000Y-69275000D03*
X251650000Y-69275000D03*
X252300000Y-69275000D03*
X252950000Y-69275000D03*
X253600000Y-69275000D03*
X254250000Y-69275000D03*
X254900000Y-69275000D03*
X255550000Y-69275000D03*
X256200000Y-69275000D03*
X256850000Y-69275000D03*
X256850000Y-75000000D03*
X256200000Y-75000000D03*
X255550000Y-75000000D03*
X254900000Y-75000000D03*
X254250000Y-75000000D03*
X253600000Y-75000000D03*
X252950000Y-75000000D03*
X252300000Y-75000000D03*
X251650000Y-75000000D03*
X251000000Y-75000000D03*
%TD*%
D14*
%TO.C,C27*%
X114962500Y-109750000D03*
X117037500Y-109750000D03*
%TD*%
D13*
%TO.C,C72*%
X215750000Y-88212500D03*
X215750000Y-90287500D03*
%TD*%
D12*
%TO.C,C17*%
X134500000Y-81750000D03*
X134500000Y-79675000D03*
%TD*%
D11*
%TO.C,U22*%
X262000000Y-69275000D03*
X262650000Y-69275000D03*
X263300000Y-69275000D03*
X263950000Y-69275000D03*
X264600000Y-69275000D03*
X265250000Y-69275000D03*
X265900000Y-69275000D03*
X266550000Y-69275000D03*
X267200000Y-69275000D03*
X267850000Y-69275000D03*
X267850000Y-75000000D03*
X267200000Y-75000000D03*
X266550000Y-75000000D03*
X265900000Y-75000000D03*
X265250000Y-75000000D03*
X264600000Y-75000000D03*
X263950000Y-75000000D03*
X263300000Y-75000000D03*
X262650000Y-75000000D03*
X262000000Y-75000000D03*
%TD*%
D16*
%TO.C,C15*%
X169287500Y-67500000D03*
X167212500Y-67500000D03*
%TD*%
D11*
%TO.C,U66*%
X142000000Y-105000000D03*
X142650000Y-105000000D03*
X143300000Y-105000000D03*
X143950000Y-105000000D03*
X144600000Y-105000000D03*
X145250000Y-105000000D03*
X145900000Y-105000000D03*
X146550000Y-105000000D03*
X147200000Y-105000000D03*
X147850000Y-105000000D03*
X147850000Y-110725000D03*
X147200000Y-110725000D03*
X146550000Y-110725000D03*
X145900000Y-110725000D03*
X145250000Y-110725000D03*
X144600000Y-110725000D03*
X143950000Y-110725000D03*
X143300000Y-110725000D03*
X142650000Y-110725000D03*
X142000000Y-110725000D03*
%TD*%
%TO.C,U16*%
X196000000Y-69275000D03*
X196650000Y-69275000D03*
X197300000Y-69275000D03*
X197950000Y-69275000D03*
X198600000Y-69275000D03*
X199250000Y-69275000D03*
X199900000Y-69275000D03*
X200550000Y-69275000D03*
X201200000Y-69275000D03*
X201850000Y-69275000D03*
X201850000Y-75000000D03*
X201200000Y-75000000D03*
X200550000Y-75000000D03*
X199900000Y-75000000D03*
X199250000Y-75000000D03*
X198600000Y-75000000D03*
X197950000Y-75000000D03*
X197300000Y-75000000D03*
X196650000Y-75000000D03*
X196000000Y-75000000D03*
%TD*%
D13*
%TO.C,C2*%
X225500000Y-112925000D03*
X225500000Y-115000000D03*
%TD*%
%TO.C,C9*%
X193250000Y-112712500D03*
X193250000Y-114787500D03*
%TD*%
D11*
%TO.C,U72*%
X104000000Y-82275000D03*
X104650000Y-82275000D03*
X105300000Y-82275000D03*
X105950000Y-82275000D03*
X106600000Y-82275000D03*
X107250000Y-82275000D03*
X107900000Y-82275000D03*
X108550000Y-82275000D03*
X109200000Y-82275000D03*
X109850000Y-82275000D03*
X109850000Y-88000000D03*
X109200000Y-88000000D03*
X108550000Y-88000000D03*
X107900000Y-88000000D03*
X107250000Y-88000000D03*
X106600000Y-88000000D03*
X105950000Y-88000000D03*
X105300000Y-88000000D03*
X104650000Y-88000000D03*
X104000000Y-88000000D03*
%TD*%
D14*
%TO.C,C61*%
X230962500Y-116500000D03*
X233037500Y-116500000D03*
%TD*%
D11*
%TO.C,U20*%
X240000000Y-69275000D03*
X240650000Y-69275000D03*
X241300000Y-69275000D03*
X241950000Y-69275000D03*
X242600000Y-69275000D03*
X243250000Y-69275000D03*
X243900000Y-69275000D03*
X244550000Y-69275000D03*
X245200000Y-69275000D03*
X245850000Y-69275000D03*
X245850000Y-75000000D03*
X245200000Y-75000000D03*
X244550000Y-75000000D03*
X243900000Y-75000000D03*
X243250000Y-75000000D03*
X242600000Y-75000000D03*
X241950000Y-75000000D03*
X241300000Y-75000000D03*
X240650000Y-75000000D03*
X240000000Y-75000000D03*
%TD*%
D14*
%TO.C,C62*%
X219962500Y-116500000D03*
X222037500Y-116500000D03*
%TD*%
%TO.C,C24*%
X125750000Y-106750000D03*
X127825000Y-106750000D03*
%TD*%
D11*
%TO.C,U80*%
X207000000Y-82275000D03*
X207650000Y-82275000D03*
X208300000Y-82275000D03*
X208950000Y-82275000D03*
X209600000Y-82275000D03*
X210250000Y-82275000D03*
X210900000Y-82275000D03*
X211550000Y-82275000D03*
X212200000Y-82275000D03*
X212850000Y-82275000D03*
X212850000Y-88000000D03*
X212200000Y-88000000D03*
X211550000Y-88000000D03*
X210900000Y-88000000D03*
X210250000Y-88000000D03*
X209600000Y-88000000D03*
X208950000Y-88000000D03*
X208300000Y-88000000D03*
X207650000Y-88000000D03*
X207000000Y-88000000D03*
%TD*%
D12*
%TO.C,C38*%
X79000000Y-83287500D03*
X79000000Y-81212500D03*
%TD*%
D11*
%TO.C,U15*%
X185000000Y-69275000D03*
X185650000Y-69275000D03*
X186300000Y-69275000D03*
X186950000Y-69275000D03*
X187600000Y-69275000D03*
X188250000Y-69275000D03*
X188900000Y-69275000D03*
X189550000Y-69275000D03*
X190200000Y-69275000D03*
X190850000Y-69275000D03*
X190850000Y-75000000D03*
X190200000Y-75000000D03*
X189550000Y-75000000D03*
X188900000Y-75000000D03*
X188250000Y-75000000D03*
X187600000Y-75000000D03*
X186950000Y-75000000D03*
X186300000Y-75000000D03*
X185650000Y-75000000D03*
X185000000Y-75000000D03*
%TD*%
D12*
%TO.C,C29*%
X176750000Y-107325000D03*
X176750000Y-105250000D03*
%TD*%
D13*
%TO.C,C37*%
X90750000Y-81962500D03*
X90750000Y-84037500D03*
%TD*%
%TO.C,C28*%
X181000000Y-82212500D03*
X181000000Y-84287500D03*
%TD*%
D11*
%TO.C,U17*%
X207000000Y-69275000D03*
X207650000Y-69275000D03*
X208300000Y-69275000D03*
X208950000Y-69275000D03*
X209600000Y-69275000D03*
X210250000Y-69275000D03*
X210900000Y-69275000D03*
X211550000Y-69275000D03*
X212200000Y-69275000D03*
X212850000Y-69275000D03*
X212850000Y-75000000D03*
X212200000Y-75000000D03*
X211550000Y-75000000D03*
X210900000Y-75000000D03*
X210250000Y-75000000D03*
X209600000Y-75000000D03*
X208950000Y-75000000D03*
X208300000Y-75000000D03*
X207650000Y-75000000D03*
X207000000Y-75000000D03*
%TD*%
%TO.C,U78*%
X185000000Y-82275000D03*
X185650000Y-82275000D03*
X186300000Y-82275000D03*
X186950000Y-82275000D03*
X187600000Y-82275000D03*
X188250000Y-82275000D03*
X188900000Y-82275000D03*
X189550000Y-82275000D03*
X190200000Y-82275000D03*
X190850000Y-82275000D03*
X190850000Y-88000000D03*
X190200000Y-88000000D03*
X189550000Y-88000000D03*
X188900000Y-88000000D03*
X188250000Y-88000000D03*
X187600000Y-88000000D03*
X186950000Y-88000000D03*
X186300000Y-88000000D03*
X185650000Y-88000000D03*
X185000000Y-88000000D03*
%TD*%
%TO.C,U12*%
X137000000Y-69275000D03*
X137650000Y-69275000D03*
X138300000Y-69275000D03*
X138950000Y-69275000D03*
X139600000Y-69275000D03*
X140250000Y-69275000D03*
X140900000Y-69275000D03*
X141550000Y-69275000D03*
X142200000Y-69275000D03*
X142850000Y-69275000D03*
X142850000Y-75000000D03*
X142200000Y-75000000D03*
X141550000Y-75000000D03*
X140900000Y-75000000D03*
X140250000Y-75000000D03*
X139600000Y-75000000D03*
X138950000Y-75000000D03*
X138300000Y-75000000D03*
X137650000Y-75000000D03*
X137000000Y-75000000D03*
%TD*%
D10*
%TO.C,U69*%
X176850000Y-100000000D03*
X176200000Y-100000000D03*
X175550000Y-100000000D03*
X174900000Y-100000000D03*
X174250000Y-100000000D03*
X173600000Y-100000000D03*
X172950000Y-100000000D03*
X172300000Y-100000000D03*
X171650000Y-100000000D03*
X171000000Y-100000000D03*
X171000000Y-94275000D03*
X171650000Y-94275000D03*
X172300000Y-94275000D03*
X172950000Y-94275000D03*
X173600000Y-94275000D03*
X174250000Y-94275000D03*
X174900000Y-94275000D03*
X175550000Y-94275000D03*
X176200000Y-94275000D03*
X176850000Y-94275000D03*
%TD*%
D11*
%TO.C,U75*%
X137000000Y-82275000D03*
X137650000Y-82275000D03*
X138300000Y-82275000D03*
X138950000Y-82275000D03*
X139600000Y-82275000D03*
X140250000Y-82275000D03*
X140900000Y-82275000D03*
X141550000Y-82275000D03*
X142200000Y-82275000D03*
X142850000Y-82275000D03*
X142850000Y-88000000D03*
X142200000Y-88000000D03*
X141550000Y-88000000D03*
X140900000Y-88000000D03*
X140250000Y-88000000D03*
X139600000Y-88000000D03*
X138950000Y-88000000D03*
X138300000Y-88000000D03*
X137650000Y-88000000D03*
X137000000Y-88000000D03*
%TD*%
D12*
%TO.C,C23*%
X156750000Y-82037500D03*
X156750000Y-79962500D03*
%TD*%
D11*
%TO.C,U39*%
X178550000Y-104887500D03*
X179200000Y-104887500D03*
X179850000Y-104887500D03*
X180500000Y-104887500D03*
X181150000Y-104887500D03*
X181800000Y-104887500D03*
X182450000Y-104887500D03*
X182450000Y-110612500D03*
X181800000Y-110612500D03*
X181150000Y-110612500D03*
X180500000Y-110612500D03*
X179850000Y-110612500D03*
X179200000Y-110612500D03*
X178550000Y-110612500D03*
%TD*%
D13*
%TO.C,C96*%
X37000000Y-106962500D03*
X37000000Y-109037500D03*
%TD*%
%TO.C,C8*%
X203500000Y-112962500D03*
X203500000Y-115037500D03*
%TD*%
D11*
%TO.C,U71*%
X93000000Y-82275000D03*
X93650000Y-82275000D03*
X94300000Y-82275000D03*
X94950000Y-82275000D03*
X95600000Y-82275000D03*
X96250000Y-82275000D03*
X96900000Y-82275000D03*
X97550000Y-82275000D03*
X98200000Y-82275000D03*
X98850000Y-82275000D03*
X98850000Y-88000000D03*
X98200000Y-88000000D03*
X97550000Y-88000000D03*
X96900000Y-88000000D03*
X96250000Y-88000000D03*
X95600000Y-88000000D03*
X94950000Y-88000000D03*
X94300000Y-88000000D03*
X93650000Y-88000000D03*
X93000000Y-88000000D03*
%TD*%
%TO.C,U74*%
X126000000Y-82275000D03*
X126650000Y-82275000D03*
X127300000Y-82275000D03*
X127950000Y-82275000D03*
X128600000Y-82275000D03*
X129250000Y-82275000D03*
X129900000Y-82275000D03*
X130550000Y-82275000D03*
X131200000Y-82275000D03*
X131850000Y-82275000D03*
X131850000Y-88000000D03*
X131200000Y-88000000D03*
X130550000Y-88000000D03*
X129900000Y-88000000D03*
X129250000Y-88000000D03*
X128600000Y-88000000D03*
X127950000Y-88000000D03*
X127300000Y-88000000D03*
X126650000Y-88000000D03*
X126000000Y-88000000D03*
%TD*%
%TO.C,U82*%
X229000000Y-82275000D03*
X229650000Y-82275000D03*
X230300000Y-82275000D03*
X230950000Y-82275000D03*
X231600000Y-82275000D03*
X232250000Y-82275000D03*
X232900000Y-82275000D03*
X233550000Y-82275000D03*
X234200000Y-82275000D03*
X234850000Y-82275000D03*
X234850000Y-88000000D03*
X234200000Y-88000000D03*
X233550000Y-88000000D03*
X232900000Y-88000000D03*
X232250000Y-88000000D03*
X231600000Y-88000000D03*
X230950000Y-88000000D03*
X230300000Y-88000000D03*
X229650000Y-88000000D03*
X229000000Y-88000000D03*
%TD*%
%TO.C,U76*%
X148000000Y-82275000D03*
X148650000Y-82275000D03*
X149300000Y-82275000D03*
X149950000Y-82275000D03*
X150600000Y-82275000D03*
X151250000Y-82275000D03*
X151900000Y-82275000D03*
X152550000Y-82275000D03*
X153200000Y-82275000D03*
X153850000Y-82275000D03*
X153850000Y-88000000D03*
X153200000Y-88000000D03*
X152550000Y-88000000D03*
X151900000Y-88000000D03*
X151250000Y-88000000D03*
X150600000Y-88000000D03*
X149950000Y-88000000D03*
X149300000Y-88000000D03*
X148650000Y-88000000D03*
X148000000Y-88000000D03*
%TD*%
%TO.C,U85*%
X262000000Y-82275000D03*
X262650000Y-82275000D03*
X263300000Y-82275000D03*
X263950000Y-82275000D03*
X264600000Y-82275000D03*
X265250000Y-82275000D03*
X265900000Y-82275000D03*
X266550000Y-82275000D03*
X267200000Y-82275000D03*
X267850000Y-82275000D03*
X267850000Y-88000000D03*
X267200000Y-88000000D03*
X266550000Y-88000000D03*
X265900000Y-88000000D03*
X265250000Y-88000000D03*
X264600000Y-88000000D03*
X263950000Y-88000000D03*
X263300000Y-88000000D03*
X262650000Y-88000000D03*
X262000000Y-88000000D03*
%TD*%
%TO.C,U73*%
X115000000Y-82275000D03*
X115650000Y-82275000D03*
X116300000Y-82275000D03*
X116950000Y-82275000D03*
X117600000Y-82275000D03*
X118250000Y-82275000D03*
X118900000Y-82275000D03*
X119550000Y-82275000D03*
X120200000Y-82275000D03*
X120850000Y-82275000D03*
X120850000Y-88000000D03*
X120200000Y-88000000D03*
X119550000Y-88000000D03*
X118900000Y-88000000D03*
X118250000Y-88000000D03*
X117600000Y-88000000D03*
X116950000Y-88000000D03*
X116300000Y-88000000D03*
X115650000Y-88000000D03*
X115000000Y-88000000D03*
%TD*%
%TO.C,U81*%
X218000000Y-82275000D03*
X218650000Y-82275000D03*
X219300000Y-82275000D03*
X219950000Y-82275000D03*
X220600000Y-82275000D03*
X221250000Y-82275000D03*
X221900000Y-82275000D03*
X222550000Y-82275000D03*
X223200000Y-82275000D03*
X223850000Y-82275000D03*
X223850000Y-88000000D03*
X223200000Y-88000000D03*
X222550000Y-88000000D03*
X221900000Y-88000000D03*
X221250000Y-88000000D03*
X220600000Y-88000000D03*
X219950000Y-88000000D03*
X219300000Y-88000000D03*
X218650000Y-88000000D03*
X218000000Y-88000000D03*
%TD*%
%TO.C,U11*%
X126000000Y-69275000D03*
X126650000Y-69275000D03*
X127300000Y-69275000D03*
X127950000Y-69275000D03*
X128600000Y-69275000D03*
X129250000Y-69275000D03*
X129900000Y-69275000D03*
X130550000Y-69275000D03*
X131200000Y-69275000D03*
X131850000Y-69275000D03*
X131850000Y-75000000D03*
X131200000Y-75000000D03*
X130550000Y-75000000D03*
X129900000Y-75000000D03*
X129250000Y-75000000D03*
X128600000Y-75000000D03*
X127950000Y-75000000D03*
X127300000Y-75000000D03*
X126650000Y-75000000D03*
X126000000Y-75000000D03*
%TD*%
D12*
%TO.C,C36*%
X101750000Y-81787500D03*
X101750000Y-79712500D03*
%TD*%
D15*
%TO.C,U31*%
X176862500Y-69050000D03*
X176862500Y-69700000D03*
X176862500Y-70350000D03*
X176862500Y-71000000D03*
X176862500Y-71650000D03*
X176862500Y-72300000D03*
X176862500Y-72950000D03*
X171137500Y-72950000D03*
X171137500Y-72300000D03*
X171137500Y-71650000D03*
X171137500Y-71000000D03*
X171137500Y-70350000D03*
X171137500Y-69700000D03*
X171137500Y-69050000D03*
%TD*%
D13*
%TO.C,C75*%
X237750000Y-88212500D03*
X237750000Y-90287500D03*
%TD*%
D12*
%TO.C,C82*%
X260250000Y-73787500D03*
X260250000Y-71712500D03*
%TD*%
%TO.C,C95*%
X175750000Y-112287500D03*
X175750000Y-110212500D03*
%TD*%
D11*
%TO.C,U79*%
X196000000Y-82275000D03*
X196650000Y-82275000D03*
X197300000Y-82275000D03*
X197950000Y-82275000D03*
X198600000Y-82275000D03*
X199250000Y-82275000D03*
X199900000Y-82275000D03*
X200550000Y-82275000D03*
X201200000Y-82275000D03*
X201850000Y-82275000D03*
X201850000Y-88000000D03*
X201200000Y-88000000D03*
X200550000Y-88000000D03*
X199900000Y-88000000D03*
X199250000Y-88000000D03*
X198600000Y-88000000D03*
X197950000Y-88000000D03*
X197300000Y-88000000D03*
X196650000Y-88000000D03*
X196000000Y-88000000D03*
%TD*%
D16*
%TO.C,C69*%
X205537500Y-88750000D03*
X203462500Y-88750000D03*
%TD*%
D11*
%TO.C,U77*%
X159000000Y-82275000D03*
X159650000Y-82275000D03*
X160300000Y-82275000D03*
X160950000Y-82275000D03*
X161600000Y-82275000D03*
X162250000Y-82275000D03*
X162900000Y-82275000D03*
X163550000Y-82275000D03*
X164200000Y-82275000D03*
X164850000Y-82275000D03*
X164850000Y-88000000D03*
X164200000Y-88000000D03*
X163550000Y-88000000D03*
X162900000Y-88000000D03*
X162250000Y-88000000D03*
X161600000Y-88000000D03*
X160950000Y-88000000D03*
X160300000Y-88000000D03*
X159650000Y-88000000D03*
X159000000Y-88000000D03*
%TD*%
D13*
%TO.C,C77*%
X249250000Y-87962500D03*
X249250000Y-90037500D03*
%TD*%
D11*
%TO.C,U83*%
X240000000Y-82275000D03*
X240650000Y-82275000D03*
X241300000Y-82275000D03*
X241950000Y-82275000D03*
X242600000Y-82275000D03*
X243250000Y-82275000D03*
X243900000Y-82275000D03*
X244550000Y-82275000D03*
X245200000Y-82275000D03*
X245850000Y-82275000D03*
X245850000Y-88000000D03*
X245200000Y-88000000D03*
X244550000Y-88000000D03*
X243900000Y-88000000D03*
X243250000Y-88000000D03*
X242600000Y-88000000D03*
X241950000Y-88000000D03*
X241300000Y-88000000D03*
X240650000Y-88000000D03*
X240000000Y-88000000D03*
%TD*%
%TO.C,U9*%
X104000000Y-69275000D03*
X104650000Y-69275000D03*
X105300000Y-69275000D03*
X105950000Y-69275000D03*
X106600000Y-69275000D03*
X107250000Y-69275000D03*
X107900000Y-69275000D03*
X108550000Y-69275000D03*
X109200000Y-69275000D03*
X109850000Y-69275000D03*
X109850000Y-75000000D03*
X109200000Y-75000000D03*
X108550000Y-75000000D03*
X107900000Y-75000000D03*
X107250000Y-75000000D03*
X106600000Y-75000000D03*
X105950000Y-75000000D03*
X105300000Y-75000000D03*
X104650000Y-75000000D03*
X104000000Y-75000000D03*
%TD*%
%TO.C,U63*%
X251000000Y-105000000D03*
X251650000Y-105000000D03*
X252300000Y-105000000D03*
X252950000Y-105000000D03*
X253600000Y-105000000D03*
X254250000Y-105000000D03*
X254900000Y-105000000D03*
X255550000Y-105000000D03*
X256200000Y-105000000D03*
X256850000Y-105000000D03*
X256850000Y-110725000D03*
X256200000Y-110725000D03*
X255550000Y-110725000D03*
X254900000Y-110725000D03*
X254250000Y-110725000D03*
X253600000Y-110725000D03*
X252950000Y-110725000D03*
X252300000Y-110725000D03*
X251650000Y-110725000D03*
X251000000Y-110725000D03*
%TD*%
%TO.C,U14*%
X159000000Y-69275000D03*
X159650000Y-69275000D03*
X160300000Y-69275000D03*
X160950000Y-69275000D03*
X161600000Y-69275000D03*
X162250000Y-69275000D03*
X162900000Y-69275000D03*
X163550000Y-69275000D03*
X164200000Y-69275000D03*
X164850000Y-69275000D03*
X164850000Y-75000000D03*
X164200000Y-75000000D03*
X163550000Y-75000000D03*
X162900000Y-75000000D03*
X162250000Y-75000000D03*
X161600000Y-75000000D03*
X160950000Y-75000000D03*
X160300000Y-75000000D03*
X159650000Y-75000000D03*
X159000000Y-75000000D03*
%TD*%
D12*
%TO.C,C18*%
X55250000Y-98537500D03*
X55250000Y-96462500D03*
%TD*%
D11*
%TO.C,U68*%
X164000000Y-105000000D03*
X164650000Y-105000000D03*
X165300000Y-105000000D03*
X165950000Y-105000000D03*
X166600000Y-105000000D03*
X167250000Y-105000000D03*
X167900000Y-105000000D03*
X168550000Y-105000000D03*
X169200000Y-105000000D03*
X169850000Y-105000000D03*
X169850000Y-110725000D03*
X169200000Y-110725000D03*
X168550000Y-110725000D03*
X167900000Y-110725000D03*
X167250000Y-110725000D03*
X166600000Y-110725000D03*
X165950000Y-110725000D03*
X165300000Y-110725000D03*
X164650000Y-110725000D03*
X164000000Y-110725000D03*
%TD*%
M02*
