%TF.GenerationSoftware,KiCad,Pcbnew,9.0.2+dfsg-1*%
%TF.CreationDate,2026-06-16T21:06:13+01:00*%
%TF.ProjectId,CardTester,43617264-5465-4737-9465-722e6b696361,rev?*%
%TF.SameCoordinates,Original*%
%TF.FileFunction,Soldermask,Top*%
%TF.FilePolarity,Negative*%
%FSLAX46Y46*%
G04 Gerber Fmt 4.6, Leading zero omitted, Abs format (unit mm)*
G04 Created by KiCad (PCBNEW 9.0.2+dfsg-1) date 2026-06-16 21:06:13*
%MOMM*%
%LPD*%
G01*
G04 APERTURE LIST*
G04 Aperture macros list*
%AMRoundRect*
0 Rectangle with rounded corners*
0 $1 Rounding radius*
0 $2 $3 $4 $5 $6 $7 $8 $9 X,Y pos of 4 corners*
0 Add a 4 corners polygon primitive as box body*
4,1,4,$2,$3,$4,$5,$6,$7,$8,$9,$2,$3,0*
0 Add four circle primitives for the rounded corners*
1,1,$1+$1,$2,$3*
1,1,$1+$1,$4,$5*
1,1,$1+$1,$6,$7*
1,1,$1+$1,$8,$9*
0 Add four rect primitives between the rounded corners*
20,1,$1+$1,$2,$3,$4,$5,0*
20,1,$1+$1,$4,$5,$6,$7,0*
20,1,$1+$1,$6,$7,$8,$9,0*
20,1,$1+$1,$8,$9,$2,$3,0*%
%AMFreePoly0*
4,1,37,0.603843,0.796157,0.639018,0.796157,0.711114,0.766294,0.766294,0.711114,0.796157,0.639018,0.796157,0.603843,0.800000,0.600000,0.800000,-0.600000,0.796157,-0.603843,0.796157,-0.639018,0.766294,-0.711114,0.711114,-0.766294,0.639018,-0.796157,0.603843,-0.796157,0.600000,-0.800000,0.000000,-0.800000,0.000000,-0.796148,-0.078414,-0.796148,-0.232228,-0.765552,-0.377117,-0.705537,
-0.507515,-0.618408,-0.618408,-0.507515,-0.705537,-0.377117,-0.765552,-0.232228,-0.796148,-0.078414,-0.796148,0.078414,-0.765552,0.232228,-0.705537,0.377117,-0.618408,0.507515,-0.507515,0.618408,-0.377117,0.705537,-0.232228,0.765552,-0.078414,0.796148,0.000000,0.796148,0.000000,0.800000,0.600000,0.800000,0.603843,0.796157,0.603843,0.796157,$1*%
%AMFreePoly1*
4,1,37,0.000000,0.796148,0.078414,0.796148,0.232228,0.765552,0.377117,0.705537,0.507515,0.618408,0.618408,0.507515,0.705537,0.377117,0.765552,0.232228,0.796148,0.078414,0.796148,-0.078414,0.765552,-0.232228,0.705537,-0.377117,0.618408,-0.507515,0.507515,-0.618408,0.377117,-0.705537,0.232228,-0.765552,0.078414,-0.796148,0.000000,-0.796148,0.000000,-0.800000,-0.600000,-0.800000,
-0.603843,-0.796157,-0.639018,-0.796157,-0.711114,-0.766294,-0.766294,-0.711114,-0.796157,-0.639018,-0.796157,-0.603843,-0.800000,-0.600000,-0.800000,0.600000,-0.796157,0.603843,-0.796157,0.639018,-0.766294,0.711114,-0.711114,0.766294,-0.639018,0.796157,-0.603843,0.796157,-0.600000,0.800000,0.000000,0.800000,0.000000,0.796148,0.000000,0.796148,$1*%
G04 Aperture macros list end*
%ADD10RoundRect,0.250000X-0.337500X-0.475000X0.337500X-0.475000X0.337500X0.475000X-0.337500X0.475000X0*%
%ADD11RoundRect,0.250000X0.475000X-0.337500X0.475000X0.337500X-0.475000X0.337500X-0.475000X-0.337500X0*%
%ADD12RoundRect,0.100000X0.100000X-0.637500X0.100000X0.637500X-0.100000X0.637500X-0.100000X-0.637500X0*%
%ADD13C,3.200000*%
%ADD14RoundRect,0.250000X-0.475000X0.337500X-0.475000X-0.337500X0.475000X-0.337500X0.475000X0.337500X0*%
%ADD15C,2.350000*%
%ADD16R,1.200000X1.200000*%
%ADD17C,1.200000*%
%ADD18RoundRect,0.250000X0.337500X0.475000X-0.337500X0.475000X-0.337500X-0.475000X0.337500X-0.475000X0*%
%ADD19RoundRect,0.100000X-0.100000X0.637500X-0.100000X-0.637500X0.100000X-0.637500X0.100000X0.637500X0*%
%ADD20RoundRect,0.250000X0.574524X0.097227X0.097227X0.574524X-0.574524X-0.097227X-0.097227X-0.574524X0*%
%ADD21RoundRect,0.100000X0.637500X0.100000X-0.637500X0.100000X-0.637500X-0.100000X0.637500X-0.100000X0*%
%ADD22RoundRect,0.250000X0.450000X-0.325000X0.450000X0.325000X-0.450000X0.325000X-0.450000X-0.325000X0*%
%ADD23RoundRect,0.200000X0.600000X0.600000X-0.600000X0.600000X-0.600000X-0.600000X0.600000X-0.600000X0*%
%ADD24C,1.600000*%
%ADD25FreePoly0,180.000000*%
%ADD26FreePoly1,180.000000*%
%ADD27C,2.000000*%
%ADD28R,1.600000X1.600000*%
%ADD29C,4.000000*%
%ADD30C,0.450000*%
%ADD31C,1.000000*%
G04 APERTURE END LIST*
D10*
%TO.C,C45*%
X105962500Y-76500000D03*
X108037500Y-76500000D03*
%TD*%
D11*
%TO.C,C68*%
X91250000Y-87787500D03*
X91250000Y-85712500D03*
%TD*%
D10*
%TO.C,C64*%
X230962500Y-76750000D03*
X233037500Y-76750000D03*
%TD*%
D11*
%TO.C,C25*%
X236750000Y-81287500D03*
X236750000Y-79212500D03*
%TD*%
%TO.C,C12*%
X100000000Y-104825000D03*
X100000000Y-102750000D03*
%TD*%
D12*
%TO.C,U24*%
X196000000Y-123725000D03*
X196650000Y-123725000D03*
X197300000Y-123725000D03*
X197950000Y-123725000D03*
X198600000Y-123725000D03*
X199250000Y-123725000D03*
X199900000Y-123725000D03*
X200550000Y-123725000D03*
X201200000Y-123725000D03*
X201850000Y-123725000D03*
X201850000Y-118000000D03*
X201200000Y-118000000D03*
X200550000Y-118000000D03*
X199900000Y-118000000D03*
X199250000Y-118000000D03*
X198600000Y-118000000D03*
X197950000Y-118000000D03*
X197300000Y-118000000D03*
X196650000Y-118000000D03*
X196000000Y-118000000D03*
%TD*%
D13*
%TO.C,H3*%
X271000000Y-135000000D03*
%TD*%
D12*
%TO.C,U52*%
X218000000Y-88000000D03*
X218650000Y-88000000D03*
X219300000Y-88000000D03*
X219950000Y-88000000D03*
X220600000Y-88000000D03*
X221250000Y-88000000D03*
X221900000Y-88000000D03*
X222550000Y-88000000D03*
X223200000Y-88000000D03*
X223850000Y-88000000D03*
X223850000Y-82275000D03*
X223200000Y-82275000D03*
X222550000Y-82275000D03*
X221900000Y-82275000D03*
X221250000Y-82275000D03*
X220600000Y-82275000D03*
X219950000Y-82275000D03*
X219300000Y-82275000D03*
X218650000Y-82275000D03*
X218000000Y-82275000D03*
%TD*%
D10*
%TO.C,C42*%
X127962500Y-76500000D03*
X130037500Y-76500000D03*
%TD*%
D11*
%TO.C,C87*%
X90000000Y-114575000D03*
X90000000Y-112500000D03*
%TD*%
D14*
%TO.C,C53*%
X91500000Y-76712500D03*
X91500000Y-78787500D03*
%TD*%
D10*
%TO.C,C93*%
X132712500Y-110500000D03*
X134787500Y-110500000D03*
%TD*%
D15*
%TO.C,N2*%
X196650000Y-96250000D03*
X269800000Y-96250000D03*
D16*
X185000000Y-95000000D03*
D17*
X186000000Y-93000000D03*
X187000000Y-95000000D03*
X188000000Y-93000000D03*
X189000000Y-95000000D03*
X190000000Y-93000000D03*
X191000000Y-95000000D03*
X192000000Y-93000000D03*
X193000000Y-95000000D03*
X194000000Y-93000000D03*
X195000000Y-95000000D03*
X198000000Y-93000000D03*
X199000000Y-95000000D03*
X200000000Y-93000000D03*
X201000000Y-95000000D03*
X202000000Y-93000000D03*
X203000000Y-95000000D03*
X204000000Y-93000000D03*
X205000000Y-95000000D03*
X206000000Y-93000000D03*
X207000000Y-95000000D03*
X208000000Y-93000000D03*
X209000000Y-95000000D03*
X210000000Y-93000000D03*
X211000000Y-95000000D03*
X212000000Y-93000000D03*
X213000000Y-95000000D03*
X214000000Y-93000000D03*
X215000000Y-95000000D03*
X216000000Y-93000000D03*
X217000000Y-95000000D03*
X218000000Y-93000000D03*
X219000000Y-95000000D03*
X220000000Y-93000000D03*
X221000000Y-95000000D03*
X222000000Y-93000000D03*
X223000000Y-95000000D03*
X224000000Y-93000000D03*
X225000000Y-95000000D03*
X226000000Y-93000000D03*
X227000000Y-95000000D03*
X228000000Y-93000000D03*
X229000000Y-95000000D03*
X230000000Y-93000000D03*
X231000000Y-95000000D03*
X232000000Y-93000000D03*
X233000000Y-95000000D03*
X234000000Y-93000000D03*
X235000000Y-95000000D03*
X236000000Y-93000000D03*
X237000000Y-95000000D03*
X238000000Y-93000000D03*
X239000000Y-95000000D03*
X240000000Y-93000000D03*
X241000000Y-95000000D03*
X242000000Y-93000000D03*
X243000000Y-95000000D03*
X244000000Y-93000000D03*
X245000000Y-95000000D03*
X246000000Y-93000000D03*
X247000000Y-95000000D03*
X248000000Y-93000000D03*
X249000000Y-95000000D03*
X250000000Y-93000000D03*
X251000000Y-95000000D03*
X252000000Y-93000000D03*
X253000000Y-95000000D03*
X254000000Y-93000000D03*
X255000000Y-95000000D03*
X256000000Y-93000000D03*
X257000000Y-95000000D03*
X258000000Y-93000000D03*
X259000000Y-95000000D03*
X260000000Y-93000000D03*
X261000000Y-95000000D03*
X262000000Y-93000000D03*
X263000000Y-95000000D03*
X264000000Y-93000000D03*
X265000000Y-95000000D03*
X266000000Y-93000000D03*
X267000000Y-95000000D03*
X268000000Y-93000000D03*
X185000000Y-97500000D03*
X186000000Y-99500000D03*
X187000000Y-97500000D03*
X188000000Y-99500000D03*
X189000000Y-97500000D03*
X190000000Y-99500000D03*
X191000000Y-97500000D03*
X192000000Y-99500000D03*
X193000000Y-97500000D03*
X194000000Y-99500000D03*
X195000000Y-97500000D03*
X198000000Y-99500000D03*
X199000000Y-97500000D03*
X200000000Y-99500000D03*
X201000000Y-97500000D03*
X202000000Y-99500000D03*
X203000000Y-97500000D03*
X204000000Y-99500000D03*
X205000000Y-97500000D03*
X206000000Y-99500000D03*
X207000000Y-97500000D03*
X208000000Y-99500000D03*
X209000000Y-97500000D03*
X210000000Y-99500000D03*
X211000000Y-97500000D03*
X212000000Y-99500000D03*
X213000000Y-97500000D03*
X214000000Y-99500000D03*
X215000000Y-97500000D03*
X216000000Y-99500000D03*
X217000000Y-97500000D03*
X218000000Y-99500000D03*
X219000000Y-97500000D03*
X220000000Y-99500000D03*
X221000000Y-97500000D03*
X222000000Y-99500000D03*
X223000000Y-97500000D03*
X224000000Y-99500000D03*
X225000000Y-97500000D03*
X226000000Y-99500000D03*
X227000000Y-97500000D03*
X228000000Y-99500000D03*
X229000000Y-97500000D03*
X230000000Y-99500000D03*
X231000000Y-97500000D03*
X232000000Y-99500000D03*
X233000000Y-97500000D03*
X234000000Y-99500000D03*
X235000000Y-97500000D03*
X236000000Y-99500000D03*
X237000000Y-97500000D03*
X238000000Y-99500000D03*
X239000000Y-97500000D03*
X240000000Y-99500000D03*
X241000000Y-97500000D03*
X242000000Y-99500000D03*
X243000000Y-97500000D03*
X244000000Y-99500000D03*
X245000000Y-97500000D03*
X246000000Y-99500000D03*
X247000000Y-97500000D03*
X248000000Y-99500000D03*
X249000000Y-97500000D03*
X250000000Y-99500000D03*
X251000000Y-97500000D03*
X252000000Y-99500000D03*
X253000000Y-97500000D03*
X254000000Y-99500000D03*
X255000000Y-97500000D03*
X256000000Y-99500000D03*
X257000000Y-97500000D03*
X258000000Y-99500000D03*
X259000000Y-97500000D03*
X260000000Y-99500000D03*
X261000000Y-97500000D03*
X262000000Y-99500000D03*
X263000000Y-97500000D03*
X264000000Y-99500000D03*
X265000000Y-97500000D03*
X266000000Y-99500000D03*
X267000000Y-97500000D03*
X268000000Y-99500000D03*
%TD*%
D11*
%TO.C,C71*%
X102250000Y-89037500D03*
X102250000Y-86962500D03*
%TD*%
D14*
%TO.C,C48*%
X157000000Y-76925000D03*
X157000000Y-79000000D03*
%TD*%
D12*
%TO.C,U51*%
X207000000Y-88000000D03*
X207650000Y-88000000D03*
X208300000Y-88000000D03*
X208950000Y-88000000D03*
X209600000Y-88000000D03*
X210250000Y-88000000D03*
X210900000Y-88000000D03*
X211550000Y-88000000D03*
X212200000Y-88000000D03*
X212850000Y-88000000D03*
X212850000Y-82275000D03*
X212200000Y-82275000D03*
X211550000Y-82275000D03*
X210900000Y-82275000D03*
X210250000Y-82275000D03*
X209600000Y-82275000D03*
X208950000Y-82275000D03*
X208300000Y-82275000D03*
X207650000Y-82275000D03*
X207000000Y-82275000D03*
%TD*%
D18*
%TO.C,C83*%
X124537500Y-86500000D03*
X122462500Y-86500000D03*
%TD*%
D10*
%TO.C,C70*%
X209212500Y-76500000D03*
X211287500Y-76500000D03*
%TD*%
D18*
%TO.C,C14*%
X122575000Y-103000000D03*
X120500000Y-103000000D03*
%TD*%
D12*
%TO.C,U6*%
X125000000Y-123725000D03*
X125650000Y-123725000D03*
X126300000Y-123725000D03*
X126950000Y-123725000D03*
X127600000Y-123725000D03*
X128250000Y-123725000D03*
X128900000Y-123725000D03*
X129550000Y-123725000D03*
X130200000Y-123725000D03*
X130850000Y-123725000D03*
X130850000Y-118000000D03*
X130200000Y-118000000D03*
X129550000Y-118000000D03*
X128900000Y-118000000D03*
X128250000Y-118000000D03*
X127600000Y-118000000D03*
X126950000Y-118000000D03*
X126300000Y-118000000D03*
X125650000Y-118000000D03*
X125000000Y-118000000D03*
%TD*%
D19*
%TO.C,U35*%
X176950000Y-104887500D03*
X176300000Y-104887500D03*
X175650000Y-104887500D03*
X175000000Y-104887500D03*
X174350000Y-104887500D03*
X173700000Y-104887500D03*
X173050000Y-104887500D03*
X173050000Y-110612500D03*
X173700000Y-110612500D03*
X174350000Y-110612500D03*
X175000000Y-110612500D03*
X175650000Y-110612500D03*
X176300000Y-110612500D03*
X176950000Y-110612500D03*
%TD*%
D15*
%TO.C,N1*%
X93650000Y-96250000D03*
X166800000Y-96250000D03*
D16*
X82000000Y-95000000D03*
D17*
X83000000Y-93000000D03*
X84000000Y-95000000D03*
X85000000Y-93000000D03*
X86000000Y-95000000D03*
X87000000Y-93000000D03*
X88000000Y-95000000D03*
X89000000Y-93000000D03*
X90000000Y-95000000D03*
X91000000Y-93000000D03*
X92000000Y-95000000D03*
X95000000Y-93000000D03*
X96000000Y-95000000D03*
X97000000Y-93000000D03*
X98000000Y-95000000D03*
X99000000Y-93000000D03*
X100000000Y-95000000D03*
X101000000Y-93000000D03*
X102000000Y-95000000D03*
X103000000Y-93000000D03*
X104000000Y-95000000D03*
X105000000Y-93000000D03*
X106000000Y-95000000D03*
X107000000Y-93000000D03*
X108000000Y-95000000D03*
X109000000Y-93000000D03*
X110000000Y-95000000D03*
X111000000Y-93000000D03*
X112000000Y-95000000D03*
X113000000Y-93000000D03*
X114000000Y-95000000D03*
X115000000Y-93000000D03*
X116000000Y-95000000D03*
X117000000Y-93000000D03*
X118000000Y-95000000D03*
X119000000Y-93000000D03*
X120000000Y-95000000D03*
X121000000Y-93000000D03*
X122000000Y-95000000D03*
X123000000Y-93000000D03*
X124000000Y-95000000D03*
X125000000Y-93000000D03*
X126000000Y-95000000D03*
X127000000Y-93000000D03*
X128000000Y-95000000D03*
X129000000Y-93000000D03*
X130000000Y-95000000D03*
X131000000Y-93000000D03*
X132000000Y-95000000D03*
X133000000Y-93000000D03*
X134000000Y-95000000D03*
X135000000Y-93000000D03*
X136000000Y-95000000D03*
X137000000Y-93000000D03*
X138000000Y-95000000D03*
X139000000Y-93000000D03*
X140000000Y-95000000D03*
X141000000Y-93000000D03*
X142000000Y-95000000D03*
X143000000Y-93000000D03*
X144000000Y-95000000D03*
X145000000Y-93000000D03*
X146000000Y-95000000D03*
X147000000Y-93000000D03*
X148000000Y-95000000D03*
X149000000Y-93000000D03*
X150000000Y-95000000D03*
X151000000Y-93000000D03*
X152000000Y-95000000D03*
X153000000Y-93000000D03*
X154000000Y-95000000D03*
X155000000Y-93000000D03*
X156000000Y-95000000D03*
X157000000Y-93000000D03*
X158000000Y-95000000D03*
X159000000Y-93000000D03*
X160000000Y-95000000D03*
X161000000Y-93000000D03*
X162000000Y-95000000D03*
X163000000Y-93000000D03*
X164000000Y-95000000D03*
X165000000Y-93000000D03*
X82000000Y-97500000D03*
X83000000Y-99500000D03*
X84000000Y-97500000D03*
X85000000Y-99500000D03*
X86000000Y-97500000D03*
X87000000Y-99500000D03*
X88000000Y-97500000D03*
X89000000Y-99500000D03*
X90000000Y-97500000D03*
X91000000Y-99500000D03*
X92000000Y-97500000D03*
X95000000Y-99500000D03*
X96000000Y-97500000D03*
X97000000Y-99500000D03*
X98000000Y-97500000D03*
X99000000Y-99500000D03*
X100000000Y-97500000D03*
X101000000Y-99500000D03*
X102000000Y-97500000D03*
X103000000Y-99500000D03*
X104000000Y-97500000D03*
X105000000Y-99500000D03*
X106000000Y-97500000D03*
X107000000Y-99500000D03*
X108000000Y-97500000D03*
X109000000Y-99500000D03*
X110000000Y-97500000D03*
X111000000Y-99500000D03*
X112000000Y-97500000D03*
X113000000Y-99500000D03*
X114000000Y-97500000D03*
X115000000Y-99500000D03*
X116000000Y-97500000D03*
X117000000Y-99500000D03*
X118000000Y-97500000D03*
X119000000Y-99500000D03*
X120000000Y-97500000D03*
X121000000Y-99500000D03*
X122000000Y-97500000D03*
X123000000Y-99500000D03*
X124000000Y-97500000D03*
X125000000Y-99500000D03*
X126000000Y-97500000D03*
X127000000Y-99500000D03*
X128000000Y-97500000D03*
X129000000Y-99500000D03*
X130000000Y-97500000D03*
X131000000Y-99500000D03*
X132000000Y-97500000D03*
X133000000Y-99500000D03*
X134000000Y-97500000D03*
X135000000Y-99500000D03*
X136000000Y-97500000D03*
X137000000Y-99500000D03*
X138000000Y-97500000D03*
X139000000Y-99500000D03*
X140000000Y-97500000D03*
X141000000Y-99500000D03*
X142000000Y-97500000D03*
X143000000Y-99500000D03*
X144000000Y-97500000D03*
X145000000Y-99500000D03*
X146000000Y-97500000D03*
X147000000Y-99500000D03*
X148000000Y-97500000D03*
X149000000Y-99500000D03*
X150000000Y-97500000D03*
X151000000Y-99500000D03*
X152000000Y-97500000D03*
X153000000Y-99500000D03*
X154000000Y-97500000D03*
X155000000Y-99500000D03*
X156000000Y-97500000D03*
X157000000Y-99500000D03*
X158000000Y-97500000D03*
X159000000Y-99500000D03*
X160000000Y-97500000D03*
X161000000Y-99500000D03*
X162000000Y-97500000D03*
X163000000Y-99500000D03*
X164000000Y-97500000D03*
X165000000Y-99500000D03*
%TD*%
D14*
%TO.C,C54*%
X80500000Y-76212500D03*
X80500000Y-78287500D03*
%TD*%
D10*
%TO.C,C30*%
X141462500Y-109750000D03*
X143537500Y-109750000D03*
%TD*%
D11*
%TO.C,C44*%
X204750000Y-125037500D03*
X204750000Y-122962500D03*
%TD*%
D12*
%TO.C,U26*%
X218000000Y-123725000D03*
X218650000Y-123725000D03*
X219300000Y-123725000D03*
X219950000Y-123725000D03*
X220600000Y-123725000D03*
X221250000Y-123725000D03*
X221900000Y-123725000D03*
X222550000Y-123725000D03*
X223200000Y-123725000D03*
X223850000Y-123725000D03*
X223850000Y-118000000D03*
X223200000Y-118000000D03*
X222550000Y-118000000D03*
X221900000Y-118000000D03*
X221250000Y-118000000D03*
X220600000Y-118000000D03*
X219950000Y-118000000D03*
X219300000Y-118000000D03*
X218650000Y-118000000D03*
X218000000Y-118000000D03*
%TD*%
D11*
%TO.C,C16*%
X226500000Y-82000000D03*
X226500000Y-79925000D03*
%TD*%
D18*
%TO.C,C86*%
X135537500Y-87250000D03*
X133462500Y-87250000D03*
%TD*%
D10*
%TO.C,C94*%
X164962500Y-110000000D03*
X167037500Y-110000000D03*
%TD*%
D12*
%TO.C,U41*%
X82000000Y-88000000D03*
X82650000Y-88000000D03*
X83300000Y-88000000D03*
X83950000Y-88000000D03*
X84600000Y-88000000D03*
X85250000Y-88000000D03*
X85900000Y-88000000D03*
X86550000Y-88000000D03*
X87200000Y-88000000D03*
X87850000Y-88000000D03*
X87850000Y-82275000D03*
X87200000Y-82275000D03*
X86550000Y-82275000D03*
X85900000Y-82275000D03*
X85250000Y-82275000D03*
X84600000Y-82275000D03*
X83950000Y-82275000D03*
X83300000Y-82275000D03*
X82650000Y-82275000D03*
X82000000Y-82275000D03*
%TD*%
D20*
%TO.C,C1*%
X171483623Y-84233623D03*
X170016377Y-82766377D03*
%TD*%
D12*
%TO.C,U4*%
X103000000Y-123725000D03*
X103650000Y-123725000D03*
X104300000Y-123725000D03*
X104950000Y-123725000D03*
X105600000Y-123725000D03*
X106250000Y-123725000D03*
X106900000Y-123725000D03*
X107550000Y-123725000D03*
X108200000Y-123725000D03*
X108850000Y-123725000D03*
X108850000Y-118000000D03*
X108200000Y-118000000D03*
X107550000Y-118000000D03*
X106900000Y-118000000D03*
X106250000Y-118000000D03*
X105600000Y-118000000D03*
X104950000Y-118000000D03*
X104300000Y-118000000D03*
X103650000Y-118000000D03*
X103000000Y-118000000D03*
%TD*%
D10*
%TO.C,C80*%
X242212500Y-76750000D03*
X244287500Y-76750000D03*
%TD*%
D11*
%TO.C,C43*%
X248500000Y-104787500D03*
X248500000Y-102712500D03*
%TD*%
D12*
%TO.C,U50*%
X196000000Y-88000000D03*
X196650000Y-88000000D03*
X197300000Y-88000000D03*
X197950000Y-88000000D03*
X198600000Y-88000000D03*
X199250000Y-88000000D03*
X199900000Y-88000000D03*
X200550000Y-88000000D03*
X201200000Y-88000000D03*
X201850000Y-88000000D03*
X201850000Y-82275000D03*
X201200000Y-82275000D03*
X200550000Y-82275000D03*
X199900000Y-82275000D03*
X199250000Y-82275000D03*
X198600000Y-82275000D03*
X197950000Y-82275000D03*
X197300000Y-82275000D03*
X196650000Y-82275000D03*
X196000000Y-82275000D03*
%TD*%
D14*
%TO.C,C51*%
X135250000Y-76962500D03*
X135250000Y-79037500D03*
%TD*%
D12*
%TO.C,U5*%
X114000000Y-123725000D03*
X114650000Y-123725000D03*
X115300000Y-123725000D03*
X115950000Y-123725000D03*
X116600000Y-123725000D03*
X117250000Y-123725000D03*
X117900000Y-123725000D03*
X118550000Y-123725000D03*
X119200000Y-123725000D03*
X119850000Y-123725000D03*
X119850000Y-118000000D03*
X119200000Y-118000000D03*
X118550000Y-118000000D03*
X117900000Y-118000000D03*
X117250000Y-118000000D03*
X116600000Y-118000000D03*
X115950000Y-118000000D03*
X115300000Y-118000000D03*
X114650000Y-118000000D03*
X114000000Y-118000000D03*
%TD*%
D21*
%TO.C,U34*%
X177862500Y-81700000D03*
X177862500Y-81050000D03*
X177862500Y-80400000D03*
X177862500Y-79750000D03*
X177862500Y-79100000D03*
X177862500Y-78450000D03*
X177862500Y-77800000D03*
X172137500Y-77800000D03*
X172137500Y-78450000D03*
X172137500Y-79100000D03*
X172137500Y-79750000D03*
X172137500Y-80400000D03*
X172137500Y-81050000D03*
X172137500Y-81700000D03*
%TD*%
D11*
%TO.C,C34*%
X259000000Y-81287500D03*
X259000000Y-79212500D03*
%TD*%
D12*
%TO.C,U27*%
X229000000Y-123725000D03*
X229650000Y-123725000D03*
X230300000Y-123725000D03*
X230950000Y-123725000D03*
X231600000Y-123725000D03*
X232250000Y-123725000D03*
X232900000Y-123725000D03*
X233550000Y-123725000D03*
X234200000Y-123725000D03*
X234850000Y-123725000D03*
X234850000Y-118000000D03*
X234200000Y-118000000D03*
X233550000Y-118000000D03*
X232900000Y-118000000D03*
X232250000Y-118000000D03*
X231600000Y-118000000D03*
X230950000Y-118000000D03*
X230300000Y-118000000D03*
X229650000Y-118000000D03*
X229000000Y-118000000D03*
%TD*%
D10*
%TO.C,C97*%
X44212500Y-110750000D03*
X46287500Y-110750000D03*
%TD*%
D12*
%TO.C,U53*%
X229000000Y-88000000D03*
X229650000Y-88000000D03*
X230300000Y-88000000D03*
X230950000Y-88000000D03*
X231600000Y-88000000D03*
X232250000Y-88000000D03*
X232900000Y-88000000D03*
X233550000Y-88000000D03*
X234200000Y-88000000D03*
X234850000Y-88000000D03*
X234850000Y-82275000D03*
X234200000Y-82275000D03*
X233550000Y-82275000D03*
X232900000Y-82275000D03*
X232250000Y-82275000D03*
X231600000Y-82275000D03*
X230950000Y-82275000D03*
X230300000Y-82275000D03*
X229650000Y-82275000D03*
X229000000Y-82275000D03*
%TD*%
D11*
%TO.C,C47*%
X193775543Y-125494990D03*
X193775543Y-123419990D03*
%TD*%
D21*
%TO.C,U38*%
X177862500Y-90900000D03*
X177862500Y-90250000D03*
X177862500Y-89600000D03*
X177862500Y-88950000D03*
X177862500Y-88300000D03*
X177862500Y-87650000D03*
X177862500Y-87000000D03*
X172137500Y-87000000D03*
X172137500Y-87650000D03*
X172137500Y-88300000D03*
X172137500Y-88950000D03*
X172137500Y-89600000D03*
X172137500Y-90250000D03*
X172137500Y-90900000D03*
%TD*%
D12*
%TO.C,U48*%
X159000000Y-88000000D03*
X159650000Y-88000000D03*
X160300000Y-88000000D03*
X160950000Y-88000000D03*
X161600000Y-88000000D03*
X162250000Y-88000000D03*
X162900000Y-88000000D03*
X163550000Y-88000000D03*
X164200000Y-88000000D03*
X164850000Y-88000000D03*
X164850000Y-82275000D03*
X164200000Y-82275000D03*
X163550000Y-82275000D03*
X162900000Y-82275000D03*
X162250000Y-82275000D03*
X161600000Y-82275000D03*
X160950000Y-82275000D03*
X160300000Y-82275000D03*
X159650000Y-82275000D03*
X159000000Y-82275000D03*
%TD*%
D22*
%TO.C,D1*%
X45000000Y-116050000D03*
X45000000Y-114000000D03*
%TD*%
D12*
%TO.C,U46*%
X137000000Y-88000000D03*
X137650000Y-88000000D03*
X138300000Y-88000000D03*
X138950000Y-88000000D03*
X139600000Y-88000000D03*
X140250000Y-88000000D03*
X140900000Y-88000000D03*
X141550000Y-88000000D03*
X142200000Y-88000000D03*
X142850000Y-88000000D03*
X142850000Y-82275000D03*
X142200000Y-82275000D03*
X141550000Y-82275000D03*
X140900000Y-82275000D03*
X140250000Y-82275000D03*
X139600000Y-82275000D03*
X138950000Y-82275000D03*
X138300000Y-82275000D03*
X137650000Y-82275000D03*
X137000000Y-82275000D03*
%TD*%
D11*
%TO.C,C56*%
X204750000Y-104825000D03*
X204750000Y-102750000D03*
%TD*%
D23*
%TO.C,U1*%
X68000000Y-118560000D03*
D24*
X68000000Y-116020000D03*
D25*
X68000000Y-113480000D03*
D24*
X68000000Y-110940000D03*
X68000000Y-108400000D03*
X68000000Y-105860000D03*
X68000000Y-103320000D03*
D25*
X68000000Y-100780000D03*
D24*
X68000000Y-98240000D03*
X68000000Y-95700000D03*
X68000000Y-93160000D03*
X68000000Y-90620000D03*
D25*
X68000000Y-88080000D03*
D24*
X68000000Y-85540000D03*
X68000000Y-83000000D03*
X68000000Y-80460000D03*
X68000000Y-77920000D03*
D25*
X68000000Y-75380000D03*
D24*
X68000000Y-72840000D03*
X68000000Y-70300000D03*
X50220000Y-70300000D03*
X50220000Y-72840000D03*
D26*
X50220000Y-75380000D03*
D24*
X50220000Y-77920000D03*
X50220000Y-80460000D03*
X50220000Y-83000000D03*
X50220000Y-85540000D03*
D26*
X50220000Y-88080000D03*
D24*
X50220000Y-90620000D03*
X50220000Y-93160000D03*
X50220000Y-95700000D03*
X50220000Y-98240000D03*
D26*
X50220000Y-100780000D03*
D24*
X50220000Y-103320000D03*
X50220000Y-105860000D03*
X50220000Y-108400000D03*
X50220000Y-110940000D03*
D26*
X50220000Y-113480000D03*
D24*
X50220000Y-116020000D03*
X50220000Y-118560000D03*
%TD*%
D10*
%TO.C,C39*%
X150212500Y-77000000D03*
X152287500Y-77000000D03*
%TD*%
D11*
%TO.C,C22*%
X248250000Y-81287500D03*
X248250000Y-79212500D03*
%TD*%
D12*
%TO.C,U49*%
X185000000Y-88000000D03*
X185650000Y-88000000D03*
X186300000Y-88000000D03*
X186950000Y-88000000D03*
X187600000Y-88000000D03*
X188250000Y-88000000D03*
X188900000Y-88000000D03*
X189550000Y-88000000D03*
X190200000Y-88000000D03*
X190850000Y-88000000D03*
X190850000Y-82275000D03*
X190200000Y-82275000D03*
X189550000Y-82275000D03*
X188900000Y-82275000D03*
X188250000Y-82275000D03*
X187600000Y-82275000D03*
X186950000Y-82275000D03*
X186300000Y-82275000D03*
X185650000Y-82275000D03*
X185000000Y-82275000D03*
%TD*%
%TO.C,U90*%
X229000000Y-110725000D03*
X229650000Y-110725000D03*
X230300000Y-110725000D03*
X230950000Y-110725000D03*
X231600000Y-110725000D03*
X232250000Y-110725000D03*
X232900000Y-110725000D03*
X233550000Y-110725000D03*
X234200000Y-110725000D03*
X234850000Y-110725000D03*
X234850000Y-105000000D03*
X234200000Y-105000000D03*
X233550000Y-105000000D03*
X232900000Y-105000000D03*
X232250000Y-105000000D03*
X231600000Y-105000000D03*
X230950000Y-105000000D03*
X230300000Y-105000000D03*
X229650000Y-105000000D03*
X229000000Y-105000000D03*
%TD*%
D11*
%TO.C,C55*%
X215500000Y-105000000D03*
X215500000Y-102925000D03*
%TD*%
%TO.C,C49*%
X226500000Y-104750000D03*
X226500000Y-102675000D03*
%TD*%
%TO.C,C58*%
X193500000Y-104787500D03*
X193500000Y-102712500D03*
%TD*%
D13*
%TO.C,H1*%
X31000000Y-59000000D03*
%TD*%
D12*
%TO.C,U96*%
X114000000Y-110725000D03*
X114650000Y-110725000D03*
X115300000Y-110725000D03*
X115950000Y-110725000D03*
X116600000Y-110725000D03*
X117250000Y-110725000D03*
X117900000Y-110725000D03*
X118550000Y-110725000D03*
X119200000Y-110725000D03*
X119850000Y-110725000D03*
X119850000Y-105000000D03*
X119200000Y-105000000D03*
X118550000Y-105000000D03*
X117900000Y-105000000D03*
X117250000Y-105000000D03*
X116600000Y-105000000D03*
X115950000Y-105000000D03*
X115300000Y-105000000D03*
X114650000Y-105000000D03*
X114000000Y-105000000D03*
%TD*%
%TO.C,U92*%
X251000000Y-110725000D03*
X251650000Y-110725000D03*
X252300000Y-110725000D03*
X252950000Y-110725000D03*
X253600000Y-110725000D03*
X254250000Y-110725000D03*
X254900000Y-110725000D03*
X255550000Y-110725000D03*
X256200000Y-110725000D03*
X256850000Y-110725000D03*
X256850000Y-105000000D03*
X256200000Y-105000000D03*
X255550000Y-105000000D03*
X254900000Y-105000000D03*
X254250000Y-105000000D03*
X253600000Y-105000000D03*
X252950000Y-105000000D03*
X252300000Y-105000000D03*
X251650000Y-105000000D03*
X251000000Y-105000000D03*
%TD*%
D11*
%TO.C,C40*%
X259750000Y-104787500D03*
X259750000Y-102712500D03*
%TD*%
D27*
%TO.C,U2*%
X41100000Y-108810000D03*
X41100000Y-106270000D03*
X41100000Y-103730000D03*
X41100000Y-101190000D03*
%TD*%
D18*
%TO.C,C90*%
X124075000Y-115250000D03*
X122000000Y-115250000D03*
%TD*%
D11*
%TO.C,C31*%
X204250000Y-82037500D03*
X204250000Y-79962500D03*
%TD*%
D18*
%TO.C,C89*%
X112787500Y-115000000D03*
X110712500Y-115000000D03*
%TD*%
D14*
%TO.C,C6*%
X172500000Y-93712500D03*
X172500000Y-95787500D03*
%TD*%
D18*
%TO.C,C60*%
X250537500Y-113500000D03*
X248462500Y-113500000D03*
%TD*%
D14*
%TO.C,C59*%
X260250000Y-118962500D03*
X260250000Y-121037500D03*
%TD*%
D12*
%TO.C,U94*%
X92000000Y-110725000D03*
X92650000Y-110725000D03*
X93300000Y-110725000D03*
X93950000Y-110725000D03*
X94600000Y-110725000D03*
X95250000Y-110725000D03*
X95900000Y-110725000D03*
X96550000Y-110725000D03*
X97200000Y-110725000D03*
X97850000Y-110725000D03*
X97850000Y-105000000D03*
X97200000Y-105000000D03*
X96550000Y-105000000D03*
X95900000Y-105000000D03*
X95250000Y-105000000D03*
X94600000Y-105000000D03*
X93950000Y-105000000D03*
X93300000Y-105000000D03*
X92650000Y-105000000D03*
X92000000Y-105000000D03*
%TD*%
%TO.C,U45*%
X126000000Y-88000000D03*
X126650000Y-88000000D03*
X127300000Y-88000000D03*
X127950000Y-88000000D03*
X128600000Y-88000000D03*
X129250000Y-88000000D03*
X129900000Y-88000000D03*
X130550000Y-88000000D03*
X131200000Y-88000000D03*
X131850000Y-88000000D03*
X131850000Y-82275000D03*
X131200000Y-82275000D03*
X130550000Y-82275000D03*
X129900000Y-82275000D03*
X129250000Y-82275000D03*
X128600000Y-82275000D03*
X127950000Y-82275000D03*
X127300000Y-82275000D03*
X126650000Y-82275000D03*
X126000000Y-82275000D03*
%TD*%
D18*
%TO.C,C74*%
X113537500Y-86500000D03*
X111462500Y-86500000D03*
%TD*%
D12*
%TO.C,U95*%
X103000000Y-110725000D03*
X103650000Y-110725000D03*
X104300000Y-110725000D03*
X104950000Y-110725000D03*
X105600000Y-110725000D03*
X106250000Y-110725000D03*
X106900000Y-110725000D03*
X107550000Y-110725000D03*
X108200000Y-110725000D03*
X108850000Y-110725000D03*
X108850000Y-105000000D03*
X108200000Y-105000000D03*
X107550000Y-105000000D03*
X106900000Y-105000000D03*
X106250000Y-105000000D03*
X105600000Y-105000000D03*
X104950000Y-105000000D03*
X104300000Y-105000000D03*
X103650000Y-105000000D03*
X103000000Y-105000000D03*
%TD*%
%TO.C,U28*%
X240000000Y-123725000D03*
X240650000Y-123725000D03*
X241300000Y-123725000D03*
X241950000Y-123725000D03*
X242600000Y-123725000D03*
X243250000Y-123725000D03*
X243900000Y-123725000D03*
X244550000Y-123725000D03*
X245200000Y-123725000D03*
X245850000Y-123725000D03*
X245850000Y-118000000D03*
X245200000Y-118000000D03*
X244550000Y-118000000D03*
X243900000Y-118000000D03*
X243250000Y-118000000D03*
X242600000Y-118000000D03*
X241950000Y-118000000D03*
X241300000Y-118000000D03*
X240650000Y-118000000D03*
X240000000Y-118000000D03*
%TD*%
%TO.C,U89*%
X218000000Y-110725000D03*
X218650000Y-110725000D03*
X219300000Y-110725000D03*
X219950000Y-110725000D03*
X220600000Y-110725000D03*
X221250000Y-110725000D03*
X221900000Y-110725000D03*
X222550000Y-110725000D03*
X223200000Y-110725000D03*
X223850000Y-110725000D03*
X223850000Y-105000000D03*
X223200000Y-105000000D03*
X222550000Y-105000000D03*
X221900000Y-105000000D03*
X221250000Y-105000000D03*
X220600000Y-105000000D03*
X219950000Y-105000000D03*
X219300000Y-105000000D03*
X218650000Y-105000000D03*
X218000000Y-105000000D03*
%TD*%
%TO.C,U87*%
X196000000Y-110725000D03*
X196650000Y-110725000D03*
X197300000Y-110725000D03*
X197950000Y-110725000D03*
X198600000Y-110725000D03*
X199250000Y-110725000D03*
X199900000Y-110725000D03*
X200550000Y-110725000D03*
X201200000Y-110725000D03*
X201850000Y-110725000D03*
X201850000Y-105000000D03*
X201200000Y-105000000D03*
X200550000Y-105000000D03*
X199900000Y-105000000D03*
X199250000Y-105000000D03*
X198600000Y-105000000D03*
X197950000Y-105000000D03*
X197300000Y-105000000D03*
X196650000Y-105000000D03*
X196000000Y-105000000D03*
%TD*%
D14*
%TO.C,C52*%
X113500000Y-76925000D03*
X113500000Y-79000000D03*
%TD*%
D10*
%TO.C,C67*%
X220175000Y-77000000D03*
X222250000Y-77000000D03*
%TD*%
D11*
%TO.C,C33*%
X182750000Y-83037500D03*
X182750000Y-80962500D03*
%TD*%
D12*
%TO.C,U42*%
X93000000Y-88000000D03*
X93650000Y-88000000D03*
X94300000Y-88000000D03*
X94950000Y-88000000D03*
X95600000Y-88000000D03*
X96250000Y-88000000D03*
X96900000Y-88000000D03*
X97550000Y-88000000D03*
X98200000Y-88000000D03*
X98850000Y-88000000D03*
X98850000Y-82275000D03*
X98200000Y-82275000D03*
X97550000Y-82275000D03*
X96900000Y-82275000D03*
X96250000Y-82275000D03*
X95600000Y-82275000D03*
X94950000Y-82275000D03*
X94300000Y-82275000D03*
X93650000Y-82275000D03*
X93000000Y-82275000D03*
%TD*%
%TO.C,U44*%
X115000000Y-88000000D03*
X115650000Y-88000000D03*
X116300000Y-88000000D03*
X116950000Y-88000000D03*
X117600000Y-88000000D03*
X118250000Y-88000000D03*
X118900000Y-88000000D03*
X119550000Y-88000000D03*
X120200000Y-88000000D03*
X120850000Y-88000000D03*
X120850000Y-82275000D03*
X120200000Y-82275000D03*
X119550000Y-82275000D03*
X118900000Y-82275000D03*
X118250000Y-82275000D03*
X117600000Y-82275000D03*
X116950000Y-82275000D03*
X116300000Y-82275000D03*
X115650000Y-82275000D03*
X115000000Y-82275000D03*
%TD*%
D28*
%TO.C,J1*%
X42787500Y-91250000D03*
D24*
X42787500Y-88750000D03*
X40787500Y-88750000D03*
X40787500Y-91250000D03*
D29*
X37927500Y-96000000D03*
X37927500Y-84000000D03*
%TD*%
D11*
%TO.C,C50*%
X183000000Y-125537500D03*
X183000000Y-123462500D03*
%TD*%
D12*
%TO.C,U97*%
X125000000Y-110725000D03*
X125650000Y-110725000D03*
X126300000Y-110725000D03*
X126950000Y-110725000D03*
X127600000Y-110725000D03*
X128250000Y-110725000D03*
X128900000Y-110725000D03*
X129550000Y-110725000D03*
X130200000Y-110725000D03*
X130850000Y-110725000D03*
X130850000Y-105000000D03*
X130200000Y-105000000D03*
X129550000Y-105000000D03*
X128900000Y-105000000D03*
X128250000Y-105000000D03*
X127600000Y-105000000D03*
X126950000Y-105000000D03*
X126300000Y-105000000D03*
X125650000Y-105000000D03*
X125000000Y-105000000D03*
%TD*%
D18*
%TO.C,C11*%
X89037500Y-104500000D03*
X86962500Y-104500000D03*
%TD*%
%TO.C,C84*%
X157500000Y-87500000D03*
X155425000Y-87500000D03*
%TD*%
%TO.C,C85*%
X146537500Y-87250000D03*
X144462500Y-87250000D03*
%TD*%
D12*
%TO.C,U47*%
X148000000Y-88000000D03*
X148650000Y-88000000D03*
X149300000Y-88000000D03*
X149950000Y-88000000D03*
X150600000Y-88000000D03*
X151250000Y-88000000D03*
X151900000Y-88000000D03*
X152550000Y-88000000D03*
X153200000Y-88000000D03*
X153850000Y-88000000D03*
X153850000Y-82275000D03*
X153200000Y-82275000D03*
X152550000Y-82275000D03*
X151900000Y-82275000D03*
X151250000Y-82275000D03*
X150600000Y-82275000D03*
X149950000Y-82275000D03*
X149300000Y-82275000D03*
X148650000Y-82275000D03*
X148000000Y-82275000D03*
%TD*%
D11*
%TO.C,C88*%
X101000000Y-115037500D03*
X101000000Y-112962500D03*
%TD*%
D12*
%TO.C,U25*%
X207000000Y-123725000D03*
X207650000Y-123725000D03*
X208300000Y-123725000D03*
X208950000Y-123725000D03*
X209600000Y-123725000D03*
X210250000Y-123725000D03*
X210900000Y-123725000D03*
X211550000Y-123725000D03*
X212200000Y-123725000D03*
X212850000Y-123725000D03*
X212850000Y-118000000D03*
X212200000Y-118000000D03*
X211550000Y-118000000D03*
X210900000Y-118000000D03*
X210250000Y-118000000D03*
X209600000Y-118000000D03*
X208950000Y-118000000D03*
X208300000Y-118000000D03*
X207650000Y-118000000D03*
X207000000Y-118000000D03*
%TD*%
D10*
%TO.C,C79*%
X187212500Y-76500000D03*
X189287500Y-76500000D03*
%TD*%
D11*
%TO.C,C65*%
X80250000Y-87250000D03*
X80250000Y-85175000D03*
%TD*%
D12*
%TO.C,U54*%
X240000000Y-88000000D03*
X240650000Y-88000000D03*
X241300000Y-88000000D03*
X241950000Y-88000000D03*
X242600000Y-88000000D03*
X243250000Y-88000000D03*
X243900000Y-88000000D03*
X244550000Y-88000000D03*
X245200000Y-88000000D03*
X245850000Y-88000000D03*
X245850000Y-82275000D03*
X245200000Y-82275000D03*
X244550000Y-82275000D03*
X243900000Y-82275000D03*
X243250000Y-82275000D03*
X242600000Y-82275000D03*
X241950000Y-82275000D03*
X241300000Y-82275000D03*
X240650000Y-82275000D03*
X240000000Y-82275000D03*
%TD*%
%TO.C,U86*%
X185000000Y-110725000D03*
X185650000Y-110725000D03*
X186300000Y-110725000D03*
X186950000Y-110725000D03*
X187600000Y-110725000D03*
X188250000Y-110725000D03*
X188900000Y-110725000D03*
X189550000Y-110725000D03*
X190200000Y-110725000D03*
X190850000Y-110725000D03*
X190850000Y-105000000D03*
X190200000Y-105000000D03*
X189550000Y-105000000D03*
X188900000Y-105000000D03*
X188250000Y-105000000D03*
X187600000Y-105000000D03*
X186950000Y-105000000D03*
X186300000Y-105000000D03*
X185650000Y-105000000D03*
X185000000Y-105000000D03*
%TD*%
D13*
%TO.C,H2*%
X271000000Y-59000000D03*
%TD*%
D14*
%TO.C,C91*%
X178500000Y-94962500D03*
X178500000Y-97037500D03*
%TD*%
D11*
%TO.C,C32*%
X193250000Y-81537500D03*
X193250000Y-79462500D03*
%TD*%
D12*
%TO.C,U55*%
X251000000Y-88000000D03*
X251650000Y-88000000D03*
X252300000Y-88000000D03*
X252950000Y-88000000D03*
X253600000Y-88000000D03*
X254250000Y-88000000D03*
X254900000Y-88000000D03*
X255550000Y-88000000D03*
X256200000Y-88000000D03*
X256850000Y-88000000D03*
X256850000Y-82275000D03*
X256200000Y-82275000D03*
X255550000Y-82275000D03*
X254900000Y-82275000D03*
X254250000Y-82275000D03*
X253600000Y-82275000D03*
X252950000Y-82275000D03*
X252300000Y-82275000D03*
X251650000Y-82275000D03*
X251000000Y-82275000D03*
%TD*%
%TO.C,U93*%
X262000000Y-110725000D03*
X262650000Y-110725000D03*
X263300000Y-110725000D03*
X263950000Y-110725000D03*
X264600000Y-110725000D03*
X265250000Y-110725000D03*
X265900000Y-110725000D03*
X266550000Y-110725000D03*
X267200000Y-110725000D03*
X267850000Y-110725000D03*
X267850000Y-105000000D03*
X267200000Y-105000000D03*
X266550000Y-105000000D03*
X265900000Y-105000000D03*
X265250000Y-105000000D03*
X264600000Y-105000000D03*
X263950000Y-105000000D03*
X263300000Y-105000000D03*
X262650000Y-105000000D03*
X262000000Y-105000000D03*
%TD*%
D14*
%TO.C,C7*%
X180500000Y-115962500D03*
X180500000Y-118037500D03*
%TD*%
D12*
%TO.C,U3*%
X92000000Y-123725000D03*
X92650000Y-123725000D03*
X93300000Y-123725000D03*
X93950000Y-123725000D03*
X94600000Y-123725000D03*
X95250000Y-123725000D03*
X95900000Y-123725000D03*
X96550000Y-123725000D03*
X97200000Y-123725000D03*
X97850000Y-123725000D03*
X97850000Y-118000000D03*
X97200000Y-118000000D03*
X96550000Y-118000000D03*
X95900000Y-118000000D03*
X95250000Y-118000000D03*
X94600000Y-118000000D03*
X93950000Y-118000000D03*
X93300000Y-118000000D03*
X92650000Y-118000000D03*
X92000000Y-118000000D03*
%TD*%
%TO.C,U43*%
X104000000Y-88000000D03*
X104650000Y-88000000D03*
X105300000Y-88000000D03*
X105950000Y-88000000D03*
X106600000Y-88000000D03*
X107250000Y-88000000D03*
X107900000Y-88000000D03*
X108550000Y-88000000D03*
X109200000Y-88000000D03*
X109850000Y-88000000D03*
X109850000Y-82275000D03*
X109200000Y-82275000D03*
X108550000Y-82275000D03*
X107900000Y-82275000D03*
X107250000Y-82275000D03*
X106600000Y-82275000D03*
X105950000Y-82275000D03*
X105300000Y-82275000D03*
X104650000Y-82275000D03*
X104000000Y-82275000D03*
%TD*%
D10*
%TO.C,C73*%
X197962500Y-76750000D03*
X200037500Y-76750000D03*
%TD*%
D18*
%TO.C,C13*%
X112537500Y-104500000D03*
X110462500Y-104500000D03*
%TD*%
D11*
%TO.C,C46*%
X237750000Y-104787500D03*
X237750000Y-102712500D03*
%TD*%
%TO.C,C19*%
X215500000Y-82037500D03*
X215500000Y-79962500D03*
%TD*%
D12*
%TO.C,U56*%
X262000000Y-88000000D03*
X262650000Y-88000000D03*
X263300000Y-88000000D03*
X263950000Y-88000000D03*
X264600000Y-88000000D03*
X265250000Y-88000000D03*
X265900000Y-88000000D03*
X266550000Y-88000000D03*
X267200000Y-88000000D03*
X267850000Y-88000000D03*
X267850000Y-82275000D03*
X267200000Y-82275000D03*
X266550000Y-82275000D03*
X265900000Y-82275000D03*
X265250000Y-82275000D03*
X264600000Y-82275000D03*
X263950000Y-82275000D03*
X263300000Y-82275000D03*
X262650000Y-82275000D03*
X262000000Y-82275000D03*
%TD*%
%TO.C,U30*%
X262000000Y-123725000D03*
X262650000Y-123725000D03*
X263300000Y-123725000D03*
X263950000Y-123725000D03*
X264600000Y-123725000D03*
X265250000Y-123725000D03*
X265900000Y-123725000D03*
X266550000Y-123725000D03*
X267200000Y-123725000D03*
X267850000Y-123725000D03*
X267850000Y-118000000D03*
X267200000Y-118000000D03*
X266550000Y-118000000D03*
X265900000Y-118000000D03*
X265250000Y-118000000D03*
X264600000Y-118000000D03*
X263950000Y-118000000D03*
X263300000Y-118000000D03*
X262650000Y-118000000D03*
X262000000Y-118000000D03*
%TD*%
%TO.C,U91*%
X240000000Y-110725000D03*
X240650000Y-110725000D03*
X241300000Y-110725000D03*
X241950000Y-110725000D03*
X242600000Y-110725000D03*
X243250000Y-110725000D03*
X243900000Y-110725000D03*
X244550000Y-110725000D03*
X245200000Y-110725000D03*
X245850000Y-110725000D03*
X245850000Y-105000000D03*
X245200000Y-105000000D03*
X244550000Y-105000000D03*
X243900000Y-105000000D03*
X243250000Y-105000000D03*
X242600000Y-105000000D03*
X241950000Y-105000000D03*
X241300000Y-105000000D03*
X240650000Y-105000000D03*
X240000000Y-105000000D03*
%TD*%
%TO.C,U23*%
X185000000Y-123725000D03*
X185650000Y-123725000D03*
X186300000Y-123725000D03*
X186950000Y-123725000D03*
X187600000Y-123725000D03*
X188250000Y-123725000D03*
X188900000Y-123725000D03*
X189550000Y-123725000D03*
X190200000Y-123725000D03*
X190850000Y-123725000D03*
X190850000Y-118000000D03*
X190200000Y-118000000D03*
X189550000Y-118000000D03*
X188900000Y-118000000D03*
X188250000Y-118000000D03*
X187600000Y-118000000D03*
X186950000Y-118000000D03*
X186300000Y-118000000D03*
X185650000Y-118000000D03*
X185000000Y-118000000D03*
%TD*%
D10*
%TO.C,C92*%
X151962500Y-110250000D03*
X154037500Y-110250000D03*
%TD*%
D12*
%TO.C,U88*%
X207000000Y-110725000D03*
X207650000Y-110725000D03*
X208300000Y-110725000D03*
X208950000Y-110725000D03*
X209600000Y-110725000D03*
X210250000Y-110725000D03*
X210900000Y-110725000D03*
X211550000Y-110725000D03*
X212200000Y-110725000D03*
X212850000Y-110725000D03*
X212850000Y-105000000D03*
X212200000Y-105000000D03*
X211550000Y-105000000D03*
X210900000Y-105000000D03*
X210250000Y-105000000D03*
X209600000Y-105000000D03*
X208950000Y-105000000D03*
X208300000Y-105000000D03*
X207650000Y-105000000D03*
X207000000Y-105000000D03*
%TD*%
%TO.C,U29*%
X251000000Y-123725000D03*
X251650000Y-123725000D03*
X252300000Y-123725000D03*
X252950000Y-123725000D03*
X253600000Y-123725000D03*
X254250000Y-123725000D03*
X254900000Y-123725000D03*
X255550000Y-123725000D03*
X256200000Y-123725000D03*
X256850000Y-123725000D03*
X256850000Y-118000000D03*
X256200000Y-118000000D03*
X255550000Y-118000000D03*
X254900000Y-118000000D03*
X254250000Y-118000000D03*
X253600000Y-118000000D03*
X252950000Y-118000000D03*
X252300000Y-118000000D03*
X251650000Y-118000000D03*
X251000000Y-118000000D03*
%TD*%
D13*
%TO.C,H4*%
X31000000Y-135000000D03*
%TD*%
D30*
X170000000Y-80250000D03*
D31*
X111500000Y-89250000D03*
X202750000Y-68000000D03*
D30*
X100250000Y-68500000D03*
X109000000Y-116250000D03*
X114250000Y-81000000D03*
X175500000Y-73000000D03*
D31*
X77250000Y-70287500D03*
X89500000Y-68750000D03*
D30*
X122000000Y-68500000D03*
X100000000Y-83212500D03*
X216750000Y-112500000D03*
X251000000Y-109000000D03*
X224750000Y-89000000D03*
X206250000Y-112250000D03*
D31*
X119250000Y-108250000D03*
D30*
X224750000Y-105250000D03*
X202750000Y-111500000D03*
D31*
X144750000Y-108500000D03*
X235500000Y-67750000D03*
X269000000Y-88000000D03*
X249750000Y-68000000D03*
X268750000Y-68250000D03*
D30*
X192000000Y-124000000D03*
X224250000Y-125250000D03*
D31*
X165250000Y-89750000D03*
D30*
X258000000Y-105250000D03*
X260750000Y-83250000D03*
X214000000Y-111500000D03*
D31*
X133000000Y-89250000D03*
D30*
X154750000Y-68500000D03*
D31*
X165943153Y-81693153D03*
X101250000Y-109500000D03*
D30*
X186000000Y-83500000D03*
X213000000Y-83750000D03*
X261250000Y-103500000D03*
X257000000Y-83500000D03*
D31*
X247500000Y-88000000D03*
D30*
X108250000Y-109250000D03*
D31*
X149500000Y-106250000D03*
D30*
X182750000Y-114750000D03*
X235750000Y-88500000D03*
D31*
X260500000Y-68250000D03*
D30*
X217000000Y-81250000D03*
D31*
X191750000Y-68250000D03*
X133500000Y-133000000D03*
X171000000Y-98250000D03*
D30*
X155098808Y-82962500D03*
D31*
X59750000Y-91500000D03*
X144000000Y-89000000D03*
D30*
X143750000Y-68500000D03*
D31*
X80750000Y-81250000D03*
X60500000Y-87750000D03*
D30*
X262000000Y-122250000D03*
X239000000Y-103250000D03*
D31*
X216750000Y-68000000D03*
X114750000Y-133250000D03*
D30*
X192000000Y-111250000D03*
X203250000Y-104750000D03*
D31*
X213750000Y-68000000D03*
X127818153Y-108318153D03*
D30*
X135750000Y-68500000D03*
X53750000Y-96500000D03*
X158000000Y-81000000D03*
X110750000Y-83000000D03*
X257000000Y-125250000D03*
D31*
X206000000Y-68250000D03*
D30*
X125250000Y-80750000D03*
X213750000Y-124500000D03*
D31*
X133750000Y-108500000D03*
X184250000Y-67750000D03*
D30*
X263000000Y-109250000D03*
X173750000Y-85000000D03*
D31*
X99000000Y-109500000D03*
D30*
X113500000Y-68500000D03*
D31*
X90750000Y-134500000D03*
D30*
X201750000Y-83500000D03*
X180750000Y-99000000D03*
X195000000Y-124250000D03*
D31*
X62500000Y-88000000D03*
X89250000Y-88500000D03*
D30*
X196750000Y-83500000D03*
X202500000Y-125000000D03*
X235750000Y-111250000D03*
X103000000Y-68500000D03*
D31*
X257750000Y-67750000D03*
D30*
X246750000Y-124250000D03*
D31*
X267250000Y-84250000D03*
D30*
X228250000Y-81000000D03*
D31*
X250500000Y-80250000D03*
X224500000Y-67750000D03*
D30*
X176000000Y-109000000D03*
X179250000Y-87000000D03*
X246000000Y-83500000D03*
X144000000Y-83000000D03*
D31*
X154750000Y-89250000D03*
D30*
X170000000Y-103500000D03*
X195250000Y-102750000D03*
X206250000Y-124250000D03*
X136000000Y-81000000D03*
D31*
X261750000Y-80250000D03*
D30*
X191000000Y-83500000D03*
X124750000Y-68500000D03*
X89000000Y-83000000D03*
D31*
X62000000Y-91500000D03*
D30*
X234750000Y-83500000D03*
X184500000Y-80750000D03*
X192000000Y-87750000D03*
X183000000Y-93750000D03*
X179250000Y-98250000D03*
X225000000Y-111750000D03*
X206250000Y-81000000D03*
X195000000Y-112250000D03*
D31*
X122250000Y-89250000D03*
D30*
X177500000Y-103500000D03*
X217250000Y-124250000D03*
X206500000Y-103000000D03*
X235750000Y-124500000D03*
X109750000Y-103000000D03*
D31*
X195000000Y-68500000D03*
D30*
X102750000Y-80750000D03*
D31*
X258250000Y-88000000D03*
X138750000Y-105250000D03*
D30*
X122000000Y-83000000D03*
X246750000Y-111500000D03*
X217000000Y-103250000D03*
X249250000Y-115750000D03*
D31*
X154750000Y-108750000D03*
D30*
X158000000Y-68500000D03*
X228250000Y-103000000D03*
X133000000Y-68500000D03*
D31*
X168000000Y-108000000D03*
D30*
X224000000Y-83500000D03*
D31*
X120250000Y-115000000D03*
X114500000Y-108250000D03*
D30*
X214000000Y-87250000D03*
D31*
X246500000Y-67537500D03*
X238750000Y-68000000D03*
D30*
X92000000Y-81000000D03*
X256250000Y-109250000D03*
X182000000Y-116750000D03*
D31*
X176000000Y-98000000D03*
D30*
X249750000Y-124000000D03*
X213750000Y-105000000D03*
D31*
X85500000Y-104500000D03*
D30*
X268500000Y-103500000D03*
X80000000Y-79500000D03*
X235750000Y-104250000D03*
X267250000Y-109000000D03*
X147000000Y-80750000D03*
X184250000Y-124000000D03*
X246750000Y-104750000D03*
X195000000Y-81000000D03*
X228000000Y-124000000D03*
X203000000Y-87500000D03*
D31*
X238250000Y-81000000D03*
D30*
X179250000Y-77500000D03*
D31*
X100500000Y-88750000D03*
X160000000Y-106250000D03*
D30*
X111500000Y-68500000D03*
X146500000Y-68500000D03*
X191750000Y-104750000D03*
D31*
X90500000Y-110000000D03*
X228000000Y-67750000D03*
D30*
X238750000Y-112250000D03*
X120250000Y-101500000D03*
X227750000Y-112750000D03*
X133000000Y-83000000D03*
X239250000Y-124250000D03*
X165500000Y-68250000D03*
X183000000Y-103500000D03*
X181500000Y-83750000D03*
X268000000Y-125500000D03*
X248250000Y-101500000D03*
X75000000Y-90250000D03*
X53500000Y-98250000D03*
X229000000Y-116500000D03*
X114000000Y-82250000D03*
X136000000Y-82500000D03*
X240000000Y-116500000D03*
X217000000Y-88000000D03*
X185000000Y-76500000D03*
D31*
X135250000Y-89250000D03*
D30*
X181250000Y-83000000D03*
X185000000Y-102500000D03*
X196000000Y-116500000D03*
X114000000Y-115250000D03*
X205500000Y-111500000D03*
X115000000Y-76500000D03*
X207000000Y-76500000D03*
X102750000Y-115250000D03*
X113000000Y-103000000D03*
X239250000Y-88500000D03*
X216750000Y-105000000D03*
X177000000Y-112000000D03*
X238750000Y-111000000D03*
X82000000Y-76500000D03*
X251000000Y-112250000D03*
X240000000Y-76500000D03*
X206250000Y-125500000D03*
X228000000Y-111500000D03*
X261250000Y-117000000D03*
D31*
X56000000Y-100325000D03*
D30*
X103000000Y-82250000D03*
X239250000Y-104500000D03*
D31*
X131000000Y-112250000D03*
X260500000Y-81750000D03*
D30*
X92000000Y-82500000D03*
X195250000Y-125250000D03*
D31*
X81500000Y-89500000D03*
D30*
X194750000Y-105000000D03*
X126750000Y-109250000D03*
X184750000Y-89250000D03*
X194500000Y-111750000D03*
D31*
X157250000Y-89250000D03*
D30*
X260750000Y-111000000D03*
X104000000Y-76500000D03*
X123500000Y-116500000D03*
X195000000Y-82000000D03*
D31*
X163000000Y-112000000D03*
D30*
X196000000Y-76500000D03*
X184000000Y-82250000D03*
D31*
X146500000Y-89250000D03*
D30*
X124000000Y-103750000D03*
X170000000Y-81000000D03*
X158000000Y-82500000D03*
X228000000Y-82250000D03*
X181250000Y-114750000D03*
X137000000Y-76500000D03*
D31*
X249750000Y-77250000D03*
D30*
X61500000Y-87000000D03*
X126000000Y-76500000D03*
D31*
X238500000Y-82500000D03*
X172750000Y-91962500D03*
D30*
X250000000Y-104750000D03*
D31*
X114000000Y-88250000D03*
D30*
X228250000Y-87750000D03*
X218000000Y-116500000D03*
X181500000Y-125500000D03*
D31*
X92500000Y-89750000D03*
D30*
X93000000Y-76500000D03*
D31*
X64500000Y-81750000D03*
D30*
X125000000Y-82250000D03*
X195250000Y-87500000D03*
X112750000Y-107500000D03*
X206000000Y-105000000D03*
X102750000Y-88000000D03*
X228250000Y-105000000D03*
X207000000Y-116500000D03*
X172250000Y-69000000D03*
X185000000Y-116500000D03*
D31*
X249750000Y-82250000D03*
X140500000Y-111500000D03*
D30*
X217000000Y-111250000D03*
X218000000Y-76500000D03*
D31*
X151250000Y-112000000D03*
D30*
X261250000Y-88000000D03*
D31*
X124750000Y-88250000D03*
D30*
X147000000Y-82250000D03*
X250000000Y-89000000D03*
D31*
X101500000Y-104750000D03*
D30*
X148000000Y-76500000D03*
D31*
X178000000Y-93250000D03*
D30*
X206000000Y-87500000D03*
X91250000Y-115750000D03*
X229000000Y-76250000D03*
X251000000Y-116500000D03*
X216750000Y-82250000D03*
X159000000Y-76500000D03*
D31*
X81000000Y-82750000D03*
D30*
X261000000Y-105250000D03*
D31*
X90500000Y-104500000D03*
X261000000Y-76000000D03*
D30*
X206000000Y-82500000D03*
X52000000Y-96500000D03*
X75250000Y-94750000D03*
X164750000Y-117000000D03*
X142750000Y-117000000D03*
X240500000Y-66000000D03*
X196000000Y-113500000D03*
X83000000Y-127500000D03*
X93500000Y-66000000D03*
X196000000Y-79500000D03*
X115000000Y-79500000D03*
X137000000Y-79500000D03*
X103500000Y-127500000D03*
X137500000Y-66000000D03*
X142750000Y-127500000D03*
X262500000Y-66000000D03*
X93000000Y-79500000D03*
X218000000Y-79500000D03*
X83000000Y-117250000D03*
X159500000Y-66000000D03*
X159000000Y-79500000D03*
X196500000Y-127000000D03*
X218000000Y-113500000D03*
X164750000Y-127500000D03*
X218500000Y-66000000D03*
X240500000Y-127000000D03*
X115500000Y-66000000D03*
X125500000Y-127500000D03*
X260250000Y-126250000D03*
X196500000Y-66000000D03*
X240000000Y-79500000D03*
X240000000Y-113500000D03*
X218500000Y-127000000D03*
X251750000Y-119500000D03*
X154500000Y-117000000D03*
X91250000Y-119250000D03*
X183500000Y-119250000D03*
X132500000Y-117000000D03*
X82000000Y-78500000D03*
X252000000Y-73750000D03*
X174750000Y-119250000D03*
X154500000Y-119250000D03*
X207000000Y-78500000D03*
X126000000Y-78500000D03*
X77750000Y-119250000D03*
X205750000Y-119250000D03*
X103000000Y-73750000D03*
X147000000Y-73750000D03*
X185000000Y-78500000D03*
X113250000Y-119250000D03*
X185000000Y-114500000D03*
X229000000Y-78500000D03*
X229000000Y-114500000D03*
X183500000Y-73750000D03*
X207000000Y-114500000D03*
X104000000Y-78500000D03*
X132500000Y-119250000D03*
X206000000Y-73750000D03*
X148000000Y-78500000D03*
X125000000Y-73750000D03*
X77750000Y-117250000D03*
X81000000Y-73750000D03*
X227925000Y-119250000D03*
X174750000Y-116250000D03*
X227750000Y-73750000D03*
X263257936Y-129257936D03*
X224250000Y-80000000D03*
X147250000Y-117000000D03*
X199500000Y-131500000D03*
X221500000Y-61500000D03*
X140500000Y-61500000D03*
X202250000Y-113000000D03*
X147250000Y-132000000D03*
X243500000Y-61500000D03*
X246250000Y-113000000D03*
X162500000Y-61500000D03*
X87500000Y-132000000D03*
X143250000Y-80000000D03*
X221500000Y-131500000D03*
X96500000Y-61500000D03*
X118500000Y-61500000D03*
X202250000Y-80000000D03*
X243500000Y-131500000D03*
X169250000Y-117000000D03*
X224250000Y-113000000D03*
X106500000Y-132000000D03*
X246250000Y-80000000D03*
X169250000Y-132000000D03*
X128500000Y-132000000D03*
X121250000Y-80000000D03*
X99250000Y-80000000D03*
X87500000Y-117250000D03*
X264000000Y-61500000D03*
X165250000Y-80000000D03*
X199500000Y-61500000D03*
X52000000Y-86000000D03*
X57500000Y-81500000D03*
X127000000Y-129750000D03*
X105000000Y-129750000D03*
X167000000Y-117000000D03*
X198000000Y-129250000D03*
X224250000Y-77000000D03*
X95000000Y-63750000D03*
X198000000Y-63750000D03*
X261750000Y-127750000D03*
X220000000Y-63750000D03*
X246250000Y-77000000D03*
X202250000Y-116000000D03*
X143250000Y-77000000D03*
X139000000Y-63750000D03*
X145000000Y-129750000D03*
X121250000Y-77000000D03*
X117000000Y-63750000D03*
X85250000Y-117250000D03*
X165250000Y-77000000D03*
X99250000Y-77000000D03*
X167000000Y-129750000D03*
X85250000Y-129750000D03*
X242000000Y-63750000D03*
X224250000Y-116000000D03*
X263250000Y-63750000D03*
X246250000Y-116000000D03*
X161000000Y-63750000D03*
X145000000Y-117000000D03*
X242000000Y-129250000D03*
X220000000Y-129250000D03*
X202250000Y-77000000D03*
X191250000Y-114000000D03*
X97000000Y-122250000D03*
X234000000Y-70750000D03*
X212000000Y-70750000D03*
X135500000Y-117000000D03*
X212000000Y-122250000D03*
X255000000Y-72250000D03*
X154500000Y-79250000D03*
X235250000Y-114000000D03*
X132250000Y-79000000D03*
X213250000Y-114000000D03*
X171750000Y-116250000D03*
X190000000Y-122250000D03*
X171750000Y-122250000D03*
X234000000Y-122250000D03*
X255500000Y-120000000D03*
X131000000Y-70750000D03*
X80750000Y-117250000D03*
X88250000Y-79000000D03*
X153000000Y-70750000D03*
X87000000Y-70750000D03*
X157500000Y-117000000D03*
X191250000Y-79000000D03*
X110250000Y-79250000D03*
X189750000Y-70750000D03*
X119000000Y-122250000D03*
X157500000Y-122250000D03*
X80750000Y-122250000D03*
X109000000Y-70750000D03*
X235250000Y-79000000D03*
X213250000Y-79000000D03*
X135500000Y-122250000D03*
X154500000Y-80250000D03*
X158250000Y-117000000D03*
X236000000Y-123000000D03*
X213250000Y-80000000D03*
X214000000Y-70000000D03*
X110250000Y-80250000D03*
X192000000Y-70000000D03*
X171000000Y-117000000D03*
X235250000Y-113000000D03*
X132750000Y-70000000D03*
X110750000Y-70000000D03*
X236000000Y-70000000D03*
X81500000Y-123000000D03*
X214000000Y-123000000D03*
X99000000Y-123000000D03*
X89000000Y-70000000D03*
X191250000Y-113000000D03*
X88250000Y-80000000D03*
X132250000Y-80000000D03*
X256500000Y-120000000D03*
X213250000Y-113000000D03*
X255750000Y-72000000D03*
X81500000Y-117250000D03*
X171000000Y-123000000D03*
X191250000Y-80000000D03*
X136250000Y-117000000D03*
X235250000Y-80000000D03*
X136250000Y-123000000D03*
X121000000Y-123000000D03*
X158250000Y-123000000D03*
X192000000Y-123000000D03*
X155000000Y-70000000D03*
X123000000Y-113250000D03*
X156000000Y-68250000D03*
X175000000Y-87750000D03*
X157000000Y-72250000D03*
X178000000Y-112750000D03*
X69500000Y-67000000D03*
X172500000Y-83000000D03*
X170500000Y-88500000D03*
X169000000Y-88500000D03*
X175500000Y-81500000D03*
X173801871Y-87646259D03*
X91500000Y-68000000D03*
X173000000Y-84750000D03*
X175500000Y-83250000D03*
X181000000Y-112250000D03*
X64250000Y-121500000D03*
X123500000Y-106000000D03*
X123000000Y-111500000D03*
X108000000Y-108500000D03*
X181500000Y-103500000D03*
X110250000Y-105750000D03*
X123750000Y-107500000D03*
X111750000Y-105750000D03*
X121875000Y-104125000D03*
X182500000Y-112000000D03*
X169250000Y-76000000D03*
X179500000Y-103500000D03*
X169250000Y-73000000D03*
X213250000Y-77000000D03*
X156000000Y-120750000D03*
X235250000Y-116000000D03*
X156000000Y-117000000D03*
X130500000Y-72250000D03*
X96500000Y-120750000D03*
X79250000Y-117250000D03*
X118500000Y-120750000D03*
X86500000Y-72250000D03*
X233500000Y-120750000D03*
X134000000Y-120750000D03*
X132250000Y-77000000D03*
X191250000Y-116000000D03*
X253500000Y-72750000D03*
X233500000Y-72250000D03*
X79250000Y-120750000D03*
X211500000Y-72250000D03*
X108500000Y-72250000D03*
X211500000Y-120750000D03*
X235250000Y-77000000D03*
X110250000Y-77250000D03*
X189250000Y-72250000D03*
X189500000Y-120750000D03*
X88250000Y-77000000D03*
X191250000Y-77000000D03*
X152500000Y-72250000D03*
X213250000Y-116000000D03*
X253500000Y-120000000D03*
X134000000Y-117000000D03*
X173250000Y-120750000D03*
X154500000Y-77250000D03*
X173250000Y-116250000D03*
X165500000Y-117000000D03*
X160000000Y-65250000D03*
X241000000Y-127750000D03*
X126000000Y-128250000D03*
X197000000Y-127750000D03*
X219000000Y-65250000D03*
X196000000Y-78500000D03*
X262750000Y-65250000D03*
X93000000Y-78500000D03*
X241000000Y-65250000D03*
X219000000Y-127750000D03*
X218000000Y-78500000D03*
X116000000Y-65250000D03*
X240000000Y-114500000D03*
X83750000Y-117250000D03*
X83750000Y-128250000D03*
X260757936Y-126757936D03*
X138000000Y-65250000D03*
X218000000Y-114500000D03*
X165500000Y-128250000D03*
X240000000Y-78500000D03*
X137000000Y-78500000D03*
X104000000Y-128250000D03*
X196000000Y-114500000D03*
X143500000Y-128250000D03*
X94000000Y-65250000D03*
X197000000Y-65250000D03*
X115000000Y-78500000D03*
X159000000Y-78500000D03*
X143500000Y-117000000D03*
X80000000Y-121500000D03*
X254250000Y-72500000D03*
X86750000Y-71500000D03*
X172500000Y-121500000D03*
X156750000Y-121500000D03*
X88250000Y-78000000D03*
X154500000Y-78250000D03*
X134750000Y-117000000D03*
X110250000Y-78250000D03*
X233750000Y-121500000D03*
X108750000Y-71500000D03*
X132250000Y-78000000D03*
X118750000Y-121500000D03*
X211750000Y-71500000D03*
X96750000Y-121500000D03*
X235250000Y-78000000D03*
X189750000Y-121500000D03*
X191250000Y-78000000D03*
X189500000Y-71500000D03*
X233750000Y-71500000D03*
X80000000Y-117250000D03*
X134750000Y-121500000D03*
X213250000Y-115000000D03*
X152750000Y-71500000D03*
X235250000Y-115000000D03*
X191250000Y-115000000D03*
X213250000Y-78000000D03*
X156750000Y-117000000D03*
X254500000Y-120000000D03*
X172500000Y-117000000D03*
X130750000Y-71500000D03*
X211750000Y-121500000D03*
X131000000Y-102750000D03*
X175250000Y-108250000D03*
X177500000Y-101500000D03*
X169750000Y-72500000D03*
X176250000Y-103500000D03*
X110250000Y-113750000D03*
X64250000Y-120500000D03*
X170500000Y-79750000D03*
X166750000Y-72250000D03*
X69000000Y-67750000D03*
X175750000Y-68000000D03*
X168250000Y-72250000D03*
X91000000Y-68750000D03*
X175000000Y-77800000D03*
X111000000Y-107750000D03*
X109000000Y-107750000D03*
X170250000Y-78000000D03*
X113750000Y-113750000D03*
X178000000Y-77000000D03*
X169250000Y-68750000D03*
X52250000Y-83500000D03*
X56500000Y-81500000D03*
X127500000Y-130500000D03*
X86000000Y-117250000D03*
X167750000Y-130500000D03*
X220500000Y-130000000D03*
X202250000Y-115000000D03*
X242500000Y-63000000D03*
X224250000Y-115000000D03*
X220500000Y-63000000D03*
X246250000Y-78000000D03*
X262250000Y-128250000D03*
X143250000Y-78000000D03*
X139500000Y-63000000D03*
X86000000Y-130500000D03*
X246250000Y-115000000D03*
X117500000Y-63000000D03*
X224250000Y-78000000D03*
X165250000Y-78000000D03*
X242500000Y-130000000D03*
X145750000Y-130500000D03*
X263500000Y-63000000D03*
X121250000Y-78000000D03*
X167750000Y-117000000D03*
X99250000Y-78000000D03*
X198500000Y-130000000D03*
X105500000Y-130500000D03*
X161500000Y-63000000D03*
X202250000Y-78000000D03*
X198500000Y-63000000D03*
X95500000Y-63000000D03*
X145750000Y-117000000D03*
X56500000Y-95250000D03*
X74750000Y-88000000D03*
X85500000Y-106750000D03*
X185000000Y-113500000D03*
X250250000Y-118750000D03*
X102250000Y-74500000D03*
X124250000Y-74500000D03*
X77000000Y-118750000D03*
X229000000Y-113500000D03*
X205250000Y-74500000D03*
X82000000Y-79500000D03*
X90500000Y-118500000D03*
X250000000Y-74500000D03*
X79750000Y-74500000D03*
X153750000Y-117000000D03*
X207000000Y-79500000D03*
X104000000Y-79500000D03*
X227250000Y-118500000D03*
X148000000Y-79500000D03*
X175500000Y-118500000D03*
X207000000Y-113500000D03*
X182750000Y-118500000D03*
X185000000Y-79500000D03*
X131750000Y-117000000D03*
X153750000Y-118500000D03*
X112250000Y-118500000D03*
X146250000Y-74500000D03*
X126000000Y-79500000D03*
X205250000Y-118500000D03*
X182750000Y-74500000D03*
X131750000Y-118500000D03*
X175250000Y-117000000D03*
X77000000Y-117250000D03*
X229000000Y-79500000D03*
X227250000Y-74500000D03*
X185000000Y-115500000D03*
X155250000Y-117000000D03*
X207000000Y-77500000D03*
X118250000Y-120000000D03*
X82000000Y-77500000D03*
X187000000Y-120000000D03*
X185000000Y-73000000D03*
X252507936Y-120007936D03*
X96250000Y-120000000D03*
X207750000Y-73000000D03*
X78500000Y-120000000D03*
X155250000Y-120000000D03*
X78500000Y-117250000D03*
X104750000Y-73000000D03*
X229500000Y-120000000D03*
X104000000Y-77500000D03*
X148500000Y-73000000D03*
X126500000Y-73000000D03*
X229500000Y-73000000D03*
X148000000Y-77500000D03*
X252750000Y-73000000D03*
X207000000Y-115500000D03*
X83250000Y-73000000D03*
X174000000Y-120000000D03*
X126000000Y-77500000D03*
X185000000Y-77500000D03*
X229000000Y-77500000D03*
X207250000Y-120000000D03*
X133250000Y-120000000D03*
X229000000Y-115500000D03*
X174000000Y-117000000D03*
X133250000Y-117000000D03*
X93000000Y-80500000D03*
X196000000Y-112500000D03*
X196000000Y-80500000D03*
X196000000Y-126250000D03*
X125000000Y-126750000D03*
X137000000Y-66750000D03*
X115000000Y-80500000D03*
X240000000Y-126250000D03*
X218000000Y-66750000D03*
X103000000Y-126750000D03*
X164000000Y-117000000D03*
X137000000Y-80500000D03*
X240000000Y-66750000D03*
X164000000Y-126750000D03*
X159000000Y-80500000D03*
X82250000Y-126750000D03*
X196000000Y-66750000D03*
X259763898Y-125763898D03*
X218000000Y-126250000D03*
X115000000Y-66750000D03*
X262250000Y-66750000D03*
X93000000Y-66750000D03*
X240000000Y-80500000D03*
X240000000Y-112500000D03*
X159000000Y-66750000D03*
X218000000Y-80500000D03*
X142000000Y-117000000D03*
X218000000Y-112500000D03*
X82250000Y-117250000D03*
X142000000Y-126750000D03*
X52500000Y-81250000D03*
X55000000Y-81250000D03*
X241500000Y-64500000D03*
X196000000Y-77500000D03*
X240000000Y-115500000D03*
X144250000Y-117000000D03*
X159000000Y-77500000D03*
X166250000Y-129000000D03*
X261261905Y-127261905D03*
X104500000Y-129000000D03*
X84500000Y-129000000D03*
X196000000Y-115500000D03*
X138500000Y-64500000D03*
X218000000Y-77500000D03*
X116500000Y-64500000D03*
X218000000Y-115500000D03*
X94500000Y-64500000D03*
X241500000Y-128500000D03*
X93000000Y-77500000D03*
X219500000Y-64500000D03*
X263000000Y-64500000D03*
X160500000Y-64500000D03*
X219500000Y-128500000D03*
X197500000Y-128500000D03*
X126500000Y-129000000D03*
X197500000Y-64500000D03*
X84500000Y-117250000D03*
X166250000Y-117000000D03*
X144250000Y-129000000D03*
X137000000Y-77500000D03*
X115000000Y-77500000D03*
X240000000Y-77500000D03*
X168500000Y-131250000D03*
X165250000Y-79000000D03*
X246250000Y-114000000D03*
X202250000Y-114000000D03*
X140000000Y-62250000D03*
X86750000Y-117250000D03*
X243000000Y-62250000D03*
X168500000Y-117000000D03*
X262750000Y-128750000D03*
X96000000Y-62250000D03*
X146500000Y-117000000D03*
X199000000Y-130750000D03*
X224250000Y-114000000D03*
X128000000Y-131250000D03*
X224250000Y-79000000D03*
X162000000Y-62250000D03*
X202250000Y-79000000D03*
X99250000Y-79000000D03*
X246250000Y-79000000D03*
X118000000Y-62250000D03*
X86750000Y-131250000D03*
X143250000Y-79000000D03*
X121250000Y-79000000D03*
X263750000Y-62250000D03*
X221000000Y-62250000D03*
X106000000Y-131250000D03*
X243000000Y-130750000D03*
X199000000Y-62250000D03*
X221000000Y-130750000D03*
X146500000Y-131250000D03*
X89750000Y-117750000D03*
X182000000Y-117750000D03*
X204750000Y-78500000D03*
X182000000Y-75250000D03*
X79000000Y-75500000D03*
X249500000Y-118000000D03*
X249500000Y-75250000D03*
X111500000Y-117750000D03*
X205000000Y-114500000D03*
X102000000Y-78500000D03*
X227000000Y-78500000D03*
X124000000Y-78500000D03*
X227000000Y-114500000D03*
X146000000Y-78500000D03*
X98000000Y-116500000D03*
X110750000Y-116500000D03*
X113250000Y-116500000D03*
X120750000Y-117250000D03*
X130750000Y-116500000D03*
X175500000Y-76750000D03*
X171000000Y-76750000D03*
X171000000Y-76000000D03*
X175500000Y-76000000D03*
X181500000Y-80500000D03*
X182500000Y-79500000D03*
X179500000Y-81000000D03*
X179250000Y-79500000D03*
X175000000Y-80000000D03*
X173750000Y-84000000D03*
X175500000Y-84750000D03*
X179250000Y-85750000D03*
X178250000Y-108250000D03*
X178250000Y-106250000D03*
X180000000Y-114000000D03*
X177250000Y-115250000D03*
X183500000Y-111250000D03*
X225750000Y-108750000D03*
X247750000Y-108750000D03*
X178000000Y-113750000D03*
X180250000Y-113250000D03*
X182500000Y-113250000D03*
X173750000Y-73000000D03*
X62250000Y-76250000D03*
X62750000Y-77750000D03*
X172250000Y-72250000D03*
X174250000Y-72250000D03*
X62250000Y-75000000D03*
X175500000Y-72250000D03*
X63500000Y-77750000D03*
X62250000Y-73750000D03*
X64250000Y-77750000D03*
X179250000Y-80250000D03*
X180750000Y-79750000D03*
X182500000Y-69000000D03*
X180750000Y-76000000D03*
X178250000Y-67500000D03*
X182250000Y-68250000D03*
X179250000Y-67500000D03*
X179750000Y-76000000D03*
X59500000Y-84250000D03*
X59500000Y-81250000D03*
X177750000Y-76000000D03*
X175000000Y-79000000D03*
X180250000Y-67500000D03*
X181750000Y-67500000D03*
X81500000Y-108250000D03*
X75500000Y-114250000D03*
X179250000Y-107750000D03*
X179000000Y-126000000D03*
X82250000Y-106500000D03*
X75000000Y-113750000D03*
X71250000Y-110250000D03*
X111250000Y-110500000D03*
X111250000Y-111750000D03*
X74500000Y-113250000D03*
X80500000Y-107250000D03*
X71250000Y-111500000D03*
X177000000Y-117000000D03*
X176750000Y-123750000D03*
X178000000Y-116000000D03*
X73000000Y-117000000D03*
X111504273Y-113537804D03*
X82500000Y-108250000D03*
X110750000Y-112500000D03*
X178000000Y-117000000D03*
X177500000Y-124500000D03*
X179000000Y-108500000D03*
X178250000Y-125250000D03*
X166000000Y-85750000D03*
X167000000Y-85750000D03*
X167750000Y-85750000D03*
X168500000Y-85750000D03*
X179550000Y-88950000D03*
X180250000Y-90250000D03*
X181250000Y-89500000D03*
X173500000Y-88250000D03*
X174000000Y-90250000D03*
X181750000Y-88750000D03*
X181000000Y-106250000D03*
X185500000Y-107250000D03*
X180500000Y-109000000D03*
X183250000Y-109500000D03*
X93500000Y-84000000D03*
X115750000Y-84000000D03*
X126500000Y-84000000D03*
X148500000Y-84000000D03*
X104750000Y-84000000D03*
X137500000Y-84000000D03*
X159750000Y-83750000D03*
X169750000Y-91750000D03*
X83500000Y-83750000D03*
X206250000Y-84125000D03*
X181750000Y-87500000D03*
X239500000Y-84250000D03*
X217250000Y-84000000D03*
X250500000Y-84250000D03*
X228500000Y-84250000D03*
X261250000Y-84250000D03*
X184500000Y-83500000D03*
X194250000Y-83500000D03*
X237250000Y-109750000D03*
X204750000Y-110750000D03*
X225250000Y-110750000D03*
X252750000Y-109000000D03*
X193750000Y-110750000D03*
X247000000Y-110000000D03*
X203250000Y-110750000D03*
X214500000Y-110250000D03*
X181250000Y-108250000D03*
X216000000Y-110250000D03*
X258500000Y-109500000D03*
X235750000Y-109750000D03*
X184000000Y-102250000D03*
X192000000Y-110250000D03*
X226750000Y-110750000D03*
X248500000Y-110000000D03*
X184000000Y-104250000D03*
M02*
