M48
; DRILL file {KiCad 9.0.2+dfsg-1} date 2026-06-18T21:09:38+0100
; FORMAT={-:-/ absolute / metric / decimal}
; #@! TF.CreationDate,2026-06-18T21:09:38+01:00
; #@! TF.GenerationSoftware,Kicad,Pcbnew,9.0.2+dfsg-1
; #@! TF.FileFunction,Plated,1,4,PTH
FMAT,2
METRIC
; #@! TA.AperFunction,Plated,PTH,ViaDrill
T1C0.200
%
G90
G05
T1
X30.0Y-143.05
X31.5Y-96.6
X31.5Y-114.6
X32.0Y-143.6
X32.25Y-113.1
X32.5Y-116.85
X33.0Y-111.85
X33.0Y-115.447
X33.25Y-71.85
X33.25Y-103.6
X33.5Y-84.85
X33.5Y-96.1
X33.5Y-97.6
X33.5Y-113.85
X33.5Y-116.35
X33.75Y-100.85
X33.764Y-81.336
X34.0Y-69.0
X34.0Y-78.35
X34.0Y-141.6
X34.25Y-117.1
X35.6Y-65.8
X35.75Y-94.6
X36.0Y-139.6
X36.5Y-82.1
X36.75Y-106.1
X36.775Y-69.1
X37.0Y-87.6
X37.25Y-80.35
X37.25Y-88.85
X37.25Y-90.85
X37.25Y-91.85
X37.25Y-100.1
X37.75Y-77.1
X38.0Y-86.1
X38.5Y-71.1
X38.5Y-79.6
X38.75Y-85.35
X38.75Y-98.6
X39.0Y-99.85
X39.25Y-89.85
X39.25Y-107.1
X39.25Y-108.6
X40.0Y-107.1
X40.0Y-108.6
X40.25Y-106.1
X40.25Y-117.6
X40.5Y-110.35
X40.5Y-144.6
X40.75Y-94.85
X41.25Y-110.85
X41.987Y-126.337
X42.0Y-103.85
X42.0Y-142.55
X42.25Y-90.1
X42.25Y-90.85
X42.5Y-102.35
X42.5Y-113.1
X42.5Y-144.6
X42.75Y-92.6
X42.75Y-114.85
X42.75Y-123.6
X42.75Y-127.1
X43.0Y-72.6
X43.0Y-79.1
X43.0Y-87.1
X43.0Y-89.35
X43.0Y-142.55
X43.087Y-129.512
X43.25Y-120.6
X43.25Y-121.6
X43.25Y-122.85
X43.325Y-128.45
X44.0Y-68.6
X44.0Y-142.55
X44.3Y-128.45
X44.875Y-111.725
X45.0Y-142.55
X45.2Y-74.6
X45.275Y-128.45
X46.0Y-79.4
X46.0Y-95.1
X46.0Y-142.55
X46.25Y-91.35
X46.5Y-89.1
X46.575Y-128.45
X47.25Y-137.3
X47.5Y-94.1
X47.55Y-128.45
X47.75Y-137.8
X48.25Y-138.3
X48.5Y-99.35
X48.525Y-128.45
X48.75Y-138.8
X49.0Y-67.6
X49.175Y-129.1
X49.2Y-70.6
X49.2Y-76.2
X49.25Y-139.3
X49.75Y-124.1
X50.5Y-127.35
X50.5Y-132.6
X50.75Y-121.6
X50.8Y-80.2
X52.0Y-115.6
X52.4Y-73.0
X53.0Y-129.1
X53.075Y-119.35
X53.725Y-118.7
X54.0Y-78.6
X54.7Y-118.7
X55.0Y-69.6
X55.675Y-118.7
X56.4Y-72.2
X56.975Y-118.7
X57.0Y-145.05
X57.0Y-146.8
X57.95Y-118.7
X58.0Y-65.8
X58.75Y-90.85
X58.925Y-118.7
X59.0Y-97.6
X59.0Y-143.35
X59.0Y-144.85
X59.575Y-119.35
X59.75Y-146.05
X60.0Y-132.35
X60.012Y-116.337
X60.25Y-91.6
X60.25Y-92.35
X60.25Y-134.6
X60.25Y-146.85
X60.5Y-140.6
X61.0Y-92.35
X61.0Y-93.1
X61.0Y-124.85
X61.25Y-114.1
X61.25Y-132.1
X61.5Y-124.1
X61.75Y-73.6
X61.75Y-80.6
X61.75Y-93.1
X61.75Y-93.85
X61.75Y-144.1
X62.0Y-145.1
X62.062Y-126.412
X62.25Y-128.6
X62.5Y-93.85
X62.5Y-94.6
X62.75Y-143.85
X62.825Y-129.1
X63.25Y-79.85
X63.25Y-94.6
X63.25Y-95.35
X63.25Y-143.35
X63.475Y-128.45
X63.5Y-72.6
X63.5Y-97.85
X63.5Y-102.85
X63.75Y-104.6
X63.987Y-87.362
X64.0Y-95.35
X64.0Y-96.1
X64.0Y-96.85
X64.25Y-98.35
X64.4Y-68.2
X64.4Y-102.1
X64.45Y-128.45
X64.75Y-79.1
X64.75Y-84.1
X64.75Y-96.85
X65.0Y-71.85
X65.25Y-93.35
X65.425Y-128.45
X65.5Y-84.85
X65.5Y-96.85
X66.25Y-78.35
X66.25Y-85.6
X66.25Y-96.85
X66.5Y-71.1
X66.5Y-86.85
X66.5Y-136.85
X66.725Y-128.45
X67.7Y-128.45
X67.75Y-77.6
X68.0Y-65.6
X68.0Y-70.35
X68.5Y-84.1
X68.5Y-84.85
X68.5Y-85.6
X68.5Y-86.35
X68.5Y-87.1
X68.675Y-128.45
X68.75Y-101.6
X69.25Y-76.85
X69.325Y-129.1
X69.5Y-69.6
X70.0Y-84.85
X70.0Y-101.6
X70.0Y-118.85
X70.013Y-126.337
X70.5Y-124.1
X70.5Y-132.6
X70.5Y-134.85
X70.5Y-137.35
X70.75Y-76.1
X70.75Y-85.6
X71.0Y-68.85
X71.0Y-102.6
X71.0Y-114.85
X71.25Y-125.35
X71.5Y-86.35
X71.75Y-130.85
X72.0Y-146.1
X72.0Y-147.1
X72.25Y-75.35
X72.25Y-87.1
X72.25Y-134.6
X72.25Y-142.85
X72.5Y-68.1
X72.5Y-128.35
X72.575Y-119.35
X73.0Y-145.6
X73.0Y-146.6
X73.0Y-147.6
X73.225Y-118.7
X74.0Y-67.35
X74.2Y-118.7
X75.175Y-118.7
X75.5Y-66.6
X76.0Y-97.35
X76.475Y-118.7
X76.75Y-97.35
X77.0Y-65.85
X77.45Y-118.7
X77.5Y-97.35
X77.75Y-93.35
X78.0Y-107.35
X78.0Y-146.1
X78.0Y-147.1
X78.25Y-97.35
X78.25Y-98.1
X78.425Y-118.7
X78.5Y-65.1
X78.5Y-93.35
X79.0Y-98.1
X79.0Y-98.85
X79.0Y-99.6
X79.075Y-119.35
X79.25Y-93.35
X79.75Y-74.6
X80.0Y-64.35
X80.0Y-93.35
X80.5Y-73.6
X80.5Y-118.1
X80.75Y-93.35
X80.75Y-134.85
X81.0Y-120.85
X81.0Y-127.35
X81.25Y-74.6
X81.25Y-124.35
X81.5Y-63.6
X81.5Y-66.6
X81.5Y-93.35
X81.75Y-141.85
X82.0Y-120.6
X82.25Y-65.85
X82.25Y-87.6
X82.25Y-93.35
X82.325Y-129.1
X82.5Y-86.1
X82.75Y-73.85
X82.975Y-128.45
X83.0Y-62.85
X83.0Y-65.1
X83.0Y-93.35
X83.0Y-102.35
X83.0Y-104.1
X83.0Y-104.85
X83.0Y-127.6
X83.0Y-146.1
X83.0Y-147.1
X83.75Y-64.35
X83.75Y-104.85
X83.75Y-105.6
X83.95Y-128.45
X84.0Y-84.35
X84.0Y-87.35
X84.25Y-73.1
X84.25Y-102.85
X84.5Y-62.1
X84.5Y-63.6
X84.5Y-105.6
X84.5Y-106.35
X84.75Y-81.6
X84.925Y-128.45
X85.0Y-76.85
X85.0Y-77.6
X85.0Y-78.35
X85.0Y-79.1
X85.0Y-102.85
X85.25Y-62.85
X85.25Y-106.35
X85.5Y-81.6
X85.75Y-72.35
X85.75Y-76.1
X85.75Y-79.1
X85.75Y-79.85
X85.75Y-102.85
X86.0Y-62.1
X86.225Y-128.45
X86.25Y-81.6
X86.5Y-75.35
X86.5Y-102.85
X87.0Y-81.6
X87.2Y-128.45
X87.25Y-71.6
X87.25Y-74.6
X87.25Y-102.85
X87.5Y-98.85
X87.75Y-81.6
X88.0Y-71.6
X88.0Y-73.85
X88.0Y-74.6
X88.0Y-102.85
X88.0Y-146.1
X88.0Y-147.1
X88.175Y-128.45
X88.25Y-86.85
X88.5Y-81.6
X88.75Y-71.6
X88.75Y-73.1
X88.75Y-73.85
X88.75Y-102.85
X88.825Y-129.1
X89.2Y-65.8
X89.25Y-81.6
X89.5Y-72.35
X89.5Y-73.1
X90.0Y-81.6
X90.0Y-123.1
X90.25Y-125.1
X90.25Y-134.1
X90.75Y-81.6
X90.75Y-128.35
X90.987Y-116.587
X91.25Y-124.1
X91.5Y-81.6
X91.5Y-108.35
X92.0Y-128.35
X92.075Y-119.35
X92.25Y-82.1
X92.725Y-118.7
X93.0Y-82.1
X93.0Y-82.85
X93.0Y-146.1
X93.0Y-147.1
X93.25Y-85.1
X93.25Y-85.85
X93.25Y-86.6
X93.25Y-87.35
X93.5Y-102.35
X93.7Y-118.7
X93.75Y-82.85
X93.75Y-83.6
X94.5Y-83.6
X94.5Y-98.85
X94.675Y-118.7
X94.75Y-70.35
X94.75Y-85.1
X95.0Y-69.35
X95.25Y-80.35
X95.5Y-85.85
X95.75Y-101.85
X95.975Y-118.7
X96.0Y-77.35
X96.25Y-86.6
X96.75Y-65.85
X96.95Y-118.7
X97.0Y-87.35
X97.5Y-65.85
X97.5Y-81.35
X97.925Y-118.7
X98.0Y-146.1
X98.0Y-147.1
X98.25Y-65.85
X98.25Y-81.35
X98.25Y-82.1
X98.5Y-99.6
X98.575Y-119.35
X98.75Y-94.85
X99.0Y-65.85
X99.0Y-82.1
X99.0Y-82.85
X99.25Y-99.6
X99.25Y-116.375
X99.5Y-76.1
X99.5Y-131.1
X99.75Y-82.85
X99.75Y-83.6
X99.75Y-95.1
X99.75Y-95.85
X100.0Y-65.85
X100.0Y-99.6
X100.25Y-134.85
X100.5Y-83.6
X100.5Y-95.85
X100.5Y-96.6
X100.5Y-113.85
X100.5Y-121.1
X100.75Y-100.1
X101.0Y-65.85
X101.0Y-125.375
X101.25Y-90.85
X101.25Y-96.6
X101.825Y-129.1
X102.0Y-65.85
X102.0Y-96.6
X102.0Y-97.35
X102.475Y-128.45
X102.5Y-90.85
X102.5Y-127.6
X102.75Y-65.85
X103.0Y-146.1
X103.0Y-147.1
X103.45Y-128.45
X103.5Y-65.85
X103.5Y-101.85
X104.25Y-65.85
X104.25Y-82.85
X104.25Y-103.1
X104.425Y-128.45
X105.0Y-103.1
X105.25Y-77.1
X105.725Y-128.45
X105.75Y-103.1
X106.0Y-65.85
X106.25Y-76.35
X106.5Y-103.1
X106.7Y-128.45
X106.75Y-96.6
X107.25Y-76.35
X107.25Y-103.1
X107.5Y-96.6
X107.5Y-97.35
X107.675Y-128.45
X108.0Y-86.6
X108.0Y-103.1
X108.0Y-146.1
X108.0Y-147.1
X108.25Y-76.35
X108.25Y-97.35
X108.325Y-129.1
X108.5Y-98.85
X108.75Y-103.1
X108.75Y-103.85
X109.0Y-119.35
X109.25Y-76.35
X109.25Y-98.85
X109.5Y-103.85
X109.5Y-125.325
X109.5Y-132.6
X110.0Y-98.85
X110.0Y-116.1
X110.0Y-123.1
X110.0Y-135.6
X110.25Y-76.35
X110.25Y-103.85
X110.25Y-104.6
X110.75Y-67.1
X110.75Y-98.85
X111.0Y-104.6
X111.5Y-98.85
X111.575Y-119.35
X111.75Y-104.6
X112.066Y-117.916
X112.225Y-118.7
X112.25Y-98.85
X112.5Y-104.6
X112.5Y-105.35
X112.75Y-67.6
X112.75Y-101.6
X113.0Y-98.85
X113.0Y-146.1
X113.0Y-147.1
X113.2Y-118.7
X113.25Y-105.35
X113.75Y-98.85
X114.0Y-101.6
X114.0Y-105.35
X114.0Y-106.1
X114.175Y-118.7
X114.5Y-98.85
X114.75Y-85.6
X114.75Y-106.1
X114.75Y-106.85
X114.8Y-68.2
X115.475Y-118.7
X115.5Y-85.6
X115.5Y-106.85
X115.5Y-107.6
X116.25Y-98.85
X116.45Y-118.7
X116.5Y-107.35
X116.5Y-108.1
X116.75Y-83.35
X116.75Y-84.1
X116.75Y-84.85
X116.75Y-85.6
X117.2Y-65.8
X117.25Y-108.1
X117.25Y-108.85
X117.425Y-118.7
X118.0Y-108.85
X118.0Y-109.6
X118.075Y-119.35
X118.25Y-67.6
X118.75Y-83.35
X118.75Y-98.85
X118.75Y-109.6
X118.75Y-110.35
X119.25Y-137.1
X119.487Y-117.362
X119.5Y-84.1
X119.5Y-110.35
X120.0Y-128.6
X120.25Y-84.85
X120.25Y-97.85
X120.25Y-111.1
X120.5Y-85.6
X120.75Y-110.1
X120.75Y-140.1
X121.0Y-98.6
X121.0Y-111.1
X121.25Y-109.1
X121.5Y-110.1
X121.5Y-112.85
X121.5Y-113.6
X121.5Y-114.35
X121.5Y-115.1
X121.5Y-115.85
X121.5Y-116.6
X121.5Y-117.35
X122.0Y-67.4
X122.0Y-99.1
X122.0Y-108.35
X122.0Y-109.1
X122.0Y-131.6
X122.5Y-142.6
X122.75Y-107.6
X122.75Y-108.35
X123.0Y-112.85
X123.5Y-107.6
X123.5Y-142.6
X123.75Y-112.85
X124.0Y-132.6
X124.25Y-90.85
X124.5Y-112.85
X124.5Y-142.6
X124.75Y-107.35
X124.75Y-108.1
X125.25Y-112.85
X125.5Y-106.6
X125.5Y-107.35
X125.5Y-142.6
X126.0Y-112.85
X126.0Y-113.6
X126.25Y-105.85
X126.25Y-106.6
X126.25Y-120.85
X126.5Y-142.6
X126.75Y-94.85
X126.75Y-113.6
X127.0Y-105.1
X127.0Y-105.85
X127.25Y-133.35
X127.5Y-126.85
X127.5Y-142.6
X127.75Y-77.1
X127.75Y-104.35
X127.75Y-105.1
X128.25Y-129.6
X128.5Y-104.35
X128.5Y-142.6
X129.25Y-104.35
X129.5Y-142.6
X129.75Y-113.6
X130.0Y-104.35
X130.5Y-142.6
X130.75Y-104.35
X131.25Y-85.6
X131.5Y-104.35
X131.5Y-142.6
X132.25Y-76.6
X132.25Y-104.35
X133.0Y-104.35
X133.0Y-119.85
X133.0Y-145.6
X133.0Y-146.6
X133.0Y-147.6
X133.25Y-65.85
X133.5Y-94.85
X133.75Y-97.85
X133.75Y-104.35
X133.75Y-117.1
X134.0Y-76.85
X134.25Y-65.85
X134.25Y-98.35
X134.5Y-104.35
X134.75Y-85.6
X135.25Y-104.35
X135.5Y-121.6
X135.5Y-136.35
X136.0Y-104.35
X136.25Y-122.85
X136.75Y-104.35
X137.0Y-123.85
X137.5Y-76.35
X137.5Y-91.1
X137.5Y-105.1
X137.75Y-101.85
X138.0Y-145.6
X138.0Y-146.35
X138.0Y-147.1
X138.25Y-105.1
X138.5Y-62.85
X138.5Y-76.35
X139.0Y-105.1
X139.25Y-65.1
X139.5Y-76.35
X139.75Y-105.85
X139.75Y-140.35
X140.0Y-104.1
X140.5Y-76.35
X140.5Y-105.85
X140.75Y-104.35
X141.0Y-103.1
X141.25Y-84.85
X141.5Y-76.35
X141.5Y-104.85
X141.75Y-103.6
X142.0Y-66.6
X142.0Y-101.85
X142.25Y-129.85
X142.5Y-96.85
X142.5Y-103.85
X142.75Y-102.35
X143.25Y-126.85
X143.5Y-102.6
X143.75Y-132.85
X144.0Y-77.1
X144.25Y-101.6
X144.25Y-102.85
X144.4Y-67.4
X144.5Y-130.85
X145.0Y-101.85
X145.2Y-62.6
X145.25Y-76.6
X145.5Y-83.1
X145.75Y-101.85
X146.0Y-67.1
X146.0Y-115.1
X146.5Y-101.6
X146.75Y-84.1
X147.25Y-133.85
X147.6Y-68.2
X147.75Y-101.1
X148.5Y-100.1
X148.5Y-100.85
X149.0Y-82.85
X149.25Y-99.35
X149.25Y-100.1
X149.5Y-62.35
X149.5Y-67.1
X150.0Y-98.6
X150.0Y-99.35
X150.0Y-146.6
X150.5Y-84.1
X150.75Y-97.85
X150.75Y-98.6
X151.0Y-93.85
X151.5Y-97.1
X151.5Y-97.85
X151.5Y-119.6
X152.0Y-95.1
X152.25Y-97.1
X153.0Y-84.6
X153.25Y-67.1
X153.25Y-116.85
X153.5Y-122.35
X153.75Y-84.6
X154.5Y-84.6
X154.5Y-132.1
X154.8Y-115.4
X155.0Y-146.6
X155.25Y-84.6
X155.6Y-63.4
X156.0Y-84.6
X156.25Y-93.35
X156.25Y-122.85
X156.75Y-84.6
X156.75Y-92.85
X157.25Y-92.35
X157.5Y-84.6
X157.75Y-91.85
X158.25Y-84.6
X158.25Y-91.35
X158.5Y-62.35
X158.75Y-76.85
X158.75Y-90.85
X159.25Y-90.35
X159.75Y-89.85
X160.0Y-146.6
X161.75Y-76.85
X162.0Y-84.6
X162.0Y-129.85
X162.75Y-84.6
X162.75Y-126.6
X162.75Y-132.6
X163.5Y-84.6
X163.75Y-69.35
X163.75Y-133.35
X164.0Y-123.6
X164.25Y-84.6
X164.4Y-61.8
X164.5Y-69.35
X164.5Y-122.35
X164.5Y-125.1
X164.75Y-115.85
X165.0Y-84.6
X165.0Y-146.35
X165.25Y-69.35
X165.25Y-124.6
X165.75Y-76.85
X165.75Y-84.6
X166.0Y-65.85
X166.0Y-69.35
X166.5Y-84.6
X166.8Y-65.8
X167.0Y-102.1
X167.25Y-62.1
X167.25Y-84.6
X167.75Y-74.1
X168.0Y-69.1
X168.5Y-74.1
X168.75Y-69.1
X169.25Y-74.1
X169.25Y-74.85
X169.5Y-69.1
X169.5Y-82.6
X169.5Y-101.85
X170.0Y-74.85
X170.0Y-75.6
X170.0Y-76.35
X170.0Y-77.1
X170.0Y-146.6
X170.25Y-69.1
X170.75Y-65.85
X171.0Y-75.1
X171.0Y-76.6
X171.0Y-119.6
X171.75Y-65.1
X171.75Y-75.1
X172.0Y-101.85
X172.5Y-75.1
X172.75Y-117.1
X173.0Y-122.6
X173.25Y-75.1
X173.75Y-142.35
X174.0Y-75.1
X174.5Y-132.35
X175.0Y-145.1
X175.0Y-146.1
X175.0Y-147.1
X175.6Y-63.4
X175.6Y-68.2
X175.75Y-122.6
X176.0Y-145.6
X176.0Y-146.6
X176.75Y-66.85
X177.75Y-62.6
X178.5Y-104.35
X180.25Y-66.85
X180.75Y-145.85
X181.25Y-129.6
X182.25Y-126.85
X182.5Y-69.6
X182.8Y-66.6
X183.0Y-133.35
X184.25Y-114.1
X184.4Y-62.6
X184.5Y-79.35
X185.25Y-79.35
X185.25Y-131.1
X185.75Y-66.85
X185.75Y-126.35
X186.0Y-79.35
X186.0Y-88.85
X186.0Y-146.85
X186.25Y-70.85
X186.75Y-79.35
X186.75Y-88.1
X186.75Y-88.85
X187.0Y-137.35
X187.5Y-79.35
X187.5Y-87.35
X187.5Y-88.1
X188.0Y-108.6
X188.25Y-79.35
X188.25Y-86.6
X188.25Y-87.35
X188.4Y-68.2
X189.0Y-79.35
X189.0Y-86.6
X189.75Y-62.35
X189.75Y-79.35
X190.0Y-70.6
X190.5Y-119.85
X190.75Y-74.35
X191.0Y-147.35
X191.5Y-83.1
X191.5Y-83.85
X191.75Y-117.1
X192.25Y-82.35
X192.25Y-83.1
X193.0Y-81.6
X193.0Y-82.35
X193.0Y-122.85
X193.75Y-80.85
X193.75Y-81.6
X194.0Y-115.85
X194.0Y-132.6
X194.25Y-121.6
X194.75Y-124.85
X195.25Y-70.6
X195.25Y-71.35
X195.25Y-72.1
X195.25Y-72.85
X195.25Y-73.6
X195.25Y-74.35
X195.25Y-75.1
X195.25Y-75.85
X195.75Y-116.6
X196.0Y-146.85
X196.75Y-120.1
X197.0Y-110.6
X197.75Y-83.1
X197.75Y-83.85
X198.25Y-80.6
X198.5Y-83.85
X198.75Y-62.1
X198.75Y-69.35
X199.25Y-65.85
X199.25Y-83.85
X199.25Y-84.6
X199.25Y-85.35
X200.0Y-85.35
X200.75Y-85.35
X201.0Y-129.6
X201.0Y-146.85
X201.25Y-75.35
X202.25Y-126.85
X202.75Y-113.6
X203.5Y-112.85
X203.5Y-113.6
X203.5Y-132.35
X204.0Y-73.6
X204.0Y-74.35
X204.0Y-75.1
X204.0Y-75.85
X204.0Y-76.6
X204.25Y-112.1
X204.25Y-112.85
X204.25Y-115.35
X204.25Y-122.6
X204.75Y-65.1
X205.0Y-111.35
X205.0Y-112.1
X205.25Y-62.35
X205.5Y-69.6
X205.75Y-110.6
X205.75Y-111.35
X206.0Y-146.6
X206.25Y-131.6
X206.5Y-109.85
X206.5Y-110.6
X207.0Y-81.1
X207.0Y-81.85
X207.0Y-82.6
X207.0Y-83.35
X207.0Y-84.1
X207.0Y-84.85
X207.0Y-85.6
X207.0Y-86.35
X207.0Y-88.6
X207.0Y-89.35
X207.0Y-90.1
X207.0Y-90.85
X207.0Y-91.6
X207.0Y-92.35
X207.0Y-93.1
X207.0Y-93.85
X207.0Y-94.6
X207.0Y-95.35
X207.0Y-96.1
X207.0Y-96.85
X207.0Y-97.6
X207.0Y-98.35
X207.0Y-99.1
X207.0Y-99.85
X207.0Y-100.6
X207.0Y-101.35
X207.0Y-102.1
X207.0Y-102.85
X207.0Y-103.6
X207.0Y-104.35
X207.0Y-105.1
X207.0Y-105.85
X207.25Y-109.1
X207.25Y-109.85
X207.5Y-73.35
X208.0Y-108.35
X208.0Y-109.1
X208.25Y-123.85
X208.5Y-128.6
X208.75Y-108.35
X209.0Y-63.35
X209.0Y-67.6
X209.45Y-116.0
X209.5Y-85.1
X209.75Y-97.6
X209.75Y-119.35
X210.5Y-81.1
X211.0Y-146.85
X211.5Y-120.85
X211.5Y-137.85
X211.75Y-131.35
X212.0Y-75.1
X212.25Y-125.6
X212.5Y-70.6
X213.75Y-65.85
X214.0Y-111.35
X214.5Y-62.85
M30
