%TF.GenerationSoftware,KiCad,Pcbnew,9.0.2+dfsg-1*%
%TF.CreationDate,2026-06-18T21:09:38+01:00*%
%TF.ProjectId,RegisterFile,52656769-7374-4657-9246-696c652e6b69,0.8*%
%TF.SameCoordinates,Original*%
%TF.FileFunction,Drillmap*%
%TF.FilePolarity,Positive*%
%FSLAX45Y45*%
G04 Gerber Fmt 4.5, Leading zero omitted, Abs format (unit mm)*
G04 Created by KiCad (PCBNEW 9.0.2+dfsg-1) date 2026-06-18 21:09:38*
%MOMM*%
%LPD*%
G01*
G04 APERTURE LIST*
%ADD10C,0.050000*%
%ADD11C,0.100000*%
%ADD12C,0.200000*%
G04 APERTURE END LIST*
D10*
X21665000Y-6060000D02*
X2935000Y-6060000D01*
X13135000Y-14465000D02*
X11465000Y-14465000D01*
X11365000Y-14565000D02*
G75*
G02*
X11465000Y-14465000I100000J0D01*
G01*
X21665000Y-14565000D02*
X21665000Y-6060000D01*
X13135000Y-14465000D02*
G75*
G02*
X13235000Y-14565000I0J-100000D01*
G01*
X2935000Y-14565000D02*
X2935000Y-6060000D01*
D11*
X2935000Y-14565000D02*
X2935000Y-15355000D01*
X2935000Y-15355000D02*
X2985000Y-15405000D01*
X2985000Y-15405000D02*
X4005000Y-15405000D01*
X4055000Y-14660000D02*
X4055000Y-15355000D01*
X4055000Y-15355000D02*
X4005000Y-15405000D01*
X4245000Y-14660000D02*
X4245000Y-15355000D01*
X4245000Y-15355000D02*
X4295000Y-15405000D01*
X4295000Y-15405000D02*
X11315000Y-15405000D01*
X11365000Y-14565000D02*
X11365000Y-15355000D01*
X11365000Y-15355000D02*
X11315000Y-15405000D01*
X4055000Y-14660000D02*
G75*
G02*
X4245000Y-14660000I95000J0D01*
G01*
X13235000Y-14565000D02*
X13235000Y-15355000D01*
X13235000Y-15355000D02*
X13285000Y-15405000D01*
X13285000Y-15405000D02*
X14305000Y-15405000D01*
X14355000Y-14660000D02*
X14355000Y-15355000D01*
X14355000Y-15355000D02*
X14305000Y-15405000D01*
X14545000Y-14660000D02*
X14545000Y-15355000D01*
X14545000Y-15355000D02*
X14595000Y-15405000D01*
X14595000Y-15405000D02*
X21615000Y-15405000D01*
X21665000Y-14565000D02*
X21665000Y-15355000D01*
X21665000Y-15355000D02*
X21615000Y-15405000D01*
X14355000Y-14660000D02*
G75*
G02*
X14545000Y-14660000I95000J0D01*
G01*
D12*
X3190777Y-15721484D02*
X3190777Y-15521484D01*
X3190777Y-15521484D02*
X3238396Y-15521484D01*
X3238396Y-15521484D02*
X3266967Y-15531008D01*
X3266967Y-15531008D02*
X3286015Y-15550055D01*
X3286015Y-15550055D02*
X3295539Y-15569103D01*
X3295539Y-15569103D02*
X3305062Y-15607198D01*
X3305062Y-15607198D02*
X3305062Y-15635769D01*
X3305062Y-15635769D02*
X3295539Y-15673865D01*
X3295539Y-15673865D02*
X3286015Y-15692912D01*
X3286015Y-15692912D02*
X3266967Y-15711960D01*
X3266967Y-15711960D02*
X3238396Y-15721484D01*
X3238396Y-15721484D02*
X3190777Y-15721484D01*
X3390777Y-15721484D02*
X3390777Y-15588150D01*
X3390777Y-15626246D02*
X3400301Y-15607198D01*
X3400301Y-15607198D02*
X3409824Y-15597674D01*
X3409824Y-15597674D02*
X3428872Y-15588150D01*
X3428872Y-15588150D02*
X3447920Y-15588150D01*
X3514586Y-15721484D02*
X3514586Y-15588150D01*
X3514586Y-15521484D02*
X3505062Y-15531008D01*
X3505062Y-15531008D02*
X3514586Y-15540531D01*
X3514586Y-15540531D02*
X3524110Y-15531008D01*
X3524110Y-15531008D02*
X3514586Y-15521484D01*
X3514586Y-15521484D02*
X3514586Y-15540531D01*
X3638396Y-15721484D02*
X3619348Y-15711960D01*
X3619348Y-15711960D02*
X3609824Y-15692912D01*
X3609824Y-15692912D02*
X3609824Y-15521484D01*
X3743158Y-15721484D02*
X3724110Y-15711960D01*
X3724110Y-15711960D02*
X3714586Y-15692912D01*
X3714586Y-15692912D02*
X3714586Y-15521484D01*
X3971729Y-15721484D02*
X3971729Y-15521484D01*
X3971729Y-15521484D02*
X4038396Y-15664341D01*
X4038396Y-15664341D02*
X4105062Y-15521484D01*
X4105062Y-15521484D02*
X4105062Y-15721484D01*
X4286015Y-15721484D02*
X4286015Y-15616722D01*
X4286015Y-15616722D02*
X4276491Y-15597674D01*
X4276491Y-15597674D02*
X4257444Y-15588150D01*
X4257444Y-15588150D02*
X4219348Y-15588150D01*
X4219348Y-15588150D02*
X4200301Y-15597674D01*
X4286015Y-15711960D02*
X4266967Y-15721484D01*
X4266967Y-15721484D02*
X4219348Y-15721484D01*
X4219348Y-15721484D02*
X4200301Y-15711960D01*
X4200301Y-15711960D02*
X4190777Y-15692912D01*
X4190777Y-15692912D02*
X4190777Y-15673865D01*
X4190777Y-15673865D02*
X4200301Y-15654817D01*
X4200301Y-15654817D02*
X4219348Y-15645293D01*
X4219348Y-15645293D02*
X4266967Y-15645293D01*
X4266967Y-15645293D02*
X4286015Y-15635769D01*
X4381253Y-15588150D02*
X4381253Y-15788150D01*
X4381253Y-15597674D02*
X4400301Y-15588150D01*
X4400301Y-15588150D02*
X4438396Y-15588150D01*
X4438396Y-15588150D02*
X4457444Y-15597674D01*
X4457444Y-15597674D02*
X4466967Y-15607198D01*
X4466967Y-15607198D02*
X4476491Y-15626246D01*
X4476491Y-15626246D02*
X4476491Y-15683388D01*
X4476491Y-15683388D02*
X4466967Y-15702436D01*
X4466967Y-15702436D02*
X4457444Y-15711960D01*
X4457444Y-15711960D02*
X4438396Y-15721484D01*
X4438396Y-15721484D02*
X4400301Y-15721484D01*
X4400301Y-15721484D02*
X4381253Y-15711960D01*
X4562205Y-15702436D02*
X4571729Y-15711960D01*
X4571729Y-15711960D02*
X4562205Y-15721484D01*
X4562205Y-15721484D02*
X4552682Y-15711960D01*
X4552682Y-15711960D02*
X4562205Y-15702436D01*
X4562205Y-15702436D02*
X4562205Y-15721484D01*
X4562205Y-15597674D02*
X4571729Y-15607198D01*
X4571729Y-15607198D02*
X4562205Y-15616722D01*
X4562205Y-15616722D02*
X4552682Y-15607198D01*
X4552682Y-15607198D02*
X4562205Y-15597674D01*
X4562205Y-15597674D02*
X4562205Y-15616722D01*
M02*
